<svg width="73" height="24" viewBox="0 0 73 24" fill="none" xmlns="http://www.w3.org/2000/svg">
<path d="M47.3891 2.00996C45.3086 1.05745 43.1122 0.381713 40.8561 0C40.5474 0.551901 40.268 1.11973 40.0192 1.70112C37.616 1.33898 35.1721 1.33898 32.7689 1.70112C32.52 1.11979 32.2406 0.551968 31.932 0C29.6745 0.384937 27.4767 1.06228 25.3941 2.01494C21.2596 8.132 20.1388 14.0971 20.6992 19.9776C23.1204 21.7665 25.8305 23.127 28.7116 24C29.3604 23.1275 29.9344 22.2018 30.4277 21.2329C29.4908 20.883 28.5865 20.4512 27.7253 19.9427C27.952 19.7783 28.1736 19.609 28.3878 19.4446C30.8937 20.623 33.6287 21.234 36.3978 21.234C39.1669 21.234 41.9019 20.623 44.4078 19.4446C44.6244 19.6214 44.8461 19.7908 45.0703 19.9427C44.2074 20.4521 43.3015 20.8846 42.3629 21.2354C42.8556 22.2039 43.4297 23.1287 44.079 24C46.9626 23.1305 49.6747 21.7707 52.0964 19.9801C52.754 13.1606 50.9731 7.25031 47.3891 2.00996ZM31.1375 16.3611C29.5759 16.3611 28.2857 14.944 28.2857 13.2005C28.2857 11.457 29.531 10.0274 31.1325 10.0274C32.734 10.0274 34.0142 11.457 33.9868 13.2005C33.9594 14.944 32.7291 16.3611 31.1375 16.3611ZM41.6581 16.3611C40.0939 16.3611 38.8088 14.944 38.8088 13.2005C38.8088 11.457 40.0541 10.0274 41.6581 10.0274C43.2621 10.0274 44.5323 11.457 44.5049 13.2005C44.4775 14.944 43.2496 16.3611 41.6581 16.3611Z" fill="white"/>
</svg>
