<svg width="53" height="44" viewBox="0 0 53 44" fill="none" xmlns="http://www.w3.org/2000/svg">
<path d="M37.3891 12.01C35.3086 11.0575 33.1122 10.3817 30.8561 10C30.5474 10.5519 30.268 11.1197 30.0192 11.7011C27.616 11.339 25.1721 11.339 22.7689 11.7011C22.52 11.1198 22.2406 10.552 21.932 10C19.6745 10.3849 17.4767 11.0623 15.3941 12.0149C11.2596 18.132 10.1388 24.0971 10.6992 29.9776C13.1204 31.7665 15.8305 33.127 18.7116 34C19.3604 33.1275 19.9344 32.2018 20.4277 31.2329C19.4908 30.883 18.5865 30.4512 17.7253 29.9427C17.952 29.7783 18.1736 29.609 18.3878 29.4446C20.8937 30.623 23.6287 31.234 26.3978 31.234C29.1669 31.234 31.9019 30.623 34.4078 29.4446C34.6244 29.6214 34.8461 29.7908 35.0703 29.9427C34.2074 30.4521 33.3015 30.8846 32.3629 31.2354C32.8556 32.2039 33.4297 33.1287 34.079 34C36.9626 33.1305 39.6747 31.7707 42.0964 29.9801C42.754 23.1606 40.9731 17.2503 37.3891 12.01ZM21.1375 26.3611C19.5759 26.3611 18.2857 24.944 18.2857 23.2005C18.2857 21.457 19.531 20.0274 21.1325 20.0274C22.734 20.0274 24.0142 21.457 23.9868 23.2005C23.9594 24.944 22.7291 26.3611 21.1375 26.3611ZM31.6581 26.3611C30.0939 26.3611 28.8088 24.944 28.8088 23.2005C28.8088 21.457 30.0541 20.0274 31.6581 20.0274C33.2621 20.0274 34.5323 21.457 34.5049 23.2005C34.4775 24.944 33.2496 26.3611 31.6581 26.3611Z" fill="white"/>
</svg>
