<svg width="33" height="24" viewBox="0 0 33 24" fill="none" xmlns="http://www.w3.org/2000/svg">
<path d="M27.4308 2.00996C25.3503 1.05745 23.154 0.381713 20.8978 0C20.5891 0.551901 20.3098 1.11973 20.061 1.70112C17.6578 1.33898 15.2139 1.33898 12.8107 1.70112C12.5617 1.11979 12.2824 0.551968 11.9738 0C9.71623 0.384937 7.51841 1.06228 5.43581 2.01494C1.30132 8.132 0.180519 14.0971 0.740917 19.9776C3.16218 21.7665 5.87227 23.127 8.75337 24C9.40211 23.1275 9.97616 22.2018 10.4694 21.2329C9.53253 20.883 8.62825 20.4512 7.76707 19.9427C7.99372 19.7783 8.21539 19.609 8.42958 19.4446C10.9354 20.623 13.6704 21.234 16.4395 21.234C19.2087 21.234 21.9437 20.623 24.4495 19.4446C24.6662 19.6214 24.8879 19.7908 25.112 19.9427C24.2492 20.4521 23.3432 20.8846 22.4047 21.2354C22.8973 22.2039 23.4714 23.1287 24.1207 24C27.0043 23.1305 29.7165 21.7707 32.1382 19.9801C32.7957 13.1606 31.0149 7.25031 27.4308 2.00996ZM11.1793 16.3611C9.61763 16.3611 8.32747 14.944 8.32747 13.2005C8.32747 11.457 9.5728 10.0274 11.1743 10.0274C12.7758 10.0274 14.056 11.457 14.0286 13.2005C14.0012 14.944 12.7708 16.3611 11.1793 16.3611ZM21.6998 16.3611C20.1357 16.3611 18.8505 14.944 18.8505 13.2005C18.8505 11.457 20.0958 10.0274 21.6998 10.0274C23.3038 10.0274 24.574 11.457 24.5466 13.2005C24.5192 14.944 23.2914 16.3611 21.6998 16.3611Z" fill="white"/>
</svg>
