<svg width="260" height="135" viewBox="0 0 260 135" fill="none" xmlns="http://www.w3.org/2000/svg">
<g filter="url(#filter0_d_560_236)">
<rect x="25" y="25" width="210" height="85" rx="10" fill="#5865F2" shape-rendering="crispEdges"/>
<path d="M71.4753 82.6C69.462 82.6 67.7353 82.1 66.2953 81.1C64.8553 80.0867 63.742 78.72 62.9553 77C62.182 75.28 61.7953 73.34 61.7953 71.18C61.7953 69.02 62.182 67.08 62.9553 65.36C63.742 63.64 64.8553 62.2867 66.2953 61.3C67.7353 60.3 69.4553 59.8 71.4553 59.8C73.4953 59.8 75.2086 60.2933 76.5953 61.28C77.982 62.2667 79.0286 63.62 79.7353 65.34C80.4553 67.06 80.8153 69.0067 80.8153 71.18C80.8153 73.3267 80.4553 75.2667 79.7353 77C79.0286 78.72 77.982 80.0867 76.5953 81.1C75.2086 82.1 73.502 82.6 71.4753 82.6ZM71.9153 79.34C73.3686 79.34 74.562 78.9933 75.4953 78.3C76.4286 77.5933 77.1153 76.6267 77.5553 75.4C78.0086 74.16 78.2353 72.7533 78.2353 71.18C78.2353 69.58 78.0086 68.1733 77.5553 66.96C77.1153 65.7333 76.4353 64.78 75.5153 64.1C74.5953 63.4067 73.4286 63.06 72.0153 63.06C70.5486 63.06 69.3353 63.42 68.3753 64.14C67.4286 64.86 66.722 65.8333 66.2553 67.06C65.802 68.2867 65.5753 69.66 65.5753 71.18C65.5753 72.7133 65.8086 74.1 66.2753 75.34C66.742 76.5667 67.442 77.54 68.3753 78.26C69.322 78.98 70.502 79.34 71.9153 79.34ZM78.2353 82V66.1H77.8353V53.2H81.4153V82H78.2353ZM87.4188 56.58V52.9H90.9788V56.58H87.4188ZM87.4188 82V60.4H90.9788V82H87.4188ZM105.14 82.58C102.566 82.58 100.453 82.02 98.7997 80.9C97.1597 79.7667 96.153 78.1867 95.7797 76.16L99.4197 75.58C99.713 76.7533 100.386 77.6867 101.44 78.38C102.493 79.06 103.8 79.4 105.36 79.4C106.84 79.4 108 79.0933 108.84 78.48C109.68 77.8667 110.1 77.0333 110.1 75.98C110.1 75.3667 109.96 74.8733 109.68 74.5C109.4 74.1133 108.82 73.7533 107.94 73.42C107.073 73.0867 105.76 72.6867 104 72.22C102.093 71.7133 100.593 71.1867 99.4997 70.64C98.4064 70.0933 97.6264 69.46 97.1597 68.74C96.693 68.02 96.4597 67.1467 96.4597 66.12C96.4597 64.8533 96.8064 63.7467 97.4997 62.8C98.193 61.84 99.1597 61.1 100.4 60.58C101.653 60.06 103.106 59.8 104.76 59.8C106.4 59.8 107.866 60.06 109.16 60.58C110.453 61.1 111.493 61.84 112.28 62.8C113.08 63.7467 113.553 64.8533 113.7 66.12L110.06 66.78C109.886 65.62 109.326 64.7067 108.38 64.04C107.446 63.3733 106.24 63.02 104.76 62.98C103.36 62.9267 102.22 63.1733 101.34 63.72C100.473 64.2667 100.04 65.0067 100.04 65.94C100.04 66.46 100.2 66.9067 100.52 67.28C100.853 67.6533 101.46 68.0067 102.34 68.34C103.233 68.6733 104.526 69.0533 106.22 69.48C108.126 69.96 109.626 70.4867 110.72 71.06C111.826 71.62 112.613 72.2867 113.08 73.06C113.546 73.82 113.78 74.76 113.78 75.88C113.78 77.96 113.013 79.6 111.48 80.8C109.946 81.9867 107.833 82.58 105.14 82.58ZM127.291 82.6C125.104 82.6 123.244 82.1133 121.711 81.14C120.191 80.1533 119.031 78.8 118.231 77.08C117.431 75.36 117.017 73.4 116.991 71.2C117.017 68.9467 117.437 66.9667 118.251 65.26C119.077 63.54 120.257 62.2 121.791 61.24C123.324 60.28 125.171 59.8 127.331 59.8C129.611 59.8 131.571 60.36 133.211 61.48C134.864 62.6 135.971 64.1333 136.531 66.08L133.011 67.14C132.557 65.8867 131.817 64.9133 130.791 64.22C129.777 63.5267 128.611 63.18 127.291 63.18C125.811 63.18 124.591 63.5267 123.631 64.22C122.671 64.9 121.957 65.8467 121.491 67.06C121.024 68.26 120.784 69.64 120.771 71.2C120.797 73.6 121.351 75.54 122.431 77.02C123.524 78.4867 125.144 79.22 127.291 79.22C128.704 79.22 129.877 78.9 130.811 78.26C131.744 77.6067 132.451 76.6667 132.931 75.44L136.531 76.38C135.784 78.3933 134.617 79.9333 133.031 81C131.444 82.0667 129.531 82.6 127.291 82.6ZM149.227 82.6C147.08 82.6 145.227 82.1133 143.667 81.14C142.12 80.1667 140.927 78.82 140.087 77.1C139.247 75.38 138.827 73.4067 138.827 71.18C138.827 68.9133 139.253 66.9267 140.107 65.22C140.96 63.5133 142.167 62.1867 143.727 61.24C145.287 60.28 147.12 59.8 149.227 59.8C151.387 59.8 153.247 60.2867 154.807 61.26C156.367 62.22 157.56 63.56 158.387 65.28C159.227 66.9867 159.647 68.9533 159.647 71.18C159.647 73.4333 159.227 75.42 158.387 77.14C157.547 78.8467 156.347 80.1867 154.787 81.16C153.227 82.12 151.373 82.6 149.227 82.6ZM149.227 79.22C151.467 79.22 153.133 78.4733 154.227 76.98C155.32 75.4867 155.867 73.5533 155.867 71.18C155.867 68.74 155.313 66.8 154.207 65.36C153.1 63.9067 151.44 63.18 149.227 63.18C147.72 63.18 146.48 63.52 145.507 64.2C144.533 64.88 143.807 65.82 143.327 67.02C142.847 68.22 142.607 69.6067 142.607 71.18C142.607 73.6067 143.167 75.5533 144.287 77.02C145.407 78.4867 147.053 79.22 149.227 79.22ZM164.05 82V60.4H167.23V65.62L166.71 64.94C166.963 64.2733 167.29 63.66 167.69 63.1C168.103 62.54 168.563 62.08 169.07 61.72C169.63 61.2667 170.263 60.92 170.97 60.68C171.677 60.44 172.397 60.3 173.13 60.26C173.863 60.2067 174.55 60.2533 175.19 60.4V63.74C174.443 63.54 173.623 63.4867 172.73 63.58C171.837 63.6733 171.01 64 170.25 64.56C169.557 65.0533 169.017 65.6533 168.63 66.36C168.257 67.0667 167.997 67.8333 167.85 68.66C167.703 69.4733 167.63 70.3067 167.63 71.16V82H164.05ZM187.061 82.6C185.048 82.6 183.321 82.1 181.881 81.1C180.441 80.0867 179.328 78.72 178.541 77C177.768 75.28 177.381 73.34 177.381 71.18C177.381 69.02 177.768 67.08 178.541 65.36C179.328 63.64 180.441 62.2867 181.881 61.3C183.321 60.3 185.041 59.8 187.041 59.8C189.081 59.8 190.795 60.2933 192.181 61.28C193.568 62.2667 194.615 63.62 195.321 65.34C196.041 67.06 196.401 69.0067 196.401 71.18C196.401 73.3267 196.041 75.2667 195.321 77C194.615 78.72 193.568 80.0867 192.181 81.1C190.795 82.1 189.088 82.6 187.061 82.6ZM187.501 79.34C188.955 79.34 190.148 78.9933 191.081 78.3C192.015 77.5933 192.701 76.6267 193.141 75.4C193.595 74.16 193.821 72.7533 193.821 71.18C193.821 69.58 193.595 68.1733 193.141 66.96C192.701 65.7333 192.021 64.78 191.101 64.1C190.181 63.4067 189.015 63.06 187.601 63.06C186.135 63.06 184.921 63.42 183.961 64.14C183.015 64.86 182.308 65.8333 181.841 67.06C181.388 68.2867 181.161 69.66 181.161 71.18C181.161 72.7133 181.395 74.1 181.861 75.34C182.328 76.5667 183.028 77.54 183.961 78.26C184.908 78.98 186.088 79.34 187.501 79.34ZM193.821 82V66.1H193.421V53.2H197.001V82H193.821Z" fill="white"/>
</g>
<defs>
<filter id="filter0_d_560_236" x="0" y="0" width="260" height="135" filterUnits="userSpaceOnUse" color-interpolation-filters="sRGB">
<feFlood flood-opacity="0" result="BackgroundImageFix"/>
<feColorMatrix in="SourceAlpha" type="matrix" values="0 0 0 0 0 0 0 0 0 0 0 0 0 0 0 0 0 0 127 0" result="hardAlpha"/>
<feOffset/>
<feGaussianBlur stdDeviation="12.5"/>
<feComposite in2="hardAlpha" operator="out"/>
<feColorMatrix type="matrix" values="0 0 0 0 0.345098 0 0 0 0 0.396078 0 0 0 0 0.94902 0 0 0 0.5 0"/>
<feBlend mode="normal" in2="BackgroundImageFix" result="effect1_dropShadow_560_236"/>
<feBlend mode="normal" in="SourceGraphic" in2="effect1_dropShadow_560_236" result="shape"/>
</filter>
</defs>
</svg>
