<svg width="74" height="74" viewBox="0 0 74 74" fill="none" xmlns="http://www.w3.org/2000/svg">
<rect opacity="0.75" x="0.292893" y="37" width="51.9117" height="51.9117" rx="1.1364" transform="rotate(-45 0.292893 37)" fill="#0E0C0A" stroke="#E5793B"/>
<path fill-rule="evenodd" clip-rule="evenodd" d="M38.4163 21.4167C38.4163 20.6343 37.7821 20 36.9997 20C36.2173 20 35.583 20.6343 35.583 21.4167V25.6667H33.458C31.7673 25.6667 30.1457 26.3383 28.9502 27.5339C27.7547 28.7294 27.083 30.3509 27.083 32.0417C27.083 33.7324 27.7547 35.3539 28.9502 36.5495C30.1457 37.745 31.7673 38.4167 33.458 38.4167H35.583V45.5H28.4997C27.7173 45.5 27.083 46.1343 27.083 46.9167C27.083 47.6991 27.7173 48.3333 28.4997 48.3333H35.583V52.5833C35.583 53.3657 36.2173 54 36.9997 54C37.7821 54 38.4163 53.3657 38.4163 52.5833V48.3333H40.5413C42.2321 48.3333 43.8536 47.6617 45.0491 46.4662C46.2447 45.2706 46.9163 43.6491 46.9163 41.9583C46.9163 40.2676 46.2447 38.6461 45.0491 37.4505C43.8536 36.255 42.2321 35.5833 40.5413 35.5833H38.4163V28.5H44.083C44.8654 28.5 45.4997 27.8657 45.4997 27.0833C45.4997 26.3009 44.8654 25.6667 44.083 25.6667H38.4163V21.4167ZM35.583 28.5H33.458C32.5187 28.5 31.6179 28.8732 30.9537 29.5373C30.2895 30.2015 29.9163 31.1024 29.9163 32.0417C29.9163 32.981 30.2895 33.8818 30.9537 34.546C31.6179 35.2102 32.5187 35.5833 33.458 35.5833H35.583V28.5ZM38.4163 38.4167V45.5H40.5413C41.4807 45.5 42.3815 45.1269 43.0457 44.4627C43.7099 43.7985 44.083 42.8977 44.083 41.9583C44.083 41.019 43.7099 40.1182 43.0457 39.454C42.3815 38.7898 41.4807 38.4167 40.5413 38.4167H38.4163Z" fill="white"/>
</svg>
