<svg width="74" height="74" viewBox="0 0 74 74" fill="none" xmlns="http://www.w3.org/2000/svg">
<rect opacity="0.75" x="0.292893" y="37" width="51.9117" height="51.9117" rx="1.1364" transform="rotate(-45 0.292893 37)" fill="#0E0C0A" stroke="#E5793B"/>
<path fill-rule="evenodd" clip-rule="evenodd" d="M38.3333 21.4167C38.3333 20.6343 37.6991 20 36.9167 20C36.1343 20 35.5 20.6343 35.5 21.4167V25.6667H33.375C31.6842 25.6667 30.0627 26.3383 28.8672 27.5339C27.6717 28.7294 27 30.3509 27 32.0417C27 33.7324 27.6717 35.3539 28.8672 36.5495C30.0627 37.745 31.6842 38.4167 33.375 38.4167H35.5V45.5H28.4167C27.6343 45.5 27 46.1343 27 46.9167C27 47.6991 27.6343 48.3333 28.4167 48.3333H35.5V52.5833C35.5 53.3657 36.1343 54 36.9167 54C37.6991 54 38.3333 53.3657 38.3333 52.5833V48.3333H40.4583C42.1491 48.3333 43.7706 47.6617 44.9661 46.4662C46.1617 45.2706 46.8333 43.6491 46.8333 41.9583C46.8333 40.2676 46.1617 38.6461 44.9661 37.4505C43.7706 36.255 42.1491 35.5833 40.4583 35.5833H38.3333V28.5H44C44.7824 28.5 45.4167 27.8657 45.4167 27.0833C45.4167 26.3009 44.7824 25.6667 44 25.6667H38.3333V21.4167ZM35.5 28.5H33.375C32.4357 28.5 31.5349 28.8732 30.8707 29.5373C30.2065 30.2015 29.8333 31.1024 29.8333 32.0417C29.8333 32.981 30.2065 33.8818 30.8707 34.546C31.5349 35.2102 32.4357 35.5833 33.375 35.5833H35.5V28.5ZM38.3333 38.4167V45.5H40.4583C41.3976 45.5 42.2985 45.1269 42.9627 44.4627C43.6269 43.7985 44 42.8977 44 41.9583C44 41.019 43.6269 40.1182 42.9627 39.454C42.2985 38.7898 41.3976 38.4167 40.4583 38.4167H38.3333Z" fill="white"/>
</svg>
