<svg width="76" height="76" viewBox="0 0 76 76" fill="none" xmlns="http://www.w3.org/2000/svg">
<rect opacity="0.75" x="0.585786" y="38" width="52.9117" height="52.9117" rx="1.6364" transform="rotate(-45 0.585786 38)" fill="#0E0C0A" stroke="#E5793B" stroke-width="2"/>
<path fill-rule="evenodd" clip-rule="evenodd" d="M54.3333 28.7563V46.5968C54.3333 48.8505 52.494 50.6898 50.2403 50.6898H26.4265C24.1728 50.6898 22.3335 48.8505 22.3335 46.5968V28.7365C22.3335 26.4828 24.1728 24.6436 26.4265 24.6436H50.2403C52.4854 24.6436 54.3193 26.4689 54.3332 28.7108C54.3336 28.726 54.3336 28.7412 54.3333 28.7563ZM24.6431 28.2092C24.8727 27.4419 25.5886 26.8761 26.4265 26.8761H50.2403C51.0782 26.8761 51.7942 27.442 52.0237 28.2093L38.3335 37.7924L24.6431 28.2092ZM24.566 30.8804V46.5968C24.566 47.6175 25.4058 48.4572 26.4265 48.4572H50.2403C51.261 48.4572 52.1008 47.6175 52.1008 46.5968V30.8805L38.9736 40.0695C38.5893 40.3385 38.0777 40.3385 37.6934 40.0695L24.566 30.8804Z" fill="white"/>
</svg>
