<svg width="74" height="74" viewBox="0 0 74 74" fill="none" xmlns="http://www.w3.org/2000/svg">
<rect opacity="0.75" x="0.292893" y="37" width="51.9117" height="51.9117" rx="1.1364" transform="rotate(-45 0.292893 37)" fill="#0E0C0A" stroke="#E5793B"/>
<path fill-rule="evenodd" clip-rule="evenodd" d="M53.3333 27.7563V45.5968C53.3333 47.8505 51.494 49.6898 49.2403 49.6898H25.4265C23.1728 49.6898 21.3335 47.8505 21.3335 45.5968V27.7365C21.3335 25.4828 23.1728 23.6436 25.4265 23.6436H49.2403C51.4854 23.6436 53.3193 25.4689 53.3332 27.7108C53.3336 27.726 53.3336 27.7412 53.3333 27.7563ZM23.6431 27.2092C23.8727 26.4419 24.5886 25.8761 25.4265 25.8761H49.2403C50.0782 25.8761 50.7942 26.442 51.0237 27.2093L37.3335 36.7924L23.6431 27.2092ZM23.566 29.8804V45.5968C23.566 46.6175 24.4058 47.4572 25.4265 47.4572H49.2403C50.261 47.4572 51.1008 46.6175 51.1008 45.5968V29.8805L37.9736 39.0695C37.5893 39.3385 37.0777 39.3385 36.6934 39.0695L23.566 29.8804Z" fill="white"/>
</svg>
