<svg width="76" height="76" viewBox="0 0 76 76" fill="none" xmlns="http://www.w3.org/2000/svg">
<rect opacity="0.75" x="0.585786" y="38" width="52.9117" height="52.9117" rx="1.6364" transform="rotate(-45 0.585786 38)" fill="#0E0C0A" stroke="#E5793B" stroke-width="2"/>
<path fill-rule="evenodd" clip-rule="evenodd" d="M34.8082 31.6604C36.1281 30.9755 37.6304 30.7243 39.1013 30.9424C40.6018 31.1649 41.9908 31.864 43.0634 32.9366C44.136 34.0092 44.8351 35.3983 45.0576 36.8987C45.2757 38.3696 45.0245 39.8719 44.3396 41.1919C43.6547 42.5118 42.5711 43.5822 41.2428 44.2507C39.9146 44.9193 38.4093 45.152 36.9412 44.9157C35.473 44.6795 34.1167 43.9863 33.0652 42.9348C32.0138 41.8833 31.3206 40.527 31.0843 39.0589C30.8481 37.5907 31.0808 36.0855 31.7494 34.7572C32.4179 33.4289 33.4883 32.3453 34.8082 31.6604ZM38.7739 33.1508C37.7674 33.0016 36.7396 33.1735 35.8365 33.6421C34.9333 34.1107 34.201 34.8521 33.7436 35.7609C33.2861 36.6698 33.1269 37.6997 33.2886 38.7042C33.4502 39.7087 33.9245 40.6367 34.6439 41.3562C35.3633 42.0756 36.2913 42.5499 37.2958 42.7115C38.3004 42.8732 39.3303 42.7139 40.2391 42.2565C41.1479 41.7991 41.8893 41.0667 42.3579 40.1636C42.8265 39.2605 42.9985 38.2326 42.8492 37.2262C42.697 36.1996 42.2186 35.2491 41.4847 34.5153C40.7509 33.7814 39.8005 33.303 38.7739 33.1508Z" fill="white"/>
<path d="M46.1864 28.6977C45.5699 28.6977 45.0701 29.1975 45.0701 29.814C45.0701 30.4305 45.5699 30.9303 46.1864 30.9303H46.2013C46.8178 30.9303 47.3176 30.4305 47.3176 29.814C47.3176 29.1975 46.8178 28.6977 46.2013 28.6977H46.1864Z" fill="white"/>
<path fill-rule="evenodd" clip-rule="evenodd" d="M22 30.5582C22 25.8316 25.8316 22 30.5581 22H45.4419C50.1684 22 54 25.8316 54 30.5582V45.442C54 50.1685 50.1684 54.0002 45.4419 54.0002H30.5581C25.8316 54.0002 22 50.1685 22 45.442V30.5582ZM30.5581 24.2326C27.0646 24.2326 24.2326 27.0646 24.2326 30.5582V45.442C24.2326 48.9355 27.0646 51.7676 30.5581 51.7676H45.4419C48.9354 51.7676 51.7674 48.9355 51.7674 45.442V30.5582C51.7674 27.0646 48.9354 24.2326 45.4419 24.2326H30.5581Z" fill="white"/>
</svg>
