<svg width="45" height="44" viewBox="0 0 45 44" fill="none" xmlns="http://www.w3.org/2000/svg">
<path d="M17.0814 10.0839C15.8046 10.1442 14.9327 10.3479 14.1705 10.6474C13.3816 10.9549 12.7129 11.3674 12.0476 12.0351C11.3823 12.7028 10.9727 13.3719 10.6674 14.162C10.3719 14.9259 10.1718 15.7986 10.1154 17.0761C10.059 18.3536 10.0465 18.7643 10.0527 22.023C10.059 25.2817 10.0734 25.6902 10.1353 26.9704C10.1963 28.2469 10.3993 29.1186 10.6988 29.8811C11.0067 30.67 11.4188 31.3384 12.0867 32.0039C12.7547 32.6694 13.4233 33.0782 14.2153 33.3839C14.9785 33.6789 15.8514 33.88 17.1287 33.9359C18.406 33.9918 18.8171 34.0048 22.0749 33.9986C25.3327 33.9923 25.7429 33.9779 27.0228 33.9172C28.3028 33.8565 29.1699 33.652 29.9326 33.3539C30.7215 33.0453 31.3904 32.6339 32.0554 31.9658C32.7205 31.2976 33.1299 30.628 33.435 29.8374C33.7306 29.0742 33.9315 28.2013 33.987 26.925C34.0429 25.6441 34.0561 25.2352 34.0499 21.9769C34.0436 18.7187 34.029 18.3102 33.9683 17.0305C33.9075 15.7508 33.7042 14.8818 33.405 14.1188C33.0966 13.3299 32.685 12.662 32.0173 11.996C31.3496 11.33 30.6795 10.9208 29.8892 10.6165C29.1255 10.321 28.2531 10.1197 26.9758 10.0645C25.6985 10.0093 25.2874 9.99513 22.0284 10.0014C18.7694 10.0076 18.3614 10.0215 17.0814 10.0839ZM17.2216 31.7771C16.0516 31.7262 15.4163 31.5318 14.9929 31.3691C14.4323 31.1531 14.0329 30.892 13.611 30.4742C13.1891 30.0563 12.9299 29.6555 12.711 29.0961C12.5466 28.6727 12.3486 28.0381 12.2939 26.8681C12.2344 25.6036 12.2219 25.2239 12.2149 22.0201C12.208 18.8164 12.2202 18.4372 12.2756 17.1721C12.3256 16.0031 12.5212 15.3671 12.6836 14.9439C12.8996 14.3826 13.1598 13.9839 13.5786 13.5623C13.9974 13.1406 14.397 12.8809 14.9569 12.662C15.3798 12.4969 16.0144 12.3006 17.1839 12.2449C18.4495 12.1849 18.8287 12.1729 22.032 12.1659C25.2353 12.159 25.6154 12.171 26.8815 12.2267C28.0505 12.2775 28.6868 12.4712 29.1094 12.6347C29.6703 12.8507 30.0694 13.1101 30.4911 13.5296C30.9128 13.9491 31.1727 14.3473 31.3916 14.9084C31.5569 15.3301 31.7533 15.9644 31.8085 17.1347C31.8687 18.4002 31.8824 18.7796 31.8881 21.9827C31.8939 25.1857 31.8826 25.5661 31.8272 26.8307C31.7761 28.0007 31.5821 28.6362 31.4192 29.0601C31.2032 29.6205 30.9428 30.0201 30.5237 30.4415C30.1047 30.863 29.7056 31.1226 29.1454 31.3415C28.723 31.5064 28.0877 31.7032 26.9191 31.7589C25.6536 31.8184 25.2744 31.8309 22.0699 31.8378C18.8654 31.8448 18.4874 31.8318 17.2218 31.7771M27.0043 15.5864C27.0048 15.8713 27.0897 16.1495 27.2484 16.3861C27.407 16.6226 27.6323 16.8068 27.8956 16.9154C28.159 17.0239 28.4486 17.0519 28.7278 16.9959C29.0071 16.9398 29.2634 16.8022 29.4645 16.6004C29.6655 16.3986 29.8022 16.1418 29.8572 15.8623C29.9123 15.5828 29.8832 15.2933 29.7737 15.0304C29.6642 14.7675 29.4792 14.5429 29.242 14.3851C29.0049 14.2274 28.7263 14.1435 28.4415 14.144C28.0596 14.1448 27.6937 14.2972 27.4242 14.5677C27.1547 14.8381 27.0037 15.2046 27.0043 15.5864ZM15.8898 22.012C15.8965 25.4152 18.6604 28.1677 22.0629 28.1613C25.4654 28.1548 28.22 25.3912 28.2135 21.988C28.207 18.5848 25.4424 15.8315 22.0394 15.8382C18.6364 15.8449 15.8833 18.6092 15.8898 22.012ZM18.0513 22.0076C18.0497 21.2165 18.2828 20.4427 18.721 19.784C19.1593 19.1253 19.783 18.6114 20.5133 18.3072C21.2436 18.003 22.0478 17.9222 22.824 18.075C23.6003 18.2278 24.3138 18.6073 24.8743 19.1656C25.4348 19.724 25.8172 20.436 25.9731 21.2116C26.129 21.9872 26.0514 22.7917 25.7501 23.5232C25.4487 24.2547 24.9373 24.8804 24.2803 25.3213C23.6234 25.7621 22.8505 25.9983 22.0593 25.9998C21.534 26.0009 21.0136 25.8985 20.5279 25.6985C20.0421 25.4985 19.6005 25.2047 19.2284 24.834C18.8562 24.4632 18.5606 24.0228 18.3587 23.5379C18.1567 23.0529 18.0523 22.533 18.0513 22.0076Z" fill="white"/>
</svg>
