<svg width="65" height="24" viewBox="0 0 65 24" fill="none" xmlns="http://www.w3.org/2000/svg">
<path d="M27.0814 0.0839254C25.8046 0.144166 24.9327 0.347926 24.1705 0.647447C23.3816 0.954888 22.7129 1.36745 22.0476 2.03513C21.3823 2.70281 20.9727 3.37194 20.6674 4.16202C20.3719 4.92594 20.1718 5.79859 20.1154 7.07611C20.059 8.35363 20.0465 8.76428 20.0527 12.023C20.059 15.2817 20.0734 15.6902 20.1353 16.9704C20.1963 18.2469 20.3993 19.1186 20.6988 19.8811C21.0067 20.67 21.4188 21.3384 22.0867 22.0039C22.7547 22.6694 23.4233 23.0782 24.2153 23.3839C24.9785 23.6789 25.8514 23.88 27.1287 23.9359C28.406 23.9918 28.8171 24.0048 32.0749 23.9986C35.3327 23.9923 35.7429 23.9779 37.0228 23.9172C38.3028 23.8565 39.1699 23.652 39.9326 23.3539C40.7215 23.0453 41.3904 22.6339 42.0554 21.9658C42.7205 21.2976 43.1299 20.628 43.435 19.8374C43.7306 19.0742 43.9315 18.2013 43.987 16.925C44.0429 15.6441 44.0561 15.2352 44.0499 11.9769C44.0436 8.71868 44.029 8.31019 43.9683 7.03051C43.9075 5.75083 43.7042 4.88178 43.405 4.11882C43.0966 3.32994 42.685 2.66201 42.0173 1.99601C41.3496 1.33001 40.6795 0.920808 39.8892 0.616487C39.1255 0.321046 38.2531 0.119686 36.9758 0.0644854C35.6985 0.00928517 35.2874 -0.00487488 32.0284 0.00136514C28.7694 0.00760516 28.3614 0.0215252 27.0814 0.0839254ZM27.2216 21.7771C26.0516 21.7262 25.4163 21.5318 24.9929 21.3691C24.4323 21.1531 24.0329 20.892 23.611 20.4742C23.1891 20.0563 22.9299 19.6555 22.711 19.0961C22.5466 18.6727 22.3486 18.0381 22.2939 16.8681C22.2344 15.6036 22.2219 15.2239 22.2149 12.0201C22.208 8.81636 22.2202 8.43715 22.2756 7.17211C22.3256 6.00307 22.5212 5.36706 22.6836 4.94394C22.8996 4.38258 23.1598 3.98394 23.5786 3.56226C23.9974 3.14058 24.397 2.8809 24.9569 2.66201C25.3798 2.49689 26.0144 2.30057 27.1839 2.24489C28.4495 2.18489 28.8287 2.17289 32.032 2.16593C35.2353 2.15897 35.6154 2.17097 36.8815 2.22665C38.0505 2.27753 38.6868 2.47121 39.1094 2.63465C39.6703 2.85066 40.0694 3.1101 40.4911 3.52962C40.9128 3.94914 41.1727 4.3473 41.3916 4.90842C41.5569 5.3301 41.7533 5.96443 41.8085 7.13467C41.8687 8.40019 41.8824 8.77964 41.8881 11.9827C41.8939 15.1857 41.8826 15.5661 41.8272 16.8307C41.7761 18.0007 41.5821 18.6362 41.4192 19.0601C41.2032 19.6205 40.9428 20.0201 40.5237 20.4415C40.1047 20.863 39.7056 21.1226 39.1454 21.3415C38.723 21.5064 38.0877 21.7032 36.9191 21.7589C35.6536 21.8184 35.2744 21.8309 32.0699 21.8378C28.8654 21.8448 28.4874 21.8318 27.2218 21.7771M37.0043 5.58642C37.0048 5.87125 37.0897 6.14954 37.2484 6.38609C37.407 6.62265 37.6323 6.80684 37.8956 6.91538C38.159 7.02391 38.4486 7.05192 38.7278 6.99585C39.0071 6.93978 39.2634 6.80216 39.4645 6.60039C39.6655 6.39862 39.8022 6.14176 39.8572 5.8623C39.9123 5.58285 39.8832 5.29334 39.7737 5.03041C39.6642 4.76747 39.4792 4.54292 39.242 4.38514C39.0049 4.22736 38.7263 4.14345 38.4415 4.14402C38.0596 4.14478 37.6937 4.29716 37.4242 4.56765C37.1547 4.83814 37.0037 5.20459 37.0043 5.58642ZM25.8898 12.012C25.8965 15.4152 28.6604 18.1677 32.0629 18.1613C35.4654 18.1548 38.22 15.3912 38.2135 11.988C38.207 8.58476 35.4424 5.83147 32.0394 5.83819C28.6364 5.84491 25.8833 8.60924 25.8898 12.012ZM28.0513 12.0076C28.0497 11.2165 28.2828 10.4427 28.721 9.78399C29.1593 9.12531 29.783 8.61137 30.5133 8.30717C31.2436 8.00296 32.0478 7.92216 32.824 8.07496C33.6003 8.22777 34.3138 8.60733 34.8743 9.16565C35.4348 9.72396 35.8172 10.436 35.9731 11.2116C36.129 11.9872 36.0514 12.7917 35.7501 13.5232C35.4487 14.2547 34.9373 14.8804 34.2803 15.3213C33.6234 15.7621 32.8505 15.9983 32.0593 15.9998C31.534 16.0009 31.0136 15.8985 30.5279 15.6985C30.0421 15.4985 29.6005 15.2047 29.2284 14.834C28.8562 14.4632 28.5606 14.0228 28.3587 13.5379C28.1567 13.0529 28.0523 12.533 28.0513 12.0076Z" fill="white"/>
</svg>
