<svg width="25" height="24" viewBox="0 0 25 24" fill="none" xmlns="http://www.w3.org/2000/svg">
<path d="M7.72353 0.0839254C6.44672 0.144166 5.57479 0.347926 4.81254 0.647447C4.02365 0.954888 3.35501 1.36745 2.68972 2.03513C2.02443 2.70281 1.61475 3.37194 1.30947 4.16202C1.01402 4.92594 0.81386 5.79859 0.757459 7.07611C0.701059 8.35363 0.688579 8.76428 0.694819 12.023C0.701059 15.2817 0.715459 15.6902 0.77738 16.9704C0.83834 18.2469 1.04138 19.1186 1.34091 19.8811C1.64883 20.67 2.06091 21.3384 2.72884 22.0039C3.39677 22.6694 4.06541 23.0782 4.85742 23.3839C5.62063 23.6789 6.49352 23.88 7.77081 23.9359C9.0481 23.9918 9.45923 24.0048 12.717 23.9986C15.9748 23.9923 16.385 23.9779 17.6649 23.9172C18.9448 23.8565 19.812 23.652 20.5747 23.3539C21.3636 23.0453 22.0325 22.6339 22.6975 21.9658C23.3626 21.2976 23.772 20.628 24.0771 19.8374C24.3727 19.0742 24.5736 18.2013 24.6291 16.925C24.685 15.6441 24.6982 15.2352 24.6919 11.9769C24.6857 8.71868 24.6711 8.31019 24.6103 7.03051C24.5496 5.75083 24.3463 4.88178 24.0471 4.11882C23.7387 3.32994 23.327 2.66201 22.6594 1.99601C21.9917 1.33001 21.3216 0.920808 20.5313 0.616487C19.7676 0.321046 18.8952 0.119686 17.6179 0.0644854C16.3406 0.00928517 15.9295 -0.00487488 12.6705 0.00136514C9.41147 0.00760516 9.00346 0.0215252 7.72353 0.0839254ZM7.86369 21.7771C6.69368 21.7262 6.05839 21.5318 5.63503 21.3691C5.07438 21.1531 4.67502 20.892 4.25309 20.4742C3.83117 20.0563 3.57197 19.6555 3.35309 19.0961C3.18868 18.6727 2.99068 18.0381 2.93596 16.8681C2.87644 15.6036 2.86396 15.2239 2.857 12.0201C2.85004 8.81636 2.86228 8.43715 2.91772 7.17211C2.96764 6.00307 3.16324 5.36706 3.32573 4.94394C3.54173 4.38258 3.80189 3.98394 4.22069 3.56226C4.6395 3.14058 5.0391 2.8809 5.59903 2.66201C6.02191 2.49689 6.65648 2.30057 7.82601 2.24489C9.09154 2.18489 9.47075 2.17289 12.6741 2.16593C15.8774 2.15897 16.2575 2.17097 17.5235 2.22665C18.6926 2.27753 19.3288 2.47121 19.7515 2.63465C20.3124 2.85066 20.7115 3.1101 21.1332 3.52962C21.5549 3.94914 21.8148 4.3473 22.0337 4.90842C22.199 5.3301 22.3954 5.96443 22.4506 7.13467C22.5108 8.40019 22.5245 8.77964 22.5302 11.9827C22.536 15.1857 22.5247 15.5661 22.4693 16.8307C22.4182 18.0007 22.2242 18.6362 22.0613 19.0601C21.8453 19.6205 21.5849 20.0201 21.1658 20.4415C20.7468 20.863 20.3477 21.1226 19.7875 21.3415C19.3651 21.5064 18.7298 21.7032 17.5612 21.7589C16.2957 21.8184 15.9165 21.8309 12.712 21.8378C9.50747 21.8448 9.12946 21.8318 7.86393 21.7771M17.6464 5.58642C17.6469 5.87125 17.7318 6.14954 17.8905 6.38609C18.0491 6.62265 18.2744 6.80684 18.5377 6.91538C18.801 7.02391 19.0907 7.05192 19.3699 6.99585C19.6492 6.93978 19.9055 6.80216 20.1066 6.60039C20.3076 6.39862 20.4443 6.14176 20.4993 5.8623C20.5544 5.58285 20.5253 5.29334 20.4158 5.03041C20.3063 4.76747 20.1213 4.54292 19.8841 4.38514C19.647 4.22736 19.3684 4.14345 19.0836 4.14402C18.7017 4.14478 18.3358 4.29716 18.0663 4.56765C17.7968 4.83814 17.6458 5.20459 17.6464 5.58642ZM6.53192 12.012C6.53864 15.4152 9.30251 18.1677 12.705 18.1613C16.1075 18.1548 18.862 15.3912 18.8556 11.988C18.8491 8.58476 16.0845 5.83147 12.6815 5.83819C9.27851 5.84491 6.52544 8.60924 6.53192 12.012ZM8.69338 12.0076C8.69181 11.2165 8.92489 10.4427 9.36312 9.78399C9.80136 9.12531 10.4251 8.61137 11.1554 8.30717C11.8857 8.00296 12.6899 7.92216 13.4661 8.07496C14.2424 8.22777 14.9559 8.60733 15.5164 9.16565C16.0769 9.72396 16.4593 10.436 16.6152 11.2116C16.7711 11.9872 16.6935 12.7917 16.3921 13.5232C16.0908 14.2547 15.5794 14.8804 14.9224 15.3213C14.2655 15.7621 13.4926 15.9983 12.7014 15.9998C12.1761 16.0009 11.6557 15.8985 11.17 15.6985C10.6842 15.4985 10.2426 15.2047 9.87045 14.834C9.49825 14.4632 9.20273 14.0228 9.00077 13.5379C8.79881 13.0529 8.69436 12.533 8.69338 12.0076Z" fill="white"/>
</svg>
