<svg width="74" height="74" viewBox="0 0 74 74" fill="none" xmlns="http://www.w3.org/2000/svg">
<rect opacity="0.75" x="0.292893" y="37" width="51.9117" height="51.9117" rx="1.1364" transform="rotate(-45 0.292893 37)" fill="#0E0C0A" stroke="#E5793B"/>
<path fill-rule="evenodd" clip-rule="evenodd" d="M33.8082 30.6604C35.1281 29.9755 36.6304 29.7243 38.1013 29.9424C39.6018 30.1649 40.9908 30.864 42.0634 31.9366C43.136 33.0092 43.8351 34.3983 44.0576 35.8987C44.2757 37.3696 44.0245 38.8719 43.3396 40.1919C42.6547 41.5118 41.5711 42.5822 40.2428 43.2507C38.9146 43.9193 37.4093 44.152 35.9412 43.9157C34.473 43.6795 33.1167 42.9863 32.0652 41.9348C31.0138 40.8833 30.3206 39.527 30.0843 38.0589C29.8481 36.5907 30.0808 35.0855 30.7494 33.7572C31.4179 32.4289 32.4883 31.3453 33.8082 30.6604ZM37.7739 32.1508C36.7674 32.0016 35.7396 32.1735 34.8365 32.6421C33.9333 33.1107 33.201 33.8521 32.7436 34.7609C32.2861 35.6698 32.1269 36.6997 32.2886 37.7042C32.4502 38.7087 32.9245 39.6367 33.6439 40.3562C34.3633 41.0756 35.2913 41.5499 36.2958 41.7115C37.3004 41.8732 38.3303 41.7139 39.2391 41.2565C40.1479 40.7991 40.8893 40.0667 41.3579 39.1636C41.8265 38.2605 41.9985 37.2326 41.8492 36.2262C41.697 35.1996 41.2186 34.2491 40.4847 33.5153C39.7509 32.7814 38.8005 32.303 37.7739 32.1508Z" fill="white"/>
<path d="M45.1864 27.6977C44.5699 27.6977 44.0701 28.1975 44.0701 28.814C44.0701 29.4305 44.5699 29.9303 45.1864 29.9303H45.2013C45.8178 29.9303 46.3176 29.4305 46.3176 28.814C46.3176 28.1975 45.8178 27.6977 45.2013 27.6977H45.1864Z" fill="white"/>
<path fill-rule="evenodd" clip-rule="evenodd" d="M21 29.5582C21 24.8316 24.8316 21 29.5581 21H44.4419C49.1684 21 53 24.8316 53 29.5582V44.442C53 49.1685 49.1684 53.0002 44.4419 53.0002H29.5581C24.8316 53.0002 21 49.1685 21 44.442V29.5582ZM29.5581 23.2326C26.0646 23.2326 23.2326 26.0646 23.2326 29.5582V44.442C23.2326 47.9355 26.0646 50.7676 29.5581 50.7676H44.4419C47.9354 50.7676 50.7674 47.9355 50.7674 44.442V29.5582C50.7674 26.0646 47.9354 23.2326 44.4419 23.2326H29.5581Z" fill="white"/>
</svg>
