<svg width="215" height="135" viewBox="0 0 215 135" fill="none" xmlns="http://www.w3.org/2000/svg">
  <g opacity="0.5" filter="url(#filter0_f_561_192)">
    <rect x="25" y="25" width="165" height="85" rx="10" fill="url(#paint0_radial_561_192)" />
  </g>
  <rect x="25" y="25" width="165" height="85" rx="10" fill="url(#paint1_radial_561_192)" />
  <path
    d="M63.5516 56.58V52.9H67.1116V56.58H63.5516ZM63.5516 82V60.4H67.1116V82H63.5516ZM88.4925 82V71.18C88.4925 70.1533 88.3992 69.1667 88.2125 68.22C88.0392 67.2733 87.7258 66.4267 87.2725 65.68C86.8325 64.92 86.2325 64.32 85.4725 63.88C84.7258 63.44 83.7792 63.22 82.6325 63.22C81.7392 63.22 80.9258 63.3733 80.1925 63.68C79.4725 63.9733 78.8525 64.4267 78.3325 65.04C77.8125 65.6533 77.4058 66.4267 77.1125 67.36C76.8325 68.28 76.6925 69.3667 76.6925 70.62L74.3525 69.9C74.3525 67.8067 74.7258 66.0133 75.4725 64.52C76.2325 63.0133 77.2925 61.86 78.6525 61.06C80.0258 60.2467 81.6392 59.84 83.4925 59.84C84.8925 59.84 86.0858 60.06 87.0725 60.5C88.0592 60.94 88.8792 61.5267 89.5325 62.26C90.1858 62.98 90.6992 63.7933 91.0725 64.7C91.4458 65.5933 91.7058 66.5067 91.8525 67.44C92.0125 68.36 92.0925 69.2333 92.0925 70.06V82H88.4925ZM73.0925 82V60.4H76.2925V66.18H76.6925V82H73.0925ZM105.452 82.58C102.879 82.58 100.766 82.02 99.1122 80.9C97.4722 79.7667 96.4655 78.1867 96.0922 76.16L99.7322 75.58C100.026 76.7533 100.699 77.6867 101.752 78.38C102.806 79.06 104.112 79.4 105.672 79.4C107.152 79.4 108.312 79.0933 109.152 78.48C109.992 77.8667 110.412 77.0333 110.412 75.98C110.412 75.3667 110.272 74.8733 109.992 74.5C109.712 74.1133 109.132 73.7533 108.252 73.42C107.386 73.0867 106.072 72.6867 104.312 72.22C102.406 71.7133 100.906 71.1867 99.8122 70.64C98.7189 70.0933 97.9389 69.46 97.4722 68.74C97.0055 68.02 96.7722 67.1467 96.7722 66.12C96.7722 64.8533 97.1189 63.7467 97.8122 62.8C98.5055 61.84 99.4722 61.1 100.712 60.58C101.966 60.06 103.419 59.8 105.072 59.8C106.712 59.8 108.179 60.06 109.472 60.58C110.766 61.1 111.806 61.84 112.592 62.8C113.392 63.7467 113.866 64.8533 114.012 66.12L110.372 66.78C110.199 65.62 109.639 64.7067 108.692 64.04C107.759 63.3733 106.552 63.02 105.072 62.98C103.672 62.9267 102.532 63.1733 101.652 63.72C100.786 64.2667 100.352 65.0067 100.352 65.94C100.352 66.46 100.512 66.9067 100.832 67.28C101.166 67.6533 101.772 68.0067 102.652 68.34C103.546 68.6733 104.839 69.0533 106.532 69.48C108.439 69.96 109.939 70.4867 111.032 71.06C112.139 71.62 112.926 72.2867 113.392 73.06C113.859 73.82 114.092 74.76 114.092 75.88C114.092 77.96 113.326 79.6 111.792 80.8C110.259 81.9867 108.146 82.58 105.452 82.58ZM130.563 82C129.283 82.2533 128.016 82.3533 126.763 82.3C125.523 82.26 124.416 82.0133 123.443 81.56C122.47 81.0933 121.73 80.3733 121.223 79.4C120.796 78.5467 120.563 77.6867 120.523 76.82C120.496 75.94 120.483 74.9467 120.483 73.84V54.4H124.043V73.68C124.043 74.56 124.05 75.3133 124.063 75.94C124.09 76.5667 124.23 77.1067 124.483 77.56C124.963 78.4133 125.723 78.9133 126.763 79.06C127.816 79.2067 129.083 79.1667 130.563 78.94V82ZM116.103 63.34V60.4H130.563V63.34H116.103ZM141.088 82.6C139.475 82.6 138.122 82.3067 137.028 81.72C135.948 81.12 135.128 80.3333 134.568 79.36C134.022 78.3867 133.748 77.32 133.748 76.16C133.748 75.0267 133.962 74.0467 134.388 73.22C134.828 72.38 135.442 71.6867 136.228 71.14C137.015 70.58 137.955 70.14 139.048 69.82C140.075 69.54 141.222 69.3 142.488 69.1C143.768 68.8867 145.062 68.6933 146.368 68.52C147.675 68.3467 148.895 68.18 150.028 68.02L148.748 68.76C148.788 66.84 148.402 65.42 147.588 64.5C146.788 63.58 145.402 63.12 143.428 63.12C142.122 63.12 140.975 63.42 139.988 64.02C139.015 64.6067 138.328 65.5667 137.928 66.9L134.548 65.88C135.068 63.9867 136.075 62.5 137.568 61.42C139.062 60.34 141.028 59.8 143.468 59.8C145.428 59.8 147.108 60.1533 148.508 60.86C149.922 61.5533 150.935 62.6067 151.548 64.02C151.855 64.6867 152.048 65.4133 152.128 66.2C152.208 66.9733 152.248 67.7867 152.248 68.64V82H149.088V76.82L149.828 77.3C149.015 79.0467 147.875 80.3667 146.408 81.26C144.955 82.1533 143.182 82.6 141.088 82.6ZM141.628 79.62C142.908 79.62 144.015 79.3933 144.948 78.94C145.895 78.4733 146.655 77.8667 147.228 77.12C147.802 76.36 148.175 75.5333 148.348 74.64C148.548 73.9733 148.655 73.2333 148.668 72.42C148.695 71.5933 148.708 70.96 148.708 70.52L149.948 71.06C148.788 71.22 147.648 71.3733 146.528 71.52C145.408 71.6667 144.348 71.8267 143.348 72C142.348 72.16 141.448 72.3533 140.648 72.58C140.062 72.7667 139.508 73.0067 138.988 73.3C138.482 73.5933 138.068 73.9733 137.748 74.44C137.442 74.8933 137.288 75.46 137.288 76.14C137.288 76.7267 137.435 77.2867 137.728 77.82C138.035 78.3533 138.502 78.7867 139.128 79.12C139.768 79.4533 140.602 79.62 141.628 79.62Z"
    fill="white" />
  <defs>
    <filter id="filter0_f_561_192" x="0" y="0" width="215" height="135" filterUnits="userSpaceOnUse"
      color-interpolation-filters="sRGB">
      <feFlood flood-opacity="0" result="BackgroundImageFix" />
      <feBlend mode="normal" in="SourceGraphic" in2="BackgroundImageFix" result="shape" />
      <feGaussianBlur stdDeviation="12.5" result="effect1_foregroundBlur_561_192" />
    </filter>
    <radialGradient id="paint0_radial_561_192" cx="0" cy="0" r="1" gradientUnits="userSpaceOnUse"
      gradientTransform="translate(11 140.5) rotate(-32.8322) scale(213.029 182.839)">
      <stop stop-color="#C13584" />
      <stop offset="1" stop-color="#405DE6" />
    </radialGradient>
    <radialGradient id="paint1_radial_561_192" cx="0" cy="0" r="1" gradientUnits="userSpaceOnUse"
      gradientTransform="translate(11 140.5) rotate(-32.8322) scale(213.029 182.839)">
      <stop stop-color="#C13584" />
      <stop offset="1" stop-color="#405DE6" />
    </radialGradient>
  </defs>
</svg>