<svg width="247" height="135" viewBox="0 0 247 135" fill="none" xmlns="http://www.w3.org/2000/svg">
<g filter="url(#filter0_d_560_234)">
<rect x="25" y="25" width="197" height="85" rx="10" fill="#1DA1F2" shape-rendering="crispEdges"/>
<path d="M75.0397 82C73.7597 82.2533 72.493 82.3533 71.2397 82.3C69.9997 82.26 68.893 82.0133 67.9197 81.56C66.9464 81.0933 66.2064 80.3733 65.6997 79.4C65.273 78.5467 65.0397 77.6867 64.9997 76.82C64.973 75.94 64.9597 74.9467 64.9597 73.84V54.4H68.5197V73.68C68.5197 74.56 68.5264 75.3133 68.5397 75.94C68.5664 76.5667 68.7064 77.1067 68.9597 77.56C69.4397 78.4133 70.1997 78.9133 71.2397 79.06C72.293 79.2067 73.5597 79.1667 75.0397 78.94V82ZM60.5797 63.34V60.4H75.0397V63.34H60.5797ZM84.025 82L77.425 60.38L80.965 60.4L85.785 76.2L90.645 60.4H93.785L98.625 76.2L103.465 60.4H106.985L100.385 82H97.425L92.205 65.58L86.985 82H84.025ZM110.997 56.58V52.9H114.557V56.58H110.997ZM110.997 82V60.4H114.557V82H110.997ZM132.618 82C131.338 82.2533 130.071 82.3533 128.818 82.3C127.578 82.26 126.471 82.0133 125.498 81.56C124.524 81.0933 123.784 80.3733 123.278 79.4C122.851 78.5467 122.618 77.6867 122.578 76.82C122.551 75.94 122.538 74.9467 122.538 73.84V54.4H126.098V73.68C126.098 74.56 126.104 75.3133 126.118 75.94C126.144 76.5667 126.284 77.1067 126.538 77.56C127.018 78.4133 127.778 78.9133 128.818 79.06C129.871 79.2067 131.138 79.1667 132.618 78.94V82ZM118.158 63.34V60.4H132.618V63.34H118.158ZM146.678 82C145.398 82.2533 144.131 82.3533 142.878 82.3C141.638 82.26 140.531 82.0133 139.558 81.56C138.584 81.0933 137.844 80.3733 137.338 79.4C136.911 78.5467 136.678 77.6867 136.638 76.82C136.611 75.94 136.598 74.9467 136.598 73.84V54.4H140.158V73.68C140.158 74.56 140.164 75.3133 140.178 75.94C140.204 76.5667 140.344 77.1067 140.598 77.56C141.078 78.4133 141.838 78.9133 142.878 79.06C143.931 79.2067 145.198 79.1667 146.678 78.94V82ZM132.218 63.34V60.4H146.678V63.34H132.218ZM160.426 82.6C158.306 82.6 156.452 82.1333 154.866 81.2C153.292 80.2533 152.066 78.94 151.186 77.26C150.306 75.5667 149.866 73.5933 149.866 71.34C149.866 68.98 150.299 66.94 151.166 65.22C152.032 63.4867 153.239 62.1533 154.786 61.22C156.346 60.2733 158.172 59.8 160.266 59.8C162.439 59.8 164.286 60.3 165.806 61.3C167.339 62.3 168.486 63.7267 169.246 65.58C170.019 67.4333 170.352 69.64 170.246 72.2H166.646V70.92C166.606 68.2667 166.066 66.2867 165.026 64.98C163.986 63.66 162.439 63 160.386 63C158.186 63 156.512 63.7067 155.366 65.12C154.219 66.5333 153.646 68.56 153.646 71.2C153.646 73.7467 154.219 75.72 155.366 77.12C156.512 78.52 158.146 79.22 160.266 79.22C161.692 79.22 162.932 78.8933 163.986 78.24C165.039 77.5867 165.866 76.6467 166.466 75.42L169.886 76.6C169.046 78.5067 167.779 79.9867 166.086 81.04C164.406 82.08 162.519 82.6 160.426 82.6ZM152.446 72.2V69.34H168.406V72.2H152.446ZM174.698 82V60.4H177.878V65.62L177.358 64.94C177.612 64.2733 177.938 63.66 178.338 63.1C178.752 62.54 179.212 62.08 179.718 61.72C180.278 61.2667 180.912 60.92 181.618 60.68C182.325 60.44 183.045 60.3 183.778 60.26C184.512 60.2067 185.198 60.2533 185.838 60.4V63.74C185.092 63.54 184.272 63.4867 183.378 63.58C182.485 63.6733 181.658 64 180.898 64.56C180.205 65.0533 179.665 65.6533 179.278 66.36C178.905 67.0667 178.645 67.8333 178.498 68.66C178.352 69.4733 178.278 70.3067 178.278 71.16V82H174.698Z" fill="white"/>
</g>
<defs>
<filter id="filter0_d_560_234" x="0" y="0" width="247" height="135" filterUnits="userSpaceOnUse" color-interpolation-filters="sRGB">
<feFlood flood-opacity="0" result="BackgroundImageFix"/>
<feColorMatrix in="SourceAlpha" type="matrix" values="0 0 0 0 0 0 0 0 0 0 0 0 0 0 0 0 0 0 127 0" result="hardAlpha"/>
<feOffset/>
<feGaussianBlur stdDeviation="12.5"/>
<feComposite in2="hardAlpha" operator="out"/>
<feColorMatrix type="matrix" values="0 0 0 0 0.113725 0 0 0 0 0.631373 0 0 0 0 0.94902 0 0 0 0.5 0"/>
<feBlend mode="normal" in2="BackgroundImageFix" result="effect1_dropShadow_560_234"/>
<feBlend mode="normal" in="SourceGraphic" in2="effect1_dropShadow_560_234" result="shape"/>
</filter>
</defs>
</svg>
