<svg width="71" height="24" viewBox="0 0 71 24" fill="none" xmlns="http://www.w3.org/2000/svg">
<path d="M47.0275 5.97474C47.0455 6.23512 47.0455 6.4955 47.0455 6.75829C47.0455 14.7654 40.9498 24 29.8038 24V23.9952C26.5112 24 23.287 23.0569 20.5151 21.2786C20.9939 21.3362 21.4751 21.365 21.9574 21.3662C24.6861 21.3686 27.3367 20.453 29.4834 18.7671C26.8903 18.7179 24.6165 17.0272 23.8221 14.559C24.7305 14.7342 25.6664 14.6982 26.558 14.4546C23.7309 13.8834 21.6971 11.3996 21.6971 8.51498C21.6971 8.48858 21.6971 8.46338 21.6971 8.43818C22.5394 8.90735 23.4825 9.16774 24.4473 9.19653C21.7847 7.41705 20.9639 3.87487 22.5718 1.10545C25.6484 4.89121 30.1877 7.19266 35.0606 7.43625C34.5723 5.33158 35.2394 3.12612 36.8137 1.64661C39.2544 -0.647644 43.0929 -0.530052 45.3872 1.90939C46.7443 1.64181 48.045 1.14384 49.2353 0.438287C48.783 1.841 47.8362 3.03252 46.5715 3.78968C47.7726 3.64808 48.9461 3.3265 50.0513 2.83574C49.2377 4.05486 48.213 5.11679 47.0275 5.97474Z" fill="white"/>
</svg>
