<svg width="74" height="74" viewBox="0 0 74 74" fill="none" xmlns="http://www.w3.org/2000/svg">
<rect opacity="0.75" x="0.292893" y="37" width="51.9117" height="51.9117" rx="1.1364" transform="rotate(-45 0.292893 37)" fill="#0E0C0A" stroke="#E5793B"/>
<path fill-rule="evenodd" clip-rule="evenodd" d="M40.5604 24.4682C41.9234 23.9479 43.4132 23.8589 44.8285 24.213C46.0195 24.511 47.1093 25.1107 47.9953 25.9494C49.2014 25.5266 50.344 24.9382 51.39 24.2004C51.7379 23.955 52.2015 23.9512 52.5534 24.1907C52.9053 24.4303 53.0717 24.863 52.9709 25.2766C52.506 27.1858 51.5618 28.9416 50.2313 30.3797C50.2606 30.6384 50.2757 30.8986 50.2765 31.1592L50.2766 31.1626C50.2766 39.3497 46.3411 45.3243 40.7139 48.3194C35.1116 51.3012 27.9354 51.276 21.5254 47.7148C21.112 47.4852 20.9103 47.0017 21.038 46.5463C21.1658 46.0909 21.5894 45.7828 22.062 45.8016C24.6277 45.9037 27.1652 45.3376 29.431 44.1728C27.14 42.8706 25.5379 41.2889 24.4564 39.5813C23.1283 37.4842 22.6243 35.2592 22.5331 33.2515C22.442 31.2483 22.7603 29.4406 23.0965 28.1409C23.2651 27.4887 23.44 26.958 23.5742 26.5867C23.6414 26.4008 23.6986 26.2544 23.74 26.1522C23.7608 26.101 23.7776 26.0609 23.7897 26.0323L23.8044 25.9982L23.8089 25.9878L23.8105 25.9843L23.811 25.9829C23.8113 25.9824 23.8115 25.9819 24.7448 26.3967L23.8115 25.9819C23.9609 25.6457 24.2797 25.4158 24.6458 25.3802C25.012 25.3446 25.3691 25.5086 25.5805 25.8097C26.8595 27.6309 28.569 29.1075 30.5568 30.108C32.2477 30.9591 34.0953 31.4432 35.9788 31.5333V31.21C35.9607 29.7537 36.3895 28.3268 37.2076 27.1217C38.027 25.9147 39.1974 24.9884 40.5604 24.4682ZM25.116 28.4931C25.1019 28.5452 25.0879 28.5983 25.0739 28.6524C24.7718 29.8207 24.4943 31.4173 24.5735 33.1588C24.6525 34.8958 25.0847 36.7558 26.182 38.4885C27.2753 40.2146 29.0675 41.8763 31.968 43.1655C32.3069 43.3161 32.5375 43.6385 32.5705 44.0079C32.6034 44.3772 32.4336 44.7354 32.1268 44.9437C30.2944 46.1876 28.2468 47.0507 26.1048 47.4987C30.8967 49.0606 35.8005 48.6207 39.7542 46.5163C44.6798 43.8946 48.2335 38.6358 48.234 31.1643C48.2329 30.8488 48.2025 30.534 48.1432 30.2241C48.0792 29.8893 48.1865 29.5446 48.4292 29.3052C49.0171 28.7255 49.524 28.0744 49.9395 27.3699C49.3097 27.6537 48.661 27.8964 47.9974 28.0963C47.6128 28.2121 47.196 28.0917 46.9323 27.7886C46.2495 27.0035 45.3421 26.447 44.3327 26.1944C43.3234 25.9419 42.2608 26.0054 41.2887 26.3764C40.3166 26.7475 39.482 27.4081 38.8976 28.2689C38.3132 29.1298 38.0073 30.1494 38.0212 31.1898L38.0214 31.2034H38.0213V32.5651C38.0213 33.1189 37.58 33.5717 37.0265 33.5861C34.4651 33.6525 31.9271 33.0844 29.6384 31.9325C27.9275 31.0713 26.3956 29.9037 25.116 28.4931Z" fill="white"/>
</svg>
