<svg width="76" height="76" viewBox="0 0 76 76" fill="none" xmlns="http://www.w3.org/2000/svg">
<rect opacity="0.75" x="0.585786" y="38" width="52.9117" height="52.9117" rx="1.6364" transform="rotate(-45 0.585786 38)" fill="#0E0C0A" stroke="#E5793B" stroke-width="2"/>
<path fill-rule="evenodd" clip-rule="evenodd" d="M41.5604 25.4682C42.9234 24.9479 44.4132 24.8589 45.8285 25.213C47.0195 25.511 48.1093 26.1107 48.9953 26.9494C50.2014 26.5266 51.344 25.9382 52.39 25.2004C52.7379 24.955 53.2015 24.9512 53.5534 25.1907C53.9053 25.4303 54.0717 25.863 53.9709 26.2766C53.506 28.1858 52.5618 29.9416 51.2313 31.3797C51.2606 31.6384 51.2757 31.8986 51.2765 32.1592L51.2766 32.1626C51.2766 40.3497 47.3411 46.3243 41.7139 49.3194C36.1116 52.3012 28.9354 52.276 22.5254 48.7148C22.112 48.4852 21.9103 48.0017 22.038 47.5463C22.1658 47.0909 22.5894 46.7828 23.062 46.8016C25.6277 46.9037 28.1652 46.3376 30.431 45.1728C28.14 43.8706 26.5379 42.2889 25.4564 40.5813C24.1283 38.4842 23.6243 36.2592 23.5331 34.2515C23.442 32.2483 23.7603 30.4406 24.0965 29.1409C24.2651 28.4887 24.44 27.958 24.5742 27.5867C24.6414 27.4008 24.6986 27.2544 24.74 27.1522C24.7608 27.101 24.7776 27.0609 24.7897 27.0323L24.8044 26.9982L24.8089 26.9878L24.8105 26.9843L24.811 26.9829C24.8113 26.9824 24.8115 26.9819 25.7448 27.3967L24.8115 26.9819C24.9609 26.6457 25.2797 26.4158 25.6458 26.3802C26.012 26.3446 26.3691 26.5086 26.5805 26.8097C27.8595 28.6309 29.569 30.1075 31.5568 31.108C33.2477 31.9591 35.0953 32.4432 36.9788 32.5333V32.21C36.9607 30.7537 37.3895 29.3268 38.2076 28.1217C39.027 26.9147 40.1974 25.9884 41.5604 25.4682ZM26.116 29.4931C26.1019 29.5452 26.0879 29.5983 26.0739 29.6524C25.7718 30.8207 25.4943 32.4173 25.5735 34.1588C25.6525 35.8958 26.0847 37.7558 27.182 39.4885C28.2753 41.2146 30.0675 42.8763 32.968 44.1655C33.3069 44.3161 33.5375 44.6385 33.5705 45.0079C33.6034 45.3772 33.4336 45.7354 33.1268 45.9437C31.2944 47.1876 29.2468 48.0507 27.1048 48.4987C31.8967 50.0606 36.8005 49.6207 40.7542 47.5163C45.6798 44.8946 49.2335 39.6358 49.234 32.1643C49.2329 31.8488 49.2025 31.534 49.1432 31.2241C49.0792 30.8893 49.1865 30.5446 49.4292 30.3052C50.0171 29.7255 50.524 29.0744 50.9395 28.3699C50.3097 28.6537 49.661 28.8964 48.9974 29.0963C48.6128 29.2121 48.196 29.0917 47.9323 28.7886C47.2495 28.0035 46.3421 27.447 45.3327 27.1944C44.3234 26.9419 43.2608 27.0054 42.2887 27.3764C41.3166 27.7475 40.482 28.4081 39.8976 29.2689C39.3132 30.1298 39.0073 31.1494 39.0212 32.1898L39.0214 32.2034H39.0213V33.5651C39.0213 34.1189 38.58 34.5717 38.0265 34.5861C35.4651 34.6525 32.9271 34.0844 30.6384 32.9325C28.9275 32.0713 27.3956 30.9037 26.116 29.4931Z" fill="white"/>
</svg>
