<svg width="31" height="24" viewBox="0 0 31 24" fill="none" xmlns="http://www.w3.org/2000/svg">
<path d="M27.4694 5.97474C27.4874 6.23512 27.4874 6.4955 27.4874 6.75829C27.4874 14.7654 21.3917 24 10.2456 24V23.9952C6.95305 24 3.72886 23.0569 0.957031 21.2786C1.4358 21.3362 1.91697 21.365 2.39934 21.3662C5.12797 21.3686 7.7786 20.453 9.92527 18.7671C7.33223 18.7179 5.05837 17.0272 4.26402 14.559C5.17237 14.7342 6.10831 14.6982 6.99985 14.4546C4.17283 13.8834 2.13896 11.3996 2.13896 8.51498C2.13896 8.48858 2.13896 8.46338 2.13896 8.43818C2.9813 8.90735 3.92444 9.16774 4.88918 9.19653C2.22655 7.41705 1.4058 3.87487 3.0137 1.10545C6.09031 4.89121 10.6296 7.19266 15.5025 7.43625C15.0141 5.33158 15.6813 3.12612 17.2556 1.64661C19.6963 -0.647644 23.5348 -0.530052 25.8291 1.90939C27.1862 1.64181 28.4869 1.14384 29.6772 0.438287C29.2248 1.841 28.2781 3.03252 27.0134 3.78968C28.2145 3.64808 29.388 3.3265 30.4932 2.83574C29.6796 4.05486 28.6549 5.11679 27.4694 5.97474Z" fill="white"/>
</svg>
