<svg width="51" height="44" viewBox="0 0 51 44" fill="none" xmlns="http://www.w3.org/2000/svg">
<path d="M37.0275 15.9747C37.0455 16.2351 37.0455 16.4955 37.0455 16.7583C37.0455 24.7654 30.9498 34 19.8038 34V33.9952C16.5112 34 13.287 33.0569 10.5151 31.2786C10.9939 31.3362 11.4751 31.365 11.9574 31.3662C14.6861 31.3686 17.3367 30.453 19.4834 28.7671C16.8903 28.7179 14.6165 27.0272 13.8221 24.559C14.7305 24.7342 15.6664 24.6982 16.558 24.4546C13.7309 23.8834 11.6971 21.3996 11.6971 18.515C11.6971 18.4886 11.6971 18.4634 11.6971 18.4382C12.5394 18.9074 13.4825 19.1677 14.4473 19.1965C11.7847 17.417 10.9639 13.8749 12.5718 11.1054C15.6484 14.8912 20.1877 17.1927 25.0606 17.4362C24.5723 15.3316 25.2394 13.1261 26.8137 11.6466C29.2544 9.35236 33.0929 9.46995 35.3872 11.9094C36.7443 11.6418 38.045 11.1438 39.2353 10.4383C38.783 11.841 37.8362 13.0325 36.5715 13.7897C37.7726 13.6481 38.9461 13.3265 40.0513 12.8357C39.2377 14.0549 38.213 15.1168 37.0275 15.9747Z" fill="white"/>
</svg>
