<svg width="76" height="76" viewBox="0 0 76 76" fill="none" xmlns="http://www.w3.org/2000/svg">
<rect opacity="0.75" x="0.585786" y="38" width="52.9117" height="52.9117" rx="1.6364" transform="rotate(-45 0.585786 38)" fill="#0E0C0A" stroke="#E5793B" stroke-width="2"/>
<path fill-rule="evenodd" clip-rule="evenodd" d="M38 54.0002C46.8366 54.0002 54 46.8367 54 38.0001C54 29.1635 46.8366 22 38 22C29.1634 22 22 29.1635 22 38.0001C22 46.8367 29.1634 54.0002 38 54.0002ZM40.5361 24.4657C43.1618 28.0923 44.7223 32.395 45.0217 36.8838H51.7228C51.2228 30.6511 46.5717 25.5896 40.5361 24.4657ZM51.7228 39.1164H45.0217C44.7223 43.6052 43.1618 47.9079 40.5361 51.5345C46.5717 50.4106 51.2227 45.349 51.7228 39.1164ZM35.4639 51.5345C32.8382 47.9079 31.2777 43.6052 30.9783 39.1164H24.2772C24.7773 45.349 29.4283 50.4106 35.4639 51.5345ZM24.2772 36.8838H30.9783C31.2777 32.395 32.8382 28.0923 35.4639 24.4657C29.4283 25.5896 24.7772 30.6511 24.2772 36.8838ZM38 24.826C40.7883 28.2609 42.4587 32.4697 42.7837 36.8838H33.2163C33.5413 32.4697 35.2117 28.2609 38 24.826ZM38 51.1742C35.2117 47.7393 33.5413 43.5305 33.2163 39.1164H42.7837C42.4587 43.5305 40.7883 47.7393 38 51.1742Z" fill="white"/>
</svg>
