<svg width="24" height="24" viewBox="0 0 24 24" fill="none" xmlns="http://www.w3.org/2000/svg">
<path fill-rule="evenodd" clip-rule="evenodd" d="M11.9405 0L11.9385 9.84858e-06C8.76129 0.0163036 5.72019 1.29199 3.48217 3.54729C1.24414 5.8026 -0.00810742 8.85342 3.95041e-05 12.0307C0.00818643 15.208 1.27607 18.2523 3.52563 20.4961C5.77519 22.7399 8.82279 24 12.0001 24C15.1774 24 18.225 22.7399 20.4745 20.4961C22.7241 18.2523 23.992 15.208 24.0001 12.0307C24.0083 8.85342 22.756 5.8026 20.518 3.54729C18.28 1.29199 15.2389 0.0163036 12.0616 9.84858e-06L12.0597 0H11.9405ZM11.4808 1.5127C11.4445 1.5145 11.4081 1.51649 11.3718 1.51866C9.87171 2.80946 8.6641 4.40595 7.83019 6.20172C7.75832 6.3565 7.68937 6.51244 7.62335 6.66946C8.86725 7.06387 10.1646 7.29019 11.4808 7.33741V1.5127ZM9.59549 1.77886C7.69643 2.22568 5.94308 3.19692 4.54691 4.60387C4.40882 4.74302 4.27503 4.88563 4.14561 5.03149C4.93783 5.54299 5.77485 5.97376 6.64398 6.31976C6.72158 6.13318 6.80304 5.94799 6.88833 5.76434C7.57072 4.29485 8.48596 2.94953 9.59549 1.77886ZM3.49265 5.84558C2.30569 7.48635 1.61362 9.44305 1.51283 11.4808H5.50949C5.56464 10.0532 5.8242 8.64269 6.2787 7.29207C5.30762 6.90695 4.37381 6.42314 3.49265 5.84558ZM1.51285 12.5193C1.61373 14.5579 2.30624 16.5143 3.49279 18.1545C4.36366 17.5837 5.28594 17.1045 6.24482 16.7216C5.79931 15.3655 5.5497 13.9504 5.50547 12.5193H1.51285ZM4.14577 18.9685C4.287 19.1277 4.43342 19.283 4.58493 19.4341C5.94086 20.7866 7.62815 21.7306 9.45564 22.1871C8.40889 21.0519 7.54183 19.7585 6.88833 18.3512C6.78797 18.1351 6.69291 17.9168 6.60319 17.6967C5.74871 18.0399 4.92554 18.4651 4.14577 18.9685ZM11.2282 22.4716C11.3123 22.4778 11.3965 22.483 11.4808 22.4872V16.6627C10.1496 16.7105 8.83779 16.9414 7.581 17.3442C7.65972 17.5357 7.7428 17.7256 7.83019 17.9138C8.63733 19.6519 9.79456 21.2034 11.2282 22.4716ZM12.5193 22.4872C12.6037 22.483 12.6879 22.4778 12.772 22.4716C14.2056 21.2034 15.3628 19.6519 16.17 17.9138C16.2574 17.7256 16.3404 17.5357 16.4192 17.3442C15.1624 16.9414 13.8505 16.7105 12.5193 16.6627V22.4872ZM14.5445 22.1871C16.372 21.7306 18.0593 20.7866 19.4152 19.4341C19.5667 19.283 19.7132 19.1277 19.8544 18.9685C19.0746 18.4651 18.2514 18.0399 17.397 17.6967C17.3072 17.9168 17.2122 18.1351 17.1118 18.3512C16.4583 19.7585 15.5913 21.0519 14.5445 22.1871ZM20.5074 18.1545C21.6939 16.5143 22.3864 14.5579 22.4873 12.5193H18.4947C18.4505 13.9504 18.2008 15.3655 17.7553 16.7216C18.7142 17.1045 19.6365 17.5837 20.5074 18.1545ZM22.4873 11.4808C22.3865 9.44305 21.6945 7.48635 20.5075 5.84558C19.6263 6.42314 18.6925 6.90695 17.7214 7.29207C18.1759 8.64269 18.4355 10.0532 18.4907 11.4808H22.4873ZM19.8545 5.03149C19.7251 4.88563 19.5913 4.74302 19.4532 4.60387C18.0571 3.19692 16.3037 2.22568 14.4047 1.77886C15.5142 2.94953 16.4294 4.29485 17.1118 5.76434C17.1971 5.94799 17.2786 6.13318 17.3562 6.31976C18.2253 5.97376 19.0623 5.54299 19.8545 5.03149ZM12.6284 1.51866C12.5921 1.51649 12.5557 1.5145 12.5193 1.5127V7.33741C13.8356 7.29019 15.1329 7.06387 16.3768 6.66946C16.3108 6.51244 16.2418 6.3565 16.17 6.20172C15.336 4.40595 14.1284 2.80946 12.6284 1.51866ZM6.54879 11.4808C6.6031 10.1729 6.84181 8.88074 7.2565 7.64246C8.61744 8.07935 10.0387 8.32824 11.4808 8.3765V11.4808H6.54879ZM12.5193 11.4808V8.3765C13.9614 8.32824 15.3827 8.07935 16.7437 7.64246C17.1583 8.88074 17.397 10.1729 17.4514 11.4808H12.5193ZM12.5193 12.5193H17.4557C17.4121 13.8299 17.1835 15.1258 16.7781 16.3688C15.4067 15.925 13.9736 15.6723 12.5193 15.6237V12.5193ZM11.4808 12.5193V15.6237C10.0265 15.6723 8.59344 15.925 7.22203 16.3688C6.81667 15.1258 6.588 13.8299 6.54448 12.5193H11.4808Z" fill="white"/>
</svg>
