<svg width="74" height="74" viewBox="0 0 74 74" fill="none" xmlns="http://www.w3.org/2000/svg">
<rect opacity="0.75" x="0.292893" y="37" width="51.9117" height="51.9117" rx="1.1364" transform="rotate(-45 0.292893 37)" fill="#0E0C0A" stroke="#E5793B"/>
<path fill-rule="evenodd" clip-rule="evenodd" d="M37 53.0002C45.8366 53.0002 53 45.8367 53 37.0001C53 28.1635 45.8366 21 37 21C28.1634 21 21 28.1635 21 37.0001C21 45.8367 28.1634 53.0002 37 53.0002ZM39.5361 23.4657C42.1618 27.0923 43.7223 31.395 44.0217 35.8838H50.7228C50.2228 29.6511 45.5717 24.5896 39.5361 23.4657ZM50.7228 38.1164H44.0217C43.7223 42.6052 42.1618 46.9079 39.5361 50.5345C45.5717 49.4106 50.2227 44.349 50.7228 38.1164ZM34.4639 50.5345C31.8382 46.9079 30.2777 42.6052 29.9783 38.1164H23.2772C23.7773 44.349 28.4283 49.4106 34.4639 50.5345ZM23.2772 35.8838H29.9783C30.2777 31.395 31.8382 27.0923 34.4639 23.4657C28.4283 24.5896 23.7772 29.6511 23.2772 35.8838ZM37 23.826C39.7883 27.2609 41.4587 31.4697 41.7837 35.8838H32.2163C32.5413 31.4697 34.2117 27.2609 37 23.826ZM37 50.1742C34.2117 46.7393 32.5413 42.5305 32.2163 38.1164H41.7837C41.4587 42.5305 39.7883 46.7393 37 50.1742Z" fill="white"/>
</svg>
