<svg width="65" height="24" viewBox="0 0 65 24" fill="none" xmlns="http://www.w3.org/2000/svg">
<path fill-rule="evenodd" clip-rule="evenodd" d="M32.5049 0L32.503 9.84858e-06C29.3257 0.0163036 26.2846 1.29199 24.0466 3.54729C21.8086 5.8026 20.5563 8.85342 20.5645 12.0307C20.5726 15.208 21.8405 18.2523 24.0901 20.4961C26.3396 22.7399 29.3872 24 32.5645 24C35.7418 24 38.7894 22.7399 41.039 20.4961C43.2885 18.2523 44.5564 15.208 44.5646 12.0307C44.5727 8.85342 43.3205 5.8026 41.0824 3.54729C38.8444 1.29199 35.8033 0.0163036 32.6261 9.84858e-06L32.6241 0H32.5049ZM32.0453 1.5127C32.0089 1.5145 31.9725 1.51649 31.9362 1.51866C30.4362 2.80946 29.2286 4.40595 28.3946 6.20172C28.3228 6.3565 28.2538 6.51244 28.1878 6.66946C29.4317 7.06387 30.729 7.29019 32.0453 7.33741V1.5127ZM30.1599 1.77886C28.2609 2.22568 26.5075 3.19692 25.1114 4.60387C24.9733 4.74302 24.8395 4.88563 24.7101 5.03149C25.5023 5.54299 26.3393 5.97376 27.2084 6.31976C27.286 6.13318 27.3675 5.94799 27.4528 5.76434C28.1352 4.29485 29.0504 2.94953 30.1599 1.77886ZM24.0571 5.84558C22.8701 7.48635 22.1781 9.44305 22.0773 11.4808H26.0739C26.1291 10.0532 26.3887 8.64269 26.8432 7.29207C25.8721 6.90695 24.9383 6.42314 24.0571 5.84558ZM22.0773 12.5193C22.1782 14.5579 22.8707 16.5143 24.0572 18.1545C24.9281 17.5837 25.8504 17.1045 26.8093 16.7216C26.3638 15.3655 26.1141 13.9504 26.0699 12.5193H22.0773ZM24.7102 18.9685C24.8514 19.1277 24.9979 19.283 25.1494 19.4341C26.5053 20.7866 28.1926 21.7306 30.0201 22.1871C28.9733 21.0519 28.1063 19.7585 27.4528 18.3512C27.3524 18.1351 27.2574 17.9168 27.1676 17.6967C26.3132 18.0399 25.49 18.4651 24.7102 18.9685ZM31.7926 22.4716C31.8767 22.4778 31.9609 22.483 32.0453 22.4872V16.6627C30.7141 16.7105 29.4022 16.9414 28.1455 17.3442C28.2242 17.5357 28.3072 17.7256 28.3946 17.9138C29.2018 19.6519 30.359 21.2034 31.7926 22.4716ZM33.0838 22.4872C33.1681 22.483 33.2524 22.4778 33.3364 22.4716C34.77 21.2034 35.9273 19.6519 36.7344 17.9138C36.8218 17.7256 36.9049 17.5357 36.9836 17.3442C35.7268 16.9414 34.415 16.7105 33.0838 16.6627V22.4872ZM35.109 22.1871C36.9364 21.7306 38.6237 20.7866 39.9797 19.4341C40.1312 19.283 40.2776 19.1277 40.4188 18.9685C39.6391 18.4651 38.8159 18.0399 37.9614 17.6967C37.8717 17.9168 37.7766 18.1351 37.6763 18.3512C37.0228 19.7585 36.1557 21.0519 35.109 22.1871ZM41.0718 18.1545C42.2584 16.5143 42.9509 14.5579 43.0518 12.5193H39.0591C39.0149 13.9504 38.7653 15.3655 38.3198 16.7216C39.2787 17.1045 40.2009 17.5837 41.0718 18.1545ZM43.0518 11.4808C42.951 9.44305 42.2589 7.48635 41.072 5.84558C40.1908 6.42314 39.257 6.90695 38.2859 7.29207C38.7404 8.64269 39 10.0532 39.0551 11.4808H43.0518ZM40.419 5.03149C40.2896 4.88563 40.1558 4.74302 40.0177 4.60387C38.6215 3.19692 36.8682 2.22568 34.9691 1.77886C36.0786 2.94953 36.9939 4.29485 37.6763 5.76434C37.7616 5.94799 37.843 6.13318 37.9206 6.31976C38.7898 5.97376 39.6268 5.54299 40.419 5.03149ZM33.1928 1.51866C33.1565 1.51649 33.1202 1.5145 33.0838 1.5127V7.33741C34.4 7.29019 35.6973 7.06387 36.9412 6.66946C36.8752 6.51244 36.8063 6.3565 36.7344 6.20172C35.9005 4.40595 34.6929 2.80946 33.1928 1.51866ZM27.1132 11.4808C27.1676 10.1729 27.4063 8.88074 27.8209 7.64246C29.1819 8.07935 30.6032 8.32824 32.0453 8.3765V11.4808H27.1132ZM33.0838 11.4808V8.3765C34.5259 8.32824 35.9472 8.07935 37.3081 7.64246C37.7228 8.88074 37.9615 10.1729 38.0158 11.4808H33.0838ZM33.0838 12.5193H38.0201C37.9766 13.8299 37.7479 15.1258 37.3426 16.3688C35.9712 15.925 34.5381 15.6723 33.0838 15.6237V12.5193ZM32.0453 12.5193V15.6237C30.591 15.6723 29.1579 15.925 27.7865 16.3688C27.3811 15.1258 27.1525 13.8299 27.1089 12.5193H32.0453Z" fill="white"/>
</svg>
