<svg width="45" height="44" viewBox="0 0 45 44" fill="none" xmlns="http://www.w3.org/2000/svg">
<path fill-rule="evenodd" clip-rule="evenodd" d="M22.5049 10L22.503 10C19.3257 10.0163 16.2846 11.292 14.0466 13.5473C11.8086 15.8026 10.5563 18.8534 10.5645 22.0307C10.5726 25.208 11.8405 28.2523 14.0901 30.4961C16.3396 32.7399 19.3872 34 22.5645 34C25.7418 34 28.7894 32.7399 31.039 30.4961C33.2885 28.2523 34.5564 25.208 34.5646 22.0307C34.5727 18.8534 33.3205 15.8026 31.0824 13.5473C28.8444 11.292 25.8033 10.0163 22.6261 10L22.6241 10H22.5049ZM22.0453 11.5127C22.0089 11.5145 21.9725 11.5165 21.9362 11.5187C20.4362 12.8095 19.2286 14.406 18.3946 16.2017C18.3228 16.3565 18.2538 16.5124 18.1878 16.6695C19.4317 17.0639 20.729 17.2902 22.0453 17.3374V11.5127ZM20.1599 11.7789C18.2609 12.2257 16.5075 13.1969 15.1114 14.6039C14.9733 14.743 14.8395 14.8856 14.7101 15.0315C15.5023 15.543 16.3393 15.9738 17.2084 16.3198C17.286 16.1332 17.3675 15.948 17.4528 15.7643C18.1352 14.2949 19.0504 12.9495 20.1599 11.7789ZM14.0571 15.8456C12.8701 17.4863 12.1781 19.443 12.0773 21.4808H16.0739C16.1291 20.0532 16.3887 18.6427 16.8432 17.2921C15.8721 16.9069 14.9383 16.4231 14.0571 15.8456ZM12.0773 22.5193C12.1782 24.5579 12.8707 26.5143 14.0572 28.1545C14.9281 27.5837 15.8504 27.1045 16.8093 26.7216C16.3638 25.3655 16.1141 23.9504 16.0699 22.5193H12.0773ZM14.7102 28.9685C14.8514 29.1277 14.9979 29.283 15.1494 29.4341C16.5053 30.7866 18.1926 31.7306 20.0201 32.1871C18.9733 31.0519 18.1063 29.7585 17.4528 28.3512C17.3524 28.1351 17.2574 27.9168 17.1676 27.6967C16.3132 28.0399 15.49 28.4651 14.7102 28.9685ZM21.7926 32.4716C21.8767 32.4778 21.9609 32.483 22.0453 32.4872V26.6627C20.7141 26.7105 19.4022 26.9414 18.1455 27.3442C18.2242 27.5357 18.3072 27.7256 18.3946 27.9138C19.2018 29.6519 20.359 31.2034 21.7926 32.4716ZM23.0838 32.4872C23.1681 32.483 23.2524 32.4778 23.3364 32.4716C24.77 31.2034 25.9273 29.6519 26.7344 27.9138C26.8218 27.7256 26.9049 27.5357 26.9836 27.3442C25.7268 26.9414 24.415 26.7105 23.0838 26.6627V32.4872ZM25.109 32.1871C26.9364 31.7306 28.6237 30.7866 29.9797 29.4341C30.1312 29.283 30.2776 29.1277 30.4188 28.9685C29.6391 28.4651 28.8159 28.0399 27.9614 27.6967C27.8717 27.9168 27.7766 28.1351 27.6763 28.3512C27.0228 29.7585 26.1557 31.0519 25.109 32.1871ZM31.0718 28.1545C32.2584 26.5143 32.9509 24.5579 33.0518 22.5193H29.0591C29.0149 23.9504 28.7653 25.3655 28.3198 26.7216C29.2787 27.1045 30.2009 27.5837 31.0718 28.1545ZM33.0518 21.4808C32.951 19.443 32.2589 17.4863 31.072 15.8456C30.1908 16.4231 29.257 16.9069 28.2859 17.2921C28.7404 18.6427 29 20.0532 29.0551 21.4808H33.0518ZM30.419 15.0315C30.2896 14.8856 30.1558 14.743 30.0177 14.6039C28.6215 13.1969 26.8682 12.2257 24.9691 11.7789C26.0786 12.9495 26.9939 14.2949 27.6763 15.7643C27.7616 15.948 27.843 16.1332 27.9206 16.3198C28.7898 15.9738 29.6268 15.543 30.419 15.0315ZM23.1928 11.5187C23.1565 11.5165 23.1202 11.5145 23.0838 11.5127V17.3374C24.4 17.2902 25.6973 17.0639 26.9412 16.6695C26.8752 16.5124 26.8063 16.3565 26.7344 16.2017C25.9005 14.406 24.6929 12.8095 23.1928 11.5187ZM17.1132 21.4808C17.1676 20.1729 17.4063 18.8807 17.8209 17.6425C19.1819 18.0793 20.6032 18.3282 22.0453 18.3765V21.4808H17.1132ZM23.0838 21.4808V18.3765C24.5259 18.3282 25.9472 18.0793 27.3081 17.6425C27.7228 18.8807 27.9615 20.1729 28.0158 21.4808H23.0838ZM23.0838 22.5193H28.0201C27.9766 23.8299 27.7479 25.1258 27.3426 26.3688C25.9712 25.925 24.5381 25.6723 23.0838 25.6237V22.5193ZM22.0453 22.5193V25.6237C20.591 25.6723 19.1579 25.925 17.7865 26.3688C17.3811 25.1258 17.1525 23.8299 17.1089 22.5193H22.0453Z" fill="white"/>
</svg>
