<svg width="269" height="135" viewBox="0 0 269 135" fill="none" xmlns="http://www.w3.org/2000/svg">
  <g filter="url(#filter0_d_560_240)">
    <rect x="25" y="25" width="219" height="85" rx="10" fill="#656CD5" shape-rendering="crispEdges" />
    <path
      d="M67.8766 82L61.2766 60.38L64.8166 60.4L69.6366 76.2L74.4966 60.4H77.6366L82.4766 76.2L87.3166 60.4H90.8366L84.2366 82H81.2766L76.0566 65.58L70.8366 82H67.8766ZM103.027 82.6C100.907 82.6 99.0539 82.1333 97.4672 81.2C95.8939 80.2533 94.6672 78.94 93.7872 77.26C92.9072 75.5667 92.4672 73.5933 92.4672 71.34C92.4672 68.98 92.9005 66.94 93.7672 65.22C94.6339 63.4867 95.8405 62.1533 97.3872 61.22C98.9472 60.2733 100.774 59.8 102.867 59.8C105.041 59.8 106.887 60.3 108.407 61.3C109.941 62.3 111.087 63.7267 111.847 65.58C112.621 67.4333 112.954 69.64 112.847 72.2H109.247V70.92C109.207 68.2667 108.667 66.2867 107.627 64.98C106.587 63.66 105.041 63 102.987 63C100.787 63 99.1139 63.7067 97.9672 65.12C96.8205 66.5333 96.2472 68.56 96.2472 71.2C96.2472 73.7467 96.8205 75.72 97.9672 77.12C99.1139 78.52 100.747 79.22 102.867 79.22C104.294 79.22 105.534 78.8933 106.587 78.24C107.641 77.5867 108.467 76.6467 109.067 75.42L112.487 76.6C111.647 78.5067 110.381 79.9867 108.687 81.04C107.007 82.08 105.121 82.6 103.027 82.6ZM95.0472 72.2V69.34H111.007V72.2H95.0472ZM127.22 82.6C125.193 82.6 123.487 82.1 122.1 81.1C120.713 80.0867 119.66 78.72 118.94 77C118.233 75.2667 117.88 73.3267 117.88 71.18C117.88 69.0067 118.233 67.06 118.94 65.34C119.66 63.62 120.713 62.2667 122.1 61.28C123.5 60.2933 125.213 59.8 127.24 59.8C129.24 59.8 130.96 60.3 132.4 61.3C133.853 62.2867 134.967 63.64 135.74 65.36C136.513 67.08 136.9 69.02 136.9 71.18C136.9 73.34 136.513 75.28 135.74 77C134.967 78.72 133.853 80.0867 132.4 81.1C130.96 82.1 129.233 82.6 127.22 82.6ZM117.28 82V53.2H120.86V66.1H120.46V82H117.28ZM126.78 79.34C128.207 79.34 129.387 78.98 130.32 78.26C131.253 77.54 131.953 76.5667 132.42 75.34C132.887 74.1 133.12 72.7133 133.12 71.18C133.12 69.66 132.887 68.2867 132.42 67.06C131.967 65.8333 131.26 64.86 130.3 64.14C129.353 63.42 128.147 63.06 126.68 63.06C125.28 63.06 124.12 63.4067 123.2 64.1C122.28 64.78 121.593 65.7333 121.14 66.96C120.687 68.1733 120.46 69.58 120.46 71.18C120.46 72.7533 120.68 74.16 121.12 75.4C121.573 76.6267 122.267 77.5933 123.2 78.3C124.133 78.9933 125.327 79.34 126.78 79.34ZM149.132 82.58C146.559 82.58 144.445 82.02 142.792 80.9C141.152 79.7667 140.145 78.1867 139.772 76.16L143.412 75.58C143.705 76.7533 144.379 77.6867 145.432 78.38C146.485 79.06 147.792 79.4 149.352 79.4C150.832 79.4 151.992 79.0933 152.832 78.48C153.672 77.8667 154.092 77.0333 154.092 75.98C154.092 75.3667 153.952 74.8733 153.672 74.5C153.392 74.1133 152.812 73.7533 151.932 73.42C151.065 73.0867 149.752 72.6867 147.992 72.22C146.085 71.7133 144.585 71.1867 143.492 70.64C142.399 70.0933 141.619 69.46 141.152 68.74C140.685 68.02 140.452 67.1467 140.452 66.12C140.452 64.8533 140.799 63.7467 141.492 62.8C142.185 61.84 143.152 61.1 144.392 60.58C145.645 60.06 147.099 59.8 148.752 59.8C150.392 59.8 151.859 60.06 153.152 60.58C154.445 61.1 155.485 61.84 156.272 62.8C157.072 63.7467 157.545 64.8533 157.692 66.12L154.052 66.78C153.879 65.62 153.319 64.7067 152.372 64.04C151.439 63.3733 150.232 63.02 148.752 62.98C147.352 62.9267 146.212 63.1733 145.332 63.72C144.465 64.2667 144.032 65.0067 144.032 65.94C144.032 66.46 144.192 66.9067 144.512 67.28C144.845 67.6533 145.452 68.0067 146.332 68.34C147.225 68.6733 148.519 69.0533 150.212 69.48C152.119 69.96 153.619 70.4867 154.712 71.06C155.819 71.62 156.605 72.2867 157.072 73.06C157.539 73.82 157.772 74.76 157.772 75.88C157.772 77.96 157.005 79.6 155.472 80.8C153.939 81.9867 151.825 82.58 149.132 82.58ZM162.583 56.58V52.9H166.143V56.58H162.583ZM162.583 82V60.4H166.143V82H162.583ZM184.204 82C182.924 82.2533 181.657 82.3533 180.404 82.3C179.164 82.26 178.057 82.0133 177.084 81.56C176.11 81.0933 175.37 80.3733 174.864 79.4C174.437 78.5467 174.204 77.6867 174.164 76.82C174.137 75.94 174.124 74.9467 174.124 73.84V54.4H177.684V73.68C177.684 74.56 177.69 75.3133 177.704 75.94C177.73 76.5667 177.87 77.1067 178.124 77.56C178.604 78.4133 179.364 78.9133 180.404 79.06C181.457 79.2067 182.724 79.1667 184.204 78.94V82ZM169.744 63.34V60.4H184.204V63.34H169.744ZM197.051 82.6C194.931 82.6 193.077 82.1333 191.491 81.2C189.917 80.2533 188.691 78.94 187.811 77.26C186.931 75.5667 186.491 73.5933 186.491 71.34C186.491 68.98 186.924 66.94 187.791 65.22C188.657 63.4867 189.864 62.1533 191.411 61.22C192.971 60.2733 194.797 59.8 196.891 59.8C199.064 59.8 200.911 60.3 202.431 61.3C203.964 62.3 205.111 63.7267 205.871 65.58C206.644 67.4333 206.977 69.64 206.871 72.2H203.271V70.92C203.231 68.2667 202.691 66.2867 201.651 64.98C200.611 63.66 199.064 63 197.011 63C194.811 63 193.137 63.7067 191.991 65.12C190.844 66.5333 190.271 68.56 190.271 71.2C190.271 73.7467 190.844 75.72 191.991 77.12C193.137 78.52 194.771 79.22 196.891 79.22C198.317 79.22 199.557 78.8933 200.611 78.24C201.664 77.5867 202.491 76.6467 203.091 75.42L206.511 76.6C205.671 78.5067 204.404 79.9867 202.711 81.04C201.031 82.08 199.144 82.6 197.051 82.6ZM189.071 72.2V69.34H205.031V72.2H189.071Z"
      fill="white" />
  </g>
  <defs>
    <filter id="filter0_d_560_240" x="0" y="0" width="269" height="135" filterUnits="userSpaceOnUse"
      color-interpolation-filters="sRGB">
      <feFlood flood-opacity="0" result="BackgroundImageFix" />
      <feColorMatrix in="SourceAlpha" type="matrix"
        values="0 0 0 0 0 0 0 0 0 0 0 0 0 0 0 0 0 0 127 0" result="hardAlpha" />
      <feOffset />
      <feGaussianBlur stdDeviation="12.5" />
      <feComposite in2="hardAlpha" operator="out" />
      <feColorMatrix type="matrix"
        values="0 0 0 0 0.396078 0 0 0 0 0.423529 0 0 0 0 0.831373 0 0 0 0.5 0" />
      <feBlend mode="normal" in2="BackgroundImageFix" result="effect1_dropShadow_560_240" />
      <feBlend mode="normal" in="SourceGraphic" in2="effect1_dropShadow_560_240" result="shape" />
    </filter>
  </defs>
</svg>