<svg width="278" height="135" viewBox="0 0 278 135" fill="none" xmlns="http://www.w3.org/2000/svg">
<g filter="url(#filter0_d_561_171)">
<rect x="25" y="25" width="228" height="85" rx="10" fill="#FB0F1A" shape-rendering="crispEdges"/>
<path d="M66.2063 91.6L70.3863 80.24L70.4463 83.6L61.0063 60.4H64.7463L72.1463 79.06H70.8663L77.8063 60.4H81.4262L69.6663 91.6H66.2063ZM93.1484 82.6C91.0018 82.6 89.1484 82.1133 87.5884 81.14C86.0418 80.1667 84.8484 78.82 84.0084 77.1C83.1684 75.38 82.7484 73.4067 82.7484 71.18C82.7484 68.9133 83.1751 66.9267 84.0284 65.22C84.8818 63.5133 86.0884 62.1867 87.6484 61.24C89.2084 60.28 91.0418 59.8 93.1484 59.8C95.3084 59.8 97.1684 60.2867 98.7284 61.26C100.288 62.22 101.482 63.56 102.308 65.28C103.148 66.9867 103.568 68.9533 103.568 71.18C103.568 73.4333 103.148 75.42 102.308 77.14C101.468 78.8467 100.268 80.1867 98.7084 81.16C97.1484 82.12 95.2951 82.6 93.1484 82.6ZM93.1484 79.22C95.3884 79.22 97.0551 78.4733 98.1484 76.98C99.2418 75.4867 99.7884 73.5533 99.7884 71.18C99.7884 68.74 99.2351 66.8 98.1284 65.36C97.0218 63.9067 95.3618 63.18 93.1484 63.18C91.6418 63.18 90.4018 63.52 89.4284 64.2C88.4551 64.88 87.7284 65.82 87.2484 67.02C86.7684 68.22 86.5284 69.6067 86.5284 71.18C86.5284 73.6067 87.0884 75.5533 88.2084 77.02C89.3284 78.4867 90.9751 79.22 93.1484 79.22ZM116.172 82.56C114.785 82.56 113.592 82.34 112.592 81.9C111.605 81.46 110.785 80.8733 110.132 80.14C109.479 79.4067 108.965 78.5933 108.592 77.7C108.219 76.8067 107.952 75.8933 107.792 74.96C107.645 74.0267 107.572 73.1533 107.572 72.34V60.4H111.172V71.22C111.172 72.2333 111.265 73.2133 111.452 74.16C111.639 75.1067 111.952 75.96 112.392 76.72C112.845 77.48 113.445 78.08 114.192 78.52C114.952 78.96 115.899 79.18 117.032 79.18C117.925 79.18 118.739 79.0267 119.472 78.72C120.205 78.4133 120.832 77.96 121.352 77.36C121.872 76.7467 122.272 75.9733 122.552 75.04C122.832 74.1067 122.972 73.02 122.972 71.78L125.312 72.5C125.312 74.58 124.932 76.3733 124.172 77.88C123.425 79.3867 122.365 80.5467 120.992 81.36C119.632 82.16 118.025 82.56 116.172 82.56ZM123.372 82V76.22H122.972V60.4H126.552V82H123.372ZM144.212 82C142.932 82.2533 141.665 82.3533 140.412 82.3C139.172 82.26 138.065 82.0133 137.092 81.56C136.118 81.0933 135.378 80.3733 134.872 79.4C134.445 78.5467 134.212 77.6867 134.172 76.82C134.145 75.94 134.132 74.9467 134.132 73.84V54.4H137.692V73.68C137.692 74.56 137.698 75.3133 137.712 75.94C137.738 76.5667 137.878 77.1067 138.132 77.56C138.612 78.4133 139.372 78.9133 140.412 79.06C141.465 79.2067 142.732 79.1667 144.212 78.94V82ZM129.752 63.34V60.4H144.212V63.34H129.752ZM156.797 82.56C155.41 82.56 154.217 82.34 153.217 81.9C152.23 81.46 151.41 80.8733 150.757 80.14C150.104 79.4067 149.59 78.5933 149.217 77.7C148.844 76.8067 148.577 75.8933 148.417 74.96C148.27 74.0267 148.197 73.1533 148.197 72.34V60.4H151.797V71.22C151.797 72.2333 151.89 73.2133 152.077 74.16C152.264 75.1067 152.577 75.96 153.017 76.72C153.47 77.48 154.07 78.08 154.817 78.52C155.577 78.96 156.524 79.18 157.657 79.18C158.55 79.18 159.364 79.0267 160.097 78.72C160.83 78.4133 161.457 77.96 161.977 77.36C162.497 76.7467 162.897 75.9733 163.177 75.04C163.457 74.1067 163.597 73.02 163.597 71.78L165.937 72.5C165.937 74.58 165.557 76.3733 164.797 77.88C164.05 79.3867 162.99 80.5467 161.617 81.36C160.257 82.16 158.65 82.56 156.797 82.56ZM163.997 82V76.22H163.597V60.4H167.177V82H163.997ZM182.697 82.6C180.67 82.6 178.963 82.1 177.577 81.1C176.19 80.0867 175.137 78.72 174.417 77C173.71 75.2667 173.357 73.3267 173.357 71.18C173.357 69.0067 173.71 67.06 174.417 65.34C175.137 63.62 176.19 62.2667 177.577 61.28C178.977 60.2933 180.69 59.8 182.717 59.8C184.717 59.8 186.437 60.3 187.877 61.3C189.33 62.2867 190.443 63.64 191.217 65.36C191.99 67.08 192.377 69.02 192.377 71.18C192.377 73.34 191.99 75.28 191.217 77C190.443 78.72 189.33 80.0867 187.877 81.1C186.437 82.1 184.71 82.6 182.697 82.6ZM172.757 82V53.2H176.337V66.1H175.937V82H172.757ZM182.257 79.34C183.683 79.34 184.863 78.98 185.797 78.26C186.73 77.54 187.43 76.5667 187.897 75.34C188.363 74.1 188.597 72.7133 188.597 71.18C188.597 69.66 188.363 68.2867 187.897 67.06C187.443 65.8333 186.737 64.86 185.777 64.14C184.83 63.42 183.623 63.06 182.157 63.06C180.757 63.06 179.597 63.4067 178.677 64.1C177.757 64.78 177.07 65.7333 176.617 66.96C176.163 68.1733 175.937 69.58 175.937 71.18C175.937 72.7533 176.157 74.16 176.597 75.4C177.05 76.6267 177.743 77.5933 178.677 78.3C179.61 78.9933 180.803 79.34 182.257 79.34ZM206.121 82.6C204.001 82.6 202.148 82.1333 200.561 81.2C198.988 80.2533 197.761 78.94 196.881 77.26C196.001 75.5667 195.561 73.5933 195.561 71.34C195.561 68.98 195.994 66.94 196.861 65.22C197.728 63.4867 198.934 62.1533 200.481 61.22C202.041 60.2733 203.868 59.8 205.961 59.8C208.134 59.8 209.981 60.3 211.501 61.3C213.034 62.3 214.181 63.7267 214.941 65.58C215.714 67.4333 216.048 69.64 215.941 72.2H212.341V70.92C212.301 68.2667 211.761 66.2867 210.721 64.98C209.681 63.66 208.134 63 206.081 63C203.881 63 202.208 63.7067 201.061 65.12C199.914 66.5333 199.341 68.56 199.341 71.2C199.341 73.7467 199.914 75.72 201.061 77.12C202.208 78.52 203.841 79.22 205.961 79.22C207.388 79.22 208.628 78.8933 209.681 78.24C210.734 77.5867 211.561 76.6467 212.161 75.42L215.581 76.6C214.741 78.5067 213.474 79.9867 211.781 81.04C210.101 82.08 208.214 82.6 206.121 82.6ZM198.141 72.2V69.34H214.101V72.2H198.141Z" fill="white"/>
</g>
<defs>
<filter id="filter0_d_561_171" x="0" y="0" width="278" height="135" filterUnits="userSpaceOnUse" color-interpolation-filters="sRGB">
<feFlood flood-opacity="0" result="BackgroundImageFix"/>
<feColorMatrix in="SourceAlpha" type="matrix" values="0 0 0 0 0 0 0 0 0 0 0 0 0 0 0 0 0 0 127 0" result="hardAlpha"/>
<feOffset/>
<feGaussianBlur stdDeviation="12.5"/>
<feComposite in2="hardAlpha" operator="out"/>
<feColorMatrix type="matrix" values="0 0 0 0 0.984314 0 0 0 0 0.0588235 0 0 0 0 0.101961 0 0 0 0.5 0"/>
<feBlend mode="normal" in2="BackgroundImageFix" result="effect1_dropShadow_561_171"/>
<feBlend mode="normal" in="SourceGraphic" in2="effect1_dropShadow_561_171" result="shape"/>
</filter>
</defs>
</svg>
