<svg width="74" height="74" viewBox="0 0 74 74" fill="none" xmlns="http://www.w3.org/2000/svg">
<rect opacity="0.75" x="0.292893" y="37" width="51.9117" height="51.9117" rx="1.1364" transform="rotate(-45 0.292893 37)" fill="#0E0C0A" stroke="#E5793B"/>
<path fill-rule="evenodd" clip-rule="evenodd" d="M34.4412 32.2336C34.1251 32.0538 33.7372 32.0557 33.4229 32.2386C33.1085 32.4214 32.9151 32.7577 32.9151 33.1213V42.0264C32.9151 42.3901 33.1085 42.7263 33.4229 42.9091C33.7372 43.092 34.1251 43.0939 34.4412 42.9141L42.2706 38.4616C42.5898 38.28 42.787 37.9411 42.787 37.5739C42.787 37.2066 42.5898 36.8677 42.2706 36.6862L34.4412 32.2336ZM39.7 37.5739L34.9576 40.2708V34.8769L39.7 37.5739Z" fill="white"/>
<path fill-rule="evenodd" clip-rule="evenodd" d="M36.892 49.0931L36.9998 49.0933L37.108 49.0931C37.178 49.093 37.2806 49.0927 37.4119 49.092C37.6744 49.0908 38.0515 49.0883 38.5113 49.0834C39.4303 49.0736 40.6813 49.0539 42.0071 49.0145C43.3313 48.9752 44.7382 48.9159 45.9666 48.8263C47.1665 48.7388 48.2826 48.6172 48.9739 48.4323L48.9881 48.4284C49.802 48.1981 50.5407 47.7571 51.1297 47.1499C51.7186 46.5428 52.1369 45.791 52.3423 44.9704C52.3478 44.9483 52.3526 44.9261 52.3567 44.9036C52.7927 42.4854 53.0078 40.0325 52.9992 37.5752C53.0146 35.0807 52.7995 32.5901 52.3567 30.1351C52.3526 30.1127 52.3478 30.0905 52.3423 30.0684C52.1369 29.2479 51.7186 28.496 51.1297 27.8889C50.5407 27.2817 49.802 26.8407 48.9881 26.6105C48.9762 26.6071 48.9643 26.604 48.9523 26.601C48.2691 26.4342 47.1604 26.3235 45.9602 26.2435C44.7336 26.1618 43.328 26.1078 42.0045 26.0719C40.6794 26.0359 39.429 26.018 38.5103 26.009C38.0508 26.0045 37.6738 26.0023 37.4115 26.0011C37.2803 26.0006 37.1778 26.0003 37.1078 26.0001L36.9998 26L36.892 26.0002C36.822 26.0003 36.7194 26.0006 36.5881 26.0012C36.3256 26.0025 35.9485 26.0049 35.4887 26.0098C34.5697 26.0197 33.3187 26.0393 31.9929 26.0787C30.6687 26.1181 29.2618 26.1773 28.0334 26.2669C26.8335 26.3545 25.7174 26.4761 25.0261 26.661L25.0119 26.6649C24.198 26.8952 23.4593 27.3362 22.8703 27.9433C22.2814 28.5505 21.8631 29.3023 21.6577 30.1229C21.6522 30.145 21.6474 30.1672 21.6433 30.1896C21.204 32.626 20.9889 35.0975 21.0008 37.5732C20.9855 40.0675 21.2006 42.5579 21.6433 45.0127C21.6493 45.0458 21.657 45.0787 21.6662 45.1111C21.8926 45.9061 22.3203 46.6294 22.9078 47.2109C23.4954 47.7924 24.223 48.2125 25.0204 48.4307L25.0261 48.4323C25.7174 48.6172 26.8335 48.7388 28.0334 48.8263C29.2618 48.9159 30.6687 48.9752 31.9929 49.0145C33.3187 49.0539 34.5697 49.0736 35.4887 49.0834C35.9485 49.0883 36.3256 49.0908 36.5881 49.092C36.7194 49.0927 36.822 49.093 36.892 49.0931ZM36.8965 28.0426L37 28.0424L37.1037 28.0426C37.1722 28.0427 37.2732 28.043 37.4027 28.0436C37.6618 28.0447 38.0351 28.0469 38.4904 28.0513C39.4014 28.0602 40.6394 28.078 41.9491 28.1136C43.2603 28.1491 44.6359 28.2023 45.8245 28.2815C47.0246 28.3614 47.957 28.4635 48.4497 28.5808C48.9108 28.7146 49.3292 28.9662 49.6636 29.3109C49.995 29.6525 50.2324 30.0737 50.3531 30.5337C50.7695 32.8548 50.9716 35.2093 50.9568 37.5675L50.9568 37.5775C50.9651 39.9003 50.7631 42.219 50.3531 44.5052C50.2324 44.9651 49.995 45.3863 49.6636 45.7279C49.3266 46.0753 48.9044 46.3281 48.4391 46.4611C47.9574 46.5885 47.0274 46.7011 45.818 46.7893C44.6313 46.8759 43.2571 46.934 41.9464 46.973C40.6375 47.0119 39.4001 47.0314 38.4894 47.0411C38.0343 47.046 37.6613 47.0484 37.4023 47.0496C37.2728 47.0502 37.1719 47.0505 37.1035 47.0507L36.9997 47.0508L36.8965 47.0507C36.8281 47.0505 36.7272 47.0502 36.5977 47.0496C36.3387 47.0484 35.9657 47.046 35.5106 47.0411C34.5999 47.0314 33.3625 47.0119 32.0536 46.973C30.7429 46.934 29.3687 46.8759 28.182 46.7893C26.969 46.7008 26.0371 46.5879 25.5566 46.4599C25.0992 46.3342 24.6818 46.0929 24.3446 45.7592C24.0178 45.4358 23.777 45.0362 23.6438 44.5967C23.2295 42.2812 23.0285 39.9326 23.0433 37.5803L23.0432 37.5688C23.0317 35.2284 23.2337 32.8918 23.6469 30.5881C23.7676 30.1282 24.005 29.707 24.3364 29.3654C24.6733 29.018 25.0956 28.7652 25.5609 28.6322C26.0426 28.5047 26.9726 28.3922 28.182 28.304C29.3687 28.2174 30.7429 28.1592 32.0536 28.1203C33.3625 28.0814 34.5999 28.0619 35.5106 28.0522C35.9657 28.0473 36.3387 28.0449 36.5977 28.0437C36.7272 28.0431 36.8281 28.0427 36.8965 28.0426Z" fill="white"/>
</svg>
