<svg width="75" height="24" viewBox="0 0 75 24" fill="none" xmlns="http://www.w3.org/2000/svg">
<path fill-rule="evenodd" clip-rule="evenodd" d="M50.7671 0.716839C52.2431 1.11195 53.4032 2.27188 53.7982 3.74789C54.5122 6.4205 54.5151 12 54.5151 12C54.5151 12 54.5151 17.5795 53.7982 20.2522C53.4032 21.7282 52.2431 22.8881 50.7671 23.2831C48.0946 24 37.373 24 37.373 24C37.373 24 26.6515 24 23.9788 23.2831C22.5028 22.8881 21.3429 21.7282 20.9478 20.2522C20.231 17.5795 20.231 12 20.231 12C20.231 12 20.231 6.4205 20.9478 3.74789C21.3429 2.27188 22.5028 1.11195 23.9788 0.716839C26.6515 0 37.373 0 37.373 0C37.373 0 48.0946 0 50.7671 0.716839ZM42.8482 12.0004L33.9413 17.1424V6.85835L42.8482 12.0004Z" fill="white"/>
</svg>
