<svg width="76" height="76" viewBox="0 0 76 76" fill="none" xmlns="http://www.w3.org/2000/svg">
<rect opacity="0.75" x="0.585786" y="38" width="52.9117" height="52.9117" rx="1.6364" transform="rotate(-45 0.585786 38)" fill="#0E0C0A" stroke="#E5793B" stroke-width="2"/>
<path fill-rule="evenodd" clip-rule="evenodd" d="M35.4412 33.2336C35.1251 33.0538 34.7372 33.0557 34.4229 33.2386C34.1085 33.4214 33.9151 33.7577 33.9151 34.1213V43.0264C33.9151 43.3901 34.1085 43.7263 34.4229 43.9091C34.7372 44.092 35.1251 44.0939 35.4412 43.9141L43.2706 39.4616C43.5898 39.28 43.787 38.9411 43.787 38.5739C43.787 38.2066 43.5898 37.8677 43.2706 37.6862L35.4412 33.2336ZM40.7 38.5739L35.9576 41.2708V35.8769L40.7 38.5739Z" fill="white"/>
<path fill-rule="evenodd" clip-rule="evenodd" d="M37.892 50.0931L37.9998 50.0933L38.108 50.0931C38.178 50.093 38.2806 50.0927 38.4119 50.092C38.6744 50.0908 39.0515 50.0883 39.5113 50.0834C40.4303 50.0736 41.6813 50.0539 43.0071 50.0145C44.3313 49.9752 45.7382 49.9159 46.9666 49.8263C48.1665 49.7388 49.2826 49.6172 49.9739 49.4323L49.9881 49.4284C50.802 49.1981 51.5407 48.7571 52.1297 48.1499C52.7186 47.5428 53.1369 46.791 53.3423 45.9704C53.3478 45.9483 53.3526 45.9261 53.3567 45.9036C53.7927 43.4854 54.0078 41.0325 53.9992 38.5752C54.0146 36.0807 53.7995 33.5901 53.3567 31.1351C53.3526 31.1127 53.3478 31.0905 53.3423 31.0684C53.1369 30.2479 52.7186 29.496 52.1297 28.8889C51.5407 28.2817 50.802 27.8407 49.9881 27.6105C49.9762 27.6071 49.9643 27.604 49.9523 27.601C49.2691 27.4342 48.1604 27.3235 46.9602 27.2435C45.7336 27.1618 44.328 27.1078 43.0045 27.0719C41.6794 27.0359 40.429 27.018 39.5103 27.009C39.0508 27.0045 38.6738 27.0023 38.4115 27.0011C38.2803 27.0006 38.1778 27.0003 38.1078 27.0001L37.9998 27L37.892 27.0002C37.822 27.0003 37.7194 27.0006 37.5881 27.0012C37.3256 27.0025 36.9485 27.0049 36.4887 27.0098C35.5697 27.0197 34.3187 27.0393 32.9929 27.0787C31.6687 27.1181 30.2618 27.1773 29.0334 27.2669C27.8335 27.3545 26.7174 27.4761 26.0261 27.661L26.0119 27.6649C25.198 27.8952 24.4593 28.3362 23.8703 28.9433C23.2814 29.5505 22.8631 30.3023 22.6577 31.1229C22.6522 31.145 22.6474 31.1672 22.6433 31.1896C22.204 33.626 21.9889 36.0975 22.0008 38.5732C21.9855 41.0675 22.2006 43.5579 22.6433 46.0127C22.6493 46.0458 22.657 46.0787 22.6662 46.1111C22.8926 46.9061 23.3203 47.6294 23.9078 48.2109C24.4954 48.7924 25.223 49.2125 26.0204 49.4307L26.0261 49.4323C26.7174 49.6172 27.8335 49.7388 29.0334 49.8263C30.2618 49.9159 31.6687 49.9752 32.9929 50.0145C34.3187 50.0539 35.5697 50.0736 36.4887 50.0834C36.9485 50.0883 37.3256 50.0908 37.5881 50.092C37.7194 50.0927 37.822 50.093 37.892 50.0931ZM37.8965 29.0426L38 29.0424L38.1037 29.0426C38.1722 29.0427 38.2732 29.043 38.4027 29.0436C38.6618 29.0447 39.0351 29.0469 39.4904 29.0513C40.4014 29.0602 41.6394 29.078 42.9491 29.1136C44.2603 29.1491 45.6359 29.2023 46.8245 29.2815C48.0246 29.3614 48.957 29.4635 49.4497 29.5808C49.9108 29.7146 50.3292 29.9662 50.6636 30.3109C50.995 30.6525 51.2324 31.0737 51.3531 31.5337C51.7695 33.8548 51.9716 36.2093 51.9568 38.5675L51.9568 38.5775C51.9651 40.9003 51.7631 43.219 51.3531 45.5052C51.2324 45.9651 50.995 46.3863 50.6636 46.7279C50.3266 47.0753 49.9044 47.3281 49.4391 47.4611C48.9574 47.5885 48.0274 47.7011 46.818 47.7893C45.6313 47.8759 44.2571 47.934 42.9464 47.973C41.6375 48.0119 40.4001 48.0314 39.4894 48.0411C39.0343 48.046 38.6613 48.0484 38.4023 48.0496C38.2728 48.0502 38.1719 48.0505 38.1035 48.0507L37.9997 48.0508L37.8965 48.0507C37.8281 48.0505 37.7272 48.0502 37.5977 48.0496C37.3387 48.0484 36.9657 48.046 36.5106 48.0411C35.5999 48.0314 34.3625 48.0119 33.0536 47.973C31.7429 47.934 30.3687 47.8759 29.182 47.7893C27.969 47.7008 27.0371 47.5879 26.5566 47.4599C26.0992 47.3342 25.6818 47.0929 25.3446 46.7592C25.0178 46.4358 24.777 46.0362 24.6438 45.5967C24.2295 43.2812 24.0285 40.9326 24.0433 38.5803L24.0432 38.5688C24.0317 36.2284 24.2337 33.8918 24.6469 31.5881C24.7676 31.1282 25.005 30.707 25.3364 30.3654C25.6733 30.018 26.0956 29.7652 26.5609 29.6322C27.0426 29.5047 27.9726 29.3922 29.182 29.304C30.3687 29.2174 31.7429 29.1592 33.0536 29.1203C34.3625 29.0814 35.5999 29.0619 36.5106 29.0522C36.9657 29.0473 37.3387 29.0449 37.5977 29.0437C37.7272 29.0431 37.8281 29.0427 37.8965 29.0426Z" fill="white"/>
</svg>
