<svg width="55" height="44" viewBox="0 0 55 44" fill="none" xmlns="http://www.w3.org/2000/svg">
<path fill-rule="evenodd" clip-rule="evenodd" d="M40.7671 10.7168C42.2431 11.1119 43.4032 12.2719 43.7982 13.7479C44.5122 16.4205 44.5151 22 44.5151 22C44.5151 22 44.5151 27.5795 43.7982 30.2522C43.4032 31.7282 42.2431 32.8881 40.7671 33.2831C38.0946 34 27.373 34 27.373 34C27.373 34 16.6515 34 13.9788 33.2831C12.5028 32.8881 11.3429 31.7282 10.9478 30.2522C10.231 27.5795 10.231 22 10.231 22C10.231 22 10.231 16.4205 10.9478 13.7479C11.3429 12.2719 12.5028 11.1119 13.9788 10.7168C16.6515 10 27.373 10 27.373 10C27.373 10 38.0946 10 40.7671 10.7168ZM32.8482 22.0004L23.9413 27.1424V16.8583L32.8482 22.0004Z" fill="white"/>
</svg>
