<svg width="35" height="24" viewBox="0 0 35 24" fill="none" xmlns="http://www.w3.org/2000/svg">
<path fill-rule="evenodd" clip-rule="evenodd" d="M31.0093 0.716839C32.4853 1.11195 33.6453 2.27188 34.0404 3.74789C34.7544 6.4205 34.7573 12 34.7573 12C34.7573 12 34.7573 17.5795 34.0404 20.2522C33.6453 21.7282 32.4853 22.8881 31.0093 23.2831C28.3368 24 17.6151 24 17.6151 24C17.6151 24 6.89365 24 4.22102 23.2831C2.74502 22.8881 1.58509 21.7282 1.18998 20.2522C0.473145 17.5795 0.473145 12 0.473145 12C0.473145 12 0.473145 6.4205 1.18998 3.74789C1.58509 2.27188 2.74502 1.11195 4.22102 0.716839C6.89365 0 17.6151 0 17.6151 0C17.6151 0 28.3368 0 31.0093 0.716839ZM23.0904 12.0004L14.1835 17.1424V6.85835L23.0904 12.0004Z" fill="white"/>
</svg>
