<svg width="1920" height="612" viewBox="0 0 1920 612" fill="none" xmlns="http://www.w3.org/2000/svg">
<rect x="472.162" y="180.162" width="974.978" height="248.983" fill="#1C1225"/>
<rect x="472.162" y="180.162" width="974.978" height="248.983" stroke="#8F54BE" stroke-width="8.66379"/>
<path d="M509.647 361.153V282.919H527.689V294.442H528.751C529.964 290.803 531.682 287.67 533.906 285.042C536.23 282.414 539.465 281.1 543.609 281.1C551.19 281.1 555.839 285.547 557.558 294.442H558.467C559.074 292.622 559.832 290.904 560.742 289.287C561.651 287.67 562.763 286.255 564.077 285.042C565.391 283.829 566.958 282.868 568.777 282.161C570.597 281.453 572.719 281.1 575.145 281.1C586.062 281.1 591.52 289.135 591.52 305.207V361.153H573.477V307.481C573.477 303.842 572.82 301.315 571.506 299.9C570.293 298.384 568.676 297.626 566.655 297.626C564.734 297.626 563.066 298.283 561.651 299.597C560.337 300.81 559.68 302.73 559.68 305.358V361.153H541.486V307.481C541.486 303.842 540.88 301.315 539.667 299.9C538.555 298.384 536.988 297.626 534.967 297.626C532.945 297.626 531.227 298.283 529.812 299.597C528.397 300.81 527.689 302.73 527.689 305.358V361.153H509.647ZM641.494 362.972C635.429 362.972 629.971 362.063 625.119 360.243C620.268 358.323 616.123 355.594 612.687 352.056C609.351 348.518 606.774 344.223 604.954 339.169C603.135 334.115 602.225 328.404 602.225 322.036C602.225 315.668 603.135 309.957 604.954 304.903C606.774 299.849 609.351 295.554 612.687 292.016C616.123 288.478 620.268 285.8 625.119 283.98C629.971 282.06 635.429 281.1 641.494 281.1C647.559 281.1 653.017 282.06 657.868 283.98C662.72 285.8 666.814 288.478 670.149 292.016C673.586 295.554 676.214 299.849 678.033 304.903C679.853 309.957 680.763 315.668 680.763 322.036C680.763 328.404 679.853 334.115 678.033 339.169C676.214 344.223 673.586 348.518 670.149 352.056C666.814 355.594 662.72 358.323 657.868 360.243C653.017 362.063 647.559 362.972 641.494 362.972ZM641.494 346.295C646.548 346.295 650.49 344.728 653.32 341.595C656.15 338.461 657.565 334.014 657.565 328.252V315.82C657.565 310.058 656.15 305.611 653.32 302.477C650.49 299.344 646.548 297.777 641.494 297.777C636.44 297.777 632.498 299.344 629.668 302.477C626.838 305.611 625.423 310.058 625.423 315.82V328.252C625.423 334.014 626.838 338.461 629.668 341.595C632.498 344.728 636.44 346.295 641.494 346.295ZM698.139 343.717H716.182V300.355H698.139V282.919H738.621V305.055H739.682C740.39 302.225 741.35 299.496 742.563 296.868C743.877 294.139 745.494 291.763 747.415 289.742C749.436 287.619 751.862 285.951 754.692 284.738C757.522 283.525 760.858 282.919 764.699 282.919H772.128V303.539H755.45C749.891 303.539 745.696 305.207 742.866 308.542C740.036 311.777 738.621 315.769 738.621 320.52V343.717H764.396V361.153H698.139V343.717ZM866.223 369.037C866.223 377.325 862.735 383.441 855.761 387.383C848.787 391.325 837.82 393.296 822.86 393.296C815.381 393.296 809.215 392.841 804.363 391.931C799.511 391.123 795.62 389.91 792.689 388.292C789.858 386.675 787.837 384.755 786.624 382.531C785.512 380.307 784.956 377.881 784.956 375.253C784.956 370.806 786.27 367.42 788.898 365.095C791.526 362.871 795.216 361.153 799.966 359.94V359.03C796.631 358.02 793.952 356.605 791.931 354.785C790.01 352.865 789.05 350.186 789.05 346.749C789.05 342.909 790.313 340.078 792.84 338.259C795.468 336.44 798.905 335.024 803.15 334.014V333.104C798.501 330.88 794.862 327.747 792.234 323.704C789.707 319.661 788.443 314.758 788.443 308.997C788.443 304.448 789.252 300.456 790.869 297.019C792.486 293.482 794.761 290.55 797.692 288.226C800.724 285.901 804.313 284.132 808.457 282.919C812.601 281.706 817.25 281.1 822.405 281.1C827.358 281.1 831.957 281.656 836.203 282.767V278.522C836.203 275.49 837.264 272.963 839.386 270.941C841.509 268.92 844.44 267.909 848.18 267.909H861.977V284.284H843.177V285.648C847.422 287.872 850.707 290.955 853.032 294.897C855.458 298.738 856.671 303.438 856.671 308.997C856.671 313.545 855.862 317.538 854.245 320.975C852.628 324.411 850.303 327.343 847.27 329.768C844.238 332.093 840.599 333.862 836.354 335.075C832.21 336.288 827.56 336.894 822.405 336.894C820.081 336.894 817.857 336.793 815.734 336.591C813.612 336.288 811.59 335.884 809.67 335.378C808.558 335.985 807.598 336.743 806.789 337.652C806.081 338.562 805.728 339.725 805.728 341.14C805.728 342.353 806.031 343.313 806.637 344.02C807.244 344.728 808.052 345.284 809.063 345.688C810.175 345.991 811.438 346.194 812.854 346.295C814.269 346.396 815.734 346.446 817.25 346.446H835.141C840.7 346.446 845.451 347.002 849.393 348.114C853.335 349.226 856.57 350.793 859.097 352.814C861.624 354.836 863.443 357.211 864.555 359.94C865.667 362.669 866.223 365.702 866.223 369.037ZM844.996 370.705C844.996 368.683 844.188 367.066 842.57 365.853C840.953 364.741 837.87 364.185 833.322 364.185H806.486C804.464 365.904 803.453 368.026 803.453 370.553C803.453 372.979 804.464 374.95 806.486 376.466C808.608 378.084 812.146 378.892 817.099 378.892H830.289C835.444 378.892 839.184 378.185 841.509 376.77C843.834 375.354 844.996 373.333 844.996 370.705ZM822.405 322.642C826.954 322.642 830.239 321.531 832.26 319.307C834.383 317.083 835.444 314.253 835.444 310.816V307.178C835.444 303.741 834.383 300.911 832.26 298.687C830.239 296.463 826.954 295.352 822.405 295.352C817.958 295.352 814.724 296.463 812.702 298.687C810.68 300.911 809.67 303.741 809.67 307.178V310.816C809.67 314.253 810.68 317.083 812.702 319.307C814.724 321.531 817.958 322.642 822.405 322.642ZM942.578 361.153C937.928 361.153 934.189 359.991 931.358 357.666C928.528 355.24 926.86 351.803 926.355 347.356H925.597C924.182 352.511 921.352 356.402 917.106 359.03C912.962 361.658 907.858 362.972 901.793 362.972C894.212 362.972 888.097 360.951 883.448 356.908C878.899 352.764 876.625 347.002 876.625 339.623C876.625 331.436 879.607 325.372 885.57 321.43C891.534 317.487 900.277 315.516 911.8 315.516H924.384V311.574C924.384 306.925 923.272 303.438 921.048 301.113C918.926 298.687 915.287 297.474 910.132 297.474C905.381 297.474 901.54 298.384 898.609 300.203C895.678 302.023 893.151 304.398 891.028 307.329L878.747 296.413C881.375 291.965 885.469 288.327 891.028 285.496C896.689 282.565 903.916 281.1 912.71 281.1C923.424 281.1 931.763 283.576 937.726 288.529C943.791 293.38 946.823 300.759 946.823 310.665V344.93H955.465V361.153H942.578ZM910.284 348.266C914.226 348.266 917.561 347.305 920.29 345.385C923.019 343.464 924.384 340.685 924.384 337.046V327.646H912.406C903.208 327.646 898.609 330.729 898.609 336.894V339.927C898.609 342.656 899.671 344.728 901.793 346.143C903.916 347.558 906.746 348.266 910.284 348.266ZM969.506 361.153V282.919H991.946V297.171H992.855C993.765 294.947 994.877 292.875 996.191 290.955C997.505 289.034 999.072 287.366 1000.89 285.951C1002.81 284.435 1004.98 283.273 1007.41 282.464C1009.94 281.554 1012.77 281.1 1015.9 281.1C1019.64 281.1 1023.08 281.757 1026.21 283.071C1029.34 284.284 1032.02 286.153 1034.25 288.68C1036.47 291.207 1038.19 294.29 1039.4 297.929C1040.72 301.568 1041.37 305.763 1041.37 310.513V361.153H1018.93V313.545C1018.93 303.438 1014.54 298.384 1005.74 298.384C1004.02 298.384 1002.31 298.637 1000.59 299.142C998.971 299.546 997.505 300.254 996.191 301.265C994.877 302.174 993.816 303.337 993.007 304.752C992.299 306.167 991.946 307.835 991.946 309.755V361.153H969.506ZM1060.87 343.717H1084.83V266.393H1060.87V248.957H1107.27V343.717H1131.22V361.153H1060.87V343.717ZM1215.31 361.153C1210.66 361.153 1206.92 359.991 1204.09 357.666C1201.26 355.24 1199.59 351.803 1199.09 347.356H1198.33C1196.91 352.511 1194.08 356.402 1189.84 359.03C1185.69 361.658 1180.59 362.972 1174.52 362.972C1166.94 362.972 1160.83 360.951 1156.18 356.908C1151.63 352.764 1149.36 347.002 1149.36 339.623C1149.36 331.436 1152.34 325.372 1158.3 321.43C1164.27 317.487 1173.01 315.516 1184.53 315.516H1197.12V311.574C1197.12 306.925 1196 303.438 1193.78 301.113C1191.66 298.687 1188.02 297.474 1182.86 297.474C1178.11 297.474 1174.27 298.384 1171.34 300.203C1168.41 302.023 1165.88 304.398 1163.76 307.329L1151.48 296.413C1154.11 291.965 1158.2 288.327 1163.76 285.496C1169.42 282.565 1176.65 281.1 1185.44 281.1C1196.16 281.1 1204.49 283.576 1210.46 288.529C1216.52 293.38 1219.55 300.759 1219.55 310.665V344.93H1228.2V361.153H1215.31ZM1183.02 348.266C1186.96 348.266 1190.29 347.305 1193.02 345.385C1195.75 343.464 1197.12 340.685 1197.12 337.046V327.646H1185.14C1175.94 327.646 1171.34 330.729 1171.34 336.894V339.927C1171.34 342.656 1172.4 344.728 1174.52 346.143C1176.65 347.558 1179.48 348.266 1183.02 348.266ZM1241.33 248.957H1263.77V297.171H1264.83C1266.75 292.521 1269.53 288.68 1273.17 285.648C1276.81 282.616 1281.76 281.1 1288.03 281.1C1292.37 281.1 1296.31 281.908 1299.85 283.525C1303.49 285.143 1306.57 287.619 1309.1 290.955C1311.73 294.29 1313.75 298.535 1315.17 303.69C1316.68 308.845 1317.44 314.961 1317.44 322.036C1317.44 329.111 1316.68 335.227 1315.17 340.382C1313.75 345.537 1311.73 349.782 1309.1 353.117C1306.57 356.453 1303.49 358.929 1299.85 360.547C1296.31 362.164 1292.37 362.972 1288.03 362.972C1281.76 362.972 1276.81 361.507 1273.17 358.576C1269.53 355.543 1266.75 351.652 1264.83 346.901H1263.77V361.153H1241.33V248.957ZM1278.32 345.537C1283.38 345.537 1287.27 344.02 1290 340.988C1292.73 337.855 1294.09 333.559 1294.09 328.101V315.971C1294.09 310.513 1292.73 306.268 1290 303.236C1287.27 300.102 1283.38 298.535 1278.32 298.535C1274.38 298.535 1270.94 299.496 1268.01 301.416C1265.18 303.337 1263.77 306.369 1263.77 310.513V333.559C1263.77 337.703 1265.18 340.735 1268.01 342.656C1270.94 344.576 1274.38 345.537 1278.32 345.537ZM1367.87 362.972C1359.18 362.972 1351.6 361.658 1345.13 359.03C1338.76 356.402 1333.96 352.814 1330.72 348.266L1343.31 336.591C1346.34 339.927 1349.88 342.555 1353.92 344.475C1358.06 346.295 1362.76 347.204 1368.02 347.204C1372.47 347.204 1375.96 346.547 1378.48 345.233C1381.01 343.818 1382.27 341.696 1382.27 338.865C1382.27 336.642 1381.41 335.126 1379.69 334.317C1377.98 333.407 1375.6 332.7 1372.57 332.194L1359.98 330.223C1356.45 329.718 1353.16 328.96 1350.13 327.949C1347.1 326.837 1344.47 325.372 1342.25 323.552C1340.02 321.733 1338.25 319.509 1336.94 316.881C1335.63 314.253 1334.97 311.069 1334.97 307.329C1334.97 299.142 1338.1 292.723 1344.37 288.074C1350.64 283.424 1359.43 281.1 1370.75 281.1C1378.43 281.1 1384.95 282.161 1390.31 284.284C1395.77 286.305 1400.11 289.236 1403.35 293.077L1392.13 305.813C1389.8 303.286 1386.82 301.163 1383.18 299.445C1379.54 297.727 1375.15 296.868 1369.99 296.868C1361.3 296.868 1356.95 299.496 1356.95 304.752C1356.95 307.077 1357.81 308.694 1359.53 309.603C1361.25 310.412 1363.62 311.069 1366.66 311.574L1379.09 313.545C1382.63 314.051 1385.91 314.859 1388.94 315.971C1391.98 316.982 1394.6 318.397 1396.83 320.217C1399.15 322.036 1400.97 324.26 1402.29 326.888C1403.6 329.516 1404.26 332.7 1404.26 336.44C1404.26 344.627 1401.07 351.096 1394.71 355.846C1388.44 360.597 1379.49 362.972 1367.87 362.972Z" fill="#F0D9F3"/>
<path d="M1431.68 416.25H1457.67V442.241H1431.68V416.25Z" fill="#F0D9F3" stroke="#8F54BE" stroke-width="8.66379"/>
<path d="M461.332 416.25H487.323V442.241H461.332V416.25Z" fill="#F0D9F3" stroke="#8F54BE" stroke-width="8.66379"/>
<path d="M1431.68 195.323V169.332H1457.67V195.323H1431.68Z" fill="#F0D9F3" stroke="#8F54BE" stroke-width="8.66379"/>
<path d="M461.332 169.332H487.323V195.323H461.332V169.332Z" fill="#F0D9F3" stroke="#8F54BE" stroke-width="8.66379"/>
</svg>
