<svg width="1785" height="596" viewBox="0 0 1785 596" fill="none" xmlns="http://www.w3.org/2000/svg">
<rect x="405.162" y="172.162" width="974.978" height="248.983" fill="#121325"/>
<rect x="405.162" y="172.162" width="974.978" height="248.983" stroke="#6D6DCF" stroke-width="8.66379"/>
<path d="M442.646 353.153V274.919H460.689V286.442H461.75C462.963 282.803 464.681 279.67 466.905 277.042C469.23 274.414 472.464 273.1 476.608 273.1C484.189 273.1 488.839 277.547 490.557 286.442H491.467C492.073 284.622 492.831 282.904 493.741 281.287C494.651 279.67 495.763 278.255 497.077 277.042C498.391 275.829 499.957 274.868 501.777 274.161C503.596 273.453 505.719 273.1 508.145 273.1C519.061 273.1 524.519 281.135 524.519 297.207V353.153H506.477V299.481C506.477 295.842 505.82 293.315 504.506 291.9C503.293 290.384 501.676 289.626 499.654 289.626C497.734 289.626 496.066 290.283 494.651 291.597C493.337 292.81 492.68 294.73 492.68 297.358V353.153H474.486V299.481C474.486 295.842 473.879 293.315 472.666 291.9C471.555 290.384 469.988 289.626 467.966 289.626C465.945 289.626 464.226 290.283 462.811 291.597C461.396 292.81 460.689 294.73 460.689 297.358V353.153H442.646ZM574.493 354.972C568.429 354.972 562.971 354.063 558.119 352.243C553.267 350.323 549.123 347.594 545.686 344.056C542.351 340.518 539.773 336.223 537.954 331.169C536.134 326.115 535.225 320.404 535.225 314.036C535.225 307.668 536.134 301.957 537.954 296.903C539.773 291.849 542.351 287.554 545.686 284.016C549.123 280.478 553.267 277.8 558.119 275.98C562.971 274.06 568.429 273.1 574.493 273.1C580.558 273.1 586.016 274.06 590.868 275.98C595.72 277.8 599.813 280.478 603.149 284.016C606.586 287.554 609.214 291.849 611.033 296.903C612.852 301.957 613.762 307.668 613.762 314.036C613.762 320.404 612.852 326.115 611.033 331.169C609.214 336.223 606.586 340.518 603.149 344.056C599.813 347.594 595.72 350.323 590.868 352.243C586.016 354.063 580.558 354.972 574.493 354.972ZM574.493 338.295C579.547 338.295 583.489 336.728 586.32 333.595C589.15 330.461 590.565 326.014 590.565 320.252V307.82C590.565 302.058 589.15 297.611 586.32 294.477C583.489 291.344 579.547 289.777 574.493 289.777C569.44 289.777 565.498 291.344 562.667 294.477C559.837 297.611 558.422 302.058 558.422 307.82V320.252C558.422 326.014 559.837 330.461 562.667 333.595C565.498 336.728 569.44 338.295 574.493 338.295ZM631.139 335.717H649.181V292.355H631.139V274.919H671.62V297.055H672.682C673.389 294.225 674.349 291.496 675.562 288.868C676.876 286.139 678.494 283.763 680.414 281.742C682.436 279.619 684.861 277.951 687.692 276.738C690.522 275.525 693.857 274.919 697.698 274.919H705.128V295.539H688.45C682.89 295.539 678.696 297.207 675.866 300.542C673.035 303.777 671.62 307.769 671.62 312.52V335.717H697.395V353.153H631.139V335.717ZM799.222 361.037C799.222 369.325 795.735 375.441 788.761 379.383C781.786 383.325 770.819 385.296 755.86 385.296C748.38 385.296 742.214 384.841 737.363 383.931C732.511 383.123 728.619 381.91 725.688 380.292C722.858 378.675 720.836 376.755 719.623 374.531C718.512 372.307 717.956 369.881 717.956 367.253C717.956 362.806 719.27 359.42 721.898 357.095C724.526 354.871 728.215 353.153 732.966 351.94V351.03C729.63 350.02 726.952 348.605 724.93 346.785C723.01 344.865 722.049 342.186 722.049 338.749C722.049 334.909 723.313 332.078 725.84 330.259C728.468 328.44 731.904 327.024 736.15 326.014V325.104C731.5 322.88 727.861 319.747 725.233 315.704C722.706 311.661 721.443 306.758 721.443 300.997C721.443 296.448 722.251 292.456 723.869 289.019C725.486 285.482 727.76 282.55 730.691 280.226C733.724 277.901 737.312 276.132 741.456 274.919C745.6 273.706 750.25 273.1 755.405 273.1C760.358 273.1 764.957 273.656 769.202 274.767V270.522C769.202 267.49 770.263 264.963 772.386 262.941C774.509 260.92 777.44 259.909 781.18 259.909H794.977V276.284H776.176V277.648C780.422 279.872 783.707 282.955 786.031 286.897C788.457 290.738 789.67 295.438 789.67 300.997C789.67 305.545 788.862 309.538 787.244 312.975C785.627 316.411 783.302 319.343 780.27 321.768C777.238 324.093 773.599 325.862 769.354 327.075C765.209 328.288 760.56 328.894 755.405 328.894C753.08 328.894 750.856 328.793 748.734 328.591C746.611 328.288 744.59 327.884 742.669 327.378C741.557 327.985 740.597 328.743 739.788 329.652C739.081 330.562 738.727 331.725 738.727 333.14C738.727 334.353 739.03 335.313 739.637 336.02C740.243 336.728 741.052 337.284 742.063 337.688C743.175 337.991 744.438 338.194 745.853 338.295C747.268 338.396 748.734 338.446 750.25 338.446H768.141C773.7 338.446 778.451 339.002 782.393 340.114C786.335 341.226 789.569 342.793 792.096 344.814C794.623 346.836 796.442 349.211 797.554 351.94C798.666 354.669 799.222 357.702 799.222 361.037ZM777.996 362.705C777.996 360.683 777.187 359.066 775.57 357.853C773.953 356.741 770.87 356.185 766.321 356.185H739.485C737.464 357.904 736.453 360.026 736.453 362.553C736.453 364.979 737.464 366.95 739.485 368.466C741.608 370.084 745.146 370.892 750.098 370.892H763.289C768.444 370.892 772.184 370.185 774.509 368.77C776.833 367.354 777.996 365.333 777.996 362.705ZM755.405 314.642C759.953 314.642 763.238 313.531 765.26 311.307C767.383 309.083 768.444 306.253 768.444 302.816V299.178C768.444 295.741 767.383 292.911 765.26 290.687C763.238 288.463 759.953 287.352 755.405 287.352C750.958 287.352 747.723 288.463 745.701 290.687C743.68 292.911 742.669 295.741 742.669 299.178V302.816C742.669 306.253 743.68 309.083 745.701 311.307C747.723 313.531 750.958 314.642 755.405 314.642ZM875.577 353.153C870.928 353.153 867.188 351.991 864.358 349.666C861.528 347.24 859.86 343.803 859.355 339.356H858.596C857.181 344.511 854.351 348.402 850.106 351.03C845.962 353.658 840.857 354.972 834.793 354.972C827.212 354.972 821.097 352.951 816.447 348.908C811.899 344.764 809.624 339.002 809.624 331.623C809.624 323.436 812.606 317.372 818.57 313.43C824.533 309.487 833.276 307.516 844.799 307.516H857.384V303.574C857.384 298.925 856.272 295.438 854.048 293.113C851.925 290.687 848.287 289.474 843.132 289.474C838.381 289.474 834.54 290.384 831.609 292.203C828.677 294.023 826.151 296.398 824.028 299.329L811.747 288.413C814.375 283.965 818.469 280.327 824.028 277.496C829.688 274.565 836.915 273.1 845.709 273.1C856.423 273.1 864.762 275.576 870.726 280.529C876.79 285.38 879.823 292.759 879.823 302.665V336.93H888.465V353.153H875.577ZM843.283 340.266C847.225 340.266 850.561 339.305 853.29 337.385C856.019 335.464 857.384 332.685 857.384 329.046V319.646H845.406C836.208 319.646 831.609 322.729 831.609 328.894V331.927C831.609 334.656 832.67 336.728 834.793 338.143C836.915 339.558 839.745 340.266 843.283 340.266ZM902.506 353.153V274.919H924.945V289.171H925.855C926.765 286.947 927.876 284.875 929.19 282.955C930.504 281.034 932.071 279.366 933.891 277.951C935.811 276.435 937.984 275.273 940.41 274.464C942.937 273.554 945.767 273.1 948.901 273.1C952.64 273.1 956.077 273.757 959.21 275.071C962.344 276.284 965.022 278.153 967.246 280.68C969.47 283.207 971.188 286.29 972.401 289.929C973.715 293.568 974.372 297.763 974.372 302.513V353.153H951.933V305.545C951.933 295.438 947.536 290.384 938.742 290.384C937.024 290.384 935.306 290.637 933.587 291.142C931.97 291.546 930.504 292.254 929.19 293.265C927.876 294.174 926.815 295.337 926.006 296.752C925.299 298.167 924.945 299.835 924.945 301.755V353.153H902.506ZM993.871 335.717H1017.83V258.393H993.871V240.957H1040.27V335.717H1064.22V353.153H993.871V335.717ZM1148.31 353.153C1143.66 353.153 1139.92 351.991 1137.09 349.666C1134.26 347.24 1132.59 343.803 1132.09 339.356H1131.33C1129.91 344.511 1127.08 348.402 1122.84 351.03C1118.69 353.658 1113.59 354.972 1107.52 354.972C1099.94 354.972 1093.83 352.951 1089.18 348.908C1084.63 344.764 1082.36 339.002 1082.36 331.623C1082.36 323.436 1085.34 317.372 1091.3 313.43C1097.27 309.487 1106.01 307.516 1117.53 307.516H1130.12V303.574C1130.12 298.925 1129 295.438 1126.78 293.113C1124.66 290.687 1121.02 289.474 1115.86 289.474C1111.11 289.474 1107.27 290.384 1104.34 292.203C1101.41 294.023 1098.88 296.398 1096.76 299.329L1084.48 288.413C1087.11 283.965 1091.2 280.327 1096.76 277.496C1102.42 274.565 1109.65 273.1 1118.44 273.1C1129.16 273.1 1137.49 275.576 1143.46 280.529C1149.52 285.38 1152.55 292.759 1152.55 302.665V336.93H1161.2V353.153H1148.31ZM1116.01 340.266C1119.96 340.266 1123.29 339.305 1126.02 337.385C1128.75 335.464 1130.12 332.685 1130.12 329.046V319.646H1118.14C1108.94 319.646 1104.34 322.729 1104.34 328.894V331.927C1104.34 334.656 1105.4 336.728 1107.52 338.143C1109.65 339.558 1112.48 340.266 1116.01 340.266ZM1174.33 240.957H1196.77V289.171H1197.83C1199.75 284.521 1202.53 280.68 1206.17 277.648C1209.81 274.616 1214.76 273.1 1221.03 273.1C1225.37 273.1 1229.31 273.908 1232.85 275.525C1236.49 277.143 1239.57 279.619 1242.1 282.955C1244.73 286.29 1246.75 290.535 1248.17 295.69C1249.68 300.845 1250.44 306.961 1250.44 314.036C1250.44 321.111 1249.68 327.227 1248.17 332.382C1246.75 337.537 1244.73 341.782 1242.1 345.117C1239.57 348.453 1236.49 350.929 1232.85 352.547C1229.31 354.164 1225.37 354.972 1221.03 354.972C1214.76 354.972 1209.81 353.507 1206.17 350.576C1202.53 347.543 1199.75 343.652 1197.83 338.901H1196.77V353.153H1174.33V240.957ZM1211.32 337.537C1216.38 337.537 1220.27 336.02 1223 332.988C1225.73 329.855 1227.09 325.559 1227.09 320.101V307.971C1227.09 302.513 1225.73 298.268 1223 295.236C1220.27 292.102 1216.38 290.535 1211.32 290.535C1207.38 290.535 1203.94 291.496 1201.01 293.416C1198.18 295.337 1196.77 298.369 1196.77 302.513V325.559C1196.77 329.703 1198.18 332.735 1201.01 334.656C1203.94 336.576 1207.38 337.537 1211.32 337.537ZM1300.87 354.972C1292.18 354.972 1284.59 353.658 1278.13 351.03C1271.76 348.402 1266.96 344.814 1263.72 340.266L1276.31 328.591C1279.34 331.927 1282.88 334.555 1286.92 336.475C1291.06 338.295 1295.76 339.204 1301.02 339.204C1305.47 339.204 1308.95 338.547 1311.48 337.233C1314.01 335.818 1315.27 333.696 1315.27 330.865C1315.27 328.642 1314.41 327.126 1312.69 326.317C1310.98 325.407 1308.6 324.7 1305.57 324.194L1292.98 322.223C1289.45 321.718 1286.16 320.96 1283.13 319.949C1280.1 318.837 1277.47 317.372 1275.25 315.552C1273.02 313.733 1271.25 311.509 1269.94 308.881C1268.62 306.253 1267.97 303.069 1267.97 299.329C1267.97 291.142 1271.1 284.723 1277.37 280.074C1283.63 275.424 1292.43 273.1 1303.75 273.1C1311.43 273.1 1317.95 274.161 1323.31 276.284C1328.77 278.305 1333.11 281.236 1336.35 285.077L1325.13 297.813C1322.8 295.286 1319.82 293.163 1316.18 291.445C1312.54 289.727 1308.15 288.868 1302.99 288.868C1294.3 288.868 1289.95 291.496 1289.95 296.752C1289.95 299.077 1290.81 300.694 1292.53 301.603C1294.25 302.412 1296.62 303.069 1299.66 303.574L1312.09 305.545C1315.63 306.051 1318.91 306.859 1321.94 307.971C1324.98 308.982 1327.6 310.397 1329.83 312.217C1332.15 314.036 1333.97 316.26 1335.29 318.888C1336.6 321.516 1337.26 324.7 1337.26 328.44C1337.26 336.627 1334.07 343.096 1327.7 347.846C1321.44 352.597 1312.49 354.972 1300.87 354.972Z" fill="#DBD9F3"/>
<path d="M1364.68 434.241V408.25H1390.67V434.241H1364.68Z" fill="#DBD9F3" stroke="#6D6DCF" stroke-width="8.66379"/>
<path d="M394.332 434.241V408.25H420.323V434.241H394.332Z" fill="#DBD9F3" stroke="#6D6DCF" stroke-width="8.66379"/>
<path d="M1364.68 161.332H1390.67V187.323H1364.68V161.332Z" fill="#DBD9F3" stroke="#6D6DCF" stroke-width="8.66379"/>
<path d="M394.332 187.323V161.332H420.323V187.323H394.332Z" fill="#DBD9F3" stroke="#6D6DCF" stroke-width="8.66379"/>
</svg>
