<svg width="2684" height="1204" viewBox="0 0 2684 1204" fill="none" xmlns="http://www.w3.org/2000/svg">
<rect x="125" y="124" width="2434" height="956" rx="30" fill="#EFE8E4" stroke="#0E0C0A" stroke-width="20"/>
<rect width="2294" height="816" transform="translate(195 194)" fill="#E5793B"/>
<path fill-rule="evenodd" clip-rule="evenodd" d="M1840.05 568.361C1840.05 568.36 1840.05 568.36 1840.05 568.359L1835.42 568.787C1835.43 561.143 1841.62 554.946 1849.27 554.946H1866.23C1866.29 551.578 1866.39 547.953 1866.54 544.071C1866.78 537.752 1867.74 531.396 1869.42 525.008L1869.43 524.969L1869.45 524.93C1871.36 518.135 1874.8 512.01 1879.7 506.581C1885.81 499.715 1892.59 494.84 1900.1 492.235C1907.22 489.691 1914.2 488.32 1921.03 488.19C1927.33 487.96 1932.74 487.844 1937.25 487.844H1950.97C1958.62 487.844 1964.82 494.043 1964.82 501.689V521.082C1964.82 528.728 1958.62 534.926 1950.97 534.926H1938.97C1932.4 534.926 1928.43 536.619 1926.07 539.141L1926.04 539.167L1926.02 539.192C1923.32 541.991 1922 545.254 1922 549.237V554.946H1984.75L1934.96 559.561H1934.97L1984.75 554.946C1984.8 551.578 1984.9 547.953 1985.05 544.071C1985.29 537.752 1986.26 531.396 1987.94 525.008L1987.95 524.969L1987.96 524.93C1989.87 518.135 1993.32 512.01 1998.22 506.581C2004.32 499.715 2011.11 494.84 2018.61 492.235C2025.73 489.691 2032.72 488.32 2039.54 488.19C2045.84 487.96 2051.25 487.844 2055.77 487.844H2069.49C2077.13 487.844 2083.33 494.043 2083.33 501.689V521.082C2083.33 528.728 2077.13 534.926 2069.49 534.926H2057.48C2050.91 534.926 2046.94 536.619 2044.58 539.141L2044.56 539.167L2044.53 539.192C2041.83 541.991 2040.52 545.254 2040.52 549.237V554.946H2070.78C2078.42 554.946 2084.62 561.144 2084.62 568.79V586.463C2084.62 594.109 2078.42 600.307 2070.78 600.307H2040.52V739.164C2040.52 746.81 2034.32 753.009 2026.67 753.009H1998.55C1990.9 753.009 1984.7 746.81 1984.7 739.164V600.307H1922V739.164C1922 746.81 1915.8 753.009 1908.16 753.009L1796.89 753.008C1789.25 753.008 1783.05 746.81 1783.05 739.164V734.602C1780.61 736.649 1778.03 738.572 1775.3 740.37C1762.49 748.904 1746.53 753.005 1727.72 753.005C1712.74 753.005 1700.1 750.465 1690.08 745.053C1680.38 739.816 1672.65 733.091 1667.04 724.829L1667.03 724.81L1667.02 724.79C1661.74 716.834 1657.92 708.52 1655.61 699.855L1655.61 699.839C1653.38 691.367 1652.01 683.56 1651.53 676.438C1651.07 669.659 1650.83 664.594 1650.83 661.331V597.075L1604.33 597.076V663.754C1604.33 670.936 1604.39 677.427 1604.5 683.228C1604.71 688.447 1605.79 692.146 1607.39 694.672L1607.39 694.677C1610.94 700.321 1616.02 703.948 1622.67 703.214L1623.07 703.17L1623.47 703.195C1629.28 703.564 1635.54 703.49 1642.28 702.96C1650.35 702.326 1657.76 708.532 1657.76 716.994V737.655C1657.76 744.266 1653.04 750.146 1646.27 751.139C1635.83 752.669 1625.53 753.29 1615.36 753.007C1602.68 752.767 1591.14 750.57 1580.83 746.304L1580.79 746.291L1580.76 746.278C1570.24 741.748 1562.16 734.453 1556.63 724.491L1556.62 724.465L1556.6 724.44C1551.73 715.384 1549.11 706.079 1548.86 696.566L1548.86 696.564C1548.63 687.684 1548.52 677.664 1548.52 666.507V597.076L1467.6 597.076V597.081H1462.99C1454.83 597.081 1449.47 597.856 1445.52 600.009C1441.69 602.151 1440.2 604.823 1440.2 608.356C1440.2 610.385 1440.83 611.88 1442.06 613.144C1443.55 614.534 1447.26 616.498 1454.14 618.767C1461.08 621.014 1471.69 623.965 1486.05 627.628L1486.06 627.632L1486.07 627.635C1500.33 631.361 1512 635.788 1520.94 640.999C1530.04 646.124 1536.94 652.512 1541.32 660.273C1545.69 667.883 1547.75 676.911 1547.75 687.157C1547.75 707.464 1540.36 723.819 1525.46 735.676C1510.68 747.431 1490.58 753.024 1465.73 753.024C1441.75 753.024 1421.87 747.589 1406.48 736.301L1406.46 736.289L1406.45 736.276C1393.63 726.693 1385.03 713.803 1380.67 697.802C1378.5 689.862 1384.24 682.673 1391.67 681.544L1421.57 677.006C1428.97 675.884 1435.05 680.812 1437.71 686.455C1439.72 690.705 1442.59 694.217 1446.38 697.038C1452.15 701.261 1459.63 703.533 1469.15 703.533C1477.08 703.533 1482.5 702.015 1485.99 699.577C1489.29 697.158 1490.91 693.988 1490.91 689.566C1490.91 686.659 1490.2 684.888 1489.25 683.756L1489.21 683.711L1489.17 683.666C1488.81 683.204 1487.92 682.426 1486.13 681.447C1484.38 680.495 1482.01 679.488 1478.96 678.449L1478.95 678.445L1478.94 678.441C1472.83 676.321 1463.16 673.491 1449.82 669.942C1434.57 665.994 1422.15 661.525 1412.69 656.473C1403.16 651.384 1395.92 645.134 1391.38 637.573L1391.37 637.558L1391.36 637.543C1386.87 629.928 1384.73 620.936 1384.73 610.765C1384.73 598.022 1387.97 586.757 1394.62 577.176C1401.22 567.55 1410.45 560.261 1422.11 555.256C1433.88 550.138 1447.54 547.653 1462.97 547.651L1548.52 547.652V515.533C1548.52 507.887 1554.72 501.689 1562.36 501.689H1590.49C1598.13 501.689 1604.33 507.887 1604.33 515.533V547.652L1693.49 547.651C1701.13 547.651 1707.33 553.85 1707.33 561.496V644.813C1707.33 648.91 1707.55 654.243 1708 660.843C1708.43 666.923 1709.76 673.098 1712.02 679.381C1714.14 685.263 1717.54 690.133 1722.26 694.072C1726.64 697.639 1733.17 699.73 1742.45 699.73C1745.96 699.73 1749.83 699.175 1754.06 698.004C1757.86 696.956 1761.51 694.936 1765.04 691.803C1768.31 688.789 1771.21 684.189 1773.56 677.665L1773.56 677.645L1773.57 677.625C1775.94 671.218 1777.22 662.527 1777.22 651.351V568.787C1777.22 561.141 1783.42 554.943 1791.07 554.943H1821.58C1829.23 554.943 1835.42 561.141 1835.42 568.787V568.79L1840.05 568.361ZM1835.42 586.463V707.646H1866.19V600.307H1849.27C1841.62 600.307 1835.42 594.109 1835.42 586.463Z" fill="#0E0C0A"/>
<path fill-rule="evenodd" clip-rule="evenodd" d="M1209.9 603.061C1211.65 607.547 1213.11 612.222 1214.27 617.083C1214.08 615.032 1213.98 612.925 1213.98 610.765C1213.98 598.021 1217.23 586.755 1223.87 577.173C1230.47 567.548 1239.7 560.261 1251.36 555.256C1263.13 550.137 1276.8 547.651 1292.24 547.651H1416.49C1421.74 547.651 1423.13 554.648 1418.62 556.855C1408.61 561.764 1400.56 568.517 1394.63 577.165L1394.62 577.175L1394.61 577.185C1392.34 580.457 1390.48 583.913 1389 587.544C1386.86 592.835 1381.77 597.081 1375.44 597.081H1292.24C1284.09 597.081 1278.73 597.856 1274.77 600.008C1270.95 602.149 1269.45 604.822 1269.45 608.356C1269.45 610.385 1270.08 611.88 1271.32 613.144C1272.8 614.534 1276.51 616.498 1283.39 618.766C1290.33 621.013 1300.94 623.965 1315.3 627.628L1315.31 627.632L1315.33 627.635C1329.58 631.361 1341.25 635.788 1350.19 640.999C1359.29 646.125 1366.2 652.513 1370.58 660.275C1374.94 667.884 1377 676.912 1377 687.157C1377 707.464 1369.62 723.819 1354.71 735.676C1341.25 746.376 1319.65 751.873 1297.98 752.86L1297.91 752.995H1293.8C1292.83 753.014 1291.86 753.023 1290.88 753.024L1282.97 753.029L1282.99 752.995H1125.92L1125.87 752.994C1107.38 752.605 1090.8 748.383 1076.26 740.217L1076.25 740.206L1076.23 740.195C1061.13 731.531 1049.24 719.645 1040.61 704.594L1040.6 704.575L1040.59 704.556C1034.38 693.486 1030.46 681.302 1028.78 668.051H1024.83C1023.06 680.967 1019.28 692.84 1013.46 703.626C1005.18 719.037 993.578 731.186 978.687 739.993L978.682 739.996L978.678 739.999C963.833 748.729 946.734 753.024 927.529 753.024C926.866 753.024 926.206 753.019 925.548 753.009H793.955C787.046 753.009 781.319 747.948 780.279 741.331C767.608 749.183 752.345 752.994 734.718 752.994C716.887 752.994 701.069 748.472 687.442 739.305C673.933 730.217 663.421 717.872 655.898 702.394L655.891 702.381L655.885 702.368C648.472 686.871 644.814 669.488 644.814 650.309C644.814 630.789 648.526 613.272 656.075 597.866L656.078 597.859L656.081 597.853C663.735 582.352 674.5 570.059 688.369 561.093C702.341 552.061 718.65 547.622 737.115 547.622C751.024 547.622 763.456 550.206 774.288 555.497V501.689C774.288 494.043 780.486 487.844 788.132 487.844H816.6C824.246 487.844 830.444 494.043 830.444 501.689V633.534C832.151 620.211 835.97 608.028 841.952 597.036C850.331 581.527 861.932 569.374 876.722 560.676C891.558 551.952 908.54 547.651 927.529 547.651C946.851 547.651 964.016 552.006 978.867 560.859C993.764 569.672 1005.37 581.884 1013.63 597.409C1018.05 605.642 1021.28 614.521 1023.32 624.026L1039.96 624.026C1035.42 620.85 1032.93 615.042 1035.21 608.994C1036.7 605.048 1038.42 601.245 1040.37 597.586C1048.74 581.847 1060.34 569.565 1075.15 560.855C1089.98 552.012 1106.97 547.651 1125.96 547.651C1146.12 547.651 1163.56 552.426 1178.04 562.206C1192.47 571.953 1203.08 585.639 1209.9 603.061ZM1295.14 748.347C1295.39 748.34 1295.64 748.333 1295.89 748.324C1296 748.321 1296.12 748.317 1296.24 748.312C1295.87 748.325 1295.51 748.337 1295.14 748.347ZM1241.94 656.473C1251.4 661.525 1263.82 665.994 1279.08 669.942C1292.41 673.491 1302.09 676.321 1308.19 678.441L1308.21 678.445L1308.22 678.449C1311.27 679.488 1313.63 680.495 1315.38 681.447C1317.18 682.426 1318.06 683.204 1318.43 683.666L1318.46 683.711L1318.5 683.756C1319.45 684.888 1320.16 686.659 1320.16 689.566C1320.16 690.62 1319.96 692.485 1319.2 694.368C1318.25 696.726 1316.2 698.238 1312.53 699.143C1308.75 700.077 1304.18 700.122 1299.46 700.121L1125.96 700.092C1112.56 700.092 1103.01 695.809 1096.53 687.736C1092.55 682.626 1089.67 676.111 1088.02 668.029H1203.98C1211.11 668.029 1217.3 662.547 1217.6 655.147C1217.98 645.433 1217.55 636.235 1216.28 627.566C1217.34 631.111 1218.78 634.442 1220.62 637.543L1220.62 637.558L1220.63 637.573C1225.17 645.134 1232.41 651.384 1241.94 656.473ZM1290.9 748.409L1290.95 748.409C1290.93 748.409 1290.9 748.409 1290.88 748.409H1290.9ZM830.444 700.077V667.213C831.53 675.744 833.473 683.835 836.285 691.477C838.273 696.879 843.466 700.077 848.887 700.077H830.444ZM1089.5 624.026L1089.5 624.044H1159.87C1158.45 617.081 1156.29 611.861 1153.58 608.159L1153.56 608.13L1153.54 608.1C1148.74 601.325 1140.64 597.486 1128.02 597.486C1113.13 597.486 1102.98 602.011 1096.56 610.314C1094.65 612.798 1092.99 615.676 1091.59 618.977C1090.75 620.94 1089.42 622.701 1087.72 624.026L1089.5 624.026ZM899.106 695.32C900.092 692.975 900.093 689.829 898.149 687.29C891.517 678.464 887.958 666.302 887.958 650.338C887.958 639.997 889.436 631.117 892.273 623.608C895.174 616.231 899.493 610.634 905.184 606.622C910.723 602.717 918.056 600.583 927.529 600.583C941.122 600.583 950.69 605.064 957.066 613.539L957.076 613.553L957.086 613.566C963.832 622.396 967.442 634.499 967.442 650.338C967.442 665.565 963.905 677.619 957.192 686.853L957.189 686.856L957.187 686.86C951.134 695.221 941.972 699.784 928.886 700.077H892.141C895.689 700.077 898.101 697.708 899.106 695.32ZM764.562 604.546L764.579 604.559L764.596 604.572C769.802 608.618 773.721 614.378 776.224 622.132C778.783 630.061 780.111 639.429 780.111 650.309C780.111 661.187 778.783 670.555 776.224 678.484C773.735 686.193 769.733 691.94 764.319 695.994L764.303 696.007L764.286 696.019C759.16 699.93 751.973 702.128 742.253 702.128C732.995 702.128 725.855 699.815 720.451 695.55C714.804 691.093 710.54 685.07 707.718 677.303C704.84 669.268 703.368 660.286 703.368 650.309C703.368 640.464 704.89 631.619 707.866 623.718L707.87 623.708L707.874 623.698C710.798 615.828 715.216 609.752 721.074 605.287L721.079 605.284L721.084 605.28C726.847 600.864 734.357 598.489 743.965 598.489C752.927 598.489 759.647 600.651 764.562 604.546Z" fill="#0E0C0A"/>
<mask id="path-3-outside-1_674_5740" maskUnits="userSpaceOnUse" x="630.585" y="473.615" width="1441" height="266" fill="black">
<rect fill="white" x="630.585" y="473.615" width="1441" height="266"/>
<path fill-rule="evenodd" clip-rule="evenodd" d="M1856.96 581.848V734.55H1894.31C1899.41 734.55 1903.54 730.417 1903.54 725.32V581.848H1946.36V545.716H1903.54V535.393C1903.54 530.231 1905.31 525.815 1908.85 522.145C1912.39 518.359 1917.81 516.467 1925.12 516.467H1937.13C1942.23 516.467 1946.36 512.335 1946.36 507.237V487.844C1946.36 482.747 1942.23 478.615 1937.13 478.615H1923.41C1918.96 478.615 1913.59 478.729 1907.31 478.959C1901.03 479.073 1894.52 480.335 1887.79 482.744C1881.16 485.038 1875 489.397 1869.29 495.82C1864.84 500.752 1861.76 506.258 1860.04 512.338C1858.44 518.417 1857.53 524.439 1857.3 530.403C1857.09 536.079 1856.97 541.183 1856.96 545.716H1835.42C1830.33 545.716 1826.19 549.848 1826.19 554.946V572.618C1826.19 577.716 1830.33 581.848 1835.42 581.848H1856.96ZM1975.47 725.32C1975.47 730.417 1979.61 734.55 1984.7 734.55H2012.83C2017.92 734.55 2022.06 730.417 2022.06 725.32V581.848H2056.93C2062.03 581.848 2066.16 577.716 2066.16 572.618V554.946C2066.16 549.848 2062.03 545.716 2056.93 545.716H2022.06V535.393C2022.06 530.231 2023.83 525.815 2027.37 522.145C2030.91 518.359 2036.33 516.467 2043.64 516.467H2055.64C2060.74 516.467 2064.87 512.335 2064.87 507.237V487.844C2064.87 482.747 2060.74 478.615 2055.64 478.615H2041.92C2037.47 478.615 2032.1 478.729 2025.82 478.959C2019.54 479.073 2013.04 480.335 2006.3 482.744C1999.68 485.038 1993.51 489.397 1987.8 495.82C1983.35 500.752 1980.27 506.258 1978.56 512.338C1976.96 518.417 1976.04 524.439 1975.82 530.403C1975.6 536.079 1975.48 541.183 1975.47 545.716H1946.36V581.848H1975.47V725.32ZM1678.43 727.148C1687.56 732.08 1699.38 734.546 1713.88 734.546C1732.03 734.546 1747.04 730.589 1758.92 722.675C1764.55 718.954 1769.52 714.689 1773.82 709.879V725.319C1773.82 730.417 1777.95 734.549 1783.05 734.549L1847.75 734.549V698.416H1816.97V554.943C1816.97 549.846 1812.83 545.714 1807.74 545.714H1777.22C1772.13 545.714 1768 549.846 1768 554.943V637.507C1768 648.977 1766.68 658.268 1764.06 665.38C1761.54 672.377 1758.29 677.71 1754.29 681.381C1750.3 684.937 1746.02 687.346 1741.45 688.607C1736.88 689.869 1732.6 690.5 1728.61 690.5C1718.67 690.5 1710.97 688.263 1705.48 683.79C1700.12 679.316 1696.24 673.754 1693.84 667.101C1691.44 660.448 1690.01 653.852 1689.56 647.314C1689.1 640.662 1688.87 635.213 1688.87 630.969V587.846H1641.6V647.486C1641.6 650.583 1641.83 655.515 1642.29 662.283C1642.75 669.05 1644.06 676.564 1646.23 684.822C1648.4 692.966 1651.99 700.824 1657.02 708.394C1662.16 715.964 1669.29 722.215 1678.43 727.148ZM1631.76 732.729C1636.15 732.085 1639.3 728.249 1639.3 723.811V703.15C1639.3 697.558 1634.37 693.278 1628.8 693.717C1621.87 694.261 1615.38 694.341 1609.33 693.956C1600.31 694.952 1593.75 689.827 1589.64 683.289C1587.47 679.848 1586.27 675.26 1586.04 669.524C1585.93 663.674 1585.87 657.136 1585.87 649.91V578.617L1688.87 578.616V547.651C1688.87 542.554 1684.74 538.422 1679.64 538.422L1585.87 538.422V501.689C1585.87 496.591 1581.74 492.459 1576.64 492.459H1548.52C1543.42 492.459 1539.29 496.591 1539.29 501.689V538.422L1508.05 538.422H1449.12C1434.17 538.424 1421.16 540.833 1410.09 545.648C1399.13 550.351 1390.63 557.119 1384.57 565.951C1378.52 574.668 1375.5 584.991 1375.5 596.921C1375.5 606.441 1377.5 614.585 1381.49 621.352C1385.49 628.005 1392 633.74 1401.02 638.558C1410.03 643.376 1422.08 647.734 1437.15 651.634C1450.51 655.19 1460.33 658.058 1466.61 660.237C1473 662.416 1477.11 664.653 1478.94 666.947C1480.77 669.126 1481.68 672.051 1481.68 675.722C1481.68 681.572 1479.4 686.16 1474.83 689.486C1470.26 692.698 1463.75 694.304 1455.31 694.304C1445.03 694.304 1436.52 691.838 1429.79 686.906C1425.39 683.631 1422.03 679.523 1419.69 674.58C1417.62 670.192 1413.22 666.996 1408.42 667.724L1378.52 672.262C1373.46 673.031 1369.93 677.802 1371.27 682.744C1375.38 697.801 1383.41 709.798 1395.36 718.736C1409.75 729.288 1428.59 734.565 1451.88 734.565C1476.08 734.565 1495.04 729.116 1508.74 718.22C1522.44 707.323 1529.29 692.354 1529.29 673.313C1529.29 663.678 1527.35 655.477 1523.47 648.709C1519.59 641.827 1513.36 635.977 1504.8 631.16C1496.35 626.227 1485.1 621.926 1471.06 618.256C1456.68 614.585 1445.94 611.603 1438.86 609.309C1431.9 607.015 1427.28 604.778 1424.99 602.598C1422.82 600.419 1421.74 597.724 1421.74 594.512C1421.74 589.121 1424.31 584.991 1429.44 582.124C1434.48 579.372 1440.86 578.622 1449.14 578.622V578.616L1508.05 578.617H1539.29V652.663C1539.29 663.789 1539.4 673.768 1539.63 682.601C1539.86 691.318 1542.26 699.921 1546.82 708.409C1551.85 717.47 1559.15 724.066 1568.74 728.195C1578.45 732.21 1589.41 734.32 1601.63 734.55C1611.52 734.826 1621.57 734.223 1631.76 732.729ZM676.174 721.631C688.961 730.234 703.861 734.535 720.874 734.535C739.255 734.535 754.611 730.234 766.942 721.631C767.605 721.169 768.258 720.698 768.903 720.218C769.572 719.72 770.231 719.212 770.881 718.695V725.32C770.881 730.417 775.013 734.549 780.111 734.549H911.741C912.386 734.56 913.034 734.565 913.684 734.565C932.181 734.565 948.451 730.436 962.494 722.177C976.652 713.803 987.669 702.276 995.547 687.594C1001.68 676.243 1005.46 663.575 1006.89 649.592H1019.08C1020.36 663.88 1024.25 676.834 1030.77 688.454C1038.99 702.792 1050.29 714.09 1064.68 722.349C1078.48 730.098 1094.29 734.161 1112.12 734.536H1198.87H1198.87H1277.05L1277.04 734.565C1278 734.564 1278.95 734.555 1279.91 734.536H1281.14L1281.16 734.507C1303.35 733.898 1325.09 728.482 1337.99 718.22C1351.69 707.323 1358.54 692.354 1358.54 673.313C1358.54 663.678 1356.6 655.477 1352.72 648.709C1348.84 641.827 1342.62 635.977 1334.05 631.16C1325.6 626.227 1314.36 621.926 1300.31 618.256C1285.93 614.585 1275.2 611.603 1268.12 609.309C1261.15 607.015 1256.53 604.778 1254.25 602.598C1252.08 600.419 1250.99 597.724 1250.99 594.512C1250.99 589.121 1253.56 584.991 1258.7 582.124C1263.74 579.372 1270.11 578.622 1278.39 578.622H1361.59C1365.75 578.622 1369.32 575.812 1370.88 571.963C1372.49 568.019 1374.51 564.263 1376.98 560.711C1383.4 551.349 1392.08 544.093 1402.75 538.867C1402.97 538.759 1402.89 538.422 1402.65 538.422H1278.39C1263.44 538.422 1250.42 540.831 1239.35 545.648C1228.38 550.351 1219.88 557.119 1213.83 565.951C1207.78 574.668 1204.75 584.991 1204.75 596.921C1204.75 606.441 1206.75 614.585 1210.74 621.352C1214.74 628.005 1221.25 633.74 1230.27 638.558C1239.29 643.376 1251.33 647.734 1266.4 651.634C1279.76 655.19 1289.58 658.058 1295.86 660.237C1302.26 662.416 1306.37 664.653 1308.19 666.947C1310.02 669.126 1310.93 672.051 1310.93 675.722C1310.93 677.243 1310.66 679.712 1309.64 682.247C1306.19 690.806 1294.84 690.893 1285.61 690.891L1198.87 690.877H1198.87L1112.12 690.863C1097.62 690.863 1086.6 686.16 1079.07 676.754C1074.5 670.897 1071.34 663.565 1069.58 654.756C1069.04 652.024 1071.2 649.57 1073.99 649.57H1190.14C1194.93 649.57 1198.95 645.905 1199.14 641.12C1199.9 622.152 1197.43 605.412 1191.76 590.899C1185.25 574.267 1175.2 561.363 1161.61 552.186C1148.03 543.01 1131.53 538.422 1112.12 538.422C1093.85 538.422 1077.7 542.609 1063.65 550.982C1049.61 559.241 1038.59 570.883 1030.6 585.909C1028.75 589.391 1027.11 593.015 1025.69 596.78C1023.56 602.397 1027.99 608.059 1033.99 608.059H1066.69C1069.7 608.059 1072.32 606.097 1073.49 603.33C1075.03 599.704 1076.89 596.478 1079.07 593.652C1086.6 583.902 1098.3 579.027 1114.17 579.027C1127.76 579.027 1137.52 583.214 1143.46 591.587C1147.44 597.021 1150.11 604.763 1151.48 614.814H1069.96L1069.96 614.797L1005.68 614.797C1003.8 604.294 1000.48 594.607 995.719 585.737C987.841 570.94 976.823 559.355 962.665 550.982C948.622 542.609 932.295 538.422 913.684 538.422C895.417 538.422 879.261 542.551 865.217 550.81C851.174 559.069 840.156 570.596 832.164 585.393C824.172 600.075 820.176 617.108 820.176 636.493C820.176 650.91 822.374 664.091 826.772 676.039C828.035 679.471 831.385 681.618 835.043 681.618H878.297C880.851 681.618 882.193 678.26 880.631 676.238C873.21 666.374 869.499 653.125 869.499 636.493C869.499 625.711 871.04 616.248 874.123 608.104C877.32 599.96 882.172 593.594 888.68 589.006C895.188 584.418 903.523 582.124 913.684 582.124C928.413 582.124 939.488 587.056 946.909 596.921C954.445 606.785 958.212 619.976 958.212 636.493C958.212 652.437 954.502 665.513 947.08 675.722C939.773 685.816 928.641 690.863 913.684 690.863H913.671V690.848H912.3L912.3 690.848H833.749L811.985 690.848V487.844C811.985 482.747 807.853 478.615 802.755 478.615H774.288C769.191 478.615 765.059 482.747 765.059 487.844V549.546C753.548 542.111 739.618 538.393 723.271 538.393C705.574 538.393 690.16 542.637 677.03 551.124C663.9 559.613 653.681 571.255 646.375 586.052C639.181 600.734 635.585 617.538 635.585 636.464C635.585 655.046 639.125 671.735 646.204 686.532C653.396 701.329 663.386 713.029 676.174 721.631ZM770.881 636.464C770.881 647.705 769.511 657.569 766.771 666.057C764.031 674.546 759.521 681.141 753.241 685.844C747.076 690.547 738.799 692.898 728.409 692.898C718.361 692.898 710.141 690.375 703.747 685.328C697.354 680.281 692.615 673.513 689.532 665.025C686.45 656.422 684.909 646.902 684.909 636.464C684.909 626.141 686.506 616.735 689.704 608.247C692.9 599.644 697.81 592.819 704.432 587.773C711.169 582.611 719.731 580.03 730.121 580.03C739.826 580.03 747.647 582.381 753.584 587.084C759.635 591.787 764.031 598.382 766.771 606.871C769.511 615.359 770.881 625.223 770.881 636.464Z"/>
</mask>
<path fill-rule="evenodd" clip-rule="evenodd" d="M1856.96 581.848V734.55H1894.31C1899.41 734.55 1903.54 730.417 1903.54 725.32V581.848H1946.36V545.716H1903.54V535.393C1903.54 530.231 1905.31 525.815 1908.85 522.145C1912.39 518.359 1917.81 516.467 1925.12 516.467H1937.13C1942.23 516.467 1946.36 512.335 1946.36 507.237V487.844C1946.36 482.747 1942.23 478.615 1937.13 478.615H1923.41C1918.96 478.615 1913.59 478.729 1907.31 478.959C1901.03 479.073 1894.52 480.335 1887.79 482.744C1881.16 485.038 1875 489.397 1869.29 495.82C1864.84 500.752 1861.76 506.258 1860.04 512.338C1858.44 518.417 1857.53 524.439 1857.3 530.403C1857.09 536.079 1856.97 541.183 1856.96 545.716H1835.42C1830.33 545.716 1826.19 549.848 1826.19 554.946V572.618C1826.19 577.716 1830.33 581.848 1835.42 581.848H1856.96ZM1975.47 725.32C1975.47 730.417 1979.61 734.55 1984.7 734.55H2012.83C2017.92 734.55 2022.06 730.417 2022.06 725.32V581.848H2056.93C2062.03 581.848 2066.16 577.716 2066.16 572.618V554.946C2066.16 549.848 2062.03 545.716 2056.93 545.716H2022.06V535.393C2022.06 530.231 2023.83 525.815 2027.37 522.145C2030.91 518.359 2036.33 516.467 2043.64 516.467H2055.64C2060.74 516.467 2064.87 512.335 2064.87 507.237V487.844C2064.87 482.747 2060.74 478.615 2055.64 478.615H2041.92C2037.47 478.615 2032.1 478.729 2025.82 478.959C2019.54 479.073 2013.04 480.335 2006.3 482.744C1999.68 485.038 1993.51 489.397 1987.8 495.82C1983.35 500.752 1980.27 506.258 1978.56 512.338C1976.96 518.417 1976.04 524.439 1975.82 530.403C1975.6 536.079 1975.48 541.183 1975.47 545.716H1946.36V581.848H1975.47V725.32ZM1678.43 727.148C1687.56 732.08 1699.38 734.546 1713.88 734.546C1732.03 734.546 1747.04 730.589 1758.92 722.675C1764.55 718.954 1769.52 714.689 1773.82 709.879V725.319C1773.82 730.417 1777.95 734.549 1783.05 734.549L1847.75 734.549V698.416H1816.97V554.943C1816.97 549.846 1812.83 545.714 1807.74 545.714H1777.22C1772.13 545.714 1768 549.846 1768 554.943V637.507C1768 648.977 1766.68 658.268 1764.06 665.38C1761.54 672.377 1758.29 677.71 1754.29 681.381C1750.3 684.937 1746.02 687.346 1741.45 688.607C1736.88 689.869 1732.6 690.5 1728.61 690.5C1718.67 690.5 1710.97 688.263 1705.48 683.79C1700.12 679.316 1696.24 673.754 1693.84 667.101C1691.44 660.448 1690.01 653.852 1689.56 647.314C1689.1 640.662 1688.87 635.213 1688.87 630.969V587.846H1641.6V647.486C1641.6 650.583 1641.83 655.515 1642.29 662.283C1642.75 669.05 1644.06 676.564 1646.23 684.822C1648.4 692.966 1651.99 700.824 1657.02 708.394C1662.16 715.964 1669.29 722.215 1678.43 727.148ZM1631.76 732.729C1636.15 732.085 1639.3 728.249 1639.3 723.811V703.15C1639.3 697.558 1634.37 693.278 1628.8 693.717C1621.87 694.261 1615.38 694.341 1609.33 693.956C1600.31 694.952 1593.75 689.827 1589.64 683.289C1587.47 679.848 1586.27 675.26 1586.04 669.524C1585.93 663.674 1585.87 657.136 1585.87 649.91V578.617L1688.87 578.616V547.651C1688.87 542.554 1684.74 538.422 1679.64 538.422L1585.87 538.422V501.689C1585.87 496.591 1581.74 492.459 1576.64 492.459H1548.52C1543.42 492.459 1539.29 496.591 1539.29 501.689V538.422L1508.05 538.422H1449.12C1434.17 538.424 1421.16 540.833 1410.09 545.648C1399.13 550.351 1390.63 557.119 1384.57 565.951C1378.52 574.668 1375.5 584.991 1375.5 596.921C1375.5 606.441 1377.5 614.585 1381.49 621.352C1385.49 628.005 1392 633.74 1401.02 638.558C1410.03 643.376 1422.08 647.734 1437.15 651.634C1450.51 655.19 1460.33 658.058 1466.61 660.237C1473 662.416 1477.11 664.653 1478.94 666.947C1480.77 669.126 1481.68 672.051 1481.68 675.722C1481.68 681.572 1479.4 686.16 1474.83 689.486C1470.26 692.698 1463.75 694.304 1455.31 694.304C1445.03 694.304 1436.52 691.838 1429.79 686.906C1425.39 683.631 1422.03 679.523 1419.69 674.58C1417.62 670.192 1413.22 666.996 1408.42 667.724L1378.52 672.262C1373.46 673.031 1369.93 677.802 1371.27 682.744C1375.38 697.801 1383.41 709.798 1395.36 718.736C1409.75 729.288 1428.59 734.565 1451.88 734.565C1476.08 734.565 1495.04 729.116 1508.74 718.22C1522.44 707.323 1529.29 692.354 1529.29 673.313C1529.29 663.678 1527.35 655.477 1523.47 648.709C1519.59 641.827 1513.36 635.977 1504.8 631.16C1496.35 626.227 1485.1 621.926 1471.06 618.256C1456.68 614.585 1445.94 611.603 1438.86 609.309C1431.9 607.015 1427.28 604.778 1424.99 602.598C1422.82 600.419 1421.74 597.724 1421.74 594.512C1421.74 589.121 1424.31 584.991 1429.44 582.124C1434.48 579.372 1440.86 578.622 1449.14 578.622V578.616L1508.05 578.617H1539.29V652.663C1539.29 663.789 1539.4 673.768 1539.63 682.601C1539.86 691.318 1542.26 699.921 1546.82 708.409C1551.85 717.47 1559.15 724.066 1568.74 728.195C1578.45 732.21 1589.41 734.32 1601.63 734.55C1611.52 734.826 1621.57 734.223 1631.76 732.729ZM676.174 721.631C688.961 730.234 703.861 734.535 720.874 734.535C739.255 734.535 754.611 730.234 766.942 721.631C767.605 721.169 768.258 720.698 768.903 720.218C769.572 719.72 770.231 719.212 770.881 718.695V725.32C770.881 730.417 775.013 734.549 780.111 734.549H911.741C912.386 734.56 913.034 734.565 913.684 734.565C932.181 734.565 948.451 730.436 962.494 722.177C976.652 713.803 987.669 702.276 995.547 687.594C1001.68 676.243 1005.46 663.575 1006.89 649.592H1019.08C1020.36 663.88 1024.25 676.834 1030.77 688.454C1038.99 702.792 1050.29 714.09 1064.68 722.349C1078.48 730.098 1094.29 734.161 1112.12 734.536H1198.87H1198.87H1277.05L1277.04 734.565C1278 734.564 1278.95 734.555 1279.91 734.536H1281.14L1281.16 734.507C1303.35 733.898 1325.09 728.482 1337.99 718.22C1351.69 707.323 1358.54 692.354 1358.54 673.313C1358.54 663.678 1356.6 655.477 1352.72 648.709C1348.84 641.827 1342.62 635.977 1334.05 631.16C1325.6 626.227 1314.36 621.926 1300.31 618.256C1285.93 614.585 1275.2 611.603 1268.12 609.309C1261.15 607.015 1256.53 604.778 1254.25 602.598C1252.08 600.419 1250.99 597.724 1250.99 594.512C1250.99 589.121 1253.56 584.991 1258.7 582.124C1263.74 579.372 1270.11 578.622 1278.39 578.622H1361.59C1365.75 578.622 1369.32 575.812 1370.88 571.963C1372.49 568.019 1374.51 564.263 1376.98 560.711C1383.4 551.349 1392.08 544.093 1402.75 538.867C1402.97 538.759 1402.89 538.422 1402.65 538.422H1278.39C1263.44 538.422 1250.42 540.831 1239.35 545.648C1228.38 550.351 1219.88 557.119 1213.83 565.951C1207.78 574.668 1204.75 584.991 1204.75 596.921C1204.75 606.441 1206.75 614.585 1210.74 621.352C1214.74 628.005 1221.25 633.74 1230.27 638.558C1239.29 643.376 1251.33 647.734 1266.4 651.634C1279.76 655.19 1289.58 658.058 1295.86 660.237C1302.26 662.416 1306.37 664.653 1308.19 666.947C1310.02 669.126 1310.93 672.051 1310.93 675.722C1310.93 677.243 1310.66 679.712 1309.64 682.247C1306.19 690.806 1294.84 690.893 1285.61 690.891L1198.87 690.877H1198.87L1112.12 690.863C1097.62 690.863 1086.6 686.16 1079.07 676.754C1074.5 670.897 1071.34 663.565 1069.58 654.756C1069.04 652.024 1071.2 649.57 1073.99 649.57H1190.14C1194.93 649.57 1198.95 645.905 1199.14 641.12C1199.9 622.152 1197.43 605.412 1191.76 590.899C1185.25 574.267 1175.2 561.363 1161.61 552.186C1148.03 543.01 1131.53 538.422 1112.12 538.422C1093.85 538.422 1077.7 542.609 1063.65 550.982C1049.61 559.241 1038.59 570.883 1030.6 585.909C1028.75 589.391 1027.11 593.015 1025.69 596.78C1023.56 602.397 1027.99 608.059 1033.99 608.059H1066.69C1069.7 608.059 1072.32 606.097 1073.49 603.33C1075.03 599.704 1076.89 596.478 1079.07 593.652C1086.6 583.902 1098.3 579.027 1114.17 579.027C1127.76 579.027 1137.52 583.214 1143.46 591.587C1147.44 597.021 1150.11 604.763 1151.48 614.814H1069.96L1069.96 614.797L1005.68 614.797C1003.8 604.294 1000.48 594.607 995.719 585.737C987.841 570.94 976.823 559.355 962.665 550.982C948.622 542.609 932.295 538.422 913.684 538.422C895.417 538.422 879.261 542.551 865.217 550.81C851.174 559.069 840.156 570.596 832.164 585.393C824.172 600.075 820.176 617.108 820.176 636.493C820.176 650.91 822.374 664.091 826.772 676.039C828.035 679.471 831.385 681.618 835.043 681.618H878.297C880.851 681.618 882.193 678.26 880.631 676.238C873.21 666.374 869.499 653.125 869.499 636.493C869.499 625.711 871.04 616.248 874.123 608.104C877.32 599.96 882.172 593.594 888.68 589.006C895.188 584.418 903.523 582.124 913.684 582.124C928.413 582.124 939.488 587.056 946.909 596.921C954.445 606.785 958.212 619.976 958.212 636.493C958.212 652.437 954.502 665.513 947.08 675.722C939.773 685.816 928.641 690.863 913.684 690.863H913.671V690.848H912.3L912.3 690.848H833.749L811.985 690.848V487.844C811.985 482.747 807.853 478.615 802.755 478.615H774.288C769.191 478.615 765.059 482.747 765.059 487.844V549.546C753.548 542.111 739.618 538.393 723.271 538.393C705.574 538.393 690.16 542.637 677.03 551.124C663.9 559.613 653.681 571.255 646.375 586.052C639.181 600.734 635.585 617.538 635.585 636.464C635.585 655.046 639.125 671.735 646.204 686.532C653.396 701.329 663.386 713.029 676.174 721.631ZM770.881 636.464C770.881 647.705 769.511 657.569 766.771 666.057C764.031 674.546 759.521 681.141 753.241 685.844C747.076 690.547 738.799 692.898 728.409 692.898C718.361 692.898 710.141 690.375 703.747 685.328C697.354 680.281 692.615 673.513 689.532 665.025C686.45 656.422 684.909 646.902 684.909 636.464C684.909 626.141 686.506 616.735 689.704 608.247C692.9 599.644 697.81 592.819 704.432 587.773C711.169 582.611 719.731 580.03 730.121 580.03C739.826 580.03 747.647 582.381 753.584 587.084C759.635 591.787 764.031 598.382 766.771 606.871C769.511 615.359 770.881 625.223 770.881 636.464Z" fill="#EFE8E4"/>
<path d="M1856.96 734.55H1852.35V739.164H1856.96V734.55ZM1856.96 581.848H1861.57V577.233H1856.96V581.848ZM1903.54 581.848V577.233H1898.93V581.848H1903.54ZM1946.36 581.848V586.463H1950.97V581.848H1946.36ZM1946.36 545.716H1950.97V541.101H1946.36V545.716ZM1903.54 545.716H1898.93V550.331H1903.54V545.716ZM1908.85 522.145L1912.17 525.348L1912.2 525.322L1912.22 525.297L1908.85 522.145ZM1907.31 478.959L1907.4 483.573L1907.44 483.572L1907.48 483.57L1907.31 478.959ZM1887.79 482.744L1889.3 487.105L1889.32 487.097L1889.34 487.089L1887.79 482.744ZM1869.29 495.82L1872.72 498.913L1872.73 498.899L1872.74 498.886L1869.29 495.82ZM1860.04 512.338L1855.6 511.086L1855.59 511.125L1855.58 511.164L1860.04 512.338ZM1857.3 530.403L1861.91 530.58L1861.91 530.58L1857.3 530.403ZM1856.96 545.716V550.331H1861.56L1861.58 545.727L1856.96 545.716ZM2022.06 581.848V577.233H2017.44V581.848H2022.06ZM2022.06 545.716H2017.44V550.331H2022.06V545.716ZM2027.37 522.145L2030.69 525.348L2030.71 525.322L2030.74 525.297L2027.37 522.145ZM2025.82 478.959L2025.91 483.573L2025.95 483.572L2025.99 483.57L2025.82 478.959ZM2006.3 482.744L2007.81 487.105L2007.83 487.097L2007.85 487.089L2006.3 482.744ZM1987.8 495.82L1991.23 498.913L1991.24 498.899L1991.25 498.886L1987.8 495.82ZM1978.56 512.338L1974.11 511.086L1974.1 511.125L1974.09 511.164L1978.56 512.338ZM1975.82 530.403L1980.43 530.58L1980.43 530.58L1975.82 530.403ZM1975.47 545.716V550.331H1980.08L1980.09 545.727L1975.47 545.716ZM1946.36 545.716V541.101H1941.74V545.716H1946.36ZM1946.36 581.848H1941.74V586.463H1946.36V581.848ZM1975.47 581.848H1980.09V577.233H1975.47V581.848ZM1678.43 727.148L1676.23 731.208L1678.43 727.148ZM1758.92 722.675L1756.38 718.823L1756.37 718.829L1756.36 718.835L1758.92 722.675ZM1773.82 709.879H1778.43V697.79L1770.38 706.804L1773.82 709.879ZM1783.05 734.549V729.934V734.549ZM1847.75 734.549V739.164L1852.36 739.164V734.549H1847.75ZM1847.75 698.416H1852.36V693.801H1847.75V698.416ZM1816.97 698.416H1812.35V703.031H1816.97V698.416ZM1764.06 665.38L1759.73 663.781L1759.72 663.801L1759.71 663.821L1764.06 665.38ZM1754.29 681.381L1757.36 684.829L1757.39 684.804L1757.42 684.78L1754.29 681.381ZM1741.45 688.607L1740.22 684.159L1740.22 684.159L1741.45 688.607ZM1705.48 683.79L1702.53 687.335L1702.55 687.35L1702.57 687.365L1705.48 683.79ZM1693.84 667.101L1698.18 665.536V665.536L1693.84 667.101ZM1689.56 647.314L1684.95 647.63L1684.95 647.637L1689.56 647.314ZM1688.87 587.846H1693.49V583.231H1688.87V587.846ZM1641.6 587.846V583.231H1636.99V587.846H1641.6ZM1642.29 662.283L1637.68 662.594V662.594L1642.29 662.283ZM1646.23 684.822L1641.76 685.995L1641.77 686.003L1641.77 686.011L1646.23 684.822ZM1657.02 708.394L1653.17 710.945L1653.19 710.965L1653.2 710.985L1657.02 708.394ZM1631.76 732.729L1631.09 728.163L1631.76 732.729ZM1628.8 693.717L1628.43 689.116L1628.8 693.717ZM1609.33 693.956L1609.63 689.351L1609.23 689.325L1608.83 689.369L1609.33 693.956ZM1589.64 683.289L1593.54 680.833L1593.54 680.828L1589.64 683.289ZM1586.04 669.524L1581.43 669.614L1581.43 669.661L1581.43 669.708L1586.04 669.524ZM1585.87 578.617V574.002L1581.26 574.002V578.617H1585.87ZM1688.87 578.616V583.231L1693.49 583.231V578.616H1688.87ZM1679.64 538.422V533.807V538.422ZM1585.87 538.422H1581.26V543.037L1585.87 543.037V538.422ZM1539.29 538.422V543.037L1543.9 543.037V538.422H1539.29ZM1508.05 538.422V533.807V538.422ZM1449.12 538.422V533.807H1449.12L1449.12 538.422ZM1410.09 545.648L1411.91 549.889L1411.92 549.885L1411.93 549.88L1410.09 545.648ZM1384.57 565.951L1388.37 568.582L1388.37 568.571L1388.38 568.559L1384.57 565.951ZM1381.49 621.352L1377.52 623.699L1377.53 623.714L1377.54 623.729L1381.49 621.352ZM1401.02 638.558L1403.19 634.487L1401.02 638.558ZM1437.15 651.634L1438.34 647.175L1438.32 647.171L1438.31 647.167L1437.15 651.634ZM1466.61 660.237L1465.1 664.597L1465.11 664.601L1465.12 664.605L1466.61 660.237ZM1478.94 666.947L1475.33 669.822L1475.37 669.867L1475.4 669.912L1478.94 666.947ZM1474.83 689.486L1477.48 693.261L1477.51 693.239L1477.55 693.217L1474.83 689.486ZM1429.79 686.906L1427.03 690.607L1427.05 690.618L1427.06 690.629L1429.79 686.906ZM1419.69 674.58L1423.87 672.61V672.61L1419.69 674.58ZM1408.42 667.724L1409.11 672.287L1408.42 667.724ZM1378.52 672.262L1377.83 667.7L1378.52 672.262ZM1371.27 682.744L1375.73 681.531V681.531L1371.27 682.744ZM1395.36 718.736L1392.6 722.432L1392.62 722.444L1392.63 722.457L1395.36 718.736ZM1508.74 718.22L1505.87 714.608V714.608L1508.74 718.22ZM1523.47 648.709L1519.45 650.976L1519.46 650.991L1519.46 651.005L1523.47 648.709ZM1504.8 631.16L1502.47 635.145L1502.5 635.164L1502.54 635.182L1504.8 631.16ZM1471.06 618.256L1472.23 613.791L1472.22 613.787L1472.2 613.784L1471.06 618.256ZM1438.86 609.309L1437.42 613.692L1437.43 613.695L1437.44 613.699L1438.86 609.309ZM1424.99 602.598L1421.72 605.854L1421.76 605.896L1421.81 605.937L1424.99 602.598ZM1429.44 582.124L1427.23 578.074L1427.21 578.084L1427.2 578.094L1429.44 582.124ZM1449.14 578.622V583.237H1453.75V578.622H1449.14ZM1449.14 578.616V574.002L1444.52 574.002V578.616H1449.14ZM1508.05 578.617V583.231V578.617ZM1539.29 578.617H1543.9V574.002H1539.29V578.617ZM1539.63 682.601L1535.02 682.72L1535.02 682.721L1539.63 682.601ZM1546.82 708.409L1542.76 710.595L1542.77 710.621L1542.79 710.646L1546.82 708.409ZM1568.74 728.195L1566.92 732.434L1566.95 732.447L1566.98 732.459L1568.74 728.195ZM1601.63 734.55L1601.76 729.937L1601.73 729.936L1601.71 729.936L1601.63 734.55ZM676.174 721.631L673.598 725.46L676.174 721.631ZM766.942 721.631L764.303 717.846L764.302 717.846L766.942 721.631ZM768.903 720.218L771.659 723.92L771.66 723.919L768.903 720.218ZM770.881 718.695H775.496V709.121L768.006 715.085L770.881 718.695ZM911.741 734.549L911.814 729.935L911.778 729.935H911.741V734.549ZM962.494 722.177L964.833 726.155L964.843 726.149L962.494 722.177ZM995.547 687.594L991.487 685.401L991.481 685.412L995.547 687.594ZM1006.89 649.592V644.977H1002.72L1002.29 649.123L1006.89 649.592ZM1019.08 649.592L1023.67 649.181L1023.3 644.977H1019.08V649.592ZM1030.77 688.454L1026.75 690.712L1026.76 690.73L1026.77 690.749L1030.77 688.454ZM1064.68 722.349L1062.38 726.351L1062.4 726.362L1062.42 726.372L1064.68 722.349ZM1112.12 734.536L1112.02 739.15L1112.07 739.151H1112.12V734.536ZM1277.05 734.536L1281.07 736.808L1284.97 729.921H1277.05V734.536ZM1277.04 734.565L1273.02 732.293L1269.12 739.185L1277.04 739.18L1277.04 734.565ZM1279.91 734.536V729.921H1279.87L1279.82 729.922L1279.91 734.536ZM1281.14 734.536V739.151H1284.07L1285.32 736.506L1281.14 734.536ZM1281.16 734.507L1281.03 729.894L1278.2 729.972L1276.98 732.537L1281.16 734.507ZM1337.99 718.22L1340.86 721.831L1337.99 718.22ZM1352.72 648.709L1348.7 650.976L1348.71 650.991L1348.72 651.005L1352.72 648.709ZM1334.05 631.16L1331.73 635.145L1331.76 635.164L1331.79 635.182L1334.05 631.16ZM1300.31 618.256L1301.48 613.791L1301.47 613.787L1301.46 613.784L1300.31 618.256ZM1268.12 609.309L1266.67 613.692L1266.68 613.695L1266.69 613.699L1268.12 609.309ZM1254.25 602.598L1250.97 605.854L1251.02 605.896L1251.06 605.937L1254.25 602.598ZM1258.7 582.124L1256.49 578.074L1256.47 578.084L1256.45 578.094L1258.7 582.124ZM1370.88 571.963L1375.16 573.699V573.699L1370.88 571.963ZM1376.98 560.711L1380.77 563.341L1380.77 563.331L1380.78 563.321L1376.98 560.711ZM1402.75 538.867L1400.72 534.723L1400.72 534.723L1402.75 538.867ZM1239.35 545.648L1241.17 549.889L1241.18 549.885L1241.19 549.88L1239.35 545.648ZM1213.83 565.951L1217.62 568.582L1217.63 568.571L1217.63 568.559L1213.83 565.951ZM1210.74 621.352L1206.77 623.699L1206.78 623.714L1206.79 623.729L1210.74 621.352ZM1230.27 638.558L1228.09 642.629L1230.27 638.558ZM1266.4 651.634L1267.59 647.175L1267.58 647.171L1267.56 647.167L1266.4 651.634ZM1295.86 660.237L1294.35 664.597L1294.36 664.601L1294.37 664.605L1295.86 660.237ZM1308.19 666.947L1304.58 669.822L1304.62 669.867L1304.66 669.912L1308.19 666.947ZM1309.64 682.247L1305.36 680.524V680.524L1309.64 682.247ZM1285.61 690.891L1285.61 686.277H1285.61L1285.61 690.891ZM1198.87 690.877L1198.87 686.262H1198.87V690.877ZM1198.87 690.877L1198.87 695.492H1198.87V690.877ZM1112.12 690.863L1112.12 686.248H1112.12V690.863ZM1079.07 676.754L1075.43 679.591L1075.45 679.616L1075.46 679.64L1079.07 676.754ZM1069.58 654.756L1074.11 653.853V653.853L1069.58 654.756ZM1199.14 641.12L1203.75 641.303L1199.14 641.12ZM1191.76 590.899L1196.05 589.217V589.217L1191.76 590.899ZM1161.61 552.186L1164.2 548.362L1161.61 552.186ZM1063.65 550.982L1065.99 554.96L1066 554.953L1066.02 554.946L1063.65 550.982ZM1030.6 585.909L1026.52 583.742V583.742L1030.6 585.909ZM1025.69 596.78L1021.37 595.149V595.149L1025.69 596.78ZM1073.49 603.33L1077.74 605.132L1077.74 605.132L1073.49 603.33ZM1079.07 593.652L1075.41 590.83L1075.41 590.836L1079.07 593.652ZM1143.46 591.587L1139.7 594.256L1139.72 594.285L1139.74 594.314L1143.46 591.587ZM1151.48 614.814V619.429H1156.76L1156.05 614.195L1151.48 614.814ZM1069.96 614.814L1065.44 613.864L1064.27 619.429H1069.96V614.814ZM1069.96 614.797L1074.48 615.747L1075.65 610.182L1069.96 610.182V614.797ZM1005.68 614.797L1001.14 615.611L1001.82 619.411L1005.68 619.411V614.797ZM995.719 585.737L991.645 587.906L991.649 587.912L991.652 587.919L995.719 585.737ZM962.665 550.982L960.302 554.946L960.309 554.95L960.316 554.954L962.665 550.982ZM865.217 550.81L862.878 546.832L862.878 546.832L865.217 550.81ZM832.164 585.393L836.217 587.599L836.221 587.593L836.224 587.586L832.164 585.393ZM826.772 676.039L822.441 677.633V677.633L826.772 676.039ZM880.631 676.238L876.943 679.012L876.961 679.036L876.98 679.06L880.631 676.238ZM874.123 608.104L869.827 606.418L869.817 606.444L869.807 606.471L874.123 608.104ZM888.68 589.006L891.339 592.778V592.778L888.68 589.006ZM946.909 596.921L943.221 599.695L943.232 599.709L943.242 599.722L946.909 596.921ZM947.08 675.722L943.348 673.008L943.342 673.016L947.08 675.722ZM913.671 690.863H909.056V695.478H913.671V690.863ZM913.671 690.848H918.286V686.233H913.671V690.848ZM912.3 690.848L912.2 695.461L912.25 695.463H912.3V690.848ZM912.3 690.848L912.4 686.234L912.35 686.233H912.3V690.848ZM833.749 690.848V686.233V690.848ZM811.985 690.848H807.37V695.463H811.985V690.848ZM765.059 549.546L762.555 553.423L769.673 558.021V549.546H765.059ZM677.03 551.124L674.525 547.249L674.525 547.249L677.03 551.124ZM646.375 586.052L642.237 584.009L642.234 584.015L642.231 584.021L646.375 586.052ZM646.204 686.532L642.041 688.524L642.047 688.537L642.053 688.55L646.204 686.532ZM766.771 666.057L762.38 664.64L766.771 666.057ZM753.241 685.844L750.475 682.15L750.459 682.162L750.442 682.175L753.241 685.844ZM703.747 685.328L700.888 688.95H700.888L703.747 685.328ZM689.532 665.025L685.188 666.582L685.191 666.591L685.195 666.6L689.532 665.025ZM689.704 608.247L694.022 609.873L694.026 609.864L694.03 609.854L689.704 608.247ZM704.432 587.773L707.23 591.443L707.239 591.436L704.432 587.773ZM753.584 587.084L750.718 590.701L750.735 590.715L750.752 590.728L753.584 587.084ZM766.771 606.871L762.38 608.288L766.771 606.871ZM1861.57 734.55V581.848H1852.35V734.55H1861.57ZM1894.31 729.935H1856.96V739.164H1894.31V729.935ZM1898.93 725.32C1898.93 727.869 1896.86 729.935 1894.31 729.935V739.164C1901.96 739.164 1908.16 732.966 1908.16 725.32H1898.93ZM1898.93 581.848V725.32H1908.16V581.848H1898.93ZM1946.36 577.233H1903.54V586.463H1946.36V577.233ZM1941.74 545.716V581.848H1950.97V545.716H1941.74ZM1903.54 550.331H1946.36V541.101H1903.54V550.331ZM1898.93 535.393V545.716H1908.16V535.393H1898.93ZM1905.53 518.941C1901.15 523.484 1898.93 529.053 1898.93 535.393H1908.16C1908.16 531.41 1909.48 528.147 1912.17 525.348L1905.53 518.941ZM1925.12 511.852C1917.07 511.852 1910.2 513.944 1905.48 518.993L1912.22 525.297C1914.58 522.775 1918.56 521.082 1925.12 521.082V511.852ZM1937.13 511.852H1925.12V521.082H1937.13V511.852ZM1941.74 507.237C1941.74 509.786 1939.68 511.852 1937.13 511.852V521.082C1944.77 521.082 1950.97 514.883 1950.97 507.237H1941.74ZM1941.74 487.844V507.237H1950.97V487.844H1941.74ZM1937.13 483.229C1939.68 483.229 1941.74 485.296 1941.74 487.844H1950.97C1950.97 480.198 1944.77 474 1937.13 474V483.229ZM1923.41 483.229H1937.13V474H1923.41V483.229ZM1907.48 483.57C1913.72 483.342 1919.03 483.229 1923.41 483.229V474C1918.88 474 1913.46 474.116 1907.14 474.347L1907.48 483.57ZM1889.34 487.089C1895.67 484.826 1901.68 483.677 1907.4 483.573L1907.23 474.345C1900.38 474.47 1893.38 475.844 1886.23 478.399L1889.34 487.089ZM1872.74 498.886C1878.04 492.92 1883.57 489.088 1889.3 487.105L1886.28 478.383C1878.76 480.989 1871.96 485.873 1865.84 492.755L1872.74 498.886ZM1864.48 513.589C1865.99 508.229 1868.71 503.346 1872.72 498.913L1865.87 492.728C1860.96 498.159 1857.52 504.287 1855.6 511.086L1864.48 513.589ZM1861.91 530.58C1862.13 524.969 1862.99 519.282 1864.51 513.511L1855.58 511.164C1853.9 517.552 1852.93 523.908 1852.69 530.227L1861.91 530.58ZM1861.58 545.727C1861.59 541.261 1861.7 536.213 1861.91 530.58L1852.69 530.227C1852.47 535.944 1852.36 541.105 1852.35 545.706L1861.58 545.727ZM1835.42 550.331H1856.96V541.101H1835.42V550.331ZM1830.81 554.946C1830.81 552.397 1832.88 550.331 1835.42 550.331V541.101C1827.78 541.101 1821.58 547.3 1821.58 554.946H1830.81ZM1830.81 572.618V554.946H1821.58V572.618H1830.81ZM1835.42 577.233C1832.88 577.233 1830.81 575.167 1830.81 572.618H1821.58C1821.58 580.264 1827.78 586.463 1835.42 586.463V577.233ZM1856.96 577.233H1835.42V586.463H1856.96V577.233ZM1984.7 729.935C1982.15 729.935 1980.09 727.869 1980.09 725.32H1970.86C1970.86 732.966 1977.06 739.164 1984.7 739.164V729.935ZM2012.83 729.935H1984.7V739.164H2012.83V729.935ZM2017.44 725.32C2017.44 727.869 2015.38 729.935 2012.83 729.935V739.164C2020.47 739.164 2026.67 732.966 2026.67 725.32H2017.44ZM2017.44 581.848V725.32H2026.67V581.848H2017.44ZM2056.93 577.233H2022.06V586.463H2056.93V577.233ZM2061.55 572.618C2061.55 575.167 2059.48 577.233 2056.93 577.233V586.463C2064.58 586.463 2070.78 580.264 2070.78 572.618H2061.55ZM2061.55 554.946V572.618H2070.78V554.946H2061.55ZM2056.93 550.331C2059.48 550.331 2061.55 552.397 2061.55 554.946H2070.78C2070.78 547.3 2064.58 541.101 2056.93 541.101V550.331ZM2022.06 550.331H2056.93V541.101H2022.06V550.331ZM2017.44 535.393V545.716H2026.67V535.393H2017.44ZM2024.04 518.941C2019.66 523.484 2017.44 529.053 2017.44 535.393H2026.67C2026.67 531.41 2027.99 528.147 2030.69 525.348L2024.04 518.941ZM2043.64 511.852C2035.59 511.852 2028.72 513.944 2023.99 518.993L2030.74 525.297C2033.09 522.775 2037.07 521.082 2043.64 521.082V511.852ZM2055.64 511.852H2043.64V521.082H2055.64V511.852ZM2060.26 507.237C2060.26 509.786 2058.19 511.852 2055.64 511.852V521.082C2063.29 521.082 2069.49 514.883 2069.49 507.237H2060.26ZM2060.26 487.844V507.237H2069.49V487.844H2060.26ZM2055.64 483.229C2058.19 483.229 2060.26 485.296 2060.26 487.844H2069.49C2069.49 480.198 2063.29 474 2055.64 474V483.229ZM2041.92 483.229H2055.64V474H2041.92V483.229ZM2025.99 483.57C2032.24 483.342 2037.54 483.229 2041.92 483.229V474C2037.4 474 2031.97 474.116 2025.66 474.347L2025.99 483.57ZM2007.85 487.089C2014.18 484.826 2020.19 483.677 2025.91 483.573L2025.74 474.345C2018.9 474.47 2011.89 475.844 2004.75 478.399L2007.85 487.089ZM1991.25 498.886C1996.56 492.92 2002.09 489.088 2007.81 487.105L2004.79 478.383C1997.27 480.989 1990.47 485.873 1984.35 492.755L1991.25 498.886ZM1983 513.589C1984.51 508.229 1987.23 503.346 1991.23 498.913L1984.38 492.728C1979.48 498.159 1976.03 504.287 1974.11 511.086L1983 513.589ZM1980.43 530.58C1980.64 524.969 1981.5 519.282 1983.02 513.511L1974.09 511.164C1972.41 517.552 1971.45 523.908 1971.2 530.227L1980.43 530.58ZM1980.09 545.727C1980.1 541.261 1980.21 536.213 1980.43 530.58L1971.2 530.227C1970.99 535.944 1970.87 541.105 1970.86 545.706L1980.09 545.727ZM1946.36 550.331H1975.47V541.101H1946.36V550.331ZM1950.97 581.848V545.716H1941.74V581.848H1950.97ZM1975.47 577.233H1946.36V586.463H1975.47V577.233ZM1980.09 725.32V581.848H1970.86V725.32H1980.09ZM1713.88 729.931C1699.85 729.931 1688.86 727.54 1680.62 723.087L1676.23 731.208C1686.25 736.62 1698.9 739.161 1713.88 739.161V729.931ZM1756.36 718.835C1745.42 726.123 1731.37 729.931 1713.88 729.931V739.161C1732.69 739.161 1748.66 735.056 1761.48 726.514L1756.36 718.835ZM1770.38 706.804C1766.36 711.304 1761.69 715.312 1756.38 718.823L1761.46 726.526C1767.41 722.597 1772.68 718.074 1777.26 712.954L1770.38 706.804ZM1778.43 725.319V709.879H1769.2V725.319H1778.43ZM1783.05 729.934C1780.5 729.934 1778.43 727.868 1778.43 725.319H1769.2C1769.2 732.965 1775.4 739.164 1783.05 739.164V729.934ZM1847.75 729.935L1783.05 729.934V739.164L1847.75 739.164V729.935ZM1843.13 698.416V734.549H1852.36V698.416H1843.13ZM1816.97 703.031H1847.75V693.801H1816.97V703.031ZM1812.35 554.943V698.416H1821.58V554.943H1812.35ZM1807.74 550.328C1810.28 550.328 1812.35 552.394 1812.35 554.943H1821.58C1821.58 547.297 1815.38 541.099 1807.74 541.099V550.328ZM1777.22 550.328H1807.74V541.099H1777.22V550.328ZM1772.61 554.943C1772.61 552.394 1774.68 550.328 1777.22 550.328V541.099C1769.58 541.099 1763.38 547.297 1763.38 554.943H1772.61ZM1772.61 637.507V554.943H1763.38V637.507H1772.61ZM1768.38 666.978C1771.27 659.163 1772.61 649.272 1772.61 637.507H1763.38C1763.38 648.683 1762.09 657.373 1759.73 663.781L1768.38 666.978ZM1757.42 684.78C1762.13 680.452 1765.72 674.392 1768.4 666.939L1759.71 663.821C1757.36 670.362 1754.45 674.969 1751.17 677.982L1757.42 684.78ZM1742.68 693.056C1748.01 691.582 1752.91 688.793 1757.36 684.829L1751.23 677.933C1747.69 681.08 1744.02 683.109 1740.22 684.159L1742.68 693.056ZM1728.61 695.115C1733.08 695.115 1737.78 694.408 1742.68 693.055L1740.22 684.159C1735.98 685.33 1732.12 685.885 1728.61 685.885V695.115ZM1702.57 687.365C1709.15 692.737 1718.03 695.115 1728.61 695.115V685.885C1719.31 685.885 1712.78 683.79 1708.4 680.215L1702.57 687.365ZM1689.5 668.665C1692.17 676.08 1696.52 682.329 1702.53 687.335L1708.44 680.245C1703.71 676.304 1700.3 671.428 1698.18 665.536L1689.5 668.665ZM1684.95 647.637C1685.44 654.631 1686.97 661.644 1689.5 668.665L1698.18 665.536C1695.92 659.252 1694.59 653.074 1694.16 646.992L1684.95 647.637ZM1684.26 630.969C1684.26 635.36 1684.49 640.925 1684.95 647.63L1694.16 646.999C1693.71 640.399 1693.49 635.066 1693.49 630.969H1684.26ZM1684.26 587.846V630.969H1693.49V587.846H1684.26ZM1641.6 592.461H1688.87V583.231H1641.6V592.461ZM1646.22 647.486V587.846H1636.99V647.486H1646.22ZM1646.89 661.973C1646.44 655.216 1646.22 650.417 1646.22 647.486H1636.99C1636.99 650.75 1637.23 655.815 1637.68 662.594L1646.89 661.973ZM1650.69 683.65C1648.58 675.604 1647.33 668.385 1646.89 661.973L1637.68 662.594C1638.17 669.716 1639.54 677.523 1641.76 685.995L1650.69 683.65ZM1660.86 705.842C1656.1 698.658 1652.72 691.257 1650.69 683.634L1641.77 686.011C1644.08 694.676 1647.89 702.99 1653.17 710.945L1660.86 705.842ZM1680.62 723.087C1672.05 718.459 1665.5 712.681 1660.84 705.802L1653.2 710.985C1658.81 719.247 1666.54 725.972 1676.23 731.208L1680.62 723.087ZM1634.69 723.811C1634.69 726.077 1633.1 727.868 1631.09 728.163L1632.43 737.295C1639.2 736.302 1643.92 730.422 1643.92 723.811H1634.69ZM1634.69 703.15V723.811H1643.92V703.15H1634.69ZM1629.16 698.317C1632.23 698.076 1634.69 700.429 1634.69 703.15H1643.92C1643.92 694.687 1636.51 688.481 1628.43 689.116L1629.16 698.317ZM1609.04 698.562C1615.34 698.962 1622.05 698.876 1629.16 698.317L1628.43 689.116C1621.7 689.646 1615.43 689.72 1609.63 689.351L1609.04 698.562ZM1585.73 685.745C1590.4 693.177 1598.45 699.8 1609.84 698.543L1608.83 689.369C1602.18 690.103 1597.09 686.477 1593.54 680.833L1585.73 685.745ZM1581.43 669.708C1581.68 675.937 1582.99 681.4 1585.73 685.75L1593.54 680.828C1591.95 678.295 1590.86 674.582 1590.65 669.341L1581.43 669.708ZM1581.26 649.91C1581.26 657.16 1581.31 663.729 1581.43 669.614L1590.66 669.434C1590.54 663.62 1590.48 657.113 1590.48 649.91H1581.26ZM1581.26 578.617V649.91H1590.48V578.617H1581.26ZM1688.87 574.002L1585.87 574.002V583.231L1688.87 583.231V574.002ZM1684.26 547.651V578.616H1693.49V547.651H1684.26ZM1679.64 543.037C1682.19 543.037 1684.26 545.103 1684.26 547.651H1693.49C1693.49 540.005 1687.29 533.807 1679.64 533.807V543.037ZM1585.87 543.037L1679.64 543.037V533.807L1585.87 533.807V543.037ZM1581.26 501.689V538.422H1590.48V501.689H1581.26ZM1576.64 497.074C1579.19 497.074 1581.26 499.14 1581.26 501.689H1590.48C1590.48 494.043 1584.29 487.844 1576.64 487.844V497.074ZM1548.52 497.074H1576.64V487.844H1548.52V497.074ZM1543.9 501.689C1543.9 499.14 1545.97 497.074 1548.52 497.074V487.844C1540.87 487.844 1534.67 494.043 1534.67 501.689H1543.9ZM1543.9 538.422V501.689H1534.67V538.422H1543.9ZM1508.05 543.037L1539.29 543.037V533.807L1508.05 533.807V543.037ZM1449.12 543.037H1508.05V533.807H1449.12V543.037ZM1411.93 549.88C1422.3 545.369 1434.66 543.039 1449.12 543.037L1449.12 533.807C1433.68 533.809 1420.02 536.296 1408.25 541.416L1411.93 549.88ZM1388.38 568.559C1393.88 560.529 1401.66 554.288 1411.91 549.889L1408.27 541.407C1396.6 546.414 1387.37 553.708 1380.77 563.342L1388.38 568.559ZM1380.11 596.921C1380.11 585.811 1382.92 576.433 1388.37 568.582L1380.78 563.319C1374.13 572.903 1370.88 584.172 1370.88 596.921H1380.11ZM1385.47 619.006C1381.97 613.086 1380.11 605.79 1380.11 596.921H1370.88C1370.88 607.092 1373.02 616.084 1377.52 623.699L1385.47 619.006ZM1403.19 634.487C1394.68 629.942 1388.9 624.721 1385.45 618.976L1377.54 623.729C1382.08 631.29 1389.31 637.539 1398.84 642.629L1403.19 634.487ZM1438.31 647.167C1423.43 643.316 1411.77 639.068 1403.19 634.487L1398.84 642.629C1408.3 647.683 1420.73 652.153 1436 656.102L1438.31 647.167ZM1468.12 655.877C1461.67 653.639 1451.72 650.736 1438.34 647.175L1435.96 656.094C1449.3 659.644 1458.99 662.476 1465.1 664.597L1468.12 655.877ZM1482.55 664.072C1481.09 662.24 1479 660.754 1476.69 659.496C1474.33 658.211 1471.44 657.009 1468.1 655.869L1465.12 664.605C1468.17 665.644 1470.53 666.651 1472.28 667.602C1474.08 668.581 1474.96 669.36 1475.33 669.822L1482.55 664.072ZM1486.29 675.722C1486.29 671.288 1485.18 667.209 1482.48 663.983L1475.4 669.912C1476.35 671.043 1477.06 672.815 1477.06 675.722H1486.29ZM1477.55 693.217C1483.35 688.986 1486.29 682.986 1486.29 675.722H1477.06C1477.06 680.158 1475.44 683.334 1472.11 685.756L1477.55 693.217ZM1455.31 698.919C1464.25 698.919 1471.83 697.234 1477.48 693.261L1472.17 685.712C1468.69 688.162 1463.26 689.689 1455.31 689.689V698.919ZM1427.06 690.629C1434.76 696.263 1444.28 698.919 1455.31 698.919V689.689C1445.78 689.689 1438.29 687.413 1432.51 683.182L1427.06 690.629ZM1415.52 676.55C1418.18 682.179 1422.03 686.882 1427.03 690.607L1432.54 683.205C1428.75 680.381 1425.88 676.866 1423.87 672.61L1415.52 676.55ZM1409.11 672.287C1411.32 671.952 1414.04 673.417 1415.52 676.55L1423.87 672.61C1421.2 666.968 1415.12 662.04 1407.73 663.162L1409.11 672.287ZM1379.21 676.825L1409.11 672.287L1407.73 663.162L1377.83 667.7L1379.21 676.825ZM1375.73 681.531C1375.2 679.585 1376.52 677.234 1379.21 676.825L1377.83 667.7C1370.39 668.829 1364.66 676.018 1366.82 683.958L1375.73 681.531ZM1398.13 715.039C1387.03 706.747 1379.57 695.643 1375.73 681.531L1366.82 683.957C1371.18 699.959 1379.78 712.849 1392.6 722.432L1398.13 715.039ZM1451.88 729.95C1429.27 729.95 1411.48 724.832 1398.09 715.015L1392.63 722.457C1408.02 733.745 1427.91 739.18 1451.88 739.18V729.95ZM1505.87 714.608C1493.24 724.646 1475.44 729.95 1451.88 729.95V739.18C1476.73 739.18 1496.83 733.587 1511.61 721.831L1505.87 714.608ZM1524.68 673.313C1524.68 691.089 1518.36 704.671 1505.87 714.608L1511.61 721.831C1526.52 709.975 1533.9 693.619 1533.9 673.313H1524.68ZM1519.46 651.005C1522.86 656.928 1524.68 664.296 1524.68 673.313H1533.9C1533.9 663.06 1531.84 654.026 1527.47 646.413L1519.46 651.005ZM1502.54 635.182C1510.54 639.686 1516.07 644.988 1519.45 650.976L1527.49 646.442C1523.1 638.666 1516.18 632.269 1507.06 627.138L1502.54 635.182ZM1469.89 622.72C1483.71 626.331 1494.52 630.5 1502.47 635.145L1507.13 627.174C1498.18 621.955 1486.5 617.521 1472.23 613.791L1469.89 622.72ZM1437.44 613.699C1444.66 616.04 1455.51 619.051 1469.92 622.727L1472.2 613.784C1457.84 610.119 1447.22 607.166 1440.29 604.919L1437.44 613.699ZM1421.81 605.937C1424.91 608.902 1430.45 611.395 1437.42 613.692L1440.31 604.926C1433.35 602.634 1429.64 600.654 1428.18 599.26L1421.81 605.937ZM1417.12 594.512C1417.12 598.883 1418.65 602.768 1421.72 605.854L1428.26 599.343C1427 598.07 1426.35 596.564 1426.35 594.512H1417.12ZM1427.2 578.094C1420.76 581.686 1417.12 587.269 1417.12 594.512H1426.35C1426.35 590.973 1427.85 588.297 1431.69 586.154L1427.2 578.094ZM1449.14 574.007C1440.74 574.007 1433.36 574.729 1427.23 578.074L1431.66 586.174C1435.61 584.014 1440.98 583.237 1449.14 583.237V574.007ZM1444.52 578.616V578.622H1453.75V578.616H1444.52ZM1508.05 574.002L1449.14 574.002V583.231L1508.05 583.231V574.002ZM1539.29 574.002H1508.05V583.231H1539.29V574.002ZM1543.9 652.663V578.617H1534.67V652.663H1543.9ZM1544.24 682.481C1544.02 673.697 1543.9 663.759 1543.9 652.663H1534.67C1534.67 663.819 1534.79 673.839 1535.02 682.72L1544.24 682.481ZM1550.89 706.222C1546.63 698.302 1544.45 690.402 1544.24 682.48L1535.02 682.721C1535.27 692.234 1537.89 701.539 1542.76 710.595L1550.89 706.222ZM1570.57 723.957C1561.91 720.228 1555.38 714.332 1550.86 706.171L1542.79 710.646C1548.31 720.609 1556.4 727.904 1566.92 732.434L1570.57 723.957ZM1601.71 729.936C1589.98 729.715 1579.6 727.691 1570.51 723.931L1566.98 732.459C1577.3 736.728 1588.84 738.925 1601.54 739.164L1601.71 729.936ZM1631.09 728.163C1621.15 729.619 1611.38 730.205 1601.76 729.937L1601.5 739.163C1611.67 739.446 1621.98 738.826 1632.43 737.295L1631.09 728.163ZM720.874 729.921C704.68 729.921 690.697 725.84 678.75 717.802L673.598 725.46C687.225 734.628 703.043 739.15 720.874 739.15V729.921ZM764.302 717.846C752.903 725.799 738.524 729.921 720.874 729.921V739.15C739.986 739.15 756.319 734.669 769.583 725.416L764.302 717.846ZM766.146 716.517C765.541 716.968 764.926 717.411 764.303 717.846L769.582 725.417C770.284 724.927 770.976 724.428 771.659 723.92L766.146 716.517ZM768.006 715.085C767.396 715.571 766.776 716.048 766.146 716.518L771.66 723.919C772.368 723.391 773.067 722.854 773.756 722.305L768.006 715.085ZM775.496 725.32V718.695H766.266V725.32H775.496ZM780.111 729.935C777.562 729.935 775.496 727.869 775.496 725.32H766.266C766.266 732.966 772.465 739.164 780.111 739.164V729.935ZM911.741 729.935H780.111V739.164H911.741V729.935ZM913.684 729.95C913.058 729.95 912.435 729.945 911.814 729.935L911.668 739.164C912.337 739.174 913.01 739.18 913.684 739.18V729.95ZM960.155 718.199C946.912 725.987 931.472 729.95 913.684 729.95V739.18C932.89 739.18 949.989 734.884 964.833 726.155L960.155 718.199ZM991.481 685.412C983.996 699.362 973.567 710.266 960.145 718.205L964.843 726.149C979.736 717.341 991.343 705.19 999.614 689.776L991.481 685.412ZM1002.29 649.123C1000.92 662.557 997.305 674.63 991.487 685.401L999.608 689.787C1006.05 677.855 1009.99 664.594 1011.48 650.061L1002.29 649.123ZM1019.08 644.977H1006.89V654.207H1019.08V644.977ZM1034.8 686.196C1028.62 675.188 1024.9 662.871 1023.67 649.181L1014.48 650.003C1015.81 664.89 1019.89 678.481 1026.75 690.712L1034.8 686.196ZM1066.98 718.347C1053.3 710.494 1042.59 699.784 1034.77 686.159L1026.77 690.749C1035.4 705.8 1047.29 717.686 1062.38 726.351L1066.98 718.347ZM1112.22 729.922C1095.05 729.561 1080 725.658 1066.94 718.325L1062.42 726.372C1076.96 734.538 1093.53 738.76 1112.02 739.15L1112.22 729.922ZM1198.87 729.921H1112.12V739.151H1198.87V729.921ZM1198.87 729.921H1198.87V739.151H1198.87V729.921ZM1277.05 729.921H1198.87V739.151H1277.05V729.921ZM1281.05 736.837L1281.07 736.808L1273.04 732.264L1273.02 732.293L1281.05 736.837ZM1279.82 729.922C1278.89 729.94 1277.96 729.949 1277.03 729.95L1277.04 739.18C1278.03 739.179 1279.01 739.169 1280 739.15L1279.82 729.922ZM1281.14 729.921H1279.91V739.151H1281.14V729.921ZM1276.98 732.537L1276.97 732.567L1285.32 736.506L1285.33 736.477L1276.98 732.537ZM1335.12 714.608C1323.36 723.963 1302.81 729.297 1281.03 729.894L1281.28 739.12C1303.9 738.5 1326.82 733 1340.86 721.831L1335.12 714.608ZM1353.93 673.313C1353.93 691.089 1347.61 704.671 1335.12 714.608L1340.86 721.831C1355.77 709.975 1363.16 693.619 1363.16 673.313H1353.93ZM1348.72 651.005C1352.11 656.928 1353.93 664.296 1353.93 673.313H1363.16C1363.16 663.06 1361.09 654.026 1356.72 646.413L1348.72 651.005ZM1331.79 635.182C1339.8 639.686 1345.32 644.988 1348.7 650.976L1356.74 646.442C1352.35 638.666 1345.44 632.269 1336.32 627.138L1331.79 635.182ZM1299.15 622.72C1312.96 626.331 1323.77 630.5 1331.73 635.145L1336.38 627.174C1327.44 621.955 1315.76 617.521 1301.48 613.791L1299.15 622.72ZM1266.69 613.699C1273.92 616.04 1284.77 619.051 1299.17 622.727L1301.46 613.784C1287.09 610.119 1276.47 607.166 1269.54 604.919L1266.69 613.699ZM1251.06 605.937C1254.17 608.902 1259.7 611.395 1266.67 613.692L1269.56 604.926C1262.61 602.634 1258.89 600.654 1257.43 599.26L1251.06 605.937ZM1246.38 594.512C1246.38 598.883 1247.9 602.768 1250.97 605.854L1257.52 599.343C1256.25 598.07 1255.61 596.564 1255.61 594.512H1246.38ZM1256.45 578.094C1250.01 581.686 1246.38 587.269 1246.38 594.512H1255.61C1255.61 590.973 1257.11 588.297 1260.95 586.154L1256.45 578.094ZM1278.39 574.007C1270 574.007 1262.61 574.73 1256.49 578.074L1260.91 586.174C1264.87 584.014 1270.23 583.237 1278.39 583.237V574.007ZM1361.59 574.007H1278.39V583.237H1361.59V574.007ZM1366.61 570.226C1365.63 572.634 1363.57 574.007 1361.59 574.007V583.237C1367.93 583.237 1373.01 578.991 1375.16 573.699L1366.61 570.226ZM1373.18 558.081C1370.53 561.914 1368.34 565.969 1366.61 570.226L1375.16 573.699C1376.63 570.069 1378.5 566.613 1380.77 563.341L1373.18 558.081ZM1400.72 534.723C1389.4 540.267 1380.08 548.025 1373.17 558.101L1380.78 563.321C1386.71 554.673 1394.76 547.92 1404.78 543.011L1400.72 534.723ZM1402.65 543.037C1397.88 543.037 1396.65 536.714 1400.72 534.723L1404.78 543.011C1409.28 540.803 1407.9 533.807 1402.65 533.807V543.037ZM1278.39 543.037H1402.65V533.807H1278.39V543.037ZM1241.19 549.88C1251.56 545.368 1263.92 543.037 1278.39 543.037V533.807C1262.95 533.807 1249.28 536.294 1237.5 541.416L1241.19 549.88ZM1217.63 568.559C1223.14 560.529 1230.91 554.288 1241.17 549.889L1237.53 541.407C1225.86 546.414 1216.62 553.708 1210.02 563.342L1217.63 568.559ZM1209.37 596.921C1209.37 585.811 1212.17 576.433 1217.62 568.582L1210.04 563.319C1203.38 572.903 1200.14 584.172 1200.14 596.921H1209.37ZM1214.72 619.006C1211.22 613.086 1209.37 605.79 1209.37 596.921H1200.14C1200.14 607.092 1202.27 616.084 1206.77 623.699L1214.72 619.006ZM1232.44 634.487C1223.93 629.942 1218.15 624.721 1214.7 618.976L1206.79 623.729C1211.33 631.29 1218.57 637.539 1228.09 642.629L1232.44 634.487ZM1267.56 647.167C1252.68 643.316 1241.02 639.068 1232.44 634.487L1228.09 642.629C1237.56 647.683 1249.99 652.153 1265.25 656.102L1267.56 647.167ZM1297.38 655.877C1290.93 653.639 1280.97 650.736 1267.59 647.175L1265.22 656.094C1278.56 659.644 1288.24 662.476 1294.35 664.597L1297.38 655.877ZM1311.8 664.072C1310.34 662.24 1308.26 660.754 1305.95 659.496C1303.58 658.211 1300.7 657.009 1297.35 655.869L1294.37 664.605C1297.42 665.644 1299.78 666.651 1301.53 667.602C1303.33 668.581 1304.21 669.36 1304.58 669.822L1311.8 664.072ZM1315.55 675.722C1315.55 671.288 1314.43 667.21 1311.73 663.983L1304.66 669.912C1305.6 671.043 1306.32 672.815 1306.32 675.722H1315.55ZM1313.92 683.971C1315.2 680.784 1315.55 677.71 1315.55 675.722H1306.32C1306.32 676.776 1306.12 678.641 1305.36 680.524L1313.92 683.971ZM1285.61 695.506C1290.11 695.507 1295.84 695.509 1300.9 694.26C1306.08 692.983 1311.42 690.172 1313.92 683.971L1305.36 680.524C1304.41 682.882 1302.36 684.394 1298.69 685.299C1294.91 686.232 1290.34 686.277 1285.61 686.277L1285.61 695.506ZM1198.87 695.492L1285.61 695.506L1285.61 686.277L1198.87 686.262L1198.87 695.492ZM1198.87 695.492H1198.87V686.262H1198.87V695.492ZM1112.12 695.478L1198.87 695.492L1198.87 686.262L1112.12 686.248L1112.12 695.478ZM1075.46 679.64C1084.06 690.363 1096.53 695.478 1112.12 695.478V686.248C1098.7 686.248 1089.15 681.957 1082.67 673.869L1075.46 679.64ZM1065.06 655.659C1066.93 665.026 1070.34 673.061 1075.43 679.591L1082.71 673.917C1078.67 668.734 1075.75 662.103 1074.11 653.853L1065.06 655.659ZM1073.99 644.955C1068.52 644.955 1063.9 649.852 1065.06 655.659L1074.11 653.853C1074.11 653.887 1074.12 653.952 1074.1 654.023C1074.08 654.087 1074.05 654.127 1074.04 654.147C1074 654.184 1073.98 654.184 1073.99 654.184V644.955ZM1190.14 644.955H1073.99V654.184H1190.14V644.955ZM1194.53 640.936C1194.45 643.108 1192.59 644.955 1190.14 644.955V654.184C1197.27 654.184 1203.46 648.703 1203.75 641.303L1194.53 640.936ZM1187.46 592.58C1192.86 606.386 1195.27 622.47 1194.53 640.936L1203.75 641.303C1204.53 621.834 1202.01 604.438 1196.05 589.217L1187.46 592.58ZM1159.03 556.011C1171.77 564.616 1181.26 576.738 1187.46 592.58L1196.05 589.217C1189.24 571.795 1178.63 558.109 1164.2 548.362L1159.03 556.011ZM1112.12 543.037C1130.78 543.037 1146.34 547.438 1159.03 556.011L1164.2 548.362C1149.72 538.582 1132.28 533.807 1112.12 533.807V543.037ZM1066.02 554.946C1079.26 547.047 1094.58 543.037 1112.12 543.037V533.807C1093.12 533.807 1076.13 538.17 1061.29 547.018L1066.02 554.946ZM1034.67 588.076C1042.28 573.767 1052.72 562.767 1065.99 554.96L1061.31 547.004C1046.5 555.714 1034.9 567.999 1026.52 583.742L1034.67 588.076ZM1030 598.412C1031.36 594.826 1032.92 591.381 1034.67 588.076L1026.52 583.742C1024.58 587.401 1022.86 591.204 1021.37 595.149L1030 598.412ZM1033.99 603.444C1030.78 603.444 1029.17 600.614 1030 598.412L1021.37 595.149C1017.96 604.18 1025.19 612.674 1033.99 612.674V603.444ZM1066.69 603.444H1033.99V612.674H1066.69V603.444ZM1069.24 601.527C1068.7 602.82 1067.61 603.444 1066.69 603.444V612.674C1071.79 612.674 1075.94 609.375 1077.74 605.132L1069.24 601.527ZM1075.41 590.836C1072.97 594.004 1070.92 597.577 1069.24 601.527L1077.74 605.132C1079.14 601.831 1080.81 598.952 1082.72 596.468L1075.41 590.836ZM1114.17 574.412C1097.32 574.412 1084.07 579.636 1075.41 590.83L1082.72 596.474C1089.14 588.168 1099.28 583.642 1114.17 583.642V574.412ZM1147.22 588.918C1140.15 578.947 1128.73 574.412 1114.17 574.412V583.642C1126.8 583.642 1134.89 587.481 1139.7 594.256L1147.22 588.918ZM1156.05 614.195C1154.63 603.736 1151.79 595.15 1147.18 588.859L1139.74 594.314C1143.09 598.891 1145.6 605.79 1146.9 615.434L1156.05 614.195ZM1069.96 619.429H1151.48V610.2H1069.96V619.429ZM1065.45 613.846L1065.44 613.864L1074.47 615.765L1074.48 615.747L1065.45 613.846ZM1005.68 619.411L1069.96 619.411V610.182L1005.68 610.182V619.411ZM991.652 587.919C996.169 596.336 999.338 605.558 1001.14 615.611L1010.23 613.982C1008.26 603.03 1004.79 592.878 999.785 583.555L991.652 587.919ZM960.316 554.954C973.73 562.887 984.157 573.842 991.645 587.906L999.792 583.568C991.524 568.039 979.916 555.823 965.014 547.01L960.316 554.954ZM913.684 543.037C931.58 543.037 947.068 547.055 960.302 554.946L965.029 547.018C950.176 538.162 933.01 533.807 913.684 533.807V543.037ZM867.557 554.788C880.808 546.995 896.137 543.037 913.684 543.037V533.807C894.696 533.807 877.714 538.107 862.878 546.832L867.557 554.788ZM836.224 587.586C843.83 573.505 854.263 562.605 867.557 554.788L862.878 546.832C848.085 555.532 836.482 567.687 828.104 583.2L836.224 587.586ZM824.79 636.493C824.79 617.755 828.648 601.503 836.217 587.599L828.111 583.187C819.695 598.647 815.561 616.462 815.561 636.493H824.79ZM831.102 674.445C826.916 663.071 824.79 650.437 824.79 636.493H815.561C815.561 651.382 817.833 665.112 822.441 677.633L831.102 674.445ZM835.043 677.003C833.149 677.003 831.641 675.908 831.102 674.445L822.441 677.633C824.429 683.035 829.622 686.233 835.043 686.233V677.003ZM878.297 677.003H835.043V686.233H878.297V677.003ZM876.98 679.06C876.575 678.537 876.683 678.066 876.754 677.897C876.805 677.775 876.924 677.57 877.185 677.374C877.476 677.155 877.876 677.003 878.297 677.003V686.233C881.844 686.233 884.257 683.864 885.261 681.476C886.252 679.122 886.249 675.961 884.282 673.416L876.98 679.06ZM864.884 636.493C864.884 653.782 868.742 668.111 876.943 679.012L884.319 673.464C877.677 664.636 874.114 652.469 874.114 636.493H864.884ZM869.807 606.471C866.486 615.244 864.884 625.281 864.884 636.493H874.114C874.114 626.141 875.595 617.252 878.439 609.738L869.807 606.471ZM886.021 585.234C878.703 590.394 873.32 597.52 869.827 606.418L878.419 609.79C881.32 602.4 885.641 596.795 891.339 592.778L886.021 585.234ZM913.684 577.509C902.834 577.509 893.498 579.963 886.021 585.234L891.339 592.778C896.879 588.873 904.212 586.739 913.684 586.739V577.509ZM950.597 594.146C942.13 582.892 929.548 577.509 913.684 577.509V586.739C927.278 586.739 936.845 591.22 943.221 599.695L950.597 594.146ZM962.827 636.493C962.827 619.297 958.902 605.018 950.576 594.119L943.242 599.722C949.987 608.552 953.598 620.655 953.598 636.493H962.827ZM950.813 678.435C958.943 667.252 962.827 653.153 962.827 636.493H953.598C953.598 651.721 950.06 663.775 943.348 673.008L950.813 678.435ZM913.684 695.478C929.786 695.478 942.464 689.969 950.819 678.428L943.342 673.016C937.083 681.663 927.497 686.248 913.684 686.248V695.478ZM913.671 695.478H913.684V686.248H913.671V695.478ZM909.056 690.848V690.863H918.286V690.848H909.056ZM912.3 695.463H913.671V686.233H912.3V695.463ZM912.199 695.461L912.2 695.461L912.401 686.234L912.4 686.234L912.199 695.461ZM833.749 695.463H912.3V686.233H833.749V695.463ZM811.985 695.463L833.749 695.463V686.233L811.985 686.233V695.463ZM807.37 487.844V690.848H816.6V487.844H807.37ZM802.755 483.229C805.304 483.229 807.37 485.296 807.37 487.844H816.6C816.6 480.198 810.401 474 802.755 474V483.229ZM774.288 483.229H802.755V474H774.288V483.229ZM769.673 487.844C769.673 485.296 771.74 483.229 774.288 483.229V474C766.642 474 760.444 480.198 760.444 487.844H769.673ZM769.673 549.546V487.844H760.444V549.546H769.673ZM723.271 543.007C738.903 543.007 751.923 546.555 762.555 553.423L767.563 545.67C755.172 537.666 740.332 533.778 723.271 533.778V543.007ZM679.535 555C691.823 547.056 706.342 543.007 723.271 543.007V533.778C704.806 533.778 688.496 538.217 674.525 547.249L679.535 555ZM650.513 588.095C657.472 574.002 667.144 563.01 679.535 555L674.525 547.249C660.656 556.215 649.891 568.508 642.237 584.009L650.513 588.095ZM640.2 636.464C640.2 618.131 643.68 602.039 650.519 588.082L642.231 584.021C634.682 599.428 630.97 616.945 630.97 636.464H640.2ZM650.367 684.541C643.623 670.443 640.2 654.449 640.2 636.464H630.97C630.97 655.644 634.627 673.027 642.041 688.524L650.367 684.541ZM678.75 717.802C666.683 709.685 657.216 698.631 650.354 684.515L642.053 688.55C649.577 704.027 660.089 716.373 673.598 725.46L678.75 717.802ZM771.163 667.475C774.083 658.428 775.496 648.067 775.496 636.464H766.266C766.266 647.343 764.939 656.711 762.38 664.64L771.163 667.475ZM756.007 689.538C763.153 684.186 768.171 676.743 771.163 667.475L762.38 664.64C759.891 672.349 755.889 678.096 750.475 682.15L756.007 689.538ZM728.409 697.513C739.468 697.513 748.836 695.009 756.04 689.513L750.442 682.175C745.316 686.085 738.129 688.284 728.409 688.284V697.513ZM700.888 688.95C708.272 694.778 717.572 697.513 728.409 697.513V688.284C719.15 688.284 712.01 685.971 706.607 681.705L700.888 688.95ZM685.195 666.6C688.537 675.805 693.749 683.315 700.888 688.95L706.607 681.705C700.958 677.247 696.692 671.222 693.87 663.45L685.195 666.6ZM680.294 636.464C680.294 647.358 681.903 657.414 685.188 666.582L693.877 663.468C690.997 655.431 689.523 646.446 689.523 636.464H680.294ZM685.385 606.62C681.967 615.695 680.294 625.661 680.294 636.464H689.523C689.523 626.62 691.046 617.775 694.022 609.873L685.385 606.62ZM701.635 584.102C694.248 589.732 688.846 597.305 685.378 606.639L694.03 609.854C696.954 601.983 701.371 595.907 707.23 591.443L701.635 584.102ZM730.121 575.415C718.949 575.415 709.335 578.202 701.626 584.11L707.239 591.436C713.003 587.019 720.513 584.644 730.121 584.644V575.415ZM756.449 583.467C749.492 577.955 740.57 575.415 730.121 575.415V584.644C739.083 584.644 745.803 586.807 750.718 590.701L756.449 583.467ZM771.163 605.453C768.186 596.231 763.312 588.8 756.415 583.44L750.752 590.728C755.958 594.773 759.876 600.534 762.38 608.288L771.163 605.453ZM775.496 636.464C775.496 624.861 774.083 614.5 771.163 605.453L762.38 608.288C764.939 616.217 766.266 625.585 766.266 636.464H775.496Z" fill="#0E0C0A" mask="url(#path-3-outside-1_674_5740)"/>
</svg>
