<svg width="2684" height="1204" viewBox="0 0 2684 1204" fill="none"
  xmlns="http://www.w3.org/2000/svg">
  <rect x="125" y="124" width="2434" height="956" rx="30" fill="#EFE8E4" stroke="#0E0C0A"
    stroke-width="20" />
  <rect width="2294" height="816" transform="translate(195 194)" fill="#E6793B" />
  <g filter="url(#filter0_d_674_5740)">
    <mask id="path-2-outside-1_674_5740" maskUnits="userSpaceOnUse" x="621.355" y="469" width="1441"
      height="266" fill="black">
      <rect fill="white" x="621.355" y="469" width="1441" height="266" />
      <path fill-rule="evenodd" clip-rule="evenodd"
        d="M666.944 717.016C679.732 725.619 694.632 729.921 711.644 729.921C730.025 729.921 745.382 725.619 757.713 717.016C758.375 716.555 759.029 716.084 759.673 715.604C760.343 715.105 761.002 714.598 761.652 714.08V720.705C761.652 725.802 765.784 729.935 770.881 729.935H902.511C903.156 729.945 903.804 729.95 904.455 729.95C922.951 729.95 939.221 725.821 953.264 717.562C967.422 709.189 978.44 697.661 986.318 682.979C992.449 671.628 996.228 658.961 997.656 644.977H1009.85C1011.13 659.266 1015.02 672.22 1021.54 683.839C1029.76 698.177 1041.06 709.475 1055.45 717.734C1069.25 725.483 1085.06 729.546 1102.89 729.921H1189.64H1189.64H1267.82L1267.81 729.95C1268.77 729.949 1269.72 729.94 1270.68 729.921H1271.91L1271.93 729.892C1294.12 729.283 1315.86 723.867 1328.76 713.605C1342.46 702.708 1349.31 687.739 1349.31 668.698C1349.31 659.063 1347.37 650.862 1343.49 644.094C1339.61 637.212 1333.39 631.362 1324.82 626.545C1316.37 621.613 1305.13 617.311 1291.09 613.641C1276.7 609.97 1265.97 606.988 1258.89 604.694C1251.92 602.4 1247.3 600.163 1245.02 597.984C1242.85 595.804 1241.76 593.109 1241.76 589.897C1241.76 584.506 1244.33 580.377 1249.47 577.509C1254.51 574.757 1260.88 574.007 1269.16 574.007H1352.37C1356.52 574.007 1360.09 571.198 1361.66 567.348C1363.26 563.404 1365.28 559.649 1367.75 556.096C1374.17 546.734 1382.85 539.479 1393.52 534.252C1393.74 534.144 1393.66 533.807 1393.42 533.807H1269.16C1254.21 533.807 1241.19 536.216 1230.12 541.033C1219.16 545.736 1210.65 552.504 1204.6 561.336C1198.55 570.053 1195.52 580.377 1195.52 592.306C1195.52 601.826 1197.52 609.97 1201.52 616.738C1205.51 623.391 1212.02 629.126 1221.04 633.943C1230.06 638.761 1242.1 643.119 1257.18 647.019C1270.53 650.575 1280.35 653.443 1286.63 655.622C1293.03 657.802 1297.14 660.038 1298.96 662.332C1300.79 664.512 1301.7 667.437 1301.7 671.107C1301.7 672.628 1301.43 675.098 1300.41 677.633C1296.96 686.192 1285.61 686.278 1276.38 686.277L1189.64 686.262H1189.64L1102.89 686.248C1088.39 686.248 1077.37 681.545 1069.84 672.139C1065.27 666.283 1062.11 658.95 1060.35 650.141C1059.81 647.409 1061.97 644.955 1064.76 644.955H1180.91C1185.7 644.955 1189.72 641.291 1189.91 636.505C1190.67 617.537 1188.21 600.797 1182.53 586.284C1176.02 569.652 1165.97 556.748 1152.38 547.572C1138.8 538.395 1122.3 533.807 1102.89 533.807C1084.62 533.807 1068.47 537.994 1054.42 546.367C1040.38 554.626 1029.36 566.268 1021.37 581.294C1019.52 584.776 1017.88 588.4 1016.46 592.166C1014.33 597.782 1018.76 603.444 1024.76 603.444H1057.47C1060.47 603.444 1063.09 601.483 1064.26 598.715C1065.8 595.089 1067.66 591.863 1069.84 589.037C1077.37 579.287 1089.07 574.412 1104.95 574.412C1118.53 574.412 1128.29 578.599 1134.23 586.972C1138.21 592.406 1140.88 600.148 1142.25 610.2H1060.73L1060.73 610.182L996.454 610.182C994.57 599.679 991.249 589.992 986.489 581.122C978.611 566.326 967.593 554.74 953.436 546.367C939.392 537.994 923.065 533.807 904.455 533.807C886.187 533.807 870.031 537.936 855.988 546.195C841.944 554.454 830.927 565.981 822.934 580.778C814.942 595.46 810.946 612.494 810.946 631.879C810.946 646.295 813.145 659.477 817.542 671.424C818.806 674.857 822.156 677.003 825.814 677.003H869.067C871.622 677.003 872.964 673.645 871.401 671.623C863.98 661.759 860.269 648.511 860.269 631.879C860.269 621.096 861.811 611.633 864.894 603.489C868.09 595.346 872.943 588.979 879.451 584.391C885.959 579.803 894.293 577.509 904.455 577.509C919.183 577.509 930.258 582.441 937.68 592.306C945.215 602.17 948.983 615.361 948.983 631.879C948.983 647.822 945.272 660.899 937.851 671.107C930.544 681.201 919.412 686.248 904.455 686.248H904.441V686.233H903.071L903.07 686.233H824.52L802.755 686.233V483.229C802.755 478.132 798.623 474 793.526 474H765.059C759.961 474 755.829 478.132 755.829 483.229V544.932C744.318 537.496 730.388 533.778 714.042 533.778C696.344 533.778 680.93 538.022 667.8 546.51C654.67 554.998 644.452 566.64 637.145 581.437C629.952 596.119 626.355 612.923 626.355 631.849C626.355 650.431 629.895 667.12 636.974 681.917C644.167 696.714 654.157 708.414 666.944 717.016ZM761.652 631.849C761.652 643.09 760.282 652.954 757.542 661.443C754.802 669.931 750.292 676.526 744.012 681.229C737.847 685.932 729.569 688.283 719.179 688.283C709.132 688.283 700.912 685.76 694.518 680.713C688.124 675.666 683.385 668.898 680.303 660.41C677.22 651.808 675.679 642.287 675.679 631.849C675.679 621.526 677.277 612.12 680.474 603.632C683.671 595.029 688.58 588.205 695.203 583.158C701.939 577.996 710.502 575.415 720.892 575.415C730.597 575.415 738.418 577.766 744.354 582.469C750.405 587.172 754.802 593.768 757.542 602.256C760.282 610.744 761.652 620.608 761.652 631.849ZM1847.73 577.233V729.935H1885.08C1890.18 729.935 1894.31 725.803 1894.31 720.705V577.233H1937.13V541.101H1894.31V530.778C1894.31 525.616 1896.08 521.2 1899.62 517.53C1903.16 513.745 1908.59 511.852 1915.89 511.852H1927.9C1933 511.852 1937.13 507.72 1937.13 502.623V483.229C1937.13 478.132 1933 474 1927.9 474H1914.18C1909.73 474 1904.36 474.115 1898.08 474.344C1891.8 474.459 1885.29 475.72 1878.56 478.129C1871.94 480.423 1865.77 484.782 1860.06 491.205C1855.61 496.138 1852.53 501.643 1850.81 507.723C1849.21 513.802 1848.3 519.824 1848.07 525.789C1847.86 531.464 1847.74 536.568 1847.73 541.101H1826.19C1821.1 541.101 1816.97 545.234 1816.97 550.331V568.004C1816.97 573.101 1821.1 577.233 1826.19 577.233H1847.73ZM1966.24 720.705C1966.24 725.803 1970.38 729.935 1975.47 729.935H2003.6C2008.69 729.935 2012.83 725.803 2012.83 720.705V577.233H2047.7C2052.8 577.233 2056.93 573.101 2056.93 568.004V550.331C2056.93 545.234 2052.8 541.101 2047.7 541.101H2012.83V530.778C2012.83 525.616 2014.6 521.2 2018.14 517.53C2021.68 513.745 2027.1 511.852 2034.41 511.852H2046.41C2051.51 511.852 2055.64 507.72 2055.64 502.623V483.229C2055.64 478.132 2051.51 474 2046.41 474H2032.69C2028.24 474 2022.87 474.115 2016.59 474.344C2010.32 474.459 2003.81 475.72 1997.07 478.129C1990.45 480.423 1984.28 484.782 1978.57 491.205C1974.12 496.138 1971.04 501.643 1969.33 507.723C1967.73 513.802 1966.81 519.824 1966.59 525.789C1966.37 531.464 1966.26 536.568 1966.24 541.101H1937.13V577.233H1966.24V720.705ZM1669.2 722.533C1678.33 727.466 1690.15 729.931 1704.65 729.931C1722.8 729.931 1737.81 725.975 1749.69 718.06C1755.32 714.34 1760.29 710.074 1764.59 705.264V720.705C1764.59 725.802 1768.72 729.934 1773.82 729.934L1838.52 729.935V693.801H1807.74V550.328C1807.74 545.231 1803.6 541.099 1798.51 541.099H1768C1762.9 541.099 1758.77 545.231 1758.77 550.328V632.892C1758.77 644.363 1757.45 653.654 1754.83 660.765C1752.31 667.762 1749.06 673.096 1745.06 676.766C1741.07 680.322 1736.79 682.731 1732.22 683.993C1727.65 685.254 1723.37 685.885 1719.38 685.885C1709.44 685.885 1701.74 683.648 1696.25 679.175C1690.89 674.702 1687.01 669.139 1684.61 662.486C1682.21 655.833 1680.78 649.238 1680.33 642.7C1679.87 636.047 1679.64 630.598 1679.64 626.354V583.231H1632.37V642.872C1632.37 645.969 1632.6 650.901 1633.06 657.668C1633.52 664.436 1634.83 671.949 1637 680.208C1639.17 688.352 1642.76 696.209 1647.79 703.779C1652.93 711.349 1660.06 717.601 1669.2 722.533ZM1622.53 728.114C1626.92 727.47 1630.07 723.635 1630.07 719.196V698.535C1630.07 692.943 1625.14 688.664 1619.57 689.102C1612.64 689.646 1606.15 689.726 1600.1 689.341C1591.08 690.337 1584.52 685.212 1580.41 678.674C1578.24 675.233 1577.04 670.645 1576.81 664.91C1576.7 659.06 1576.64 652.522 1576.64 645.295V574.002L1679.64 574.002V543.037C1679.64 537.939 1675.51 533.807 1670.41 533.807L1576.64 533.807V497.074C1576.64 491.976 1572.51 487.844 1567.41 487.844H1539.29C1534.19 487.844 1530.06 491.976 1530.06 497.074V533.807L1498.82 533.807H1439.89C1424.94 533.809 1411.93 536.218 1400.86 541.033C1389.9 545.736 1381.4 552.504 1375.34 561.336C1369.29 570.053 1366.27 580.377 1366.27 592.306C1366.27 601.826 1368.27 609.97 1372.26 616.738C1376.26 623.391 1382.77 629.126 1391.79 633.943C1400.81 638.761 1412.85 643.119 1427.92 647.019C1441.28 650.575 1451.1 653.443 1457.38 655.622C1463.77 657.802 1467.88 660.038 1469.71 662.332C1471.54 664.512 1472.45 667.437 1472.45 671.107C1472.45 676.957 1470.17 681.545 1465.6 684.872C1461.03 688.083 1454.52 689.689 1446.08 689.689C1435.8 689.689 1427.29 687.223 1420.56 682.291C1416.16 679.016 1412.8 674.908 1410.46 669.966C1408.39 665.578 1403.99 662.381 1399.19 663.109L1369.29 667.648C1364.23 668.416 1360.7 673.187 1362.04 678.129C1366.15 693.186 1374.18 705.183 1386.13 714.121C1400.52 724.674 1419.36 729.95 1442.65 729.95C1466.86 729.95 1485.81 724.502 1499.51 713.605C1513.21 702.708 1520.06 687.739 1520.06 668.698C1520.06 659.063 1518.12 650.862 1514.24 644.094C1510.36 637.212 1504.13 631.362 1495.57 626.545C1487.12 621.613 1475.88 617.311 1461.83 613.641C1447.45 609.97 1436.71 606.988 1429.63 604.694C1422.67 602.4 1418.05 600.163 1415.76 597.984C1413.59 595.804 1412.51 593.109 1412.51 589.897C1412.51 584.506 1415.08 580.377 1420.22 577.509C1425.26 574.757 1431.63 574.007 1439.91 574.007V574.002L1498.82 574.002H1530.06V648.048C1530.06 659.174 1530.17 669.154 1530.4 677.986C1530.63 686.703 1533.03 695.306 1537.59 703.794C1542.62 712.856 1549.92 719.451 1559.51 723.58C1569.22 727.595 1580.18 729.705 1592.4 729.935C1602.29 730.211 1612.34 729.608 1622.53 728.114Z" />
    </mask>
    <path fill-rule="evenodd" clip-rule="evenodd"
      d="M666.944 717.016C679.732 725.619 694.632 729.921 711.644 729.921C730.025 729.921 745.382 725.619 757.713 717.016C758.375 716.555 759.029 716.084 759.673 715.604C760.343 715.105 761.002 714.598 761.652 714.08V720.705C761.652 725.802 765.784 729.935 770.881 729.935H902.511C903.156 729.945 903.804 729.95 904.455 729.95C922.951 729.95 939.221 725.821 953.264 717.562C967.422 709.189 978.44 697.661 986.318 682.979C992.449 671.628 996.228 658.961 997.656 644.977H1009.85C1011.13 659.266 1015.02 672.22 1021.54 683.839C1029.76 698.177 1041.06 709.475 1055.45 717.734C1069.25 725.483 1085.06 729.546 1102.89 729.921H1189.64H1189.64H1267.82L1267.81 729.95C1268.77 729.949 1269.72 729.94 1270.68 729.921H1271.91L1271.93 729.892C1294.12 729.283 1315.86 723.867 1328.76 713.605C1342.46 702.708 1349.31 687.739 1349.31 668.698C1349.31 659.063 1347.37 650.862 1343.49 644.094C1339.61 637.212 1333.39 631.362 1324.82 626.545C1316.37 621.613 1305.13 617.311 1291.09 613.641C1276.7 609.97 1265.97 606.988 1258.89 604.694C1251.92 602.4 1247.3 600.163 1245.02 597.984C1242.85 595.804 1241.76 593.109 1241.76 589.897C1241.76 584.506 1244.33 580.377 1249.47 577.509C1254.51 574.757 1260.88 574.007 1269.16 574.007H1352.37C1356.52 574.007 1360.09 571.198 1361.66 567.348C1363.26 563.404 1365.28 559.649 1367.75 556.096C1374.17 546.734 1382.85 539.479 1393.52 534.252C1393.74 534.144 1393.66 533.807 1393.42 533.807H1269.16C1254.21 533.807 1241.19 536.216 1230.12 541.033C1219.16 545.736 1210.65 552.504 1204.6 561.336C1198.55 570.053 1195.52 580.377 1195.52 592.306C1195.52 601.826 1197.52 609.97 1201.52 616.738C1205.51 623.391 1212.02 629.126 1221.04 633.943C1230.06 638.761 1242.1 643.119 1257.18 647.019C1270.53 650.575 1280.35 653.443 1286.63 655.622C1293.03 657.802 1297.14 660.038 1298.96 662.332C1300.79 664.512 1301.7 667.437 1301.7 671.107C1301.7 672.628 1301.43 675.098 1300.41 677.633C1296.96 686.192 1285.61 686.278 1276.38 686.277L1189.64 686.262H1189.64L1102.89 686.248C1088.39 686.248 1077.37 681.545 1069.84 672.139C1065.27 666.283 1062.11 658.95 1060.35 650.141C1059.81 647.409 1061.97 644.955 1064.76 644.955H1180.91C1185.7 644.955 1189.72 641.291 1189.91 636.505C1190.67 617.537 1188.21 600.797 1182.53 586.284C1176.02 569.652 1165.97 556.748 1152.38 547.572C1138.8 538.395 1122.3 533.807 1102.89 533.807C1084.62 533.807 1068.47 537.994 1054.42 546.367C1040.38 554.626 1029.36 566.268 1021.37 581.294C1019.52 584.776 1017.88 588.4 1016.46 592.166C1014.33 597.782 1018.76 603.444 1024.76 603.444H1057.47C1060.47 603.444 1063.09 601.483 1064.26 598.715C1065.8 595.089 1067.66 591.863 1069.84 589.037C1077.37 579.287 1089.07 574.412 1104.95 574.412C1118.53 574.412 1128.29 578.599 1134.23 586.972C1138.21 592.406 1140.88 600.148 1142.25 610.2H1060.73L1060.73 610.182L996.454 610.182C994.57 599.679 991.249 589.992 986.489 581.122C978.611 566.326 967.593 554.74 953.436 546.367C939.392 537.994 923.065 533.807 904.455 533.807C886.187 533.807 870.031 537.936 855.988 546.195C841.944 554.454 830.927 565.981 822.934 580.778C814.942 595.46 810.946 612.494 810.946 631.879C810.946 646.295 813.145 659.477 817.542 671.424C818.806 674.857 822.156 677.003 825.814 677.003H869.067C871.622 677.003 872.964 673.645 871.401 671.623C863.98 661.759 860.269 648.511 860.269 631.879C860.269 621.096 861.811 611.633 864.894 603.489C868.09 595.346 872.943 588.979 879.451 584.391C885.959 579.803 894.293 577.509 904.455 577.509C919.183 577.509 930.258 582.441 937.68 592.306C945.215 602.17 948.983 615.361 948.983 631.879C948.983 647.822 945.272 660.899 937.851 671.107C930.544 681.201 919.412 686.248 904.455 686.248H904.441V686.233H903.071L903.07 686.233H824.52L802.755 686.233V483.229C802.755 478.132 798.623 474 793.526 474H765.059C759.961 474 755.829 478.132 755.829 483.229V544.932C744.318 537.496 730.388 533.778 714.042 533.778C696.344 533.778 680.93 538.022 667.8 546.51C654.67 554.998 644.452 566.64 637.145 581.437C629.952 596.119 626.355 612.923 626.355 631.849C626.355 650.431 629.895 667.12 636.974 681.917C644.167 696.714 654.157 708.414 666.944 717.016ZM761.652 631.849C761.652 643.09 760.282 652.954 757.542 661.443C754.802 669.931 750.292 676.526 744.012 681.229C737.847 685.932 729.569 688.283 719.179 688.283C709.132 688.283 700.912 685.76 694.518 680.713C688.124 675.666 683.385 668.898 680.303 660.41C677.22 651.808 675.679 642.287 675.679 631.849C675.679 621.526 677.277 612.12 680.474 603.632C683.671 595.029 688.58 588.205 695.203 583.158C701.939 577.996 710.502 575.415 720.892 575.415C730.597 575.415 738.418 577.766 744.354 582.469C750.405 587.172 754.802 593.768 757.542 602.256C760.282 610.744 761.652 620.608 761.652 631.849ZM1847.73 577.233V729.935H1885.08C1890.18 729.935 1894.31 725.803 1894.31 720.705V577.233H1937.13V541.101H1894.31V530.778C1894.31 525.616 1896.08 521.2 1899.62 517.53C1903.16 513.745 1908.59 511.852 1915.89 511.852H1927.9C1933 511.852 1937.13 507.72 1937.13 502.623V483.229C1937.13 478.132 1933 474 1927.9 474H1914.18C1909.73 474 1904.36 474.115 1898.08 474.344C1891.8 474.459 1885.29 475.72 1878.56 478.129C1871.94 480.423 1865.77 484.782 1860.06 491.205C1855.61 496.138 1852.53 501.643 1850.81 507.723C1849.21 513.802 1848.3 519.824 1848.07 525.789C1847.86 531.464 1847.74 536.568 1847.73 541.101H1826.19C1821.1 541.101 1816.97 545.234 1816.97 550.331V568.004C1816.97 573.101 1821.1 577.233 1826.19 577.233H1847.73ZM1966.24 720.705C1966.24 725.803 1970.38 729.935 1975.47 729.935H2003.6C2008.69 729.935 2012.83 725.803 2012.83 720.705V577.233H2047.7C2052.8 577.233 2056.93 573.101 2056.93 568.004V550.331C2056.93 545.234 2052.8 541.101 2047.7 541.101H2012.83V530.778C2012.83 525.616 2014.6 521.2 2018.14 517.53C2021.68 513.745 2027.1 511.852 2034.41 511.852H2046.41C2051.51 511.852 2055.64 507.72 2055.64 502.623V483.229C2055.64 478.132 2051.51 474 2046.41 474H2032.69C2028.24 474 2022.87 474.115 2016.59 474.344C2010.32 474.459 2003.81 475.72 1997.07 478.129C1990.45 480.423 1984.28 484.782 1978.57 491.205C1974.12 496.138 1971.04 501.643 1969.33 507.723C1967.73 513.802 1966.81 519.824 1966.59 525.789C1966.37 531.464 1966.26 536.568 1966.24 541.101H1937.13V577.233H1966.24V720.705ZM1669.2 722.533C1678.33 727.466 1690.15 729.931 1704.65 729.931C1722.8 729.931 1737.81 725.975 1749.69 718.06C1755.32 714.34 1760.29 710.074 1764.59 705.264V720.705C1764.59 725.802 1768.72 729.934 1773.82 729.934L1838.52 729.935V693.801H1807.74V550.328C1807.74 545.231 1803.6 541.099 1798.51 541.099H1768C1762.9 541.099 1758.77 545.231 1758.77 550.328V632.892C1758.77 644.363 1757.45 653.654 1754.83 660.765C1752.31 667.762 1749.06 673.096 1745.06 676.766C1741.07 680.322 1736.79 682.731 1732.22 683.993C1727.65 685.254 1723.37 685.885 1719.38 685.885C1709.44 685.885 1701.74 683.648 1696.25 679.175C1690.89 674.702 1687.01 669.139 1684.61 662.486C1682.21 655.833 1680.78 649.238 1680.33 642.7C1679.87 636.047 1679.64 630.598 1679.64 626.354V583.231H1632.37V642.872C1632.37 645.969 1632.6 650.901 1633.06 657.668C1633.52 664.436 1634.83 671.949 1637 680.208C1639.17 688.352 1642.76 696.209 1647.79 703.779C1652.93 711.349 1660.06 717.601 1669.2 722.533ZM1622.53 728.114C1626.92 727.47 1630.07 723.635 1630.07 719.196V698.535C1630.07 692.943 1625.14 688.664 1619.57 689.102C1612.64 689.646 1606.15 689.726 1600.1 689.341C1591.08 690.337 1584.52 685.212 1580.41 678.674C1578.24 675.233 1577.04 670.645 1576.81 664.91C1576.7 659.06 1576.64 652.522 1576.64 645.295V574.002L1679.64 574.002V543.037C1679.64 537.939 1675.51 533.807 1670.41 533.807L1576.64 533.807V497.074C1576.64 491.976 1572.51 487.844 1567.41 487.844H1539.29C1534.19 487.844 1530.06 491.976 1530.06 497.074V533.807L1498.82 533.807H1439.89C1424.94 533.809 1411.93 536.218 1400.86 541.033C1389.9 545.736 1381.4 552.504 1375.34 561.336C1369.29 570.053 1366.27 580.377 1366.27 592.306C1366.27 601.826 1368.27 609.97 1372.26 616.738C1376.26 623.391 1382.77 629.126 1391.79 633.943C1400.81 638.761 1412.85 643.119 1427.92 647.019C1441.28 650.575 1451.1 653.443 1457.38 655.622C1463.77 657.802 1467.88 660.038 1469.71 662.332C1471.54 664.512 1472.45 667.437 1472.45 671.107C1472.45 676.957 1470.17 681.545 1465.6 684.872C1461.03 688.083 1454.52 689.689 1446.08 689.689C1435.8 689.689 1427.29 687.223 1420.56 682.291C1416.16 679.016 1412.8 674.908 1410.46 669.966C1408.39 665.578 1403.99 662.381 1399.19 663.109L1369.29 667.648C1364.23 668.416 1360.7 673.187 1362.04 678.129C1366.15 693.186 1374.18 705.183 1386.13 714.121C1400.52 724.674 1419.36 729.95 1442.65 729.95C1466.86 729.95 1485.81 724.502 1499.51 713.605C1513.21 702.708 1520.06 687.739 1520.06 668.698C1520.06 659.063 1518.12 650.862 1514.24 644.094C1510.36 637.212 1504.13 631.362 1495.57 626.545C1487.12 621.613 1475.88 617.311 1461.83 613.641C1447.45 609.97 1436.71 606.988 1429.63 604.694C1422.67 602.4 1418.05 600.163 1415.76 597.984C1413.59 595.804 1412.51 593.109 1412.51 589.897C1412.51 584.506 1415.08 580.377 1420.22 577.509C1425.26 574.757 1431.63 574.007 1439.91 574.007V574.002L1498.82 574.002H1530.06V648.048C1530.06 659.174 1530.17 669.154 1530.4 677.986C1530.63 686.703 1533.03 695.306 1537.59 703.794C1542.62 712.856 1549.92 719.451 1559.51 723.58C1569.22 727.595 1580.18 729.705 1592.4 729.935C1602.29 730.211 1612.34 729.608 1622.53 728.114Z"
      fill="#EFE8E4" />
    <path
      d="M666.944 717.016L664.368 720.845L664.368 720.845L666.944 717.016ZM757.713 717.016L755.073 713.231L755.073 713.232L757.713 717.016ZM759.673 715.604L762.43 719.305L762.43 719.304L759.673 715.604ZM761.652 714.08H766.266V704.506L758.777 710.47L761.652 714.08ZM902.511 729.935L902.585 725.32L902.548 725.32H902.511V729.935ZM953.264 717.562L955.604 721.54L955.614 721.534L953.264 717.562ZM986.318 682.979L982.258 680.786L982.252 680.797L986.318 682.979ZM997.656 644.977V640.362H993.489L993.065 644.508L997.656 644.977ZM1009.85 644.977L1014.44 644.566L1014.07 640.362H1009.85V644.977ZM1021.54 683.839L1017.52 686.097L1017.53 686.116L1017.54 686.135L1021.54 683.839ZM1055.45 717.734L1053.15 721.736L1053.17 721.747L1053.19 721.758L1055.45 717.734ZM1102.89 729.921L1102.79 734.535L1102.84 734.536H1102.89V729.921ZM1267.82 729.921L1271.84 732.194L1275.74 725.307H1267.82V729.921ZM1267.81 729.95L1263.79 727.677L1259.89 734.57L1267.81 734.565L1267.81 729.95ZM1270.68 729.921V725.307H1270.64L1270.59 725.307L1270.68 729.921ZM1271.91 729.921V734.536H1274.84L1276.09 731.891L1271.91 729.921ZM1271.93 729.892L1271.8 725.279L1268.97 725.357L1267.75 727.923L1271.93 729.892ZM1328.76 713.605L1331.64 717.217L1331.64 717.217L1328.76 713.605ZM1343.49 644.094L1339.47 646.362L1339.48 646.376L1339.49 646.391L1343.49 644.094ZM1324.82 626.545L1322.5 630.53L1322.53 630.549L1322.56 630.567L1324.82 626.545ZM1291.09 613.641L1292.25 609.176L1292.24 609.173L1292.23 609.169L1291.09 613.641ZM1258.89 604.694L1257.44 609.077L1257.45 609.08L1257.47 609.084L1258.89 604.694ZM1245.02 597.984L1241.75 601.239L1241.79 601.281L1241.83 601.322L1245.02 597.984ZM1249.47 577.509L1247.26 573.459L1247.24 573.469L1247.22 573.48L1249.47 577.509ZM1361.66 567.348L1365.93 569.084L1365.93 569.084L1361.66 567.348ZM1367.75 556.096L1371.54 558.726L1371.55 558.716L1371.55 558.706L1367.75 556.096ZM1393.52 534.252L1391.49 530.108L1391.49 530.109L1393.52 534.252ZM1230.12 541.033L1231.94 545.274L1231.95 545.27L1231.96 545.265L1230.12 541.033ZM1204.6 561.336L1208.39 563.967L1208.4 563.956L1208.41 563.944L1204.6 561.336ZM1201.52 616.738L1197.54 619.084L1197.55 619.099L1197.56 619.114L1201.52 616.738ZM1221.04 633.943L1218.87 638.014L1218.87 638.014L1221.04 633.943ZM1257.18 647.019L1258.36 642.56L1258.35 642.556L1258.33 642.552L1257.18 647.019ZM1286.63 655.622L1285.12 659.982L1285.13 659.986L1285.14 659.99L1286.63 655.622ZM1298.96 662.332L1295.35 665.207L1295.39 665.252L1295.43 665.297L1298.96 662.332ZM1300.41 677.633L1296.13 675.909L1296.13 675.909L1300.41 677.633ZM1276.38 686.277L1276.38 681.662L1276.38 681.662L1276.38 686.277ZM1189.64 686.262L1189.64 681.648H1189.64V686.262ZM1189.64 686.262L1189.64 690.877H1189.64V686.262ZM1102.89 686.248L1102.89 681.633H1102.89V686.248ZM1069.84 672.139L1066.2 674.977L1066.22 675.001L1066.23 675.025L1069.84 672.139ZM1060.35 650.141L1064.88 649.239L1064.88 649.239L1060.35 650.141ZM1189.91 636.505L1194.52 636.688L1194.52 636.688L1189.91 636.505ZM1182.53 586.284L1186.82 584.602L1186.82 584.602L1182.53 586.284ZM1152.38 547.572L1154.97 543.747L1154.97 543.747L1152.38 547.572ZM1054.42 546.367L1056.76 550.345L1056.77 550.338L1056.79 550.331L1054.42 546.367ZM1021.37 581.294L1017.3 579.127L1017.3 579.127L1021.37 581.294ZM1016.46 592.166L1012.14 590.534L1012.14 590.534L1016.46 592.166ZM1064.26 598.715L1068.51 600.517L1068.51 600.517L1064.26 598.715ZM1069.84 589.037L1066.19 586.215L1066.18 586.221L1069.84 589.037ZM1134.23 586.972L1130.47 589.641L1130.49 589.671L1130.51 589.7L1134.23 586.972ZM1142.25 610.2V614.814H1147.53L1146.82 609.58L1142.25 610.2ZM1060.73 610.2L1056.21 609.249L1055.04 614.814H1060.73V610.2ZM1060.73 610.182L1065.25 611.133L1066.42 605.567L1060.73 605.567L1060.73 610.182ZM996.454 610.182L991.912 610.997L992.594 614.797L996.454 614.797L996.454 610.182ZM986.489 581.122L982.416 583.291L982.419 583.298L982.423 583.304L986.489 581.122ZM953.436 546.367L951.072 550.331L951.079 550.335L951.087 550.339L953.436 546.367ZM855.988 546.195L853.649 542.217L853.649 542.217L855.988 546.195ZM822.934 580.778L826.988 582.985L826.991 582.978L826.995 582.971L822.934 580.778ZM817.542 671.424L813.211 673.018L813.211 673.018L817.542 671.424ZM871.401 671.623L867.714 674.398L867.732 674.422L867.75 674.445L871.401 671.623ZM864.894 603.489L860.598 601.803L860.588 601.829L860.578 601.856L864.894 603.489ZM879.451 584.391L882.11 588.163L882.11 588.163L879.451 584.391ZM937.68 592.306L933.992 595.08L934.002 595.094L934.012 595.107L937.68 592.306ZM937.851 671.107L934.118 668.394L934.113 668.401L937.851 671.107ZM904.441 686.248H899.827V690.863H904.441V686.248ZM904.441 686.233H909.056V681.618H904.441V686.233ZM903.071 686.233L902.971 690.847L903.021 690.848H903.071V686.233ZM903.07 686.233L903.17 681.619L903.12 681.618H903.07V686.233ZM824.52 686.233L824.52 681.618L824.52 681.618L824.52 686.233ZM802.755 686.233H798.141V690.848L802.755 690.848L802.755 686.233ZM755.829 544.932L753.325 548.808L760.444 553.407V544.932H755.829ZM667.8 546.51L665.295 542.634L665.295 542.634L667.8 546.51ZM637.145 581.437L633.008 579.394L633.004 579.4L633.001 579.406L637.145 581.437ZM636.974 681.917L632.811 683.909L632.817 683.922L632.824 683.935L636.974 681.917ZM757.542 661.443L753.15 660.025L753.15 660.025L757.542 661.443ZM744.012 681.229L741.246 677.535L741.229 677.547L741.213 677.56L744.012 681.229ZM694.518 680.713L691.659 684.335L691.659 684.335L694.518 680.713ZM680.303 660.41L675.959 661.967L675.962 661.976L675.965 661.985L680.303 660.41ZM680.474 603.632L684.793 605.259L684.796 605.249L684.8 605.239L680.474 603.632ZM695.203 583.158L698 586.828L698.01 586.821L695.203 583.158ZM744.354 582.469L741.488 586.087L741.505 586.1L741.523 586.113L744.354 582.469ZM757.542 602.256L753.15 603.673L753.15 603.673L757.542 602.256ZM1847.73 729.935H1843.12V734.55H1847.73V729.935ZM1847.73 577.233H1852.35V572.618H1847.73V577.233ZM1894.31 577.233V572.618H1889.7V577.233H1894.31ZM1937.13 577.233V581.848H1941.74V577.233H1937.13ZM1937.13 541.101H1941.74V536.487H1937.13V541.101ZM1894.31 541.101H1889.7V545.716H1894.31V541.101ZM1899.62 517.53L1902.94 520.733L1902.97 520.708L1902.99 520.682L1899.62 517.53ZM1898.08 474.344L1898.17 478.958L1898.21 478.957L1898.25 478.956L1898.08 474.344ZM1878.56 478.129L1880.07 482.49L1880.09 482.482L1880.11 482.475L1878.56 478.129ZM1860.06 491.205L1863.49 494.298L1863.5 494.284L1863.51 494.271L1860.06 491.205ZM1850.81 507.723L1846.37 506.471L1846.36 506.51L1846.35 506.549L1850.81 507.723ZM1848.07 525.789L1843.46 525.612L1843.46 525.612L1848.07 525.789ZM1847.73 541.101V545.716H1852.33L1852.35 541.112L1847.73 541.101ZM2012.83 577.233V572.618H2008.21V577.233H2012.83ZM2012.83 541.101H2008.21V545.716H2012.83V541.101ZM2018.14 517.53L2021.46 520.733L2021.48 520.708L2021.51 520.682L2018.14 517.53ZM2016.59 474.344L2016.68 478.958L2016.72 478.957L2016.76 478.956L2016.59 474.344ZM1997.07 478.129L1998.58 482.49L1998.6 482.482L1998.62 482.475L1997.07 478.129ZM1978.57 491.205L1982 494.298L1982.01 494.284L1982.02 494.271L1978.57 491.205ZM1969.33 507.723L1964.88 506.471L1964.87 506.51L1964.86 506.549L1969.33 507.723ZM1966.59 525.789L1961.97 525.612L1961.97 525.612L1966.59 525.789ZM1966.24 541.101V545.716H1970.85L1970.86 541.112L1966.24 541.101ZM1937.13 541.101V536.487H1932.51V541.101H1937.13ZM1937.13 577.233H1932.51V581.848H1937.13V577.233ZM1966.24 577.233H1970.86V572.618H1966.24V577.233ZM1749.69 718.06L1747.15 714.208L1747.14 714.214L1747.13 714.22L1749.69 718.06ZM1764.59 705.264H1769.2V693.175L1761.15 702.189L1764.59 705.264ZM1773.82 729.934L1773.82 734.549L1773.82 734.549L1773.82 729.934ZM1838.52 729.935L1838.52 734.549L1843.13 734.549V729.935H1838.52ZM1838.52 693.801H1843.13V689.187H1838.52V693.801ZM1807.74 693.801H1803.12V698.416H1807.74V693.801ZM1754.83 660.765L1750.5 659.166L1750.49 659.186L1750.48 659.206L1754.83 660.765ZM1745.06 676.766L1748.13 680.214L1748.16 680.19L1748.19 680.165L1745.06 676.766ZM1732.22 683.993L1730.99 679.545L1730.99 679.545L1732.22 683.993ZM1696.25 679.175L1693.3 682.72L1693.32 682.735L1693.34 682.75L1696.25 679.175ZM1684.61 662.486L1680.27 664.05L1680.27 664.051L1684.61 662.486ZM1680.33 642.7L1675.72 643.015L1675.72 643.022L1680.33 642.7ZM1679.64 583.231H1684.26V578.616H1679.64V583.231ZM1632.37 583.231V578.616H1627.76V583.231H1632.37ZM1633.06 657.668L1628.46 657.979L1628.46 657.979L1633.06 657.668ZM1637 680.208L1632.53 681.38L1632.54 681.388L1632.54 681.396L1637 680.208ZM1647.79 703.779L1643.94 706.331L1643.96 706.35L1643.97 706.37L1647.79 703.779ZM1622.53 728.114L1621.86 723.548L1621.86 723.548L1622.53 728.114ZM1619.57 689.102L1619.93 693.702L1619.93 693.702L1619.57 689.102ZM1600.1 689.341L1600.4 684.736L1600 684.71L1599.6 684.754L1600.1 689.341ZM1580.41 678.674L1584.32 676.218L1584.31 676.213L1580.41 678.674ZM1576.81 664.91L1572.2 665L1572.2 665.046L1572.2 665.093L1576.81 664.91ZM1576.64 574.002L1576.64 569.387L1572.03 569.387V574.002H1576.64ZM1679.64 574.002L1679.64 578.616L1684.26 578.616V574.002H1679.64ZM1670.41 533.807L1670.41 538.422L1670.41 538.422L1670.41 533.807ZM1576.64 533.807H1572.03V538.422L1576.64 538.422L1576.64 533.807ZM1530.06 533.807L1530.06 538.422L1534.67 538.422V533.807H1530.06ZM1498.82 533.807L1498.82 529.192H1498.82V533.807ZM1439.89 533.807L1439.89 529.192L1439.89 529.192L1439.89 533.807ZM1400.86 541.033L1402.68 545.274L1402.69 545.27L1402.7 545.265L1400.86 541.033ZM1375.34 561.336L1379.14 563.967L1379.14 563.956L1379.15 563.944L1375.34 561.336ZM1372.26 616.738L1368.29 619.084L1368.3 619.099L1368.31 619.114L1372.26 616.738ZM1391.79 633.943L1393.96 629.873L1393.96 629.873L1391.79 633.943ZM1427.92 647.019L1429.11 642.56L1429.09 642.556L1429.08 642.552L1427.92 647.019ZM1457.38 655.622L1455.87 659.982L1455.88 659.986L1455.89 659.99L1457.38 655.622ZM1469.71 662.332L1466.1 665.207L1466.14 665.252L1466.17 665.297L1469.71 662.332ZM1465.6 684.872L1468.25 688.646L1468.29 688.624L1468.32 688.602L1465.6 684.872ZM1420.56 682.291L1417.8 685.992L1417.82 686.003L1417.83 686.014L1420.56 682.291ZM1410.46 669.966L1414.64 667.996L1414.64 667.996L1410.46 669.966ZM1399.19 663.109L1398.5 658.547L1398.5 658.547L1399.19 663.109ZM1369.29 667.648L1368.6 663.085L1368.6 663.085L1369.29 667.648ZM1362.04 678.129L1366.5 676.916L1366.5 676.916L1362.04 678.129ZM1386.13 714.121L1383.37 717.817L1383.39 717.83L1383.4 717.842L1386.13 714.121ZM1499.51 713.605L1496.64 709.993L1496.64 709.993L1499.51 713.605ZM1514.24 644.094L1510.22 646.362L1510.23 646.376L1510.23 646.391L1514.24 644.094ZM1495.57 626.545L1493.24 630.53L1493.28 630.549L1493.31 630.567L1495.57 626.545ZM1461.83 613.641L1463 609.176L1462.99 609.173L1462.97 609.169L1461.83 613.641ZM1429.63 604.694L1428.19 609.077L1428.2 609.08L1428.21 609.084L1429.63 604.694ZM1415.76 597.984L1412.49 601.239L1412.53 601.281L1412.58 601.322L1415.76 597.984ZM1420.22 577.509L1418 573.459L1417.98 573.469L1417.97 573.479L1420.22 577.509ZM1439.91 574.007V578.622H1444.52V574.007H1439.91ZM1439.91 574.002L1439.91 569.387L1435.3 569.387V574.002H1439.91ZM1498.82 574.002L1498.82 578.617H1498.82V574.002ZM1530.06 574.002H1534.67V569.387H1530.06V574.002ZM1530.4 677.986L1525.79 678.105L1525.79 678.107L1530.4 677.986ZM1537.59 703.794L1533.53 705.981L1533.54 706.006L1533.56 706.032L1537.59 703.794ZM1559.51 723.58L1557.69 727.819L1557.72 727.832L1557.75 727.845L1559.51 723.58ZM1592.4 729.935L1592.53 725.322L1592.5 725.321L1592.48 725.321L1592.4 729.935ZM711.644 725.306C695.45 725.306 681.468 721.225 669.52 713.188L664.368 720.845C677.996 730.013 693.813 734.535 711.644 734.535V725.306ZM755.073 713.232C743.674 721.184 729.294 725.306 711.644 725.306V734.535C730.757 734.535 747.09 730.054 760.353 720.801L755.073 713.232ZM756.917 711.903C756.311 712.354 755.697 712.797 755.073 713.231L760.352 720.802C761.054 720.313 761.747 719.814 762.43 719.305L756.917 711.903ZM758.777 710.47C758.166 710.956 757.546 711.434 756.916 711.903L762.43 719.304C763.139 718.777 763.837 718.239 764.526 717.69L758.777 710.47ZM766.266 720.705V714.08H757.037V720.705H766.266ZM770.881 725.32C768.333 725.32 766.266 723.254 766.266 720.705H757.037C757.037 728.351 763.235 734.549 770.881 734.549V725.32ZM902.511 725.32H770.881V734.549H902.511V725.32ZM904.455 725.335C903.828 725.335 903.205 725.33 902.585 725.32L902.438 734.549C903.108 734.559 903.78 734.565 904.455 734.565V725.335ZM950.925 713.584C937.683 721.372 922.242 725.335 904.455 725.335V734.565C923.66 734.565 940.759 730.27 955.604 721.54L950.925 713.584ZM982.252 680.797C974.766 694.747 964.338 705.651 950.915 713.59L955.614 721.534C970.506 712.726 982.113 700.575 990.384 685.161L982.252 680.797ZM993.065 644.508C991.694 657.942 988.075 670.015 982.258 680.786L990.378 685.172C996.823 673.241 1000.76 659.979 1002.25 645.446L993.065 644.508ZM1009.85 640.362H997.656V649.592H1009.85V640.362ZM1025.57 681.582C1019.39 670.573 1015.67 658.256 1014.44 644.566L1005.25 645.388C1006.58 660.275 1010.66 673.866 1017.52 686.097L1025.57 681.582ZM1057.75 713.732C1044.07 705.879 1033.36 695.169 1025.54 681.544L1017.54 686.135C1026.17 701.185 1038.06 713.072 1053.15 721.736L1057.75 713.732ZM1102.99 725.308C1085.82 724.946 1070.77 721.043 1057.71 713.711L1053.19 721.758C1067.73 729.923 1084.3 734.146 1102.79 734.535L1102.99 725.308ZM1189.64 725.307H1102.89V734.536H1189.64V725.307ZM1189.64 725.307H1189.64V734.536H1189.64V725.307ZM1267.82 725.307H1189.64V734.536H1267.82V725.307ZM1271.82 732.223L1271.84 732.194L1263.81 727.648L1263.79 727.677L1271.82 732.223ZM1270.59 725.307C1269.66 725.325 1268.73 725.335 1267.8 725.335L1267.81 734.565C1268.8 734.564 1269.79 734.554 1270.77 734.535L1270.59 725.307ZM1271.91 725.307H1270.68V734.536H1271.91V725.307ZM1267.75 727.923L1267.74 727.952L1276.09 731.891L1276.1 731.862L1267.75 727.923ZM1325.89 709.993C1314.13 719.348 1293.58 724.682 1271.8 725.279L1272.05 734.505C1294.67 733.885 1317.59 728.386 1331.64 717.217L1325.89 709.993ZM1344.7 668.698C1344.7 686.474 1338.38 700.056 1325.89 709.993L1331.64 717.217C1346.54 705.36 1353.93 689.004 1353.93 668.698H1344.7ZM1339.49 646.391C1342.89 652.313 1344.7 659.681 1344.7 668.698H1353.93C1353.93 658.445 1351.86 649.411 1347.49 641.798L1339.49 646.391ZM1322.56 630.567C1330.57 635.071 1336.09 640.373 1339.47 646.362L1347.51 641.827C1343.12 634.051 1336.21 627.654 1327.09 622.523L1322.56 630.567ZM1289.92 618.105C1303.73 621.716 1314.54 625.885 1322.5 630.53L1327.15 622.559C1318.21 617.34 1306.53 612.907 1292.25 609.176L1289.92 618.105ZM1257.47 609.084C1264.69 611.425 1275.54 614.436 1289.94 618.112L1292.23 609.169C1277.86 605.504 1267.24 602.551 1260.31 600.304L1257.47 609.084ZM1241.83 601.322C1244.94 604.287 1250.47 606.78 1257.44 609.077L1260.33 600.311C1253.38 598.02 1249.66 596.039 1248.2 594.645L1241.83 601.322ZM1237.15 589.897C1237.15 594.269 1238.67 598.153 1241.75 601.239L1248.29 594.728C1247.02 593.455 1246.38 591.949 1246.38 589.897H1237.15ZM1247.22 573.48C1240.78 577.071 1237.15 582.654 1237.15 589.897H1246.38C1246.38 586.358 1247.88 583.682 1251.72 581.539L1247.22 573.48ZM1269.16 569.392C1260.77 569.392 1253.38 570.115 1247.26 573.459L1251.68 581.559C1255.64 579.4 1261 578.622 1269.16 578.622V569.392ZM1352.37 569.392H1269.16V578.622H1352.37V569.392ZM1357.38 565.611C1356.4 568.019 1354.34 569.392 1352.37 569.392V578.622C1358.7 578.622 1363.78 574.376 1365.93 569.084L1357.38 565.611ZM1363.95 553.467C1361.3 557.299 1359.11 561.355 1357.38 565.611L1365.93 569.084C1367.41 565.454 1369.27 561.998 1371.54 558.726L1363.95 553.467ZM1391.49 530.109C1380.17 535.652 1370.85 543.41 1363.94 553.486L1371.55 558.706C1377.48 550.058 1385.53 543.305 1395.55 538.396L1391.49 530.109ZM1393.42 538.422C1388.65 538.422 1387.42 532.1 1391.49 530.108L1395.55 538.396C1400.05 536.189 1398.67 529.192 1393.42 529.192V538.422ZM1269.16 538.422H1393.42V529.192H1269.16V538.422ZM1231.96 545.265C1242.33 540.753 1254.69 538.422 1269.16 538.422V529.192C1253.72 529.192 1240.05 531.679 1228.28 536.802L1231.96 545.265ZM1208.41 563.944C1213.91 555.914 1221.68 549.673 1231.94 545.274L1228.3 536.793C1216.63 541.8 1207.39 549.093 1200.79 558.728L1208.41 563.944ZM1200.14 592.306C1200.14 581.196 1202.94 571.818 1208.39 563.967L1200.81 558.704C1194.15 568.289 1190.91 579.557 1190.91 592.306H1200.14ZM1205.49 614.391C1201.99 608.471 1200.14 601.175 1200.14 592.306H1190.91C1190.91 602.477 1193.05 611.469 1197.54 619.084L1205.49 614.391ZM1223.21 629.873C1214.7 625.327 1208.92 620.106 1205.47 614.362L1197.56 619.114C1202.1 626.675 1209.34 632.925 1218.87 638.014L1223.21 629.873ZM1258.33 642.552C1243.45 638.701 1231.79 634.453 1223.21 629.873L1218.87 638.014C1228.33 643.068 1240.76 647.538 1256.02 651.487L1258.33 642.552ZM1288.15 651.263C1281.7 649.024 1271.74 646.121 1258.36 642.56L1255.99 651.479C1269.33 655.03 1279.01 657.861 1285.12 659.982L1288.15 651.263ZM1302.57 659.458C1301.11 657.626 1299.03 656.139 1296.72 654.881C1294.36 653.596 1291.47 652.395 1288.12 651.254L1285.14 659.99C1288.19 661.029 1290.56 662.036 1292.3 662.988C1294.1 663.966 1294.99 664.745 1295.35 665.207L1302.57 659.458ZM1306.32 671.107C1306.32 666.673 1305.2 662.595 1302.5 659.368L1295.43 665.297C1296.38 666.429 1297.09 668.2 1297.09 671.107H1306.32ZM1304.69 679.356C1305.97 676.169 1306.32 673.095 1306.32 671.107H1297.09C1297.09 672.161 1296.89 674.026 1296.13 675.909L1304.69 679.356ZM1276.38 690.891C1280.88 690.892 1286.61 690.895 1291.67 689.645C1296.85 688.368 1302.19 685.557 1304.69 679.356L1296.13 675.909C1295.18 678.267 1293.13 679.779 1289.46 680.684C1285.68 681.618 1281.11 681.663 1276.38 681.662L1276.38 690.891ZM1189.64 690.877L1276.38 690.891L1276.38 681.662L1189.64 681.648L1189.64 690.877ZM1189.64 690.877H1189.64V681.648H1189.64V690.877ZM1102.89 690.863L1189.64 690.877L1189.64 681.648L1102.89 681.633L1102.89 690.863ZM1066.23 675.025C1074.83 685.749 1087.3 690.863 1102.89 690.863V681.633C1089.47 681.633 1079.92 677.342 1073.44 669.254L1066.23 675.025ZM1055.83 651.044C1057.7 660.412 1061.11 668.446 1066.2 674.977L1073.48 669.302C1069.44 664.119 1066.52 657.488 1064.88 649.239L1055.83 651.044ZM1064.76 640.34C1059.29 640.34 1054.67 645.237 1055.83 651.044L1064.88 649.239C1064.89 649.272 1064.89 649.337 1064.87 649.408C1064.85 649.472 1064.82 649.512 1064.81 649.532C1064.77 649.57 1064.75 649.57 1064.76 649.57V640.34ZM1180.91 640.34H1064.76V649.57H1180.91V640.34ZM1185.3 636.321C1185.22 638.493 1183.36 640.34 1180.91 640.34V649.57C1188.04 649.57 1194.23 644.088 1194.52 636.688L1185.3 636.321ZM1178.23 587.965C1183.63 601.771 1186.04 617.855 1185.3 636.321L1194.52 636.688C1195.3 617.22 1192.78 599.823 1186.82 584.602L1178.23 587.965ZM1149.8 551.396C1162.54 560.001 1172.03 572.123 1178.23 587.965L1186.82 584.602C1180.01 567.18 1169.4 553.494 1154.97 543.747L1149.8 551.396ZM1102.89 538.422C1121.55 538.422 1137.11 542.824 1149.8 551.396L1154.97 543.747C1140.49 533.967 1123.05 529.192 1102.89 529.192V538.422ZM1056.79 550.331C1070.03 542.432 1085.35 538.422 1102.89 538.422V529.192C1083.89 529.192 1066.9 533.555 1052.06 542.403L1056.79 550.331ZM1025.44 583.461C1033.05 569.152 1043.49 558.152 1056.76 550.345L1052.08 542.389C1037.27 551.1 1025.67 563.384 1017.3 579.127L1025.44 583.461ZM1020.77 593.797C1022.13 590.211 1023.69 586.767 1025.44 583.461L1017.3 579.127C1015.35 582.786 1013.63 586.589 1012.14 590.534L1020.77 593.797ZM1024.76 598.83C1021.55 598.83 1019.94 596 1020.77 593.797L1012.14 590.534C1008.73 599.565 1015.97 608.059 1024.76 608.059V598.83ZM1057.47 598.83H1024.76V608.059H1057.47V598.83ZM1060.02 596.912C1059.47 598.205 1058.38 598.83 1057.47 598.83V608.059C1062.56 608.059 1066.71 604.76 1068.51 600.517L1060.02 596.912ZM1066.18 586.221C1063.74 589.389 1061.69 592.962 1060.02 596.913L1068.51 600.517C1069.91 597.216 1071.58 594.338 1073.49 591.853L1066.18 586.221ZM1104.95 569.797C1088.1 569.797 1074.84 575.021 1066.19 586.215L1073.49 591.859C1079.91 583.553 1090.05 579.027 1104.95 579.027V569.797ZM1138 584.303C1130.93 574.332 1119.5 569.797 1104.95 569.797V579.027C1117.57 579.027 1125.66 582.866 1130.47 589.641L1138 584.303ZM1146.82 609.58C1145.4 599.121 1142.56 590.535 1137.95 584.245L1130.51 589.7C1133.86 594.277 1136.37 601.176 1137.67 610.819L1146.82 609.58ZM1060.73 614.814H1142.25V605.585H1060.73V614.814ZM1056.22 609.231L1056.21 609.249L1065.24 611.15L1065.25 611.133L1056.22 609.231ZM996.454 614.797L1060.73 614.797L1060.73 605.567L996.454 605.567L996.454 614.797ZM982.423 583.304C986.939 591.721 990.109 600.943 991.912 610.997L1001 609.367C999.032 598.415 995.558 588.263 990.556 578.94L982.423 583.304ZM951.087 550.339C964.5 558.273 974.928 569.227 982.416 583.291L990.563 578.954C982.294 563.424 970.687 551.208 955.785 542.395L951.087 550.339ZM904.455 538.422C922.351 538.422 937.838 542.44 951.072 550.331L955.799 542.403C940.946 533.548 923.78 529.192 904.455 529.192V538.422ZM858.327 550.173C871.578 542.38 886.908 538.422 904.455 538.422V529.192C885.467 529.192 868.484 533.493 853.649 542.217L858.327 550.173ZM826.995 582.971C834.6 568.89 845.034 557.991 858.327 550.173L853.649 542.217C838.855 550.917 827.253 563.073 818.874 578.585L826.995 582.971ZM815.561 631.879C815.561 613.141 819.419 596.889 826.988 582.985L818.881 578.572C810.466 594.032 806.331 611.847 806.331 631.879H815.561ZM821.873 669.83C817.687 658.456 815.561 645.822 815.561 631.879H806.331C806.331 646.767 808.603 660.497 813.211 673.018L821.873 669.83ZM825.814 672.389C823.919 672.389 822.411 671.293 821.873 669.83L813.211 673.018C815.2 678.42 820.392 681.618 825.814 681.618V672.389ZM869.067 672.389H825.814V681.618H869.067V672.389ZM867.75 674.445C867.346 673.922 867.453 673.451 867.525 673.282C867.576 673.16 867.694 672.956 867.956 672.759C868.246 672.54 868.646 672.389 869.067 672.389V681.618C872.615 681.618 875.027 679.249 876.032 676.861C877.022 674.507 877.02 671.346 875.053 668.801L867.75 674.445ZM855.655 631.879C855.655 649.167 859.512 663.496 867.714 674.398L875.089 668.849C868.448 660.021 864.884 647.854 864.884 631.879H855.655ZM860.578 601.856C857.257 610.63 855.655 620.667 855.655 631.879H864.884C864.884 621.526 866.365 612.637 869.209 605.123L860.578 601.856ZM876.792 580.62C869.474 585.779 864.091 592.905 860.598 601.803L869.189 605.176C872.09 597.786 876.412 592.18 882.11 588.163L876.792 580.62ZM904.455 572.894C893.604 572.894 884.268 575.349 876.792 580.62L882.11 588.163C887.649 584.258 894.982 582.124 904.455 582.124V572.894ZM941.367 589.532C932.901 578.278 920.318 572.894 904.455 572.894V582.124C918.048 582.124 927.616 586.605 933.992 595.08L941.367 589.532ZM953.598 631.879C953.598 614.682 949.673 600.403 941.347 589.504L934.012 595.107C940.758 603.937 944.368 616.04 944.368 631.879H953.598ZM941.584 673.821C949.714 662.637 953.598 648.539 953.598 631.879H944.368C944.368 647.106 940.831 659.16 934.118 668.394L941.584 673.821ZM904.455 690.863C920.556 690.863 933.234 685.354 941.589 673.813L934.113 668.401C927.853 677.048 918.267 681.633 904.455 681.633V690.863ZM904.441 690.863H904.455V681.633H904.441V690.863ZM899.827 686.233V686.248H909.056V686.233H899.827ZM903.071 690.848H904.441V681.618H903.071V690.848ZM902.97 690.847L902.971 690.847L903.171 681.619L903.17 681.619L902.97 690.847ZM824.52 690.848H903.07V681.618H824.52V690.848ZM802.755 690.848L824.52 690.848L824.52 681.618L802.755 681.618L802.755 690.848ZM798.141 483.229V686.233H807.37V483.229H798.141ZM793.526 478.615C796.075 478.615 798.141 480.681 798.141 483.229H807.37C807.37 475.583 801.172 469.385 793.526 469.385V478.615ZM765.059 478.615H793.526V469.385H765.059V478.615ZM760.444 483.229C760.444 480.681 762.51 478.615 765.059 478.615V469.385C757.413 469.385 751.214 475.583 751.214 483.229H760.444ZM760.444 544.932V483.229H751.214V544.932H760.444ZM714.042 538.393C729.674 538.393 742.694 541.94 753.325 548.808L758.333 541.055C745.942 533.051 731.103 529.163 714.042 529.163V538.393ZM670.306 550.385C682.594 542.442 697.112 538.393 714.042 538.393V529.163C695.576 529.163 679.267 533.602 665.295 542.634L670.306 550.385ZM641.283 583.48C648.242 569.387 657.915 558.396 670.306 550.385L665.295 542.634C651.426 551.6 640.661 563.893 633.008 579.394L641.283 583.48ZM630.97 631.849C630.97 613.516 634.451 597.425 641.289 583.467L633.001 579.406C625.453 594.813 621.741 612.33 621.741 631.849H630.97ZM641.137 679.926C634.393 665.829 630.97 649.834 630.97 631.849H621.741C621.741 651.029 625.398 668.412 632.811 683.909L641.137 679.926ZM669.52 713.188C657.454 705.07 647.986 694.016 641.125 679.9L632.824 683.935C640.347 699.413 650.86 711.758 664.368 720.845L669.52 713.188ZM761.933 662.86C764.854 653.813 766.266 643.452 766.266 631.849H757.037C757.037 642.728 755.71 652.096 753.15 660.025L761.933 662.86ZM746.778 684.923C753.924 679.572 758.942 672.128 761.933 662.86L753.15 660.025C750.662 667.734 746.659 673.481 741.246 677.535L746.778 684.923ZM719.179 692.898C730.239 692.898 739.607 690.394 746.811 684.898L741.213 677.56C736.087 681.471 728.899 683.669 719.179 683.669V692.898ZM691.659 684.335C699.042 690.164 708.343 692.898 719.179 692.898V683.669C709.921 683.669 702.781 681.356 697.377 677.091L691.659 684.335ZM675.965 661.985C679.308 671.19 684.52 678.7 691.659 684.335L697.377 677.091C691.729 672.632 687.463 666.607 684.641 658.835L675.965 661.985ZM671.064 631.849C671.064 642.744 672.674 652.799 675.959 661.967L684.647 658.853C681.767 650.816 680.294 641.831 680.294 631.849H671.064ZM676.156 602.005C672.737 611.08 671.064 621.047 671.064 631.849H680.294C680.294 622.005 681.816 613.16 684.793 605.259L676.156 602.005ZM692.406 579.487C685.019 585.117 679.617 592.69 676.148 602.025L684.8 605.239C687.724 597.369 692.142 591.293 698 586.828L692.406 579.487ZM720.892 570.8C709.72 570.8 700.105 573.588 692.396 579.495L698.01 586.821C703.773 582.404 711.283 580.03 720.892 580.03V570.8ZM747.22 578.852C740.262 573.34 731.34 570.8 720.892 570.8V580.03C729.853 580.03 736.573 582.192 741.488 586.087L747.22 578.852ZM761.933 600.838C758.956 591.616 754.083 584.185 747.186 578.826L741.523 586.113C746.728 590.159 750.647 595.919 753.15 603.673L761.933 600.838ZM766.266 631.849C766.266 620.246 764.854 609.886 761.933 600.838L753.15 603.673C755.71 611.602 757.037 620.97 757.037 631.849H766.266ZM1852.35 729.935V577.233H1843.12V729.935H1852.35ZM1885.08 725.32H1847.73V734.55H1885.08V725.32ZM1889.7 720.705C1889.7 723.254 1887.63 725.32 1885.08 725.32V734.55C1892.73 734.55 1898.93 728.351 1898.93 720.705H1889.7ZM1889.7 577.233V720.705H1898.93V577.233H1889.7ZM1937.13 572.618H1894.31V581.848H1937.13V572.618ZM1932.51 541.101V577.233H1941.74V541.101H1932.51ZM1894.31 545.716H1937.13V536.487H1894.31V545.716ZM1889.7 530.778V541.101H1898.93V530.778H1889.7ZM1896.3 514.327C1891.92 518.869 1889.7 524.438 1889.7 530.778H1898.93C1898.93 526.795 1900.25 523.532 1902.94 520.733L1896.3 514.327ZM1915.89 507.237C1907.84 507.237 1900.97 509.329 1896.25 514.378L1902.99 520.682C1905.35 518.16 1909.33 516.467 1915.89 516.467V507.237ZM1927.9 507.237H1915.89V516.467H1927.9V507.237ZM1932.51 502.623C1932.51 505.171 1930.45 507.237 1927.9 507.237V516.467C1935.55 516.467 1941.74 510.269 1941.74 502.623H1932.51ZM1932.51 483.229V502.623H1941.74V483.229H1932.51ZM1927.9 478.615C1930.45 478.615 1932.51 480.681 1932.51 483.229H1941.74C1941.74 475.583 1935.55 469.385 1927.9 469.385V478.615ZM1914.18 478.615H1927.9V469.385H1914.18V478.615ZM1898.25 478.956C1904.49 478.728 1909.8 478.615 1914.18 478.615V469.385C1909.65 469.385 1904.23 469.502 1897.91 469.732L1898.25 478.956ZM1880.11 482.475C1886.44 480.211 1892.45 479.062 1898.17 478.958L1898 469.73C1891.15 469.855 1884.15 471.229 1877 473.784L1880.11 482.475ZM1863.51 494.271C1868.81 488.306 1874.34 484.473 1880.07 482.49L1877.05 473.769C1869.53 476.374 1862.73 481.258 1856.61 488.14L1863.51 494.271ZM1855.25 508.974C1856.76 503.614 1859.48 498.731 1863.49 494.298L1856.64 488.113C1851.73 493.544 1848.29 499.673 1846.37 506.471L1855.25 508.974ZM1852.68 525.965C1852.9 520.355 1853.76 514.667 1855.28 508.896L1846.35 506.549C1844.67 512.937 1843.7 519.293 1843.46 525.612L1852.68 525.965ZM1852.35 541.112C1852.36 536.646 1852.47 531.598 1852.68 525.965L1843.46 525.612C1843.24 531.33 1843.13 536.491 1843.12 541.091L1852.35 541.112ZM1826.19 545.716H1847.73V536.487H1826.19V545.716ZM1821.58 550.331C1821.58 547.782 1823.65 545.716 1826.19 545.716V536.487C1818.55 536.487 1812.35 542.685 1812.35 550.331H1821.58ZM1821.58 568.004V550.331H1812.35V568.004H1821.58ZM1826.19 572.618C1823.65 572.618 1821.58 570.552 1821.58 568.004H1812.35C1812.35 575.649 1818.55 581.848 1826.19 581.848V572.618ZM1847.73 572.618H1826.19V581.848H1847.73V572.618ZM1975.47 725.32C1972.92 725.32 1970.86 723.254 1970.86 720.705H1961.63C1961.63 728.351 1967.83 734.55 1975.47 734.55V725.32ZM2003.6 725.32H1975.47V734.55H2003.6V725.32ZM2008.21 720.705C2008.21 723.254 2006.15 725.32 2003.6 725.32V734.55C2011.24 734.55 2017.44 728.351 2017.44 720.705H2008.21ZM2008.21 577.233V720.705H2017.44V577.233H2008.21ZM2047.7 572.618H2012.83V581.848H2047.7V572.618ZM2052.32 568.004C2052.32 570.552 2050.25 572.618 2047.7 572.618V581.848C2055.35 581.848 2061.55 575.649 2061.55 568.004H2052.32ZM2052.32 550.331V568.004H2061.55V550.331H2052.32ZM2047.7 545.716C2050.25 545.716 2052.32 547.782 2052.32 550.331H2061.55C2061.55 542.685 2055.35 536.487 2047.7 536.487V545.716ZM2012.83 545.716H2047.7V536.487H2012.83V545.716ZM2008.21 530.778V541.101H2017.44V530.778H2008.21ZM2014.81 514.327C2010.43 518.869 2008.21 524.438 2008.21 530.778H2017.44C2017.44 526.795 2018.76 523.532 2021.46 520.733L2014.81 514.327ZM2034.41 507.237C2026.36 507.237 2019.49 509.329 2014.77 514.378L2021.51 520.682C2023.86 518.16 2027.84 516.467 2034.41 516.467V507.237ZM2046.41 507.237H2034.41V516.467H2046.41V507.237ZM2051.03 502.623C2051.03 505.171 2048.96 507.237 2046.41 507.237V516.467C2054.06 516.467 2060.26 510.269 2060.26 502.623H2051.03ZM2051.03 483.229V502.623H2060.26V483.229H2051.03ZM2046.41 478.615C2048.96 478.615 2051.03 480.681 2051.03 483.229H2060.26C2060.26 475.583 2054.06 469.385 2046.41 469.385V478.615ZM2032.69 478.615H2046.41V469.385H2032.69V478.615ZM2016.76 478.956C2023.01 478.728 2028.31 478.615 2032.69 478.615V469.385C2028.17 469.385 2022.74 469.502 2016.43 469.732L2016.76 478.956ZM1998.62 482.475C2004.95 480.211 2010.96 479.062 2016.68 478.958L2016.51 469.73C2009.67 469.855 2002.66 471.229 1995.52 473.784L1998.62 482.475ZM1982.02 494.271C1987.33 488.306 1992.86 484.473 1998.58 482.49L1995.56 473.769C1988.04 476.374 1981.24 481.258 1975.13 488.14L1982.02 494.271ZM1973.77 508.974C1975.28 503.614 1978 498.731 1982 494.298L1975.15 488.113C1970.25 493.544 1966.8 499.673 1964.88 506.471L1973.77 508.974ZM1971.2 525.965C1971.41 520.355 1972.27 514.667 1973.79 508.896L1964.86 506.549C1963.18 512.937 1962.22 519.293 1961.97 525.612L1971.2 525.965ZM1970.86 541.112C1970.87 536.646 1970.98 531.598 1971.2 525.965L1961.97 525.612C1961.76 531.33 1961.64 536.491 1961.63 541.091L1970.86 541.112ZM1937.13 545.716H1966.24V536.487H1937.13V545.716ZM1941.74 577.233V541.101H1932.51V577.233H1941.74ZM1966.24 572.618H1937.13V581.848H1966.24V572.618ZM1970.86 720.705V577.233H1961.63V720.705H1970.86ZM1704.65 725.317C1690.63 725.317 1679.63 722.926 1671.39 718.473L1667 726.594C1677.02 732.006 1689.67 734.546 1704.65 734.546V725.317ZM1747.13 714.22C1736.2 721.508 1722.14 725.317 1704.65 725.317V734.546C1723.46 734.546 1739.43 730.441 1752.25 721.9L1747.13 714.22ZM1761.15 702.189C1757.13 706.689 1752.47 710.697 1747.15 714.208L1752.23 721.911C1758.18 717.982 1763.45 713.459 1768.03 708.339L1761.15 702.189ZM1769.2 720.705V705.264H1759.97V720.705H1769.2ZM1773.82 725.319C1771.27 725.319 1769.2 723.253 1769.2 720.705H1759.97C1759.97 728.351 1766.17 734.549 1773.82 734.549L1773.82 725.319ZM1838.52 725.32L1773.82 725.319L1773.82 734.549L1838.52 734.549L1838.52 725.32ZM1833.9 693.801V729.935H1843.13V693.801H1833.9ZM1807.74 698.416H1838.52V689.187H1807.74V698.416ZM1803.12 550.328V693.801H1812.35V550.328H1803.12ZM1798.51 545.714C1801.05 545.714 1803.12 547.78 1803.12 550.328H1812.35C1812.35 542.682 1806.15 536.484 1798.51 536.484V545.714ZM1768 545.714H1798.51V536.484H1768V545.714ZM1763.38 550.328C1763.38 547.78 1765.45 545.714 1768 545.714V536.484C1760.35 536.484 1754.15 542.682 1754.15 550.328H1763.38ZM1763.38 632.892V550.328H1754.15V632.892H1763.38ZM1759.15 662.364C1762.04 654.549 1763.38 644.657 1763.38 632.892H1754.15C1754.15 644.068 1752.86 652.759 1750.5 659.166L1759.15 662.364ZM1748.19 680.165C1752.9 675.837 1756.49 669.777 1759.17 662.324L1750.48 659.206C1748.13 665.747 1745.22 670.354 1741.94 673.368L1748.19 680.165ZM1733.45 688.441C1738.78 686.968 1743.68 684.178 1748.13 680.214L1742 673.319C1738.46 676.466 1734.79 678.494 1730.99 679.545L1733.45 688.441ZM1719.38 690.5C1723.85 690.5 1728.55 689.793 1733.45 688.441L1730.99 679.545C1726.75 680.716 1722.89 681.271 1719.38 681.271V690.5ZM1693.34 682.75C1699.92 688.122 1708.8 690.5 1719.38 690.5V681.271C1710.08 681.271 1703.55 679.175 1699.17 675.6L1693.34 682.75ZM1680.27 664.051C1682.94 671.465 1687.3 677.714 1693.3 682.72L1699.21 675.63C1694.48 671.689 1691.07 666.813 1688.95 660.921L1680.27 664.051ZM1675.72 643.022C1676.21 650.016 1677.74 657.029 1680.27 664.05L1688.95 660.921C1686.69 654.637 1685.36 648.459 1684.93 642.378L1675.72 643.022ZM1675.03 626.354C1675.03 630.746 1675.26 636.31 1675.72 643.015L1684.93 642.384C1684.48 635.784 1684.26 630.451 1684.26 626.354H1675.03ZM1675.03 583.231V626.354H1684.26V583.231H1675.03ZM1632.37 587.846H1679.64V578.616H1632.37V587.846ZM1636.99 642.872V583.231H1627.76V642.872H1636.99ZM1637.66 657.358C1637.21 650.601 1636.99 645.802 1636.99 642.872H1627.76C1627.76 646.135 1628 651.2 1628.46 657.979L1637.66 657.358ZM1641.46 679.036C1639.35 670.989 1638.1 663.77 1637.66 657.358L1628.46 657.979C1628.94 665.101 1630.31 672.908 1632.53 681.38L1641.46 679.036ZM1651.63 701.227C1646.87 694.043 1643.49 686.642 1641.46 679.02L1632.54 681.396C1634.85 690.061 1638.66 698.375 1643.94 706.331L1651.63 701.227ZM1671.39 718.473C1662.82 713.844 1656.28 708.067 1651.61 701.188L1643.97 706.37C1649.58 714.632 1657.31 721.357 1667 726.594L1671.39 718.473ZM1625.46 719.196C1625.46 721.462 1623.87 723.253 1621.86 723.548L1623.2 732.68C1629.97 731.687 1634.69 725.807 1634.69 719.196H1625.46ZM1625.46 698.535V719.196H1634.69V698.535H1625.46ZM1619.93 693.702C1623 693.461 1625.46 695.814 1625.46 698.535H1634.69C1634.69 690.073 1627.28 683.866 1619.2 684.501L1619.93 693.702ZM1599.81 693.947C1606.11 694.347 1612.82 694.262 1619.93 693.702L1619.2 684.501C1612.47 685.031 1606.2 685.105 1600.4 684.736L1599.81 693.947ZM1576.5 681.13C1581.17 688.562 1589.22 695.185 1600.61 693.928L1599.6 684.754C1592.95 685.488 1587.86 681.862 1584.32 676.218L1576.5 681.13ZM1572.2 665.093C1572.45 671.322 1573.76 676.785 1576.5 681.135L1584.31 676.213C1582.72 673.68 1581.63 669.968 1581.42 664.726L1572.2 665.093ZM1572.03 645.295C1572.03 652.545 1572.08 659.114 1572.2 665L1581.43 664.819C1581.31 659.006 1581.26 652.498 1581.26 645.295H1572.03ZM1572.03 574.002V645.295H1581.26V574.002H1572.03ZM1679.64 569.387L1576.64 569.387L1576.64 578.617L1679.64 578.616L1679.64 569.387ZM1675.03 543.037V574.002H1684.26V543.037H1675.03ZM1670.41 538.422C1672.96 538.422 1675.03 540.488 1675.03 543.037H1684.26C1684.26 535.391 1678.06 529.192 1670.41 529.192L1670.41 538.422ZM1576.64 538.422L1670.41 538.422L1670.41 529.192L1576.64 529.193L1576.64 538.422ZM1572.03 497.074V533.807H1581.26V497.074H1572.03ZM1567.41 492.459C1569.96 492.459 1572.03 494.525 1572.03 497.074H1581.26C1581.26 489.428 1575.06 483.229 1567.41 483.229V492.459ZM1539.29 492.459H1567.41V483.229H1539.29V492.459ZM1534.67 497.074C1534.67 494.525 1536.74 492.459 1539.29 492.459V483.229C1531.64 483.229 1525.44 489.428 1525.44 497.074H1534.67ZM1534.67 533.807V497.074H1525.44V533.807H1534.67ZM1498.82 538.422L1530.06 538.422L1530.06 529.193L1498.82 529.192L1498.82 538.422ZM1439.89 538.422H1498.82V529.192H1439.89V538.422ZM1402.7 545.265C1413.07 540.755 1425.43 538.424 1439.89 538.422L1439.89 529.192C1424.46 529.194 1410.79 531.681 1399.02 536.802L1402.7 545.265ZM1379.15 563.944C1384.65 555.914 1392.43 549.673 1402.68 545.274L1399.04 536.793C1387.37 541.8 1378.14 549.093 1371.54 558.728L1379.15 563.944ZM1370.88 592.306C1370.88 581.196 1373.69 571.818 1379.14 563.967L1371.55 558.704C1364.9 568.289 1361.65 579.557 1361.65 592.306H1370.88ZM1376.24 614.391C1372.74 608.471 1370.88 601.175 1370.88 592.306H1361.65C1361.65 602.477 1363.79 611.469 1368.29 619.084L1376.24 614.391ZM1393.96 629.873C1385.45 625.327 1379.67 620.106 1376.22 614.362L1368.31 619.114C1372.85 626.675 1380.08 632.925 1389.61 638.014L1393.96 629.873ZM1429.08 642.552C1414.2 638.701 1402.54 634.453 1393.96 629.873L1389.61 638.014C1399.07 643.068 1411.5 647.538 1426.77 651.487L1429.08 642.552ZM1458.89 651.263C1452.44 649.024 1442.49 646.121 1429.11 642.56L1426.73 651.479C1440.07 655.03 1449.76 657.861 1455.87 659.982L1458.89 651.263ZM1473.32 659.458C1471.86 657.626 1469.77 656.139 1467.46 654.881C1465.1 653.596 1462.21 652.395 1458.87 651.254L1455.89 659.99C1458.94 661.029 1461.3 662.036 1463.05 662.988C1464.85 663.966 1465.73 664.745 1466.1 665.207L1473.32 659.458ZM1477.06 671.107C1477.06 666.673 1475.95 662.595 1473.25 659.368L1466.17 665.297C1467.12 666.429 1467.84 668.2 1467.84 671.107H1477.06ZM1468.32 688.602C1474.12 684.371 1477.06 678.371 1477.06 671.107H1467.84C1467.84 675.543 1466.21 678.719 1462.88 681.141L1468.32 688.602ZM1446.08 694.304C1455.02 694.304 1462.6 692.62 1468.25 688.646L1462.94 681.097C1459.46 683.547 1454.03 685.074 1446.08 685.074V694.304ZM1417.83 686.014C1425.53 691.648 1435.05 694.304 1446.08 694.304V685.074C1436.55 685.074 1429.06 682.798 1423.28 678.567L1417.83 686.014ZM1406.29 671.936C1408.95 677.565 1412.8 682.267 1417.8 685.992L1423.31 678.59C1419.52 675.766 1416.65 672.252 1414.64 667.996L1406.29 671.936ZM1399.88 667.672C1402.09 667.338 1404.81 668.803 1406.29 671.936L1414.64 667.996C1411.97 662.353 1405.89 657.425 1398.5 658.547L1399.88 667.672ZM1369.98 672.21L1399.88 667.672L1398.5 658.547L1368.6 663.085L1369.98 672.21ZM1366.5 676.916C1365.97 674.971 1367.29 672.619 1369.98 672.21L1368.6 663.085C1361.16 664.214 1355.43 671.403 1357.59 679.343L1366.5 676.916ZM1388.9 710.425C1377.8 702.133 1370.34 691.029 1366.5 676.916L1357.59 679.343C1361.95 695.344 1370.55 708.234 1383.37 717.817L1388.9 710.425ZM1442.65 725.335C1420.04 725.335 1402.25 720.217 1388.86 710.4L1383.4 717.842C1398.79 729.13 1418.68 734.565 1442.65 734.565V725.335ZM1496.64 709.993C1484.01 720.032 1466.21 725.335 1442.65 725.335V734.565C1467.5 734.565 1487.6 728.972 1502.38 717.217L1496.64 709.993ZM1515.45 668.698C1515.45 686.474 1509.13 700.056 1496.64 709.993L1502.38 717.217C1517.29 705.36 1524.68 689.004 1524.68 668.698H1515.45ZM1510.23 646.391C1513.63 652.313 1515.45 659.681 1515.45 668.698H1524.68C1524.68 658.445 1522.61 649.411 1518.24 641.798L1510.23 646.391ZM1493.31 630.567C1501.31 635.071 1506.84 640.373 1510.22 646.362L1518.26 641.827C1513.87 634.051 1506.95 627.654 1497.83 622.523L1493.31 630.567ZM1460.66 618.105C1474.48 621.716 1485.29 625.885 1493.24 630.53L1497.9 622.559C1488.96 617.34 1477.27 612.907 1463 609.176L1460.66 618.105ZM1428.21 609.084C1435.44 611.425 1446.28 614.436 1460.69 618.112L1462.97 609.169C1448.61 605.504 1437.99 602.551 1431.06 600.304L1428.21 609.084ZM1412.58 601.322C1415.68 604.287 1421.22 606.78 1428.19 609.077L1431.08 600.311C1424.12 598.019 1420.41 596.039 1418.95 594.645L1412.58 601.322ZM1407.89 589.897C1407.89 594.269 1409.42 598.153 1412.49 601.239L1419.03 594.728C1417.77 593.455 1417.12 591.949 1417.12 589.897H1407.89ZM1417.97 573.479C1411.53 577.071 1407.89 582.654 1407.89 589.897H1417.12C1417.12 586.358 1418.62 583.682 1422.46 581.539L1417.97 573.479ZM1439.91 569.392C1431.51 569.392 1424.13 570.115 1418 573.459L1422.43 581.559C1426.38 579.4 1431.75 578.622 1439.91 578.622V569.392ZM1435.3 574.002V574.007H1444.52V574.002H1435.3ZM1498.82 569.387L1439.91 569.387L1439.91 578.616L1498.82 578.617L1498.82 569.387ZM1530.06 569.387H1498.82V578.617H1530.06V569.387ZM1534.67 648.048V574.002H1525.44V648.048H1534.67ZM1535.01 677.867C1534.79 669.083 1534.67 659.144 1534.67 648.048H1525.44C1525.44 659.205 1525.56 669.225 1525.79 678.105L1535.01 677.867ZM1541.66 701.607C1537.4 693.688 1535.22 685.787 1535.01 677.865L1525.79 678.107C1526.04 687.62 1528.66 696.924 1533.53 705.981L1541.66 701.607ZM1561.34 719.342C1552.68 715.613 1546.15 709.717 1541.63 701.557L1533.56 706.032C1539.08 715.994 1547.17 723.289 1557.69 727.819L1561.34 719.342ZM1592.48 725.321C1580.75 725.101 1570.37 723.076 1561.28 719.316L1557.75 727.845C1568.07 732.114 1579.61 734.31 1592.31 734.549L1592.48 725.321ZM1621.86 723.548C1611.92 725.005 1602.15 725.59 1592.53 725.322L1592.27 734.548C1602.44 734.832 1612.75 734.211 1623.2 732.68L1621.86 723.548Z"
      fill="#0E0C0A" mask="url(#path-2-outside-1_674_5740)" />
  </g>
  <defs>
    <filter id="filter0_d_674_5740" x="621.741" y="469.385" width="1453.65" height="279.074"
      filterUnits="userSpaceOnUse" color-interpolation-filters="sRGB">
      <feFlood flood-opacity="0" result="BackgroundImageFix" />
      <feColorMatrix in="SourceAlpha" type="matrix"
        values="0 0 0 0 0 0 0 0 0 0 0 0 0 0 0 0 0 0 127 0" result="hardAlpha" />
      <feOffset dx="13.8443" dy="13.8443" />
      <feComposite in2="hardAlpha" operator="out" />
      <feColorMatrix type="matrix"
        values="0 0 0 0 0.0541667 0 0 0 0 0.0473597 0 0 0 0 0.0410764 0 0 0 1 0" />
      <feBlend mode="normal" in2="BackgroundImageFix" result="effect1_dropShadow_674_5740" />
      <feBlend mode="normal" in="SourceGraphic" in2="effect1_dropShadow_674_5740" result="shape" />
    </filter>
  </defs>
</svg>