<svg width="1785" height="596" viewBox="0 0 1785 596" fill="none" xmlns="http://www.w3.org/2000/svg">
<rect x="411.463" y="178.463" width="962.377" height="239.381" fill="#1C1225"/>
<rect x="411.463" y="178.463" width="962.377" height="239.381" stroke="#8F54BE" stroke-width="12.6019"/>
<path d="M445.982 353.153V269.764H461.447V280.984H464.631L462.053 283.713C462.053 279.063 463.367 275.323 465.995 272.493C468.623 269.663 472.009 268.248 476.154 268.248C480.601 268.248 484.038 270.067 486.464 273.706C488.99 277.345 490.254 282.247 490.254 288.413L486.918 280.984H492.073L490.102 283.713C490.102 279.063 491.416 275.323 494.044 272.493C496.672 269.663 500.16 268.248 504.506 268.248C509.661 268.248 513.755 270.168 516.787 274.009C519.819 277.85 521.335 283.056 521.335 289.626V353.153H504.658V290.384C504.658 287.655 504.051 285.532 502.838 284.016C501.625 282.399 499.856 281.59 497.532 281.59C495.308 281.59 493.539 282.348 492.225 283.864C491.012 285.38 490.406 287.554 490.406 290.384V353.153H476.76V290.384C476.76 287.554 476.154 285.38 474.941 283.864C473.728 282.348 471.959 281.59 469.634 281.59C467.309 281.59 465.54 282.348 464.328 283.864C463.216 285.38 462.66 287.554 462.66 290.384V353.153H445.982ZM574.493 354.518C567.418 354.518 561.252 353.204 555.996 350.576C550.841 347.846 546.798 344.056 543.867 339.204C541.037 334.252 539.622 328.44 539.622 321.768V301.149C539.622 294.477 541.037 288.716 543.867 283.864C546.798 278.912 550.841 275.121 555.996 272.493C561.252 269.764 567.418 268.399 574.493 268.399C581.67 268.399 587.836 269.764 592.991 272.493C598.146 275.121 602.138 278.912 604.968 283.864C607.9 288.716 609.365 294.427 609.365 300.997V321.768C609.365 328.44 607.9 334.252 604.968 339.204C602.138 344.056 598.146 347.846 592.991 350.576C587.836 353.204 581.67 354.518 574.493 354.518ZM574.493 337.991C579.547 337.991 583.439 336.627 586.168 333.898C588.998 331.068 590.413 327.024 590.413 321.768V301.149C590.413 295.791 588.998 291.748 586.168 289.019C583.439 286.29 579.547 284.926 574.493 284.926C569.541 284.926 565.649 286.29 562.819 289.019C559.989 291.748 558.574 295.791 558.574 301.149V321.768C558.574 327.024 559.989 331.068 562.819 333.898C565.649 336.627 569.541 337.991 574.493 337.991ZM634.171 353.153V269.764H652.062V285.684H656.762L651.152 295.387C651.152 286.391 653.174 279.619 657.217 275.071C661.26 270.522 667.223 268.248 675.107 268.248C684.103 268.248 691.179 271.027 696.334 276.587C701.489 282.146 704.066 289.828 704.066 299.632V305.697H684.204V300.997C684.204 295.64 682.789 291.496 679.959 288.564C677.23 285.633 673.44 284.168 668.588 284.168C663.635 284.168 659.794 285.633 657.065 288.564C654.437 291.496 653.123 295.64 653.123 300.997V353.153H634.171ZM733.875 380.444V364.676H758.589C762.834 364.676 766.018 363.615 768.141 361.492C770.263 359.47 771.325 356.539 771.325 352.698V346.482L771.628 330.865H767.534L771.628 326.772C771.628 333.544 769.606 338.851 765.563 342.691C761.621 346.431 756.264 348.301 749.492 348.301C741.001 348.301 734.229 345.421 729.175 339.659C724.222 333.898 721.746 326.115 721.746 316.31V300.087C721.746 290.384 724.222 282.651 729.175 276.89C734.229 271.129 741.001 268.248 749.492 268.248C756.264 268.248 761.621 270.168 765.563 274.009C769.606 277.749 771.628 283.005 771.628 289.777L767.534 285.684H771.628L771.173 269.764H790.125V353.153C790.125 361.542 787.345 368.163 781.786 373.015C776.227 377.968 768.596 380.444 758.892 380.444H733.875ZM755.86 331.927C760.711 331.927 764.451 330.512 767.079 327.681C769.808 324.75 771.173 320.707 771.173 315.552V300.997C771.173 295.842 769.808 291.849 767.079 289.019C764.451 286.088 760.711 284.622 755.86 284.622C751.008 284.622 747.268 286.038 744.64 288.868C742.012 291.698 740.698 295.741 740.698 300.997V315.552C740.698 320.808 742.012 324.851 744.64 327.681C747.268 330.512 751.008 331.927 755.86 331.927ZM837.977 354.669C829.385 354.669 822.613 352.395 817.66 347.846C812.707 343.298 810.231 337.183 810.231 329.501C810.231 321.314 812.96 314.996 818.418 310.549C823.876 306.101 831.609 303.878 841.615 303.878H862.387V296.752C862.387 292.709 861.073 289.575 858.445 287.352C855.817 285.027 852.229 283.864 847.68 283.864C843.536 283.864 840.099 284.774 837.37 286.593C834.641 288.413 833.024 290.889 832.518 294.023H814.021C814.931 286.139 818.469 279.872 824.634 275.222C830.8 270.573 838.684 268.248 848.287 268.248C858.495 268.248 866.531 270.825 872.394 275.98C878.357 281.034 881.339 287.907 881.339 296.6V353.153H862.993V338.598H859.961L862.993 334.504C862.993 340.67 860.719 345.572 856.171 349.211C851.622 352.85 845.557 354.669 837.977 354.669ZM844.193 340.417C849.55 340.417 853.896 339.053 857.232 336.324C860.669 333.595 862.387 330.057 862.387 325.71V315.552H841.919C838.078 315.552 834.995 316.664 832.67 318.888C830.345 321.111 829.183 324.043 829.183 327.681C829.183 331.623 830.497 334.757 833.125 337.082C835.854 339.305 839.543 340.417 844.193 340.417ZM904.325 353.153V269.764H922.823V285.684H927.977L922.823 290.081C922.823 283.207 924.794 277.85 928.736 274.009C932.779 270.168 938.287 268.248 945.262 268.248C953.449 268.248 959.969 270.977 964.82 276.435C969.773 281.893 972.249 289.221 972.249 298.42V353.153H953.297V300.391C953.297 295.337 951.983 291.445 949.355 288.716C946.727 285.987 943.038 284.622 938.287 284.622C933.638 284.622 929.949 286.038 927.219 288.868C924.591 291.698 923.277 295.741 923.277 300.997V353.153H904.325ZM1041.78 353.153C1036.32 353.153 1031.52 352.041 1027.38 349.817C1023.34 347.594 1020.15 344.46 1017.83 340.417C1015.5 336.273 1014.34 331.522 1014.34 326.165V259.606H987.655V242.473H1033.29V326.165C1033.29 329.198 1034.15 331.623 1035.87 333.443C1037.69 335.161 1040.11 336.02 1043.15 336.02H1068.32V353.153H1041.78ZM1110.71 354.669C1102.12 354.669 1095.34 352.395 1090.39 347.846C1085.44 343.298 1082.96 337.183 1082.96 329.501C1082.96 321.314 1085.69 314.996 1091.15 310.549C1096.61 306.101 1104.34 303.878 1114.35 303.878H1135.12V296.752C1135.12 292.709 1133.8 289.575 1131.18 287.352C1128.55 285.027 1124.96 283.864 1120.41 283.864C1116.27 283.864 1112.83 284.774 1110.1 286.593C1107.37 288.413 1105.76 290.889 1105.25 294.023H1086.75C1087.66 286.139 1091.2 279.872 1097.37 275.222C1103.53 270.573 1111.42 268.248 1121.02 268.248C1131.23 268.248 1139.26 270.825 1145.13 275.98C1151.09 281.034 1154.07 287.907 1154.07 296.6V353.153H1135.73V338.598H1132.69L1135.73 334.504C1135.73 340.67 1133.45 345.572 1128.9 349.211C1124.35 352.85 1118.29 354.669 1110.71 354.669ZM1116.92 340.417C1122.28 340.417 1126.63 339.053 1129.96 336.324C1133.4 333.595 1135.12 330.057 1135.12 325.71V315.552H1114.65C1110.81 315.552 1107.73 316.664 1105.4 318.888C1103.08 321.111 1101.91 324.043 1101.91 327.681C1101.91 331.623 1103.23 334.757 1105.86 337.082C1108.59 339.305 1112.28 340.417 1116.92 340.417ZM1217.99 354.669C1211.12 354.669 1205.66 352.749 1201.62 348.908C1197.58 344.966 1195.55 339.609 1195.55 332.836L1199.8 337.233H1195.55V353.153H1177.06V242.473H1196.01V265.822L1195.4 285.684H1199.8L1195.55 290.081C1195.55 283.308 1197.58 278.002 1201.62 274.161C1205.66 270.219 1211.12 268.248 1217.99 268.248C1226.38 268.248 1233.1 271.129 1238.16 276.89C1243.21 282.651 1245.74 290.434 1245.74 300.239V322.83C1245.74 332.533 1243.21 340.266 1238.16 346.027C1233.1 351.788 1226.38 354.669 1217.99 354.669ZM1211.32 338.295C1216.17 338.295 1219.96 336.88 1222.69 334.049C1225.42 331.219 1226.79 327.176 1226.79 321.92V300.997C1226.79 295.741 1225.42 291.698 1222.69 288.868C1219.96 286.038 1216.17 284.622 1211.32 284.622C1206.57 284.622 1202.83 286.088 1200.1 289.019C1197.37 291.849 1196.01 295.842 1196.01 300.997V321.92C1196.01 327.075 1197.37 331.118 1200.1 334.049C1202.83 336.88 1206.57 338.295 1211.32 338.295ZM1298.59 354.518C1292.23 354.518 1286.67 353.507 1281.92 351.485C1277.17 349.464 1273.43 346.684 1270.7 343.146C1268.07 339.508 1266.65 335.262 1266.45 330.411H1285.4C1285.61 333.039 1286.87 335.161 1289.19 336.778C1291.62 338.396 1294.75 339.204 1298.59 339.204H1305.27C1309.91 339.204 1313.4 338.295 1315.73 336.475C1318.05 334.656 1319.21 332.179 1319.21 329.046C1319.21 326.115 1318.15 323.841 1316.03 322.223C1314.01 320.505 1310.82 319.393 1306.48 318.888L1296.17 317.372C1286.67 316.058 1279.69 313.531 1275.25 309.791C1270.8 306.051 1268.57 300.441 1268.57 292.961C1268.57 285.178 1271.2 279.164 1276.46 274.919C1281.71 270.573 1289.45 268.399 1299.66 268.399H1305.42C1314.72 268.399 1322.15 270.472 1327.7 274.616C1333.26 278.76 1336.25 284.319 1336.65 291.294H1317.7C1317.39 289.07 1316.13 287.25 1313.91 285.835C1311.78 284.42 1308.95 283.713 1305.42 283.713H1299.66C1295.31 283.713 1292.13 284.521 1290.1 286.139C1288.18 287.655 1287.22 289.929 1287.22 292.961C1287.22 295.791 1288.08 297.914 1289.8 299.329C1291.52 300.643 1294.3 301.603 1298.14 302.21L1308.9 303.726C1318.81 305.141 1326.09 307.82 1330.74 311.762C1335.49 315.603 1337.86 321.314 1337.86 328.894C1337.86 336.981 1335.08 343.298 1329.52 347.846C1324.07 352.294 1315.98 354.518 1305.27 354.518H1298.59Z" fill="white"/>
<path d="M1364.68 408.25H1390.67V434.241H1364.68V408.25Z" fill="white" stroke="#8F54BE" stroke-width="8.66379"/>
<path d="M394.332 408.25H420.323V434.241H394.332V408.25Z" fill="white" stroke="#8F54BE" stroke-width="8.66379"/>
<path d="M1364.68 187.323V161.332H1390.67V187.323H1364.68Z" fill="white" stroke="#8F54BE" stroke-width="8.66379"/>
<path d="M394.332 161.332H420.323V187.323H394.332V161.332Z" fill="white" stroke="#8F54BE" stroke-width="8.66379"/>
<g filter="url(#filter0_d_909_365)">
<path d="M1286.5 513.103L1263.39 405.325C1263.19 404.406 1264.18 403.69 1264.99 404.162L1360.39 459.538C1361.2 460.011 1361.07 461.225 1360.17 461.508L1314.56 475.878C1314.33 475.951 1314.13 476.099 1313.99 476.298L1288.45 513.489C1287.92 514.272 1286.7 514.032 1286.5 513.103Z" fill="#8F54BE"/>
<path d="M1258.1 406.461L1281.21 514.238C1282.4 519.815 1289.69 521.255 1292.92 516.554L1288.45 513.489L1292.92 516.554L1317.61 480.594L1361.8 466.672C1367.18 464.975 1367.99 457.69 1363.11 454.855L1267.71 399.479C1262.83 396.648 1256.91 400.947 1258.1 406.461Z" stroke="white" stroke-width="10.8297"/>
</g>
<path d="M677.257 496L681.433 469.72H689.245C691.021 469.72 692.509 470.056 693.709 470.728C694.909 471.4 695.773 472.348 696.301 473.572C696.829 474.796 696.961 476.248 696.697 477.928L695.149 487.756C694.885 489.412 694.285 490.864 693.349 492.112C692.437 493.336 691.273 494.296 689.857 494.992C688.441 495.664 686.845 496 685.069 496H677.257ZM682.405 491.86H685.717C687.037 491.86 688.129 491.5 688.993 490.78C689.881 490.036 690.421 489.028 690.613 487.756L692.197 477.928C692.389 476.68 692.161 475.696 691.513 474.976C690.865 474.232 689.881 473.86 688.561 473.86H685.249L682.405 491.86ZM706.907 496.36C705.227 496.36 703.823 496.036 702.695 495.388C701.567 494.74 700.751 493.84 700.247 492.688C699.767 491.512 699.647 490.144 699.887 488.584L700.679 483.616C700.943 482.056 701.507 480.7 702.371 479.548C703.235 478.372 704.327 477.46 705.647 476.812C706.991 476.164 708.503 475.84 710.183 475.84C711.839 475.84 713.231 476.164 714.359 476.812C715.487 477.46 716.291 478.372 716.771 479.548C717.275 480.7 717.395 482.056 717.131 483.616L716.555 487.18H704.459L704.207 488.584C704.015 489.976 704.183 491.032 704.711 491.752C705.263 492.448 706.199 492.796 707.519 492.796C708.527 492.796 709.355 492.628 710.003 492.292C710.675 491.932 711.143 491.416 711.407 490.744H715.871C715.463 491.872 714.815 492.856 713.927 493.696C713.063 494.536 712.031 495.196 710.831 495.676C709.631 496.132 708.323 496.36 706.907 496.36ZM712.631 484.66L712.811 483.58C713.027 482.212 712.871 481.168 712.343 480.448C711.815 479.704 710.903 479.332 709.607 479.332C708.311 479.332 707.267 479.704 706.475 480.448C705.707 481.192 705.215 482.248 704.999 483.616L704.891 484.372L713.027 484.3L712.631 484.66ZM725.649 496L722.337 476.2H726.873L728.637 488.224C728.757 488.944 728.853 489.688 728.925 490.456C729.021 491.224 729.081 491.836 729.105 492.292C729.297 491.836 729.537 491.224 729.825 490.456C730.137 489.688 730.461 488.956 730.797 488.26L736.305 476.2H740.985L731.445 496H725.649ZM750.078 496.36C748.398 496.36 746.994 496.036 745.866 495.388C744.738 494.74 743.922 493.84 743.418 492.688C742.938 491.512 742.818 490.144 743.058 488.584L743.85 483.616C744.114 482.056 744.678 480.7 745.542 479.548C746.406 478.372 747.498 477.46 748.818 476.812C750.162 476.164 751.674 475.84 753.354 475.84C755.01 475.84 756.402 476.164 757.53 476.812C758.658 477.46 759.462 478.372 759.942 479.548C760.446 480.7 760.566 482.056 760.302 483.616L759.726 487.18H747.63L747.378 488.584C747.186 489.976 747.354 491.032 747.882 491.752C748.434 492.448 749.37 492.796 750.69 492.796C751.698 492.796 752.526 492.628 753.174 492.292C753.846 491.932 754.314 491.416 754.578 490.744H759.042C758.634 491.872 757.986 492.856 757.098 493.696C756.234 494.536 755.202 495.196 754.002 495.676C752.802 496.132 751.494 496.36 750.078 496.36ZM755.802 484.66L755.982 483.58C756.198 482.212 756.042 481.168 755.514 480.448C754.986 479.704 754.074 479.332 752.778 479.332C751.482 479.332 750.438 479.704 749.646 480.448C748.878 481.192 748.386 482.248 748.17 483.616L748.062 484.372L756.198 484.3L755.802 484.66ZM774.58 496C772.612 496 771.124 495.412 770.116 494.236C769.132 493.06 768.796 491.512 769.108 489.592L771.592 473.788H765.544L766.192 469.72H776.74L773.608 489.592C773.488 490.312 773.596 490.888 773.932 491.32C774.292 491.728 774.82 491.932 775.516 491.932H781.636L781.024 496H774.58ZM793.214 496.36C791.534 496.36 790.13 496.048 789.002 495.424C787.874 494.776 787.07 493.876 786.59 492.724C786.11 491.548 785.99 490.168 786.23 488.584L787.022 483.616C787.286 482.032 787.838 480.664 788.678 479.512C789.542 478.336 790.634 477.436 791.954 476.812C793.298 476.164 794.81 475.84 796.49 475.84C798.194 475.84 799.598 476.164 800.702 476.812C801.83 477.436 802.634 478.336 803.114 479.512C803.618 480.664 803.738 482.02 803.474 483.58L802.682 488.584C802.442 490.168 801.89 491.548 801.026 492.724C800.162 493.876 799.07 494.776 797.75 495.424C796.43 496.048 794.918 496.36 793.214 496.36ZM793.862 492.436C795.062 492.436 796.034 492.112 796.778 491.464C797.522 490.792 797.99 489.832 798.182 488.584L798.974 483.616C799.166 482.368 798.998 481.42 798.47 480.772C797.942 480.1 797.066 479.764 795.842 479.764C794.666 479.764 793.706 480.1 792.962 480.772C792.218 481.42 791.738 482.368 791.522 483.616L790.73 488.584C790.538 489.832 790.706 490.792 791.234 491.464C791.786 492.112 792.662 492.436 793.862 492.436ZM805.8 502.48L809.976 476.2H814.368L813.756 479.98H814.764L813.612 481.024C813.852 479.416 814.524 478.156 815.628 477.244C816.756 476.308 818.136 475.84 819.768 475.84C821.76 475.84 823.236 476.524 824.196 477.892C825.156 479.26 825.456 481.096 825.096 483.4L824.232 488.764C823.992 490.3 823.512 491.644 822.792 492.796C822.072 493.924 821.172 494.8 820.092 495.424C819.036 496.048 817.836 496.36 816.492 496.36C814.86 496.36 813.636 495.904 812.82 494.992C812.028 494.056 811.752 492.784 811.992 491.176L812.856 492.22H811.812L811.2 496.936L810.3 502.48H805.8ZM815.556 492.472C816.708 492.472 817.644 492.136 818.364 491.464C819.108 490.792 819.576 489.832 819.768 488.584L820.56 483.616C820.752 482.368 820.584 481.408 820.056 480.736C819.552 480.064 818.712 479.728 817.536 479.728C816.432 479.728 815.496 480.076 814.728 480.772C813.984 481.444 813.504 482.392 813.288 483.616L812.496 488.584C812.304 489.808 812.484 490.768 813.036 491.464C813.588 492.136 814.428 492.472 815.556 492.472ZM836.422 496.36C834.742 496.36 833.338 496.036 832.21 495.388C831.082 494.74 830.266 493.84 829.762 492.688C829.282 491.512 829.162 490.144 829.402 488.584L830.194 483.616C830.458 482.056 831.022 480.7 831.886 479.548C832.75 478.372 833.842 477.46 835.162 476.812C836.506 476.164 838.018 475.84 839.698 475.84C841.354 475.84 842.746 476.164 843.874 476.812C845.002 477.46 845.806 478.372 846.286 479.548C846.79 480.7 846.91 482.056 846.646 483.616L846.07 487.18H833.974L833.722 488.584C833.53 489.976 833.698 491.032 834.226 491.752C834.778 492.448 835.714 492.796 837.034 492.796C838.042 492.796 838.87 492.628 839.518 492.292C840.19 491.932 840.658 491.416 840.922 490.744H845.386C844.978 491.872 844.33 492.856 843.442 493.696C842.578 494.536 841.546 495.196 840.346 495.676C839.146 496.132 837.838 496.36 836.422 496.36ZM842.146 484.66L842.326 483.58C842.542 482.212 842.386 481.168 841.858 480.448C841.33 479.704 840.418 479.332 839.122 479.332C837.826 479.332 836.782 479.704 835.99 480.448C835.222 481.192 834.73 482.248 834.514 483.616L834.406 484.372L842.542 484.3L842.146 484.66ZM850.628 496L853.76 476.2H858.008L857.396 479.98H858.512L856.82 482.284C857.156 480.148 857.888 478.54 859.016 477.46C860.168 476.38 861.68 475.84 863.552 475.84C865.688 475.84 867.26 476.5 868.268 477.82C869.276 479.14 869.6 480.964 869.24 483.292L868.988 484.732H864.272L864.488 483.616C864.68 482.344 864.5 481.36 863.948 480.664C863.42 479.968 862.58 479.62 861.428 479.62C860.252 479.62 859.28 479.968 858.512 480.664C857.768 481.36 857.3 482.344 857.108 483.616L855.128 496H850.628ZM898.732 496.36C896.572 496.36 894.976 495.76 893.944 494.56C892.936 493.36 892.612 491.704 892.972 489.592L893.512 486.244C893.752 484.636 894.352 483.316 895.312 482.284C896.296 481.252 897.544 480.616 899.056 480.376L898.444 481.348C897.868 480.316 897.46 479.308 897.22 478.324C896.98 477.34 896.932 476.368 897.076 475.408C897.292 474.208 897.748 473.164 898.444 472.276C899.164 471.364 900.076 470.656 901.18 470.152C902.308 469.624 903.568 469.36 904.96 469.36C906.4 469.36 907.612 469.636 908.596 470.188C909.58 470.74 910.288 471.508 910.72 472.492C911.152 473.452 911.26 474.592 911.044 475.912H906.868C906.964 475.336 906.916 474.832 906.724 474.4C906.556 473.968 906.268 473.644 905.86 473.428C905.476 473.188 904.984 473.068 904.384 473.068C903.808 473.068 903.292 473.176 902.836 473.392C902.38 473.608 901.996 473.92 901.684 474.328C901.396 474.736 901.204 475.216 901.108 475.768C901.012 476.344 901.06 476.98 901.252 477.676C901.468 478.372 901.768 479.08 902.152 479.8L906.04 486.82L908.596 483.04H912.952L907.948 490.348L911.08 496H906.58L905.284 493.624C903.316 495.448 901.132 496.36 898.732 496.36ZM899.704 492.652C900.376 492.652 901.048 492.46 901.72 492.076C902.392 491.692 902.992 491.164 903.52 490.492L899.704 483.58C899.2 483.772 898.78 484.096 898.444 484.552C898.108 484.984 897.892 485.548 897.796 486.244L897.256 489.592C897.088 490.552 897.22 491.308 897.652 491.86C898.108 492.388 898.792 492.652 899.704 492.652ZM936.288 496L940.464 469.72H948.276C950.052 469.72 951.54 470.056 952.74 470.728C953.94 471.4 954.804 472.348 955.332 473.572C955.86 474.796 955.992 476.248 955.728 477.928L954.18 487.756C953.916 489.412 953.316 490.864 952.38 492.112C951.468 493.336 950.304 494.296 948.888 494.992C947.472 495.664 945.876 496 944.1 496H936.288ZM941.436 491.86H944.748C946.068 491.86 947.16 491.5 948.024 490.78C948.912 490.036 949.452 489.028 949.644 487.756L951.228 477.928C951.42 476.68 951.192 475.696 950.544 474.976C949.896 474.232 948.912 473.86 947.592 473.86H944.28L941.436 491.86ZM965.938 496.36C964.258 496.36 962.854 496.036 961.726 495.388C960.598 494.74 959.782 493.84 959.278 492.688C958.798 491.512 958.678 490.144 958.918 488.584L959.71 483.616C959.974 482.056 960.538 480.7 961.402 479.548C962.266 478.372 963.358 477.46 964.678 476.812C966.022 476.164 967.534 475.84 969.214 475.84C970.87 475.84 972.262 476.164 973.39 476.812C974.518 477.46 975.322 478.372 975.802 479.548C976.306 480.7 976.426 482.056 976.162 483.616L975.586 487.18H963.49L963.238 488.584C963.046 489.976 963.214 491.032 963.742 491.752C964.294 492.448 965.23 492.796 966.55 492.796C967.558 492.796 968.386 492.628 969.034 492.292C969.706 491.932 970.174 491.416 970.438 490.744H974.902C974.494 491.872 973.846 492.856 972.958 493.696C972.094 494.536 971.062 495.196 969.862 495.676C968.662 496.132 967.354 496.36 965.938 496.36ZM971.662 484.66L971.842 483.58C972.058 482.212 971.902 481.168 971.374 480.448C970.846 479.704 969.934 479.332 968.638 479.332C967.342 479.332 966.298 479.704 965.506 480.448C964.738 481.192 964.246 482.248 964.03 483.616L963.922 484.372L972.058 484.3L971.662 484.66ZM986.66 496.36C984.38 496.36 982.64 495.832 981.44 494.776C980.24 493.72 979.736 492.328 979.928 490.6H984.428C984.38 491.224 984.608 491.728 985.112 492.112C985.64 492.496 986.36 492.688 987.272 492.688H988.82C989.924 492.688 990.788 492.472 991.412 492.04C992.06 491.608 992.432 491.02 992.528 490.276C992.648 489.58 992.492 489.028 992.06 488.62C991.652 488.188 990.944 487.9 989.936 487.756L987.56 487.396C985.352 487.084 983.78 486.508 982.844 485.668C981.932 484.804 981.608 483.484 981.872 481.708C982.16 479.86 983.012 478.42 984.428 477.388C985.844 476.356 987.764 475.84 990.188 475.84H991.556C993.764 475.84 995.444 476.344 996.596 477.352C997.748 478.336 998.24 479.656 998.072 481.312H993.572C993.596 480.784 993.38 480.352 992.924 480.016C992.468 479.68 991.808 479.512 990.944 479.512H989.576C988.544 479.512 987.764 479.704 987.236 480.088C986.708 480.448 986.384 480.988 986.264 481.708C986.168 482.38 986.288 482.896 986.624 483.256C986.96 483.616 987.584 483.868 988.496 484.012L990.98 484.372C993.284 484.684 994.928 485.296 995.912 486.208C996.896 487.096 997.244 488.44 996.956 490.24C996.644 492.16 995.744 493.66 994.256 494.74C992.792 495.82 990.788 496.36 988.244 496.36H986.66ZM1001.01 496L1001.66 491.896H1008.57L1010.44 480.268H1004.39L1005.04 476.2H1015.34L1012.89 491.896H1019.01L1018.36 496H1001.01ZM1013.47 472.888C1012.55 472.888 1011.87 472.66 1011.41 472.204C1010.96 471.724 1010.79 471.088 1010.91 470.296C1011.05 469.504 1011.43 468.88 1012.03 468.424C1012.63 467.944 1013.38 467.704 1014.29 467.704C1015.18 467.704 1015.85 467.944 1016.31 468.424C1016.79 468.88 1016.96 469.504 1016.81 470.296C1016.69 471.088 1016.33 471.724 1015.73 472.204C1015.13 472.66 1014.38 472.888 1013.47 472.888ZM1024.36 502.48L1024.97 498.736H1030.84C1031.85 498.736 1032.64 498.484 1033.22 497.98C1033.82 497.5 1034.2 496.804 1034.37 495.892L1034.58 494.416L1035.27 490.708H1034.26L1035.41 489.736C1035.12 491.344 1034.44 492.604 1033.36 493.516C1032.28 494.404 1030.94 494.848 1029.33 494.848C1027.31 494.848 1025.81 494.164 1024.83 492.796C1023.84 491.428 1023.54 489.58 1023.93 487.252L1024.54 483.4C1024.78 481.864 1025.26 480.532 1025.98 479.404C1026.7 478.276 1027.6 477.4 1028.68 476.776C1029.78 476.152 1031 475.84 1032.32 475.84C1033.95 475.84 1035.16 476.296 1035.95 477.208C1036.77 478.096 1037.04 479.344 1036.78 480.952L1035.92 479.98H1036.92L1037.43 476.2H1041.93L1038.8 496C1038.46 497.992 1037.54 499.564 1036.02 500.716C1034.54 501.892 1032.64 502.48 1030.34 502.48H1024.36ZM1031.45 490.96C1032.6 490.96 1033.55 490.624 1034.3 489.952C1035.04 489.256 1035.52 488.296 1035.74 487.072L1036.24 483.616C1036.46 482.392 1036.29 481.444 1035.74 480.772C1035.21 480.076 1034.38 479.728 1033.25 479.728C1032.08 479.728 1031.13 480.064 1030.41 480.736C1029.69 481.408 1029.22 482.368 1029 483.616L1028.46 487.072C1028.27 488.32 1028.43 489.28 1028.93 489.952C1029.46 490.624 1030.3 490.96 1031.45 490.96ZM1044.29 496L1047.42 476.2H1051.81L1051.2 479.98H1052.43L1051.06 481.024C1051.32 479.392 1051.99 478.12 1053.07 477.208C1054.18 476.296 1055.56 475.84 1057.21 475.84C1059.16 475.84 1060.61 476.488 1061.57 477.784C1062.53 479.08 1062.83 480.82 1062.47 483.004L1060.42 496H1055.92L1057.9 483.472C1058.09 482.272 1057.92 481.348 1057.39 480.7C1056.87 480.052 1056.05 479.728 1054.95 479.728C1053.82 479.728 1052.88 480.064 1052.14 480.736C1051.42 481.408 1050.95 482.368 1050.73 483.616L1048.79 496H1044.29ZM1073.87 496.36C1072.19 496.36 1070.78 496.036 1069.66 495.388C1068.53 494.74 1067.71 493.84 1067.21 492.688C1066.73 491.512 1066.61 490.144 1066.85 488.584L1067.64 483.616C1067.9 482.056 1068.47 480.7 1069.33 479.548C1070.2 478.372 1071.29 477.46 1072.61 476.812C1073.95 476.164 1075.46 475.84 1077.14 475.84C1078.8 475.84 1080.19 476.164 1081.32 476.812C1082.45 477.46 1083.25 478.372 1083.73 479.548C1084.24 480.7 1084.36 482.056 1084.09 483.616L1083.52 487.18H1071.42L1071.17 488.584C1070.98 489.976 1071.14 491.032 1071.67 491.752C1072.22 492.448 1073.16 492.796 1074.48 492.796C1075.49 492.796 1076.32 492.628 1076.96 492.292C1077.64 491.932 1078.1 491.416 1078.37 490.744H1082.83C1082.42 491.872 1081.78 492.856 1080.89 493.696C1080.02 494.536 1078.99 495.196 1077.79 495.676C1076.59 496.132 1075.28 496.36 1073.87 496.36ZM1079.59 484.66L1079.77 483.58C1079.99 482.212 1079.83 481.168 1079.3 480.448C1078.78 479.704 1077.86 479.332 1076.57 479.332C1075.27 479.332 1074.23 479.704 1073.44 480.448C1072.67 481.192 1072.18 482.248 1071.96 483.616L1071.85 484.372L1079.99 484.3L1079.59 484.66ZM1088.07 496L1091.21 476.2H1095.45L1094.84 479.98H1095.96L1094.27 482.284C1094.6 480.148 1095.33 478.54 1096.46 477.46C1097.61 476.38 1099.13 475.84 1101 475.84C1103.13 475.84 1104.71 476.5 1105.71 477.82C1106.72 479.14 1107.05 480.964 1106.69 483.292L1106.43 484.732H1101.72L1101.93 483.616C1102.13 482.344 1101.95 481.36 1101.39 480.664C1100.87 479.968 1100.03 479.62 1098.87 479.62C1097.7 479.62 1096.73 479.968 1095.96 480.664C1095.21 481.36 1094.75 482.344 1094.55 483.616L1092.57 496H1088.07Z" fill="#6D478B"/>
<path d="M844.751 532L847.071 517.4H849.571L848.311 525.32H849.911L853.271 521H856.131L851.951 526.42L854.451 532H851.691L849.711 527.44H847.971L847.251 532H844.751ZM856.623 532L856.983 529.72H860.823L861.863 523.26H858.503L858.863 521H864.583L863.223 529.72H866.623L866.263 532H856.623ZM863.543 519.16C863.037 519.16 862.657 519.033 862.403 518.78C862.15 518.513 862.057 518.16 862.123 517.72C862.203 517.28 862.41 516.933 862.743 516.68C863.077 516.413 863.497 516.28 864.003 516.28C864.497 516.28 864.87 516.413 865.123 516.68C865.39 516.933 865.483 517.28 865.403 517.72C865.337 518.16 865.137 518.513 864.803 518.78C864.47 519.033 864.05 519.16 863.543 519.16ZM868.676 532L870.416 521H872.856L872.516 523.1H873.196L872.436 523.68C872.582 522.773 872.956 522.067 873.556 521.56C874.169 521.053 874.936 520.8 875.856 520.8C876.936 520.8 877.742 521.16 878.276 521.88C878.809 522.6 878.976 523.567 878.776 524.78L877.636 532H875.136L876.236 525.04C876.342 524.373 876.249 523.86 875.956 523.5C875.662 523.14 875.209 522.96 874.596 522.96C873.969 522.96 873.449 523.147 873.036 523.52C872.636 523.893 872.376 524.427 872.256 525.12L871.176 532H868.676ZM884.168 532.2C883.061 532.2 882.241 531.82 881.708 531.06C881.174 530.3 881.008 529.28 881.208 528L881.668 525.02C881.801 524.153 882.068 523.407 882.468 522.78C882.881 522.153 883.388 521.667 883.988 521.32C884.588 520.973 885.254 520.8 885.988 520.8C886.894 520.8 887.568 521.06 888.008 521.58C888.461 522.087 888.614 522.787 888.468 523.68L888.008 523.1H888.568L888.928 520.48L889.428 517.4H891.928L889.608 532H887.148L887.488 529.9H886.948L887.588 529.32C887.441 530.213 887.061 530.92 886.448 531.44C885.834 531.947 885.074 532.2 884.168 532.2ZM885.408 530.04C886.034 530.04 886.554 529.853 886.968 529.48C887.381 529.093 887.641 528.56 887.748 527.88L888.188 525.12C888.308 524.44 888.214 523.913 887.908 523.54C887.601 523.153 887.134 522.96 886.508 522.96C885.868 522.96 885.341 523.147 884.928 523.52C884.528 523.893 884.274 524.427 884.168 525.12L883.728 527.88C883.608 528.573 883.694 529.107 883.988 529.48C884.281 529.853 884.754 530.04 885.408 530.04ZM896.16 532.2C895.053 532.2 894.227 531.82 893.68 531.06C893.147 530.3 892.987 529.28 893.2 528L893.66 525.02C893.807 524.153 894.08 523.407 894.48 522.78C894.88 522.153 895.38 521.667 895.98 521.32C896.58 520.973 897.247 520.8 897.98 520.8C898.887 520.8 899.56 521.06 900 521.58C900.453 522.087 900.607 522.787 900.46 523.68L900 523.1H900.56L900.84 521H903.34L901.6 532H899.14L899.48 529.9H898.94L899.58 529.32C899.433 530.213 899.053 530.92 898.44 531.44C897.827 531.947 897.067 532.2 896.16 532.2ZM897.4 530.04C898.027 530.04 898.547 529.853 898.96 529.48C899.373 529.093 899.633 528.56 899.74 527.88L900.18 525.12C900.3 524.44 900.207 523.913 899.9 523.54C899.593 523.153 899.127 522.96 898.5 522.96C897.86 522.96 897.333 523.147 896.92 523.52C896.52 523.893 896.267 524.427 896.16 525.12L895.72 527.88C895.6 528.573 895.687 529.107 895.98 529.48C896.273 529.853 896.747 530.04 897.4 530.04ZM910.837 532.2C910.263 532.2 909.837 532.033 909.557 531.7C909.277 531.367 909.177 530.913 909.257 530.34C909.35 529.767 909.597 529.313 909.997 528.98C910.383 528.633 910.863 528.46 911.437 528.46C912.01 528.46 912.437 528.633 912.717 528.98C912.997 529.313 913.09 529.767 912.997 530.34C912.917 530.913 912.683 531.367 912.297 531.7C911.897 532.033 911.41 532.2 910.837 532.2ZM921.057 532.2C920.483 532.2 920.057 532.033 919.777 531.7C919.497 531.367 919.397 530.913 919.477 530.34C919.57 529.767 919.817 529.313 920.217 528.98C920.603 528.633 921.083 528.46 921.657 528.46C922.23 528.46 922.657 528.633 922.937 528.98C923.217 529.313 923.31 529.767 923.217 530.34C923.137 530.913 922.903 531.367 922.517 531.7C922.117 532.033 921.63 532.2 921.057 532.2ZM931.297 532.2C930.723 532.2 930.297 532.033 930.017 531.7C929.737 531.367 929.637 530.913 929.717 530.34C929.81 529.767 930.05 529.313 930.437 528.98C930.837 528.633 931.323 528.46 931.897 528.46C932.47 528.46 932.897 528.633 933.177 528.98C933.457 529.313 933.55 529.767 933.457 530.34C933.377 530.913 933.137 531.367 932.737 531.7C932.35 532.033 931.87 532.2 931.297 532.2Z" fill="#6D478B" fill-opacity="0.5"/>
<defs>
<filter id="filter0_d_909_365" x="1208.9" y="349.531" width="206.483" height="218.887" filterUnits="userSpaceOnUse" color-interpolation-filters="sRGB">
<feFlood flood-opacity="0" result="BackgroundImageFix"/>
<feColorMatrix in="SourceAlpha" type="matrix" values="0 0 0 0 0 0 0 0 0 0 0 0 0 0 0 0 0 0 127 0" result="hardAlpha"/>
<feOffset/>
<feGaussianBlur stdDeviation="21.8109"/>
<feComposite in2="hardAlpha" operator="out"/>
<feColorMatrix type="matrix" values="0 0 0 0 0 0 0 0 0 0 0 0 0 0 0 0 0 0 0.25 0"/>
<feBlend mode="normal" in2="BackgroundImageFix" result="effect1_dropShadow_909_365"/>
<feBlend mode="normal" in="SourceGraphic" in2="effect1_dropShadow_909_365" result="shape"/>
</filter>
</defs>
</svg>
