<svg width="2684" height="1204" viewBox="0 0 2684 1204" fill="none" xmlns="http://www.w3.org/2000/svg">
<g clip-path="url(#clip0_560_184)">
<g opacity="0.5" filter="url(#filter0_f_560_184)">
<rect x="64" y="64" width="2560" height="1080" rx="20.1562" fill="white"/>
<rect x="64" y="64" width="2560" height="1080" rx="20.1562" fill="#121212"/>
<rect x="64" y="64" width="2560" height="1080" rx="20.1562" fill="url(#paint0_radial_560_184)"/>
<rect x="64" y="64" width="2560" height="1080" rx="20.1562" fill="url(#paint1_radial_560_184)"/>
<rect x="64" y="64" width="2560" height="1080" rx="20.1562" fill="url(#paint2_radial_560_184)" fill-opacity="0.15"/>
</g>
<rect x="65" y="65" width="2558" height="1078" rx="19" fill="white"/>
<rect x="65" y="65" width="2558" height="1078" rx="19" fill="#121212"/>
<rect x="65" y="65" width="2558" height="1078" rx="19" fill="url(#paint3_radial_560_184)"/>
<rect x="65" y="65" width="2558" height="1078" rx="19" fill="url(#paint4_radial_560_184)"/>
<rect x="65" y="65" width="2558" height="1078" rx="19" fill="url(#paint5_radial_560_184)" fill-opacity="0.15"/>
<path fill-rule="evenodd" clip-rule="evenodd" d="M679.947 732C662.429 732 647.144 727.646 634.093 718.939C621.042 710.231 610.93 698.389 603.758 683.412C596.586 668.435 593 651.543 593 632.735C593 613.694 596.586 596.744 603.758 581.883C611.048 566.906 621.336 555.122 634.622 546.531C647.908 537.823 663.546 533.469 681.535 533.469C699.641 533.469 714.809 537.823 727.037 546.531C727.692 546.987 728.338 547.451 728.977 547.925V497.787C728.977 485.754 738.847 476 751.022 476H763.327C768.025 476 771.833 479.758 771.833 484.393V723.607C771.833 728.242 768.025 732 763.327 732H742.774C738.076 732 734.268 728.242 734.268 723.607V712.976C731.88 715.105 729.352 717.092 726.684 718.939C714.103 727.646 698.524 732 679.947 732ZM729.329 664.952C732.621 655.664 734.268 644.925 734.268 632.735C734.268 620.428 732.621 609.689 729.329 600.517C726.155 591.229 721.158 584.031 714.338 578.922C707.519 573.698 698.701 571.086 687.884 571.086C676.479 571.086 667.073 573.872 659.666 579.445C652.258 584.902 646.791 592.332 643.264 601.736C639.736 611.024 637.973 621.357 637.973 632.735C637.973 644.229 639.678 654.678 643.087 664.082C646.615 673.37 651.964 680.742 659.136 686.199C666.309 691.655 675.421 694.384 686.473 694.384C697.878 694.384 707.049 691.83 713.986 686.721C721.04 681.497 726.155 674.24 729.329 664.952Z" fill="white"/>
<path d="M1887.98 575.721V729.178H1930.36V575.721H2006.32V729.178H2048.7V575.721H2094.59V543.17H2048.7V531.286C2048.7 524.856 2050.63 519.689 2054.5 515.785C2058.48 511.766 2064.52 509.757 2072.61 509.757H2094.59V476H2070.85C2066.28 476 2060.95 476.172 2054.85 476.517C2048.75 476.746 2042.54 478.009 2036.21 480.306C2030 482.487 2024.2 486.506 2018.8 492.362C2014.47 496.955 2011.48 502.064 2009.84 507.69C2008.2 513.316 2007.2 519 2006.85 524.741C2006.5 530.367 2006.32 535.534 2006.32 540.242V543.17H1930.36V531.286C1930.36 524.856 1932.29 519.689 1936.16 515.785C1940.15 511.766 1946.19 509.757 1954.27 509.757H1976.25V476H1952.52C1947.94 476 1942.61 476.172 1936.51 476.517C1930.42 476.746 1924.21 478.009 1917.88 480.306C1911.66 482.487 1905.86 486.506 1900.47 492.362C1896.13 496.955 1893.14 502.064 1891.5 507.69C1889.86 513.316 1888.86 519 1888.51 524.741C1888.16 530.367 1887.98 535.534 1887.98 540.242V543.17H1857.39V575.721H1887.98Z" fill="white"/>
<path fill-rule="evenodd" clip-rule="evenodd" d="M879.274 732C860.284 732 843.698 727.809 829.514 719.427C815.33 711.045 804.311 699.506 796.457 684.809C788.72 669.997 784.852 653.004 784.852 633.829C784.852 614.31 788.838 597.201 796.809 582.504C804.78 567.807 815.857 556.325 830.041 548.058C844.225 539.791 860.636 535.658 879.274 535.658C898.382 535.658 915.027 539.849 929.211 548.231C943.395 556.612 954.414 568.209 962.268 583.021C970.121 597.718 974.048 614.654 974.048 633.829C974.048 653.119 970.063 670.169 962.092 684.981C954.238 699.678 943.219 711.218 929.035 719.599C914.851 727.867 898.264 732 879.274 732ZM879.274 693.076C896.154 693.076 908.697 687.565 916.903 676.542C925.108 665.519 929.211 651.282 929.211 633.829C929.211 615.802 925.05 601.45 916.727 590.771C908.404 579.978 895.92 574.582 879.274 574.582C867.904 574.582 858.526 577.108 851.141 582.16C843.873 587.097 838.481 594.044 834.964 603C831.448 611.841 829.689 622.117 829.689 633.829C829.689 651.856 833.851 666.266 842.174 677.059C850.614 687.737 862.981 693.076 879.274 693.076Z" fill="white"/>
<path fill-rule="evenodd" clip-rule="evenodd" d="M1133.74 717.128C1117.17 726.746 1100.52 731.679 1083.81 731.924C1067.09 732.17 1051.48 728.111 1036.97 719.747C1022.56 711.324 1010.52 698.997 1000.84 682.767C990.401 665.25 984.779 648.065 983.979 631.212C983.12 614.259 986.679 598.672 994.656 584.45C1002.63 570.228 1014.65 558.455 1030.72 549.129C1047.69 539.277 1064.42 534.828 1080.9 535.785C1097.43 536.584 1112.79 542.387 1126.98 553.197C1141.18 564.006 1153.3 579.42 1163.33 599.441L1044.86 668.207C1052.95 679.007 1061.94 686.246 1071.82 689.925C1084.41 694.609 1097.67 692.904 1111.61 684.811C1120.6 679.591 1127.18 673.175 1131.35 665.561C1135.56 657.791 1137.21 649.168 1136.33 639.693L1178.77 629.444C1181.12 647.529 1178.12 664.391 1169.76 680.032C1161.51 695.614 1149.5 707.979 1133.74 717.128ZM1087.18 574.706C1094.95 577.859 1102.61 584.271 1110.15 593.942L1029.65 640.671C1025.8 630.444 1024.49 621.082 1025.71 612.583C1027.56 599.256 1035.96 588.252 1050.91 579.572C1064.14 571.889 1076.23 570.267 1087.18 574.706Z" fill="white"/>
<path d="M1205.25 716.499C1219.9 726.833 1238.95 732 1262.39 732C1286.89 732 1306.06 726.661 1319.89 715.983C1333.84 705.304 1340.81 690.607 1340.81 671.892C1340.81 662.247 1338.76 654.037 1334.66 647.263C1330.67 640.489 1324.11 634.69 1314.97 629.868C1305.94 624.93 1293.87 620.567 1278.74 616.778C1263.97 613.104 1252.84 610.004 1245.34 607.478C1237.95 604.952 1233.03 602.426 1230.57 599.9C1228.1 597.374 1226.87 594.331 1226.87 590.771C1226.87 584.456 1229.92 579.576 1236.02 576.132C1242.11 572.572 1250.14 571.08 1260.11 571.654C1270.54 572.228 1278.86 574.811 1285.07 579.404C1291.4 583.997 1295.1 590.255 1296.15 598.177L1339.41 590.599C1337.77 579.462 1333.43 569.759 1326.39 561.492C1319.36 553.225 1310.1 546.853 1298.61 542.375C1287.24 537.897 1274.17 535.658 1259.4 535.658C1244.28 535.658 1231.15 538.012 1220.02 542.719C1208.88 547.312 1200.21 553.914 1193.99 562.526C1187.78 571.137 1184.67 581.241 1184.67 592.838C1184.67 602.139 1186.72 610.061 1190.83 616.606C1194.93 623.151 1201.67 628.834 1211.05 633.657C1220.43 638.364 1233.09 642.785 1249.03 646.918C1263.33 650.593 1273.94 653.635 1280.85 656.047C1287.77 658.458 1292.22 660.984 1294.22 663.625C1296.33 666.151 1297.38 669.538 1297.38 673.786C1297.38 680.675 1294.57 686.129 1288.94 690.148C1283.43 694.052 1275.58 696.004 1265.38 696.004C1253.78 696.004 1244.16 693.363 1236.54 688.081C1228.92 682.8 1224 675.566 1221.77 666.38L1178.52 672.925C1181.68 691.641 1190.59 706.166 1205.25 716.499Z" fill="white"/>
<path d="M1707.87 722.744C1717.02 727.279 1728.62 729.546 1742.69 729.546C1760.51 729.546 1775.51 725.805 1787.7 718.323C1794.25 714.244 1799.93 709.429 1804.76 703.878V729.541H1842.21V540.629H1799.66V635.003C1799.66 646.112 1798.37 655.294 1795.79 662.549C1793.21 669.804 1789.75 675.529 1785.42 679.724C1781.2 683.805 1776.45 686.695 1771.17 688.396C1765.9 690.096 1760.56 690.946 1755.17 690.946C1745.09 690.946 1737.06 688.849 1731.08 684.655C1725.22 680.46 1720.77 675.132 1717.72 668.671C1714.79 662.096 1712.91 655.294 1712.09 648.266C1711.27 641.124 1710.86 634.719 1710.86 629.051V540.629H1667.96V643.165C1667.96 647.586 1668.31 653.367 1669.01 660.509C1669.83 667.537 1671.53 675.019 1674.11 682.954C1676.69 690.89 1680.68 698.371 1686.07 705.4C1691.46 712.428 1698.73 718.21 1707.87 722.744Z" fill="white"/>
<path d="M1618.91 731.52C1628.74 731.8 1638.72 731.206 1648.86 729.737C1652.91 729.149 1655.83 725.658 1655.83 721.613V703.523C1655.83 698.4 1651.22 694.496 1646.05 694.964C1638.1 695.683 1630.81 695.755 1624.18 695.179C1614.92 694.376 1608.18 690.529 1603.96 683.64C1601.74 680.08 1600.5 675.488 1600.27 669.861C1600.15 664.235 1600.09 657.691 1600.09 650.227V575.135H1655.83V542.583H1600.09V499.308C1600.09 494.672 1596.29 490.914 1591.59 490.914H1578.05C1566.92 490.914 1557.89 499.818 1557.89 510.8V542.583H1523.43V575.135H1557.89V652.638C1557.89 663.202 1558.01 672.675 1558.25 681.056C1558.48 689.438 1560.77 697.648 1565.1 705.685C1570.03 714.526 1577.24 721.014 1586.73 725.147C1596.23 729.166 1606.95 731.29 1618.91 731.52Z" fill="white"/>
<path d="M1380.53 716.499C1395.18 726.833 1414.23 732 1437.67 732C1462.17 732 1481.34 726.661 1495.17 715.983C1509.12 705.304 1516.1 690.607 1516.1 671.892C1516.1 662.247 1514.04 654.037 1509.94 647.263C1505.96 640.489 1499.39 634.69 1490.25 629.868C1481.22 624.93 1469.15 620.567 1454.03 616.778C1439.26 613.104 1428.12 610.004 1420.62 607.478C1413.23 604.952 1408.31 602.426 1405.85 599.9C1403.39 597.374 1402.16 594.331 1402.16 590.771C1402.16 584.456 1405.2 579.576 1411.3 576.132C1417.39 572.572 1425.42 571.08 1435.39 571.654C1445.82 572.228 1454.14 574.811 1460.36 579.404C1466.69 583.997 1470.38 590.255 1471.43 598.177L1514.69 590.599C1513.05 579.462 1508.71 569.759 1501.68 561.492C1494.64 553.225 1485.38 546.853 1473.9 542.375C1462.52 537.897 1449.45 535.658 1434.68 535.658C1419.56 535.658 1406.43 538.012 1395.3 542.719C1384.16 547.312 1375.49 553.914 1369.27 562.526C1363.06 571.137 1359.96 581.241 1359.96 592.838C1359.96 602.139 1362.01 610.061 1366.11 616.606C1370.21 623.151 1376.95 628.834 1386.33 633.657C1395.71 638.364 1408.37 642.785 1424.31 646.918C1438.61 650.593 1449.22 653.635 1456.14 656.047C1463.05 658.458 1467.51 660.984 1469.5 663.625C1471.61 666.151 1472.66 669.538 1472.66 673.786C1472.66 680.675 1469.85 686.129 1464.22 690.148C1458.71 694.052 1450.86 696.004 1440.66 696.004C1429.06 696.004 1419.45 693.363 1411.83 688.081C1404.21 682.8 1399.28 675.566 1397.06 666.38L1353.8 672.925C1356.97 691.641 1365.88 706.166 1380.53 716.499Z" fill="white"/>
<path d="M962.889 809.64C961.865 809.64 960.713 810.344 959.433 811.752C958.195 813.16 956.915 815.059 955.593 817.448C954.313 819.837 953.097 822.547 951.945 825.576C950.835 828.605 949.897 831.741 949.129 834.984L950.217 828.2C951.923 823.123 953.587 819.048 955.209 815.976C956.83 812.904 958.451 810.664 960.073 809.256C961.737 807.848 963.486 807.144 965.321 807.144C967.497 807.144 969.203 807.933 970.441 809.512C971.721 811.048 972.361 813.352 972.361 816.424C972.361 818.387 972.083 820.52 971.529 822.824C971.017 825.085 970.227 827.347 969.161 829.608C968.094 831.827 966.771 833.875 965.193 835.752C963.657 837.629 961.886 839.123 959.881 840.232C957.875 841.341 955.657 841.896 953.225 841.896C951.987 841.896 950.857 841.555 949.833 840.872C948.851 840.189 948.169 839.229 947.785 837.992L948.297 836.776C948.851 838.056 949.47 838.973 950.153 839.528C950.835 840.04 951.646 840.296 952.585 840.296C953.993 840.296 955.337 839.741 956.617 838.632C957.897 837.523 959.07 836.051 960.137 834.216C961.246 832.339 962.206 830.269 963.017 828.008C963.827 825.747 964.446 823.485 964.873 821.224C965.342 818.92 965.577 816.787 965.577 814.824C965.577 813.032 965.342 811.731 964.873 810.92C964.403 810.067 963.742 809.64 962.889 809.64ZM948.553 837.736C947.401 838.291 946.206 838.952 944.969 839.72C943.774 840.445 942.601 841.213 941.449 842.024L940.489 841.576C940.787 840.979 941.043 840.381 941.257 839.784C941.427 839.144 941.577 838.504 941.705 837.864L953.033 798.312C953.417 796.861 953.353 795.795 952.841 795.112C952.371 794.429 951.091 794.088 949.001 794.088L949.385 792.744C951.945 792.701 954.206 792.467 956.169 792.04C958.174 791.571 960.051 790.931 961.801 790.12L948.553 837.736ZM1016.56 837.992L1011.44 843.688L1006.45 813.608C1006.23 812.328 1006 811.453 1005.74 810.984C1005.49 810.472 1005.08 810.216 1004.53 810.216C1004.1 810.216 1003.61 810.579 1003.05 811.304C1002.5 811.987 1001.82 813.459 1001.01 815.72L1000.11 818.344H998.894L1000.49 813.672C1001.39 811.069 1002.5 809.341 1003.82 808.488C1005.14 807.592 1006.53 807.144 1007.98 807.144C1009.48 807.144 1010.63 807.592 1011.44 808.488C1012.29 809.341 1012.89 810.963 1013.23 813.352L1016.56 837.992ZM1002.09 849.96C1004.01 848.979 1006.02 847.635 1008.11 845.928C1010.2 844.264 1012.36 842.003 1014.57 839.144C1017.05 836.029 1019.27 832.573 1021.23 828.776C1023.19 824.979 1024.6 821.203 1025.45 817.448C1024.64 816.979 1023.81 816.424 1022.96 815.784C1022.15 815.101 1021.46 814.333 1020.91 813.48C1020.4 812.627 1020.16 811.667 1020.21 810.6C1020.29 809.491 1020.65 808.637 1021.29 808.04C1021.93 807.443 1022.79 807.144 1023.85 807.144C1025.09 807.144 1025.99 807.613 1026.54 808.552C1027.14 809.448 1027.44 810.771 1027.44 812.52C1027.44 814.653 1027.08 816.957 1026.35 819.432C1025.67 821.864 1024.71 824.36 1023.47 826.92C1022.28 829.48 1020.93 831.955 1019.44 834.344C1017.94 836.691 1016.41 838.845 1014.83 840.808C1013.93 841.917 1012.8 843.133 1011.44 844.456C1010.12 845.821 1008.6 847.144 1006.89 848.424C1005.23 849.704 1003.37 850.771 1001.33 851.624C1000.17 852.136 999.15 852.499 998.254 852.712C997.4 852.925 996.696 853.032 996.142 853.032C995.118 853.032 994.264 852.776 993.582 852.264C992.856 851.752 992.494 851.027 992.494 850.088C992.494 849.107 992.878 848.317 993.646 847.72C994.371 847.123 995.246 846.824 996.27 846.824C997.379 846.824 998.403 847.123 999.342 847.72C1000.32 848.36 1001.24 849.107 1002.09 849.96ZM1140.16 795.88H1143.88C1145.54 795.88 1147.14 795.859 1148.68 795.816C1150.21 795.773 1151.53 795.731 1152.64 795.688L1152.32 796.968C1150.87 797.011 1149.74 797.181 1148.93 797.48C1148.12 797.736 1147.48 798.248 1147.01 799.016C1146.59 799.741 1146.16 800.893 1145.73 802.472L1137.28 834.216C1136.9 835.752 1136.73 836.904 1136.77 837.672C1136.86 838.44 1137.24 838.952 1137.92 839.208C1138.61 839.464 1139.65 839.635 1141.06 839.72L1140.8 841C1139.69 840.915 1138.37 840.872 1136.84 840.872C1135.34 840.829 1133.76 840.808 1132.1 840.808C1130.31 840.808 1128.6 840.829 1126.98 840.872C1125.4 840.872 1124.12 840.915 1123.14 841L1123.4 839.72C1124.89 839.635 1126.02 839.464 1126.79 839.208C1127.6 838.952 1128.24 838.44 1128.71 837.672C1129.18 836.904 1129.6 835.752 1129.99 834.216L1139.27 799.72L1112.71 841.32H1111.3L1106.69 800.168L1097.92 833.32C1097.58 834.771 1097.41 835.965 1097.41 836.904C1097.45 837.843 1097.86 838.525 1098.63 838.952C1099.44 839.379 1100.7 839.635 1102.4 839.72L1102.08 841C1101.61 840.957 1100.97 840.936 1100.16 840.936C1099.4 840.893 1098.59 840.872 1097.73 840.872C1096.92 840.829 1096.15 840.808 1095.43 840.808C1094.32 840.808 1093.21 840.829 1092.1 840.872C1090.99 840.872 1090.07 840.915 1089.35 841L1089.67 839.72C1091.16 839.635 1092.31 839.379 1093.12 838.952C1093.98 838.525 1094.66 837.843 1095.17 836.904C1095.68 835.965 1096.11 834.771 1096.45 833.32L1104.71 802.472C1105.13 800.893 1105.31 799.741 1105.22 799.016C1105.13 798.248 1104.75 797.736 1104.07 797.48C1103.43 797.181 1102.38 797.011 1100.93 796.968L1101.25 795.688C1102.06 795.731 1103.04 795.773 1104.2 795.816C1105.39 795.859 1106.65 795.88 1107.97 795.88C1109 795.88 1110.02 795.859 1111.04 795.816C1112.07 795.773 1112.94 795.731 1113.67 795.688L1117.25 831.912L1140.16 795.88ZM1190.3 808.424C1189.06 808.424 1187.84 808.979 1186.65 810.088C1185.45 811.197 1184.32 812.712 1183.26 814.632C1182.23 816.509 1181.31 818.621 1180.5 820.968C1179.69 823.315 1179.05 825.747 1178.58 828.264C1178.16 830.781 1177.94 833.171 1177.94 835.432C1177.94 837.224 1178.2 838.547 1178.71 839.4C1179.27 840.211 1180.06 840.616 1181.08 840.616C1182.32 840.616 1183.53 840.061 1184.73 838.952C1185.92 837.843 1187.05 836.349 1188.12 834.472C1189.19 832.595 1190.1 830.504 1190.87 828.2C1191.68 825.853 1192.3 823.421 1192.73 820.904C1193.2 818.387 1193.43 815.955 1193.43 813.608C1193.43 811.731 1193.18 810.408 1192.66 809.64C1192.15 808.829 1191.36 808.424 1190.3 808.424ZM1171.42 831.656C1171.42 829.779 1171.67 827.731 1172.18 825.512C1172.7 823.293 1173.49 821.096 1174.55 818.92C1175.62 816.744 1176.9 814.781 1178.39 813.032C1179.93 811.24 1181.72 809.811 1183.77 808.744C1185.86 807.677 1188.16 807.144 1190.68 807.144C1193.54 807.144 1195.8 807.997 1197.46 809.704C1199.13 811.368 1199.96 813.928 1199.96 817.384C1199.96 819.261 1199.7 821.309 1199.19 823.528C1198.68 825.747 1197.89 827.944 1196.82 830.12C1195.76 832.296 1194.46 834.28 1192.92 836.072C1191.43 837.821 1189.63 839.229 1187.54 840.296C1185.5 841.363 1183.21 841.896 1180.7 841.896C1177.84 841.896 1175.58 841.043 1173.91 839.336C1172.25 837.629 1171.42 835.069 1171.42 831.656ZM1234.26 841H1227.54L1235.22 813.48C1235.6 812.115 1235.73 811.155 1235.6 810.6C1235.48 810.045 1235.07 809.768 1234.39 809.768C1233.54 809.768 1232.75 810.216 1232.02 811.112C1231.3 812.008 1230.53 813.565 1229.72 815.784L1228.76 818.472H1227.54L1229.14 813.736C1229.78 811.987 1230.55 810.643 1231.44 809.704C1232.34 808.765 1233.28 808.104 1234.26 807.72C1235.28 807.336 1236.29 807.144 1237.27 807.144C1238.59 807.144 1239.55 807.421 1240.15 807.976C1240.75 808.531 1241.11 809.256 1241.24 810.152C1241.36 811.048 1241.34 812.029 1241.17 813.096C1241.04 814.12 1240.85 815.123 1240.6 816.104L1234.26 841ZM1250.64 808.68C1249.71 808.68 1248.72 809.085 1247.7 809.896C1246.68 810.664 1245.63 811.837 1244.56 813.416C1243.5 814.995 1242.41 816.979 1241.3 819.368C1240.23 821.757 1239.15 824.552 1238.04 827.752C1236.97 830.909 1235.9 834.493 1234.84 838.504L1236.37 830.184C1237.74 825.832 1239.02 822.184 1240.21 819.24C1241.41 816.296 1242.58 813.949 1243.73 812.2C1244.93 810.408 1246.14 809.128 1247.38 808.36C1248.66 807.549 1250.03 807.144 1251.48 807.144C1252.84 807.144 1253.89 807.549 1254.61 808.36C1255.38 809.128 1255.76 810.109 1255.76 811.304C1255.76 812.285 1255.53 813.181 1255.06 813.992C1254.59 814.76 1253.97 815.4 1253.2 815.912C1252.48 816.381 1251.65 816.616 1250.71 816.616C1249.81 816.616 1249.09 816.381 1248.53 815.912C1247.98 815.4 1247.7 814.696 1247.7 813.8C1247.7 812.989 1247.87 812.264 1248.21 811.624C1248.55 810.984 1249 810.429 1249.56 809.96C1250.11 809.491 1250.73 809.149 1251.41 808.936C1251.33 808.851 1251.22 808.787 1251.09 808.744C1250.96 808.701 1250.82 808.68 1250.64 808.68ZM1291.31 826.6L1293.36 826.536C1291.78 827.347 1290.35 828.093 1289.07 828.776C1287.79 829.416 1286.77 830.035 1286 830.632C1285.23 831.187 1284.85 831.72 1284.85 832.232C1284.85 832.659 1285.12 833.043 1285.68 833.384C1286.28 833.683 1287.17 834.003 1288.37 834.344L1293.29 835.752C1294.62 836.093 1295.81 836.52 1296.88 837.032C1297.99 837.501 1298.86 838.12 1299.5 838.888C1300.19 839.613 1300.53 840.573 1300.53 841.768C1300.53 843.005 1300.12 844.285 1299.31 845.608C1298.5 846.973 1297.31 848.232 1295.73 849.384C1294.15 850.579 1292.19 851.539 1289.84 852.264C1287.49 853.032 1284.78 853.416 1281.71 853.416C1279.49 853.416 1277.59 853.203 1276.01 852.776C1274.39 852.392 1273.18 851.837 1272.37 851.112C1271.51 850.387 1271.09 849.533 1271.09 848.552C1271.09 847.827 1271.34 847.101 1271.85 846.376C1272.32 845.651 1273.01 844.968 1273.9 844.328C1274.76 843.731 1275.8 843.155 1277.04 842.6C1278.23 842.088 1279.56 841.683 1281.01 841.384L1281.39 842.344C1279.85 843.155 1278.79 844.029 1278.19 844.968C1277.59 845.949 1277.29 846.931 1277.29 847.912C1277.29 849.448 1277.85 850.557 1278.96 851.24C1280.07 851.965 1281.45 852.328 1283.12 852.328C1284.44 852.328 1285.81 852.115 1287.21 851.688C1288.67 851.261 1290.01 850.685 1291.25 849.96C1292.48 849.277 1293.47 848.467 1294.19 847.528C1294.92 846.632 1295.28 845.672 1295.28 844.648C1295.28 843.965 1295.04 843.496 1294.57 843.24C1294.11 842.984 1293.4 842.749 1292.46 842.536L1282.86 839.976C1281.84 839.72 1280.99 839.272 1280.3 838.632C1279.62 837.949 1279.28 837.075 1279.28 836.008C1279.28 835.069 1279.64 834.131 1280.37 833.192C1281.13 832.253 1282.39 831.272 1284.14 830.248C1285.89 829.181 1288.28 827.965 1291.31 826.6ZM1294.45 808.296C1293.25 808.296 1292.23 808.659 1291.37 809.384C1290.56 810.109 1289.86 811.048 1289.26 812.2C1288.71 813.352 1288.26 814.589 1287.92 815.912C1287.62 817.192 1287.41 818.408 1287.28 819.56C1287.15 820.712 1287.09 821.651 1287.09 822.376C1287.09 823.741 1287.34 824.723 1287.85 825.32C1288.41 825.875 1289.13 826.152 1290.03 826.152C1291.44 826.152 1292.59 825.683 1293.49 824.744C1294.43 823.805 1295.15 822.632 1295.66 821.224C1296.22 819.773 1296.6 818.301 1296.81 816.808C1297.03 815.315 1297.13 813.992 1297.13 812.84C1297.13 811.475 1296.96 810.387 1296.62 809.576C1296.28 808.723 1295.56 808.296 1294.45 808.296ZM1294.96 807.144C1297.56 807.144 1299.69 807.72 1301.36 808.872C1303.02 809.981 1303.85 811.816 1303.85 814.376C1303.85 816.424 1303.24 818.451 1302 820.456C1300.8 822.419 1299.12 824.061 1296.94 825.384C1294.77 826.664 1292.19 827.304 1289.2 827.304C1286.72 827.304 1284.65 826.749 1282.99 825.64C1281.33 824.488 1280.49 822.696 1280.49 820.264C1280.49 819.027 1280.75 817.661 1281.26 816.168C1281.82 814.632 1282.67 813.203 1283.82 811.88C1284.97 810.515 1286.47 809.384 1288.3 808.488C1290.14 807.592 1292.36 807.144 1294.96 807.144ZM1299.69 810.472L1298.48 810.024C1299.12 808.531 1300.14 807.229 1301.55 806.12C1303 805.011 1304.54 804.456 1306.16 804.456C1307.35 804.456 1308.29 804.797 1308.97 805.48C1309.66 806.12 1310 807.08 1310 808.36C1310 809.555 1309.7 810.451 1309.1 811.048C1308.51 811.645 1307.84 811.944 1307.12 811.944C1306.44 811.944 1305.77 811.709 1305.13 811.24C1304.54 810.771 1304.17 810.024 1304.05 809C1303.92 807.976 1304.2 806.696 1304.88 805.16L1305.58 805.352C1303.83 806.035 1302.57 806.76 1301.81 807.528C1301.04 808.253 1300.33 809.235 1299.69 810.472ZM1339.31 839.4C1340.25 839.4 1341.3 838.845 1342.45 837.736C1343.6 836.627 1344.77 835.112 1345.97 833.192C1347.16 831.229 1348.27 828.968 1349.3 826.408C1350.32 823.848 1351.17 821.117 1351.86 818.216L1350.7 825.192C1349.25 829.245 1347.76 832.509 1346.22 834.984C1344.73 837.416 1343.2 839.187 1341.62 840.296C1340.04 841.363 1338.42 841.896 1336.75 841.896C1334.62 841.896 1333.02 841.192 1331.95 839.784C1330.89 838.333 1330.35 836.435 1330.35 834.088C1330.35 831.955 1330.69 829.672 1331.38 827.24C1332.1 824.808 1333.08 822.397 1334.32 820.008C1335.6 817.619 1337.05 815.464 1338.67 813.544C1340.29 811.624 1342.04 810.088 1343.92 808.936C1345.8 807.741 1347.68 807.144 1349.55 807.144C1351 807.144 1352.11 807.827 1352.88 809.192C1353.69 810.515 1353.88 812.456 1353.46 815.016L1352.75 815.4C1353.05 813.395 1352.92 811.795 1352.37 810.6C1351.86 809.363 1351 808.744 1349.81 808.744C1348.78 808.744 1347.7 809.277 1346.54 810.344C1345.39 811.368 1344.26 812.797 1343.15 814.632C1342.09 816.424 1341.08 818.451 1340.14 820.712C1339.25 822.973 1338.54 825.32 1338.03 827.752C1337.52 830.141 1337.26 832.488 1337.26 834.792C1337.26 836.499 1337.44 837.693 1337.78 838.376C1338.16 839.059 1338.67 839.4 1339.31 839.4ZM1354.61 808.04C1355.89 807.997 1357.13 807.912 1358.32 807.784C1359.52 807.656 1360.62 807.443 1361.65 807.144L1353.52 835.496C1353.39 835.965 1353.26 836.499 1353.14 837.096C1353.05 837.651 1353.07 838.141 1353.2 838.568C1353.37 838.995 1353.78 839.208 1354.42 839.208C1355.18 839.208 1355.95 838.803 1356.72 837.992C1357.49 837.139 1358.26 835.539 1359.02 833.192L1359.92 830.568H1361.14L1359.54 835.24C1358.94 836.989 1358.21 838.333 1357.36 839.272C1356.51 840.211 1355.59 840.872 1354.61 841.256C1353.67 841.683 1352.75 841.896 1351.86 841.896C1349.98 841.896 1348.66 841.299 1347.89 840.104C1347.33 839.165 1347.14 838.035 1347.31 836.712C1347.53 835.347 1347.82 833.939 1348.21 832.488L1354.61 808.04ZM1396.15 841H1389.43L1397.11 813.48C1397.29 812.925 1397.41 812.371 1397.5 811.816C1397.63 811.219 1397.61 810.728 1397.43 810.344C1397.26 809.96 1396.86 809.768 1396.22 809.768C1395.37 809.768 1394.58 810.195 1393.85 811.048C1393.17 811.901 1392.42 813.48 1391.61 815.784L1390.65 818.472H1389.43L1391.03 813.736C1391.97 811.133 1393.13 809.384 1394.49 808.488C1395.9 807.592 1397.37 807.144 1398.91 807.144C1400.27 807.144 1401.27 807.421 1401.91 807.976C1402.55 808.531 1402.94 809.256 1403.07 810.152C1403.24 811.005 1403.24 811.965 1403.07 813.032C1402.94 814.056 1402.75 815.08 1402.49 816.104L1396.15 841ZM1398.78 828.52C1400.31 824.424 1401.79 821.011 1403.19 818.28C1404.65 815.507 1406.05 813.309 1407.42 811.688C1408.78 810.067 1410.17 808.915 1411.58 808.232C1413.03 807.507 1414.54 807.144 1416.12 807.144C1418.17 807.144 1419.58 807.613 1420.35 808.552C1421.16 809.491 1421.52 810.707 1421.43 812.2C1421.39 813.651 1421.11 815.187 1420.6 816.808L1414.39 835.56C1413.97 836.712 1413.82 837.629 1413.95 838.312C1414.07 838.952 1414.54 839.272 1415.35 839.272C1416.08 839.272 1416.81 838.867 1417.53 838.056C1418.3 837.245 1419.11 835.645 1419.96 833.256L1420.92 830.632H1422.14L1420.54 835.304C1419.94 837.096 1419.17 838.461 1418.23 839.4C1417.34 840.339 1416.38 840.979 1415.35 841.32C1414.37 841.704 1413.41 841.896 1412.47 841.896C1411.41 841.896 1410.51 841.725 1409.79 841.384C1409.06 841.043 1408.51 840.573 1408.12 839.976C1407.61 839.165 1407.42 838.141 1407.55 836.904C1407.67 835.624 1408.02 834.173 1408.57 832.552L1414.52 814.568C1414.74 813.928 1414.91 813.224 1415.03 812.456C1415.16 811.688 1415.14 811.027 1414.97 810.472C1414.8 809.875 1414.27 809.576 1413.37 809.576C1412.43 809.576 1411.41 810.045 1410.3 810.984C1409.19 811.923 1408.02 813.267 1406.78 815.016C1405.58 816.723 1404.41 818.749 1403.26 821.096C1402.11 823.443 1401 826.003 1399.93 828.776C1398.86 831.507 1397.88 834.408 1396.99 837.48L1398.78 828.52ZM1525.81 817.576L1525.61 818.856H1503.66L1503.85 817.576H1525.81ZM1516.78 803.176C1515.29 803.176 1513.92 803.005 1512.69 802.664C1511.45 802.323 1510.25 801.917 1509.1 801.448C1507.99 800.979 1506.84 800.573 1505.65 800.232C1504.45 799.891 1503.13 799.72 1501.68 799.72C1500.31 799.72 1499.29 800.083 1498.61 800.808C1497.92 801.491 1497.6 802.472 1497.65 803.752C1497.69 805.075 1498.16 806.141 1499.05 806.952C1499.99 807.72 1501.38 808.232 1503.21 808.488C1503.21 808.488 1503.17 808.701 1503.09 809.128C1503.04 809.555 1503.02 809.768 1503.02 809.768C1501.57 809.555 1500.21 809.171 1498.93 808.616C1497.65 808.019 1496.6 807.165 1495.79 806.056C1495.02 804.904 1494.62 803.475 1494.57 801.768C1494.53 799.464 1495.19 797.544 1496.56 796.008C1497.97 794.472 1499.97 793.704 1502.57 793.704C1504.07 793.704 1505.39 793.939 1506.54 794.408C1507.74 794.877 1508.85 795.432 1509.87 796.072C1510.94 796.712 1511.98 797.373 1513.01 798.056C1514.03 798.696 1515.12 799.251 1516.27 799.72C1517.46 800.189 1518.79 800.424 1520.24 800.424C1522.29 800.424 1524.16 800.189 1525.87 799.72C1527.58 799.208 1529.43 798.525 1531.44 797.672C1532.33 796.307 1533.21 795.261 1534.06 794.536C1534.92 793.811 1535.66 793.725 1536.3 794.28C1536.81 794.707 1536.79 795.283 1536.24 796.008C1535.68 796.733 1534.28 797.523 1532.01 798.376C1528.56 800.808 1525.74 804.008 1523.57 807.976C1521.39 811.944 1519.66 816.403 1518.38 821.352L1514.41 836.84C1513.69 839.741 1512.62 842.408 1511.21 844.84C1509.81 847.315 1508.01 849.299 1505.84 850.792C1503.66 852.285 1501.06 853.032 1498.03 853.032C1496.62 853.032 1495.36 852.883 1494.25 852.584C1493.19 852.328 1492.33 851.901 1491.69 851.304C1491.05 850.707 1490.71 849.96 1490.67 849.064C1490.63 847.997 1490.99 847.037 1491.76 846.184C1492.53 845.373 1493.55 844.968 1494.83 844.968C1495.81 844.968 1496.62 845.224 1497.26 845.736C1497.9 846.291 1498.24 847.016 1498.29 847.912C1498.29 848.765 1498.01 849.512 1497.45 850.152C1496.94 850.792 1496.26 851.304 1495.41 851.688C1495.7 851.773 1496.02 851.837 1496.37 851.88C1496.71 851.965 1497.07 852.008 1497.45 852.008C1499.08 852.008 1500.4 851.496 1501.42 850.472C1502.49 849.448 1503.38 848.061 1504.11 846.312C1504.84 844.563 1505.5 842.579 1506.09 840.36C1506.73 838.099 1507.35 835.752 1507.95 833.32L1510.38 824.232C1511.24 821.032 1512.32 818.195 1513.65 815.72C1514.97 813.245 1516.5 811.048 1518.25 809.128C1520 807.165 1521.92 805.352 1524.01 803.688C1526.1 802.024 1528.3 800.381 1530.61 798.76C1529.41 799.272 1528.24 799.805 1527.09 800.36C1525.93 800.872 1524.78 801.341 1523.63 801.768C1522.52 802.195 1521.39 802.536 1520.24 802.792C1519.13 803.048 1517.98 803.176 1516.78 803.176ZM1570.25 808.424C1569.02 808.424 1567.8 808.979 1566.61 810.088C1565.41 811.197 1564.28 812.712 1563.21 814.632C1562.19 816.509 1561.27 818.621 1560.46 820.968C1559.65 823.315 1559.01 825.747 1558.54 828.264C1558.11 830.781 1557.9 833.171 1557.9 835.432C1557.9 837.224 1558.16 838.547 1558.67 839.4C1559.22 840.211 1560.01 840.616 1561.04 840.616C1562.27 840.616 1563.49 840.061 1564.69 838.952C1565.88 837.843 1567.01 836.349 1568.08 834.472C1569.14 832.595 1570.06 830.504 1570.83 828.2C1571.64 825.853 1572.26 823.421 1572.69 820.904C1573.15 818.387 1573.39 815.955 1573.39 813.608C1573.39 811.731 1573.13 810.408 1572.62 809.64C1572.11 808.829 1571.32 808.424 1570.25 808.424ZM1551.37 831.656C1551.37 829.779 1551.63 827.731 1552.14 825.512C1552.65 823.293 1553.44 821.096 1554.51 818.92C1555.58 816.744 1556.86 814.781 1558.35 813.032C1559.89 811.24 1561.68 809.811 1563.73 808.744C1565.82 807.677 1568.12 807.144 1570.64 807.144C1573.5 807.144 1575.76 807.997 1577.42 809.704C1579.09 811.368 1579.92 813.928 1579.92 817.384C1579.92 819.261 1579.66 821.309 1579.15 823.528C1578.64 825.747 1577.85 827.944 1576.78 830.12C1575.71 832.296 1574.41 834.28 1572.88 836.072C1571.38 837.821 1569.59 839.229 1567.5 840.296C1565.45 841.363 1563.17 841.896 1560.65 841.896C1557.79 841.896 1555.53 841.043 1553.87 839.336C1552.21 837.629 1551.37 835.069 1551.37 831.656ZM1614.28 841H1607.56L1615.24 813.48C1615.41 812.925 1615.54 812.371 1615.63 811.816C1615.75 811.219 1615.73 810.728 1615.56 810.344C1615.39 809.96 1614.99 809.768 1614.35 809.768C1613.49 809.768 1612.7 810.195 1611.98 811.048C1611.3 811.901 1610.55 813.48 1609.74 815.784L1608.78 818.472H1607.56L1609.16 813.736C1610.1 811.133 1611.25 809.384 1612.62 808.488C1614.03 807.592 1615.5 807.144 1617.03 807.144C1618.4 807.144 1619.4 807.421 1620.04 807.976C1620.68 808.531 1621.07 809.256 1621.19 810.152C1621.36 811.005 1621.36 811.965 1621.19 813.032C1621.07 814.056 1620.87 815.08 1620.62 816.104L1614.28 841ZM1616.91 828.52C1618.44 824.424 1619.91 821.011 1621.32 818.28C1622.77 815.507 1624.18 813.309 1625.55 811.688C1626.91 810.067 1628.3 808.915 1629.71 808.232C1631.16 807.507 1632.67 807.144 1634.25 807.144C1636.3 807.144 1637.71 807.613 1638.47 808.552C1639.28 809.491 1639.65 810.707 1639.56 812.2C1639.52 813.651 1639.24 815.187 1638.73 816.808L1632.52 835.56C1632.1 836.712 1631.95 837.629 1632.07 838.312C1632.2 838.952 1632.67 839.272 1633.48 839.272C1634.21 839.272 1634.93 838.867 1635.66 838.056C1636.43 837.245 1637.24 835.645 1638.09 833.256L1639.05 830.632H1640.27L1638.67 835.304C1638.07 837.096 1637.3 838.461 1636.36 839.4C1635.47 840.339 1634.51 840.979 1633.48 841.32C1632.5 841.704 1631.54 841.896 1630.6 841.896C1629.54 841.896 1628.64 841.725 1627.91 841.384C1627.19 841.043 1626.63 840.573 1626.25 839.976C1625.74 839.165 1625.55 838.141 1625.67 836.904C1625.8 835.624 1626.14 834.173 1626.7 832.552L1632.65 814.568C1632.86 813.928 1633.03 813.224 1633.16 812.456C1633.29 811.688 1633.27 811.027 1633.1 810.472C1632.93 809.875 1632.39 809.576 1631.5 809.576C1630.56 809.576 1629.54 810.045 1628.43 810.984C1627.32 811.923 1626.14 813.267 1624.91 815.016C1623.71 816.723 1622.54 818.749 1621.39 821.096C1620.23 823.443 1619.12 826.003 1618.06 828.776C1616.99 831.507 1616.01 834.408 1615.11 837.48L1616.91 828.52ZM1673.09 826.664C1675.27 825.896 1677.25 825.107 1679.04 824.296C1680.88 823.485 1682.37 822.611 1683.52 821.672C1685.1 820.349 1686.34 818.792 1687.24 817C1688.17 815.165 1688.64 813.16 1688.64 810.984C1688.64 809.875 1688.56 809.171 1688.39 808.872C1688.22 808.531 1687.96 808.36 1687.62 808.36C1686.6 808.36 1685.49 808.829 1684.29 809.768C1683.14 810.707 1681.99 812.008 1680.84 813.672C1679.68 815.293 1678.62 817.149 1677.64 819.24C1676.7 821.288 1675.93 823.485 1675.33 825.832C1674.78 828.136 1674.5 830.419 1674.5 832.68C1674.5 834.899 1674.9 836.477 1675.72 837.416C1676.57 838.355 1677.68 838.824 1679.04 838.824C1680.45 838.824 1682.01 838.397 1683.72 837.544C1685.42 836.648 1687.11 835.069 1688.77 832.808L1689.8 833.32C1688.94 834.728 1687.83 836.093 1686.47 837.416C1685.1 838.739 1683.54 839.827 1681.8 840.68C1680.09 841.491 1678.23 841.896 1676.23 841.896C1674.48 841.896 1672.92 841.555 1671.56 840.872C1670.19 840.189 1669.12 839.187 1668.36 837.864C1667.63 836.499 1667.27 834.835 1667.27 832.872C1667.27 830.909 1667.61 828.776 1668.29 826.472C1669.02 824.125 1670.02 821.821 1671.3 819.56C1672.62 817.299 1674.18 815.229 1675.97 813.352C1677.76 811.432 1679.77 809.917 1681.99 808.808C1684.21 807.699 1686.55 807.144 1689.03 807.144C1690.56 807.144 1691.84 807.528 1692.87 808.296C1693.89 809.021 1694.4 810.131 1694.4 811.624C1694.4 813.331 1693.91 814.931 1692.93 816.424C1691.99 817.875 1690.71 819.197 1689.09 820.392C1687.47 821.587 1685.7 822.653 1683.78 823.592C1681.9 824.531 1680 825.341 1678.08 826.024C1676.21 826.707 1674.52 827.261 1673.03 827.688L1673.09 826.664ZM1722.46 840.04C1722.8 840.211 1723.16 840.36 1723.55 840.488C1723.97 840.573 1724.55 840.616 1725.28 840.616C1727.03 840.616 1728.48 840.083 1729.63 839.016C1730.78 837.907 1731.36 836.349 1731.36 834.344C1731.36 833.021 1731.08 831.677 1730.52 830.312C1730.01 828.947 1729.16 827.411 1727.96 825.704C1726.98 824.253 1726.04 822.824 1725.15 821.416C1724.29 819.965 1723.87 818.28 1723.87 816.36C1723.87 814.525 1724.32 812.925 1725.21 811.56C1726.11 810.195 1727.35 809.128 1728.92 808.36C1730.55 807.549 1732.36 807.144 1734.36 807.144C1735.69 807.144 1736.99 807.315 1738.27 807.656C1739.59 807.955 1740.68 808.531 1741.53 809.384C1742.39 810.237 1742.81 811.475 1742.81 813.096C1742.81 813.565 1742.68 814.099 1742.43 814.696C1742.21 815.293 1741.87 815.805 1741.4 816.232C1740.93 816.659 1740.32 816.872 1739.55 816.872C1738.74 816.872 1738.05 816.573 1737.5 815.976C1736.95 815.379 1736.67 814.611 1736.67 813.672C1736.67 812.776 1736.84 811.944 1737.18 811.176C1737.52 810.365 1737.97 809.64 1738.52 809C1737.8 808.573 1736.84 808.36 1735.64 808.36C1734.07 808.36 1732.76 808.872 1731.74 809.896C1730.76 810.92 1730.27 812.349 1730.27 814.184C1730.27 815.165 1730.42 816.061 1730.72 816.872C1731.01 817.64 1731.46 818.451 1732.06 819.304C1732.66 820.157 1733.34 821.181 1734.11 822.376C1735.22 824.125 1736.11 825.747 1736.8 827.24C1737.52 828.733 1737.88 830.291 1737.88 831.912C1737.88 833.832 1737.37 835.56 1736.35 837.096C1735.37 838.589 1734.02 839.763 1732.32 840.616C1730.61 841.469 1728.67 841.896 1726.49 841.896C1724.96 841.896 1723.46 841.661 1722.01 841.192C1720.6 840.765 1719.45 840.083 1718.56 839.144C1717.66 838.163 1717.21 836.84 1717.21 835.176C1717.21 834.408 1717.45 833.64 1717.92 832.872C1718.34 832.104 1719.07 831.72 1720.09 831.72C1721.16 831.72 1721.93 832.168 1722.4 833.064C1722.91 833.917 1723.16 834.92 1723.16 836.072C1723.16 836.925 1723.08 837.672 1722.91 838.312C1722.74 838.952 1722.59 839.528 1722.46 840.04Z" fill="white"/>
<rect x="65" y="65" width="2558" height="1078" rx="19" stroke="url(#paint6_linear_560_184)" stroke-width="2"/>
</g>
<defs>
<filter id="filter0_f_560_184" x="-11" y="-11" width="2710" height="1230" filterUnits="userSpaceOnUse" color-interpolation-filters="sRGB">
<feFlood flood-opacity="0" result="BackgroundImageFix"/>
<feBlend mode="normal" in="SourceGraphic" in2="BackgroundImageFix" result="shape"/>
<feGaussianBlur stdDeviation="37.5" result="effect1_foregroundBlur_560_184"/>
</filter>
<radialGradient id="paint0_radial_560_184" cx="0" cy="0" r="1" gradientUnits="userSpaceOnUse" gradientTransform="translate(2314 64) rotate(154.637) scale(2102.68 1638.85)">
<stop stop-color="#7F97EF"/>
<stop offset="1" stop-color="#3D218D" stop-opacity="0"/>
</radialGradient>
<radialGradient id="paint1_radial_560_184" cx="0" cy="0" r="1" gradientUnits="userSpaceOnUse" gradientTransform="translate(64.0001 1057.52) rotate(-17.699) scale(2650.45 1595.48)">
<stop stop-color="#1F0B38"/>
<stop offset="1" stop-color="#7F4FE7" stop-opacity="0"/>
</radialGradient>
<radialGradient id="paint2_radial_560_184" cx="0" cy="0" r="1" gradientUnits="userSpaceOnUse" gradientTransform="translate(359 64) rotate(28.4945) scale(1627.1 1408.02)">
<stop stop-color="#A2D8FF"/>
<stop offset="1" stop-color="#A2CDFF" stop-opacity="0"/>
</radialGradient>
<radialGradient id="paint3_radial_560_184" cx="0" cy="0" r="1" gradientUnits="userSpaceOnUse" gradientTransform="translate(2314 64) rotate(154.637) scale(2102.68 1638.85)">
<stop stop-color="#7F97EF"/>
<stop offset="1" stop-color="#3D218D" stop-opacity="0"/>
</radialGradient>
<radialGradient id="paint4_radial_560_184" cx="0" cy="0" r="1" gradientUnits="userSpaceOnUse" gradientTransform="translate(64.0001 1057.52) rotate(-17.699) scale(2650.45 1595.48)">
<stop stop-color="#1F0B38"/>
<stop offset="1" stop-color="#7F4FE7" stop-opacity="0"/>
</radialGradient>
<radialGradient id="paint5_radial_560_184" cx="0" cy="0" r="1" gradientUnits="userSpaceOnUse" gradientTransform="translate(359 64) rotate(28.4945) scale(1627.1 1408.02)">
<stop stop-color="#A2D8FF"/>
<stop offset="1" stop-color="#A2CDFF" stop-opacity="0"/>
</radialGradient>
<linearGradient id="paint6_linear_560_184" x1="64" y1="64" x2="2624" y2="1144" gradientUnits="userSpaceOnUse">
<stop stop-color="white" stop-opacity="0.3"/>
<stop offset="0.546875" stop-color="white" stop-opacity="0"/>
<stop offset="1" stop-color="white" stop-opacity="0.25"/>
</linearGradient>
<clipPath id="clip0_560_184">
<rect width="2684" height="1204" fill="white"/>
</clipPath>
</defs>
</svg>
