<svg width="1785" height="774" viewBox="0 0 1785 774" fill="none" xmlns="http://www.w3.org/2000/svg">
<rect width="1785" height="774" fill="#1C1225"/>
<rect x="411.463" y="267.463" width="962.377" height="239.381" fill="#1C1225"/>
<rect x="411.463" y="267.463" width="962.377" height="239.381" stroke="#8F54BE" stroke-width="12.6019"/>
<path d="M445.982 442.153V358.764H461.447V369.984H464.631L462.053 372.713C462.053 368.063 463.367 364.323 465.995 361.493C468.623 358.663 472.009 357.248 476.154 357.248C480.601 357.248 484.038 359.067 486.464 362.706C488.99 366.345 490.254 371.247 490.254 377.413L486.918 369.984H492.073L490.102 372.713C490.102 368.063 491.416 364.323 494.044 361.493C496.672 358.663 500.16 357.248 504.506 357.248C509.661 357.248 513.755 359.168 516.787 363.009C519.819 366.85 521.335 372.056 521.335 378.626V442.153H504.658V379.384C504.658 376.655 504.051 374.532 502.838 373.016C501.625 371.399 499.856 370.59 497.532 370.59C495.308 370.59 493.539 371.348 492.225 372.864C491.012 374.38 490.406 376.554 490.406 379.384V442.153H476.76V379.384C476.76 376.554 476.154 374.38 474.941 372.864C473.728 371.348 471.959 370.59 469.634 370.59C467.309 370.59 465.54 371.348 464.328 372.864C463.216 374.38 462.66 376.554 462.66 379.384V442.153H445.982ZM574.493 443.518C567.418 443.518 561.252 442.204 555.996 439.576C550.841 436.846 546.798 433.056 543.867 428.204C541.037 423.252 539.622 417.44 539.622 410.768V390.149C539.622 383.477 541.037 377.716 543.867 372.864C546.798 367.912 550.841 364.121 555.996 361.493C561.252 358.764 567.418 357.399 574.493 357.399C581.67 357.399 587.836 358.764 592.991 361.493C598.146 364.121 602.138 367.912 604.968 372.864C607.9 377.716 609.365 383.427 609.365 389.997V410.768C609.365 417.44 607.9 423.252 604.968 428.204C602.138 433.056 598.146 436.846 592.991 439.576C587.836 442.204 581.67 443.518 574.493 443.518ZM574.493 426.991C579.547 426.991 583.439 425.627 586.168 422.898C588.998 420.068 590.413 416.024 590.413 410.768V390.149C590.413 384.791 588.998 380.748 586.168 378.019C583.439 375.29 579.547 373.926 574.493 373.926C569.541 373.926 565.649 375.29 562.819 378.019C559.989 380.748 558.574 384.791 558.574 390.149V410.768C558.574 416.024 559.989 420.068 562.819 422.898C565.649 425.627 569.541 426.991 574.493 426.991ZM634.171 442.153V358.764H652.062V374.684H656.762L651.152 384.387C651.152 375.391 653.174 368.619 657.217 364.071C661.26 359.522 667.223 357.248 675.107 357.248C684.103 357.248 691.179 360.027 696.334 365.587C701.489 371.146 704.066 378.828 704.066 388.632V394.697H684.204V389.997C684.204 384.64 682.789 380.496 679.959 377.564C677.23 374.633 673.44 373.168 668.588 373.168C663.635 373.168 659.794 374.633 657.065 377.564C654.437 380.496 653.123 384.64 653.123 389.997V442.153H634.171ZM733.875 469.444V453.676H758.589C762.834 453.676 766.018 452.615 768.141 450.492C770.263 448.47 771.325 445.539 771.325 441.698V435.482L771.628 419.865H767.534L771.628 415.772C771.628 422.544 769.606 427.851 765.563 431.691C761.621 435.431 756.264 437.301 749.492 437.301C741.001 437.301 734.229 434.421 729.175 428.659C724.222 422.898 721.746 415.115 721.746 405.31V389.087C721.746 379.384 724.222 371.651 729.175 365.89C734.229 360.129 741.001 357.248 749.492 357.248C756.264 357.248 761.621 359.168 765.563 363.009C769.606 366.749 771.628 372.005 771.628 378.777L767.534 374.684H771.628L771.173 358.764H790.125V442.153C790.125 450.542 787.345 457.163 781.786 462.015C776.227 466.968 768.596 469.444 758.892 469.444H733.875ZM755.86 420.927C760.711 420.927 764.451 419.512 767.079 416.681C769.808 413.75 771.173 409.707 771.173 404.552V389.997C771.173 384.842 769.808 380.849 767.079 378.019C764.451 375.088 760.711 373.622 755.86 373.622C751.008 373.622 747.268 375.038 744.64 377.868C742.012 380.698 740.698 384.741 740.698 389.997V404.552C740.698 409.808 742.012 413.851 744.64 416.681C747.268 419.512 751.008 420.927 755.86 420.927ZM837.977 443.669C829.385 443.669 822.613 441.395 817.66 436.846C812.707 432.298 810.231 426.183 810.231 418.501C810.231 410.314 812.96 403.996 818.418 399.549C823.876 395.101 831.609 392.878 841.615 392.878H862.387V385.752C862.387 381.709 861.073 378.575 858.445 376.352C855.817 374.027 852.229 372.864 847.68 372.864C843.536 372.864 840.099 373.774 837.37 375.593C834.641 377.413 833.024 379.889 832.518 383.023H814.021C814.931 375.139 818.469 368.872 824.634 364.222C830.8 359.573 838.684 357.248 848.287 357.248C858.495 357.248 866.531 359.825 872.394 364.98C878.357 370.034 881.339 376.907 881.339 385.6V442.153H862.993V427.598H859.961L862.993 423.504C862.993 429.67 860.719 434.572 856.171 438.211C851.622 441.85 845.557 443.669 837.977 443.669ZM844.193 429.417C849.55 429.417 853.896 428.053 857.232 425.324C860.669 422.595 862.387 419.057 862.387 414.71V404.552H841.919C838.078 404.552 834.995 405.664 832.67 407.888C830.345 410.111 829.183 413.043 829.183 416.681C829.183 420.623 830.497 423.757 833.125 426.082C835.854 428.305 839.543 429.417 844.193 429.417ZM904.325 442.153V358.764H922.823V374.684H927.977L922.823 379.081C922.823 372.207 924.794 366.85 928.736 363.009C932.779 359.168 938.287 357.248 945.262 357.248C953.449 357.248 959.969 359.977 964.82 365.435C969.773 370.893 972.249 378.221 972.249 387.42V442.153H953.297V389.391C953.297 384.337 951.983 380.445 949.355 377.716C946.727 374.987 943.038 373.622 938.287 373.622C933.638 373.622 929.949 375.038 927.219 377.868C924.591 380.698 923.277 384.741 923.277 389.997V442.153H904.325ZM1041.78 442.153C1036.32 442.153 1031.52 441.041 1027.38 438.817C1023.34 436.594 1020.15 433.46 1017.83 429.417C1015.5 425.273 1014.34 420.522 1014.34 415.165V348.606H987.655V331.473H1033.29V415.165C1033.29 418.198 1034.15 420.623 1035.87 422.443C1037.69 424.161 1040.11 425.02 1043.15 425.02H1068.32V442.153H1041.78ZM1110.71 443.669C1102.12 443.669 1095.34 441.395 1090.39 436.846C1085.44 432.298 1082.96 426.183 1082.96 418.501C1082.96 410.314 1085.69 403.996 1091.15 399.549C1096.61 395.101 1104.34 392.878 1114.35 392.878H1135.12V385.752C1135.12 381.709 1133.8 378.575 1131.18 376.352C1128.55 374.027 1124.96 372.864 1120.41 372.864C1116.27 372.864 1112.83 373.774 1110.1 375.593C1107.37 377.413 1105.76 379.889 1105.25 383.023H1086.75C1087.66 375.139 1091.2 368.872 1097.37 364.222C1103.53 359.573 1111.42 357.248 1121.02 357.248C1131.23 357.248 1139.26 359.825 1145.13 364.98C1151.09 370.034 1154.07 376.907 1154.07 385.6V442.153H1135.73V427.598H1132.69L1135.73 423.504C1135.73 429.67 1133.45 434.572 1128.9 438.211C1124.35 441.85 1118.29 443.669 1110.71 443.669ZM1116.92 429.417C1122.28 429.417 1126.63 428.053 1129.96 425.324C1133.4 422.595 1135.12 419.057 1135.12 414.71V404.552H1114.65C1110.81 404.552 1107.73 405.664 1105.4 407.888C1103.08 410.111 1101.91 413.043 1101.91 416.681C1101.91 420.623 1103.23 423.757 1105.86 426.082C1108.59 428.305 1112.28 429.417 1116.92 429.417ZM1217.99 443.669C1211.12 443.669 1205.66 441.749 1201.62 437.908C1197.58 433.966 1195.55 428.609 1195.55 421.836L1199.8 426.233H1195.55V442.153H1177.06V331.473H1196.01V354.822L1195.4 374.684H1199.8L1195.55 379.081C1195.55 372.308 1197.58 367.002 1201.62 363.161C1205.66 359.219 1211.12 357.248 1217.99 357.248C1226.38 357.248 1233.1 360.129 1238.16 365.89C1243.21 371.651 1245.74 379.434 1245.74 389.239V411.83C1245.74 421.533 1243.21 429.266 1238.16 435.027C1233.1 440.788 1226.38 443.669 1217.99 443.669ZM1211.32 427.295C1216.17 427.295 1219.96 425.88 1222.69 423.049C1225.42 420.219 1226.79 416.176 1226.79 410.92V389.997C1226.79 384.741 1225.42 380.698 1222.69 377.868C1219.96 375.038 1216.17 373.622 1211.32 373.622C1206.57 373.622 1202.83 375.088 1200.1 378.019C1197.37 380.849 1196.01 384.842 1196.01 389.997V410.92C1196.01 416.075 1197.37 420.118 1200.1 423.049C1202.83 425.88 1206.57 427.295 1211.32 427.295ZM1298.59 443.518C1292.23 443.518 1286.67 442.507 1281.92 440.485C1277.17 438.464 1273.43 435.684 1270.7 432.146C1268.07 428.508 1266.65 424.262 1266.45 419.411H1285.4C1285.61 422.039 1286.87 424.161 1289.19 425.778C1291.62 427.396 1294.75 428.204 1298.59 428.204H1305.27C1309.91 428.204 1313.4 427.295 1315.73 425.475C1318.05 423.656 1319.21 421.179 1319.21 418.046C1319.21 415.115 1318.15 412.841 1316.03 411.223C1314.01 409.505 1310.82 408.393 1306.48 407.888L1296.17 406.372C1286.67 405.058 1279.69 402.531 1275.25 398.791C1270.8 395.051 1268.57 389.441 1268.57 381.961C1268.57 374.178 1271.2 368.164 1276.46 363.919C1281.71 359.573 1289.45 357.399 1299.66 357.399H1305.42C1314.72 357.399 1322.15 359.472 1327.7 363.616C1333.26 367.76 1336.25 373.319 1336.65 380.294H1317.7C1317.39 378.07 1316.13 376.25 1313.91 374.835C1311.78 373.42 1308.95 372.713 1305.42 372.713H1299.66C1295.31 372.713 1292.13 373.521 1290.1 375.139C1288.18 376.655 1287.22 378.929 1287.22 381.961C1287.22 384.791 1288.08 386.914 1289.8 388.329C1291.52 389.643 1294.3 390.603 1298.14 391.21L1308.9 392.726C1318.81 394.141 1326.09 396.82 1330.74 400.762C1335.49 404.603 1337.86 410.314 1337.86 417.894C1337.86 425.981 1335.08 432.298 1329.52 436.846C1324.07 441.294 1315.98 443.518 1305.27 443.518H1298.59Z" fill="white"/>
<path d="M1364.68 497.25H1390.67V523.241H1364.68V497.25Z" fill="white" stroke="#8F54BE" stroke-width="8.66379"/>
<path d="M394.332 497.25H420.323V523.241H394.332V497.25Z" fill="white" stroke="#8F54BE" stroke-width="8.66379"/>
<path d="M1364.68 276.323V250.332H1390.67V276.323H1364.68Z" fill="white" stroke="#8F54BE" stroke-width="8.66379"/>
<path d="M394.332 250.332H420.323V276.323H394.332V250.332Z" fill="white" stroke="#8F54BE" stroke-width="8.66379"/>
<g filter="url(#filter0_d_909_365)">
<path d="M1286.5 602.103L1263.39 494.325C1263.19 493.406 1264.18 492.69 1264.99 493.162L1360.39 548.538C1361.2 549.011 1361.07 550.225 1360.17 550.508L1314.56 564.878C1314.33 564.951 1314.13 565.099 1313.99 565.298L1288.45 602.489C1287.92 603.272 1286.7 603.032 1286.5 602.103Z" fill="#8F54BE"/>
<path d="M1258.1 495.461L1281.21 603.238C1282.4 608.815 1289.69 610.255 1292.92 605.554L1288.45 602.489L1292.92 605.554L1317.61 569.594L1361.8 555.672C1367.18 553.975 1367.99 546.69 1363.11 543.855L1267.71 488.479C1262.83 485.648 1256.91 489.947 1258.1 495.461Z" stroke="white" stroke-width="10.8297"/>
</g>
<defs>
<filter id="filter0_d_909_365" x="1208.9" y="438.531" width="206.483" height="218.887" filterUnits="userSpaceOnUse" color-interpolation-filters="sRGB">
<feFlood flood-opacity="0" result="BackgroundImageFix"/>
<feColorMatrix in="SourceAlpha" type="matrix" values="0 0 0 0 0 0 0 0 0 0 0 0 0 0 0 0 0 0 127 0" result="hardAlpha"/>
<feOffset/>
<feGaussianBlur stdDeviation="21.8109"/>
<feComposite in2="hardAlpha" operator="out"/>
<feColorMatrix type="matrix" values="0 0 0 0 0 0 0 0 0 0 0 0 0 0 0 0 0 0 0.25 0"/>
<feBlend mode="normal" in2="BackgroundImageFix" result="effect1_dropShadow_909_365"/>
<feBlend mode="normal" in="SourceGraphic" in2="effect1_dropShadow_909_365" result="shape"/>
</filter>
</defs>
</svg>
