<svg width="1785" height="596" viewBox="0 0 1785 596" fill="none" xmlns="http://www.w3.org/2000/svg">
<rect x="411.463" y="178.463" width="962.377" height="239.381" fill="#1C1225"/>
<rect x="411.463" y="178.463" width="962.377" height="239.381" stroke="#8F54BE" stroke-width="12.6019"/>
<path d="M445.982 353.153V269.764H461.447V280.984H464.631L462.053 283.713C462.053 279.063 463.367 275.323 465.995 272.493C468.623 269.663 472.009 268.248 476.154 268.248C480.601 268.248 484.038 270.067 486.464 273.706C488.99 277.345 490.254 282.247 490.254 288.413L486.918 280.984H492.073L490.102 283.713C490.102 279.063 491.416 275.323 494.044 272.493C496.672 269.663 500.16 268.248 504.506 268.248C509.661 268.248 513.755 270.168 516.787 274.009C519.819 277.85 521.335 283.056 521.335 289.626V353.153H504.658V290.384C504.658 287.655 504.051 285.532 502.838 284.016C501.625 282.399 499.856 281.59 497.532 281.59C495.308 281.59 493.539 282.348 492.225 283.864C491.012 285.38 490.406 287.554 490.406 290.384V353.153H476.76V290.384C476.76 287.554 476.154 285.38 474.941 283.864C473.728 282.348 471.959 281.59 469.634 281.59C467.309 281.59 465.54 282.348 464.328 283.864C463.216 285.38 462.66 287.554 462.66 290.384V353.153H445.982ZM574.493 354.518C567.418 354.518 561.252 353.204 555.996 350.576C550.841 347.846 546.798 344.056 543.867 339.204C541.037 334.252 539.622 328.44 539.622 321.768V301.149C539.622 294.477 541.037 288.716 543.867 283.864C546.798 278.912 550.841 275.121 555.996 272.493C561.252 269.764 567.418 268.399 574.493 268.399C581.67 268.399 587.836 269.764 592.991 272.493C598.146 275.121 602.138 278.912 604.968 283.864C607.9 288.716 609.365 294.427 609.365 300.997V321.768C609.365 328.44 607.9 334.252 604.968 339.204C602.138 344.056 598.146 347.846 592.991 350.576C587.836 353.204 581.67 354.518 574.493 354.518ZM574.493 337.991C579.547 337.991 583.439 336.627 586.168 333.898C588.998 331.068 590.413 327.024 590.413 321.768V301.149C590.413 295.791 588.998 291.748 586.168 289.019C583.439 286.29 579.547 284.926 574.493 284.926C569.541 284.926 565.649 286.29 562.819 289.019C559.989 291.748 558.574 295.791 558.574 301.149V321.768C558.574 327.024 559.989 331.068 562.819 333.898C565.649 336.627 569.541 337.991 574.493 337.991ZM634.171 353.153V269.764H652.062V285.684H656.762L651.152 295.387C651.152 286.391 653.174 279.619 657.217 275.071C661.26 270.522 667.223 268.248 675.107 268.248C684.103 268.248 691.179 271.027 696.334 276.587C701.489 282.146 704.066 289.828 704.066 299.632V305.697H684.204V300.997C684.204 295.64 682.789 291.496 679.959 288.564C677.23 285.633 673.44 284.168 668.588 284.168C663.635 284.168 659.794 285.633 657.065 288.564C654.437 291.496 653.123 295.64 653.123 300.997V353.153H634.171ZM733.875 380.444V364.676H758.589C762.834 364.676 766.018 363.615 768.141 361.492C770.263 359.47 771.325 356.539 771.325 352.698V346.482L771.628 330.865H767.534L771.628 326.772C771.628 333.544 769.606 338.851 765.563 342.691C761.621 346.431 756.264 348.301 749.492 348.301C741.001 348.301 734.229 345.421 729.175 339.659C724.222 333.898 721.746 326.115 721.746 316.31V300.087C721.746 290.384 724.222 282.651 729.175 276.89C734.229 271.129 741.001 268.248 749.492 268.248C756.264 268.248 761.621 270.168 765.563 274.009C769.606 277.749 771.628 283.005 771.628 289.777L767.534 285.684H771.628L771.173 269.764H790.125V353.153C790.125 361.542 787.345 368.163 781.786 373.015C776.227 377.968 768.596 380.444 758.892 380.444H733.875ZM755.86 331.927C760.711 331.927 764.451 330.512 767.079 327.681C769.808 324.75 771.173 320.707 771.173 315.552V300.997C771.173 295.842 769.808 291.849 767.079 289.019C764.451 286.088 760.711 284.622 755.86 284.622C751.008 284.622 747.268 286.038 744.64 288.868C742.012 291.698 740.698 295.741 740.698 300.997V315.552C740.698 320.808 742.012 324.851 744.64 327.681C747.268 330.512 751.008 331.927 755.86 331.927ZM837.977 354.669C829.385 354.669 822.613 352.395 817.66 347.846C812.707 343.298 810.231 337.183 810.231 329.501C810.231 321.314 812.96 314.996 818.418 310.549C823.876 306.101 831.609 303.878 841.615 303.878H862.387V296.752C862.387 292.709 861.073 289.575 858.445 287.352C855.817 285.027 852.229 283.864 847.68 283.864C843.536 283.864 840.099 284.774 837.37 286.593C834.641 288.413 833.024 290.889 832.518 294.023H814.021C814.931 286.139 818.469 279.872 824.634 275.222C830.8 270.573 838.684 268.248 848.287 268.248C858.495 268.248 866.531 270.825 872.394 275.98C878.357 281.034 881.339 287.907 881.339 296.6V353.153H862.993V338.598H859.961L862.993 334.504C862.993 340.67 860.719 345.572 856.171 349.211C851.622 352.85 845.557 354.669 837.977 354.669ZM844.193 340.417C849.55 340.417 853.896 339.053 857.232 336.324C860.669 333.595 862.387 330.057 862.387 325.71V315.552H841.919C838.078 315.552 834.995 316.664 832.67 318.888C830.345 321.111 829.183 324.043 829.183 327.681C829.183 331.623 830.497 334.757 833.125 337.082C835.854 339.305 839.543 340.417 844.193 340.417ZM904.325 353.153V269.764H922.823V285.684H927.977L922.823 290.081C922.823 283.207 924.794 277.85 928.736 274.009C932.779 270.168 938.287 268.248 945.262 268.248C953.449 268.248 959.969 270.977 964.82 276.435C969.773 281.893 972.249 289.221 972.249 298.42V353.153H953.297V300.391C953.297 295.337 951.983 291.445 949.355 288.716C946.727 285.987 943.038 284.622 938.287 284.622C933.638 284.622 929.949 286.038 927.219 288.868C924.591 291.698 923.277 295.741 923.277 300.997V353.153H904.325ZM1041.78 353.153C1036.32 353.153 1031.52 352.041 1027.38 349.817C1023.34 347.594 1020.15 344.46 1017.83 340.417C1015.5 336.273 1014.34 331.522 1014.34 326.165V259.606H987.655V242.473H1033.29V326.165C1033.29 329.198 1034.15 331.623 1035.87 333.443C1037.69 335.161 1040.11 336.02 1043.15 336.02H1068.32V353.153H1041.78ZM1110.71 354.669C1102.12 354.669 1095.34 352.395 1090.39 347.846C1085.44 343.298 1082.96 337.183 1082.96 329.501C1082.96 321.314 1085.69 314.996 1091.15 310.549C1096.61 306.101 1104.34 303.878 1114.35 303.878H1135.12V296.752C1135.12 292.709 1133.8 289.575 1131.18 287.352C1128.55 285.027 1124.96 283.864 1120.41 283.864C1116.27 283.864 1112.83 284.774 1110.1 286.593C1107.37 288.413 1105.76 290.889 1105.25 294.023H1086.75C1087.66 286.139 1091.2 279.872 1097.37 275.222C1103.53 270.573 1111.42 268.248 1121.02 268.248C1131.23 268.248 1139.26 270.825 1145.13 275.98C1151.09 281.034 1154.07 287.907 1154.07 296.6V353.153H1135.73V338.598H1132.69L1135.73 334.504C1135.73 340.67 1133.45 345.572 1128.9 349.211C1124.35 352.85 1118.29 354.669 1110.71 354.669ZM1116.92 340.417C1122.28 340.417 1126.63 339.053 1129.96 336.324C1133.4 333.595 1135.12 330.057 1135.12 325.71V315.552H1114.65C1110.81 315.552 1107.73 316.664 1105.4 318.888C1103.08 321.111 1101.91 324.043 1101.91 327.681C1101.91 331.623 1103.23 334.757 1105.86 337.082C1108.59 339.305 1112.28 340.417 1116.92 340.417ZM1217.99 354.669C1211.12 354.669 1205.66 352.749 1201.62 348.908C1197.58 344.966 1195.55 339.609 1195.55 332.836L1199.8 337.233H1195.55V353.153H1177.06V242.473H1196.01V265.822L1195.4 285.684H1199.8L1195.55 290.081C1195.55 283.308 1197.58 278.002 1201.62 274.161C1205.66 270.219 1211.12 268.248 1217.99 268.248C1226.38 268.248 1233.1 271.129 1238.16 276.89C1243.21 282.651 1245.74 290.434 1245.74 300.239V322.83C1245.74 332.533 1243.21 340.266 1238.16 346.027C1233.1 351.788 1226.38 354.669 1217.99 354.669ZM1211.32 338.295C1216.17 338.295 1219.96 336.88 1222.69 334.049C1225.42 331.219 1226.79 327.176 1226.79 321.92V300.997C1226.79 295.741 1225.42 291.698 1222.69 288.868C1219.96 286.038 1216.17 284.622 1211.32 284.622C1206.57 284.622 1202.83 286.088 1200.1 289.019C1197.37 291.849 1196.01 295.842 1196.01 300.997V321.92C1196.01 327.075 1197.37 331.118 1200.1 334.049C1202.83 336.88 1206.57 338.295 1211.32 338.295ZM1298.59 354.518C1292.23 354.518 1286.67 353.507 1281.92 351.485C1277.17 349.464 1273.43 346.684 1270.7 343.146C1268.07 339.508 1266.65 335.262 1266.45 330.411H1285.4C1285.61 333.039 1286.87 335.161 1289.19 336.778C1291.62 338.396 1294.75 339.204 1298.59 339.204H1305.27C1309.91 339.204 1313.4 338.295 1315.73 336.475C1318.05 334.656 1319.21 332.179 1319.21 329.046C1319.21 326.115 1318.15 323.841 1316.03 322.223C1314.01 320.505 1310.82 319.393 1306.48 318.888L1296.17 317.372C1286.67 316.058 1279.69 313.531 1275.25 309.791C1270.8 306.051 1268.57 300.441 1268.57 292.961C1268.57 285.178 1271.2 279.164 1276.46 274.919C1281.71 270.573 1289.45 268.399 1299.66 268.399H1305.42C1314.72 268.399 1322.15 270.472 1327.7 274.616C1333.26 278.76 1336.25 284.319 1336.65 291.294H1317.7C1317.39 289.07 1316.13 287.25 1313.91 285.835C1311.78 284.42 1308.95 283.713 1305.42 283.713H1299.66C1295.31 283.713 1292.13 284.521 1290.1 286.139C1288.18 287.655 1287.22 289.929 1287.22 292.961C1287.22 295.791 1288.08 297.914 1289.8 299.329C1291.52 300.643 1294.3 301.603 1298.14 302.21L1308.9 303.726C1318.81 305.141 1326.09 307.82 1330.74 311.762C1335.49 315.603 1337.86 321.314 1337.86 328.894C1337.86 336.981 1335.08 343.298 1329.52 347.846C1324.07 352.294 1315.98 354.518 1305.27 354.518H1298.59Z" fill="white"/>
<path d="M1364.68 408.25H1390.67V434.241H1364.68V408.25Z" fill="white" stroke="#8F54BE" stroke-width="8.66379"/>
<path d="M394.332 408.25H420.323V434.241H394.332V408.25Z" fill="white" stroke="#8F54BE" stroke-width="8.66379"/>
<path d="M1364.68 187.323V161.332H1390.67V187.323H1364.68Z" fill="white" stroke="#8F54BE" stroke-width="8.66379"/>
<path d="M394.332 161.332H420.323V187.323H394.332V161.332Z" fill="white" stroke="#8F54BE" stroke-width="8.66379"/>
<g filter="url(#filter0_d_909_365)">
<path d="M1286.5 513.103L1263.39 405.325C1263.19 404.406 1264.18 403.69 1264.99 404.162L1360.39 459.538C1361.2 460.011 1361.07 461.225 1360.17 461.508L1314.56 475.878C1314.33 475.951 1314.13 476.099 1313.99 476.298L1288.45 513.489C1287.92 514.272 1286.7 514.032 1286.5 513.103Z" fill="#8F54BE"/>
<path d="M1258.1 406.461L1281.21 514.238C1282.4 519.815 1289.69 521.255 1292.92 516.554L1288.45 513.489L1292.92 516.554L1317.61 480.594L1361.8 466.672C1367.18 464.975 1367.99 457.69 1363.11 454.855L1267.71 399.479C1262.83 396.648 1256.91 400.947 1258.1 406.461Z" stroke="white" stroke-width="10.8297"/>
</g>
<path d="M666.464 496L670.64 469.72H678.452C680.228 469.72 681.716 470.056 682.916 470.728C684.116 471.4 684.98 472.348 685.508 473.572C686.036 474.796 686.168 476.248 685.904 477.928L684.356 487.756C684.092 489.412 683.492 490.864 682.556 492.112C681.644 493.336 680.48 494.296 679.064 494.992C677.648 495.664 676.052 496 674.276 496H666.464ZM671.612 491.86H674.924C676.244 491.86 677.336 491.5 678.2 490.78C679.088 490.036 679.628 489.028 679.82 487.756L681.404 477.928C681.596 476.68 681.368 475.696 680.72 474.976C680.072 474.232 679.088 473.86 677.768 473.86H674.456L671.612 491.86ZM696.114 496.36C694.434 496.36 693.03 496.036 691.902 495.388C690.774 494.74 689.958 493.84 689.454 492.688C688.974 491.512 688.854 490.144 689.094 488.584L689.886 483.616C690.15 482.056 690.714 480.7 691.578 479.548C692.442 478.372 693.534 477.46 694.854 476.812C696.198 476.164 697.71 475.84 699.39 475.84C701.046 475.84 702.438 476.164 703.566 476.812C704.694 477.46 705.498 478.372 705.978 479.548C706.482 480.7 706.602 482.056 706.338 483.616L705.762 487.18H693.666L693.414 488.584C693.222 489.976 693.39 491.032 693.918 491.752C694.47 492.448 695.406 492.796 696.726 492.796C697.734 492.796 698.562 492.628 699.21 492.292C699.882 491.932 700.35 491.416 700.614 490.744H705.078C704.67 491.872 704.022 492.856 703.134 493.696C702.27 494.536 701.238 495.196 700.038 495.676C698.838 496.132 697.53 496.36 696.114 496.36ZM701.838 484.66L702.018 483.58C702.234 482.212 702.078 481.168 701.55 480.448C701.022 479.704 700.11 479.332 698.814 479.332C697.518 479.332 696.474 479.704 695.682 480.448C694.914 481.192 694.422 482.248 694.206 483.616L694.098 484.372L702.234 484.3L701.838 484.66ZM714.856 496L711.544 476.2H716.08L717.844 488.224C717.964 488.944 718.06 489.688 718.132 490.456C718.228 491.224 718.288 491.836 718.312 492.292C718.504 491.836 718.744 491.224 719.032 490.456C719.344 489.688 719.668 488.956 720.004 488.26L725.512 476.2H730.192L720.652 496H714.856ZM739.285 496.36C737.605 496.36 736.201 496.036 735.073 495.388C733.945 494.74 733.129 493.84 732.625 492.688C732.145 491.512 732.025 490.144 732.265 488.584L733.057 483.616C733.321 482.056 733.885 480.7 734.749 479.548C735.613 478.372 736.705 477.46 738.025 476.812C739.369 476.164 740.881 475.84 742.561 475.84C744.217 475.84 745.609 476.164 746.737 476.812C747.865 477.46 748.669 478.372 749.149 479.548C749.653 480.7 749.773 482.056 749.509 483.616L748.933 487.18H736.837L736.585 488.584C736.393 489.976 736.561 491.032 737.089 491.752C737.641 492.448 738.577 492.796 739.897 492.796C740.905 492.796 741.733 492.628 742.381 492.292C743.053 491.932 743.521 491.416 743.785 490.744H748.249C747.841 491.872 747.193 492.856 746.305 493.696C745.441 494.536 744.409 495.196 743.209 495.676C742.009 496.132 740.701 496.36 739.285 496.36ZM745.009 484.66L745.189 483.58C745.405 482.212 745.249 481.168 744.721 480.448C744.193 479.704 743.281 479.332 741.985 479.332C740.689 479.332 739.645 479.704 738.853 480.448C738.085 481.192 737.593 482.248 737.377 483.616L737.269 484.372L745.405 484.3L745.009 484.66ZM763.787 496C761.819 496 760.331 495.412 759.323 494.236C758.339 493.06 758.003 491.512 758.315 489.592L760.799 473.788H754.751L755.399 469.72H765.947L762.815 489.592C762.695 490.312 762.803 490.888 763.139 491.32C763.499 491.728 764.027 491.932 764.723 491.932H770.843L770.231 496H763.787ZM782.421 496.36C780.741 496.36 779.337 496.048 778.209 495.424C777.081 494.776 776.277 493.876 775.797 492.724C775.317 491.548 775.197 490.168 775.437 488.584L776.229 483.616C776.493 482.032 777.045 480.664 777.885 479.512C778.749 478.336 779.841 477.436 781.161 476.812C782.505 476.164 784.017 475.84 785.697 475.84C787.401 475.84 788.805 476.164 789.909 476.812C791.037 477.436 791.841 478.336 792.321 479.512C792.825 480.664 792.945 482.02 792.681 483.58L791.889 488.584C791.649 490.168 791.097 491.548 790.233 492.724C789.369 493.876 788.277 494.776 786.957 495.424C785.637 496.048 784.125 496.36 782.421 496.36ZM783.069 492.436C784.269 492.436 785.241 492.112 785.985 491.464C786.729 490.792 787.197 489.832 787.389 488.584L788.181 483.616C788.373 482.368 788.205 481.42 787.677 480.772C787.149 480.1 786.273 479.764 785.049 479.764C783.873 479.764 782.913 480.1 782.169 480.772C781.425 481.42 780.945 482.368 780.729 483.616L779.937 488.584C779.745 489.832 779.913 490.792 780.441 491.464C780.993 492.112 781.869 492.436 783.069 492.436ZM795.007 502.48L799.183 476.2H803.575L802.963 479.98H803.971L802.819 481.024C803.059 479.416 803.731 478.156 804.835 477.244C805.963 476.308 807.343 475.84 808.975 475.84C810.967 475.84 812.443 476.524 813.403 477.892C814.363 479.26 814.663 481.096 814.303 483.4L813.439 488.764C813.199 490.3 812.719 491.644 811.999 492.796C811.279 493.924 810.379 494.8 809.299 495.424C808.243 496.048 807.043 496.36 805.699 496.36C804.067 496.36 802.843 495.904 802.027 494.992C801.235 494.056 800.959 492.784 801.199 491.176L802.063 492.22H801.019L800.407 496.936L799.507 502.48H795.007ZM804.763 492.472C805.915 492.472 806.851 492.136 807.571 491.464C808.315 490.792 808.783 489.832 808.975 488.584L809.767 483.616C809.959 482.368 809.791 481.408 809.263 480.736C808.759 480.064 807.919 479.728 806.743 479.728C805.639 479.728 804.703 480.076 803.935 480.772C803.191 481.444 802.711 482.392 802.495 483.616L801.703 488.584C801.511 489.808 801.691 490.768 802.243 491.464C802.795 492.136 803.635 492.472 804.763 492.472ZM825.629 496.36C823.949 496.36 822.545 496.036 821.417 495.388C820.289 494.74 819.473 493.84 818.969 492.688C818.489 491.512 818.369 490.144 818.609 488.584L819.401 483.616C819.665 482.056 820.229 480.7 821.093 479.548C821.957 478.372 823.049 477.46 824.369 476.812C825.713 476.164 827.225 475.84 828.905 475.84C830.561 475.84 831.953 476.164 833.081 476.812C834.209 477.46 835.013 478.372 835.493 479.548C835.997 480.7 836.117 482.056 835.853 483.616L835.277 487.18H823.181L822.929 488.584C822.737 489.976 822.905 491.032 823.433 491.752C823.985 492.448 824.921 492.796 826.241 492.796C827.249 492.796 828.077 492.628 828.725 492.292C829.397 491.932 829.865 491.416 830.129 490.744H834.593C834.185 491.872 833.537 492.856 832.649 493.696C831.785 494.536 830.753 495.196 829.553 495.676C828.353 496.132 827.045 496.36 825.629 496.36ZM831.353 484.66L831.533 483.58C831.749 482.212 831.593 481.168 831.065 480.448C830.537 479.704 829.625 479.332 828.329 479.332C827.033 479.332 825.989 479.704 825.197 480.448C824.429 481.192 823.937 482.248 823.721 483.616L823.613 484.372L831.749 484.3L831.353 484.66ZM839.835 496L842.967 476.2H847.215L846.603 479.98H847.719L846.027 482.284C846.363 480.148 847.095 478.54 848.223 477.46C849.375 476.38 850.887 475.84 852.759 475.84C854.895 475.84 856.467 476.5 857.475 477.82C858.483 479.14 858.807 480.964 858.447 483.292L858.195 484.732H853.479L853.695 483.616C853.887 482.344 853.707 481.36 853.155 480.664C852.627 479.968 851.787 479.62 850.635 479.62C849.459 479.62 848.487 479.968 847.719 480.664C846.975 481.36 846.507 482.344 846.315 483.616L844.335 496H839.835ZM887.939 496.36C885.779 496.36 884.183 495.76 883.151 494.56C882.143 493.36 881.819 491.704 882.179 489.592L882.719 486.244C882.959 484.636 883.559 483.316 884.519 482.284C885.503 481.252 886.751 480.616 888.263 480.376L887.651 481.348C887.075 480.316 886.667 479.308 886.427 478.324C886.187 477.34 886.139 476.368 886.283 475.408C886.499 474.208 886.955 473.164 887.651 472.276C888.371 471.364 889.283 470.656 890.387 470.152C891.515 469.624 892.775 469.36 894.167 469.36C895.607 469.36 896.819 469.636 897.803 470.188C898.787 470.74 899.495 471.508 899.927 472.492C900.359 473.452 900.467 474.592 900.251 475.912H896.075C896.171 475.336 896.123 474.832 895.931 474.4C895.763 473.968 895.475 473.644 895.067 473.428C894.683 473.188 894.191 473.068 893.591 473.068C893.015 473.068 892.499 473.176 892.043 473.392C891.587 473.608 891.203 473.92 890.891 474.328C890.603 474.736 890.411 475.216 890.315 475.768C890.219 476.344 890.267 476.98 890.459 477.676C890.675 478.372 890.975 479.08 891.359 479.8L895.247 486.82L897.803 483.04H902.159L897.155 490.348L900.287 496H895.787L894.491 493.624C892.523 495.448 890.339 496.36 887.939 496.36ZM888.911 492.652C889.583 492.652 890.255 492.46 890.927 492.076C891.599 491.692 892.199 491.164 892.727 490.492L888.911 483.58C888.407 483.772 887.987 484.096 887.651 484.552C887.315 484.984 887.099 485.548 887.003 486.244L886.463 489.592C886.295 490.552 886.427 491.308 886.859 491.86C887.315 492.388 887.999 492.652 888.911 492.652ZM925.495 496L929.671 469.72H937.483C939.259 469.72 940.747 470.056 941.947 470.728C943.147 471.4 944.011 472.348 944.539 473.572C945.067 474.796 945.199 476.248 944.935 477.928L943.387 487.756C943.123 489.412 942.523 490.864 941.587 492.112C940.675 493.336 939.511 494.296 938.095 494.992C936.679 495.664 935.083 496 933.307 496H925.495ZM930.643 491.86H933.955C935.275 491.86 936.367 491.5 937.231 490.78C938.119 490.036 938.659 489.028 938.851 487.756L940.435 477.928C940.627 476.68 940.399 475.696 939.751 474.976C939.103 474.232 938.119 473.86 936.799 473.86H933.487L930.643 491.86ZM955.145 496.36C953.465 496.36 952.061 496.036 950.933 495.388C949.805 494.74 948.989 493.84 948.485 492.688C948.005 491.512 947.885 490.144 948.125 488.584L948.917 483.616C949.181 482.056 949.745 480.7 950.609 479.548C951.473 478.372 952.565 477.46 953.885 476.812C955.229 476.164 956.741 475.84 958.421 475.84C960.077 475.84 961.469 476.164 962.597 476.812C963.725 477.46 964.529 478.372 965.009 479.548C965.513 480.7 965.633 482.056 965.369 483.616L964.793 487.18H952.697L952.445 488.584C952.253 489.976 952.421 491.032 952.949 491.752C953.501 492.448 954.437 492.796 955.757 492.796C956.765 492.796 957.593 492.628 958.241 492.292C958.913 491.932 959.381 491.416 959.645 490.744H964.109C963.701 491.872 963.053 492.856 962.165 493.696C961.301 494.536 960.269 495.196 959.069 495.676C957.869 496.132 956.561 496.36 955.145 496.36ZM960.869 484.66L961.049 483.58C961.265 482.212 961.109 481.168 960.581 480.448C960.053 479.704 959.141 479.332 957.845 479.332C956.549 479.332 955.505 479.704 954.713 480.448C953.945 481.192 953.453 482.248 953.237 483.616L953.129 484.372L961.265 484.3L960.869 484.66ZM975.867 496.36C973.587 496.36 971.847 495.832 970.647 494.776C969.447 493.72 968.943 492.328 969.135 490.6H973.635C973.587 491.224 973.815 491.728 974.319 492.112C974.847 492.496 975.567 492.688 976.479 492.688H978.027C979.131 492.688 979.995 492.472 980.619 492.04C981.267 491.608 981.639 491.02 981.735 490.276C981.855 489.58 981.699 489.028 981.267 488.62C980.859 488.188 980.151 487.9 979.143 487.756L976.767 487.396C974.559 487.084 972.987 486.508 972.051 485.668C971.139 484.804 970.815 483.484 971.079 481.708C971.367 479.86 972.219 478.42 973.635 477.388C975.051 476.356 976.971 475.84 979.395 475.84H980.763C982.971 475.84 984.651 476.344 985.803 477.352C986.955 478.336 987.447 479.656 987.279 481.312H982.779C982.803 480.784 982.587 480.352 982.131 480.016C981.675 479.68 981.015 479.512 980.151 479.512H978.783C977.751 479.512 976.971 479.704 976.443 480.088C975.915 480.448 975.591 480.988 975.471 481.708C975.375 482.38 975.495 482.896 975.831 483.256C976.167 483.616 976.791 483.868 977.703 484.012L980.187 484.372C982.491 484.684 984.135 485.296 985.119 486.208C986.103 487.096 986.451 488.44 986.163 490.24C985.851 492.16 984.951 493.66 983.463 494.74C981.999 495.82 979.995 496.36 977.451 496.36H975.867ZM990.217 496L990.865 491.896H997.777L999.649 480.268H993.601L994.249 476.2H1004.54L1002.1 491.896H1008.22L1007.57 496H990.217ZM1002.67 472.888C1001.76 472.888 1001.08 472.66 1000.62 472.204C1000.16 471.724 999.997 471.088 1000.12 470.296C1000.26 469.504 1000.63 468.88 1001.23 468.424C1001.83 467.944 1002.59 467.704 1003.5 467.704C1004.39 467.704 1005.06 467.944 1005.52 468.424C1006 468.88 1006.16 469.504 1006.02 470.296C1005.9 471.088 1005.54 471.724 1004.94 472.204C1004.34 472.66 1003.58 472.888 1002.67 472.888ZM1013.57 502.48L1014.18 498.736H1020.05C1021.05 498.736 1021.85 498.484 1022.42 497.98C1023.02 497.5 1023.41 496.804 1023.57 495.892L1023.79 494.416L1024.47 490.708H1023.47L1024.62 489.736C1024.33 491.344 1023.65 492.604 1022.57 493.516C1021.49 494.404 1020.14 494.848 1018.53 494.848C1016.52 494.848 1015.02 494.164 1014.03 492.796C1013.05 491.428 1012.75 489.58 1013.13 487.252L1013.75 483.4C1013.99 481.864 1014.47 480.532 1015.19 479.404C1015.91 478.276 1016.81 477.4 1017.89 476.776C1018.99 476.152 1020.2 475.84 1021.52 475.84C1023.15 475.84 1024.37 476.296 1025.16 477.208C1025.97 478.096 1026.25 479.344 1025.99 480.952L1025.12 479.98H1026.13L1026.63 476.2H1031.13L1028 496C1027.67 497.992 1026.74 499.564 1025.23 500.716C1023.74 501.892 1021.85 502.48 1019.54 502.48H1013.57ZM1020.66 490.96C1021.81 490.96 1022.76 490.624 1023.5 489.952C1024.25 489.256 1024.73 488.296 1024.94 487.072L1025.45 483.616C1025.66 482.392 1025.49 481.444 1024.94 480.772C1024.41 480.076 1023.59 479.728 1022.46 479.728C1021.28 479.728 1020.33 480.064 1019.61 480.736C1018.89 481.408 1018.43 482.368 1018.21 483.616L1017.67 487.072C1017.48 488.32 1017.63 489.28 1018.14 489.952C1018.67 490.624 1019.51 490.96 1020.66 490.96ZM1033.5 496L1036.63 476.2H1041.02L1040.41 479.98H1041.63L1040.26 481.024C1040.53 479.392 1041.2 478.12 1042.28 477.208C1043.38 476.296 1044.76 475.84 1046.42 475.84C1048.36 475.84 1049.82 476.488 1050.78 477.784C1051.74 479.08 1052.04 480.82 1051.68 483.004L1049.62 496H1045.12L1047.1 483.472C1047.3 482.272 1047.13 481.348 1046.6 480.7C1046.07 480.052 1045.26 479.728 1044.15 479.728C1043.02 479.728 1042.09 480.064 1041.34 480.736C1040.62 481.408 1040.16 482.368 1039.94 483.616L1038 496H1033.5ZM1063.07 496.36C1061.39 496.36 1059.99 496.036 1058.86 495.388C1057.73 494.74 1056.92 493.84 1056.41 492.688C1055.93 491.512 1055.81 490.144 1056.05 488.584L1056.85 483.616C1057.11 482.056 1057.67 480.7 1058.54 479.548C1059.4 478.372 1060.49 477.46 1061.81 476.812C1063.16 476.164 1064.67 475.84 1066.35 475.84C1068.01 475.84 1069.4 476.164 1070.53 476.812C1071.65 477.46 1072.46 478.372 1072.94 479.548C1073.44 480.7 1073.56 482.056 1073.3 483.616L1072.72 487.18H1060.63L1060.37 488.584C1060.18 489.976 1060.35 491.032 1060.88 491.752C1061.43 492.448 1062.37 492.796 1063.69 492.796C1064.69 492.796 1065.52 492.628 1066.17 492.292C1066.84 491.932 1067.31 491.416 1067.57 490.744H1072.04C1071.63 491.872 1070.98 492.856 1070.09 493.696C1069.23 494.536 1068.2 495.196 1067 495.676C1065.8 496.132 1064.49 496.36 1063.07 496.36ZM1068.8 484.66L1068.98 483.58C1069.19 482.212 1069.04 481.168 1068.51 480.448C1067.98 479.704 1067.07 479.332 1065.77 479.332C1064.48 479.332 1063.43 479.704 1062.64 480.448C1061.87 481.192 1061.38 482.248 1061.17 483.616L1061.06 484.372L1069.19 484.3L1068.8 484.66ZM1077.28 496L1080.41 476.2H1084.66L1084.05 479.98H1085.16L1083.47 482.284C1083.81 480.148 1084.54 478.54 1085.67 477.46C1086.82 476.38 1088.33 475.84 1090.2 475.84C1092.34 475.84 1093.91 476.5 1094.92 477.82C1095.93 479.14 1096.25 480.964 1095.89 483.292L1095.64 484.732H1090.92L1091.14 483.616C1091.33 482.344 1091.15 481.36 1090.6 480.664C1090.07 479.968 1089.23 479.62 1088.08 479.62C1086.9 479.62 1085.93 479.968 1085.16 480.664C1084.42 481.36 1083.95 482.344 1083.76 483.616L1081.78 496H1077.28ZM1106.21 496.36C1105.18 496.36 1104.41 496.06 1103.91 495.46C1103.4 494.86 1103.22 494.044 1103.37 493.012C1103.53 491.98 1103.97 491.164 1104.66 490.564C1105.38 489.94 1106.26 489.628 1107.29 489.628C1108.32 489.628 1109.09 489.94 1109.59 490.564C1110.1 491.164 1110.27 491.98 1110.1 493.012C1109.95 494.044 1109.52 494.86 1108.8 495.46C1108.11 496.06 1107.24 496.36 1106.21 496.36Z" fill="#6D478B"/>
<defs>
<filter id="filter0_d_909_365" x="1208.9" y="349.531" width="206.483" height="218.887" filterUnits="userSpaceOnUse" color-interpolation-filters="sRGB">
<feFlood flood-opacity="0" result="BackgroundImageFix"/>
<feColorMatrix in="SourceAlpha" type="matrix" values="0 0 0 0 0 0 0 0 0 0 0 0 0 0 0 0 0 0 127 0" result="hardAlpha"/>
<feOffset/>
<feGaussianBlur stdDeviation="21.8109"/>
<feComposite in2="hardAlpha" operator="out"/>
<feColorMatrix type="matrix" values="0 0 0 0 0 0 0 0 0 0 0 0 0 0 0 0 0 0 0.25 0"/>
<feBlend mode="normal" in2="BackgroundImageFix" result="effect1_dropShadow_909_365"/>
<feBlend mode="normal" in="SourceGraphic" in2="effect1_dropShadow_909_365" result="shape"/>
</filter>
</defs>
</svg>
