<svg width="1785" height="500" viewBox="0 0 1785 500" fill="none" xmlns="http://www.w3.org/2000/svg">
<g clip-path="url(#clip0_909_365)">
<rect x="411.463" y="130.463" width="962.377" height="239.381" fill="#1C1225"/>
<rect x="411.463" y="130.463" width="962.377" height="239.381" stroke="#8F54BE" stroke-width="12.6019"/>
<path d="M445.982 305.153V221.764H461.447V232.984H464.631L462.053 235.713C462.053 231.063 463.367 227.323 465.995 224.493C468.623 221.663 472.009 220.248 476.154 220.248C480.601 220.248 484.038 222.067 486.464 225.706C488.99 229.345 490.254 234.247 490.254 240.413L486.918 232.984H492.073L490.102 235.713C490.102 231.063 491.416 227.323 494.044 224.493C496.672 221.663 500.16 220.248 504.506 220.248C509.661 220.248 513.755 222.168 516.787 226.009C519.819 229.85 521.335 235.056 521.335 241.626V305.153H504.658V242.384C504.658 239.655 504.051 237.532 502.838 236.016C501.625 234.399 499.856 233.59 497.532 233.59C495.308 233.59 493.539 234.348 492.225 235.864C491.012 237.38 490.406 239.554 490.406 242.384V305.153H476.76V242.384C476.76 239.554 476.154 237.38 474.941 235.864C473.728 234.348 471.959 233.59 469.634 233.59C467.309 233.59 465.54 234.348 464.328 235.864C463.216 237.38 462.66 239.554 462.66 242.384V305.153H445.982ZM574.493 306.518C567.418 306.518 561.252 305.204 555.996 302.576C550.841 299.846 546.798 296.056 543.867 291.204C541.037 286.252 539.622 280.44 539.622 273.768V253.149C539.622 246.477 541.037 240.716 543.867 235.864C546.798 230.912 550.841 227.121 555.996 224.493C561.252 221.764 567.418 220.399 574.493 220.399C581.67 220.399 587.836 221.764 592.991 224.493C598.146 227.121 602.138 230.912 604.968 235.864C607.9 240.716 609.365 246.427 609.365 252.997V273.768C609.365 280.44 607.9 286.252 604.968 291.204C602.138 296.056 598.146 299.846 592.991 302.576C587.836 305.204 581.67 306.518 574.493 306.518ZM574.493 289.991C579.547 289.991 583.439 288.627 586.168 285.898C588.998 283.068 590.413 279.024 590.413 273.768V253.149C590.413 247.791 588.998 243.748 586.168 241.019C583.439 238.29 579.547 236.926 574.493 236.926C569.541 236.926 565.649 238.29 562.819 241.019C559.989 243.748 558.574 247.791 558.574 253.149V273.768C558.574 279.024 559.989 283.068 562.819 285.898C565.649 288.627 569.541 289.991 574.493 289.991ZM634.171 305.153V221.764H652.062V237.684H656.762L651.152 247.387C651.152 238.391 653.174 231.619 657.217 227.071C661.26 222.522 667.223 220.248 675.107 220.248C684.103 220.248 691.179 223.027 696.334 228.587C701.489 234.146 704.066 241.828 704.066 251.632V257.697H684.204V252.997C684.204 247.64 682.789 243.496 679.959 240.564C677.23 237.633 673.44 236.168 668.588 236.168C663.635 236.168 659.794 237.633 657.065 240.564C654.437 243.496 653.123 247.64 653.123 252.997V305.153H634.171ZM733.875 332.444V316.676H758.589C762.834 316.676 766.018 315.615 768.141 313.492C770.263 311.47 771.325 308.539 771.325 304.698V298.482L771.628 282.865H767.534L771.628 278.772C771.628 285.544 769.606 290.851 765.563 294.691C761.621 298.431 756.264 300.301 749.492 300.301C741.001 300.301 734.229 297.421 729.175 291.659C724.222 285.898 721.746 278.115 721.746 268.31V252.087C721.746 242.384 724.222 234.651 729.175 228.89C734.229 223.129 741.001 220.248 749.492 220.248C756.264 220.248 761.621 222.168 765.563 226.009C769.606 229.749 771.628 235.005 771.628 241.777L767.534 237.684H771.628L771.173 221.764H790.125V305.153C790.125 313.542 787.345 320.163 781.786 325.015C776.227 329.968 768.596 332.444 758.892 332.444H733.875ZM755.86 283.927C760.711 283.927 764.451 282.512 767.079 279.681C769.808 276.75 771.173 272.707 771.173 267.552V252.997C771.173 247.842 769.808 243.849 767.079 241.019C764.451 238.088 760.711 236.622 755.86 236.622C751.008 236.622 747.268 238.038 744.64 240.868C742.012 243.698 740.698 247.741 740.698 252.997V267.552C740.698 272.808 742.012 276.851 744.64 279.681C747.268 282.512 751.008 283.927 755.86 283.927ZM837.977 306.669C829.385 306.669 822.613 304.395 817.66 299.846C812.707 295.298 810.231 289.183 810.231 281.501C810.231 273.314 812.96 266.996 818.418 262.549C823.876 258.101 831.609 255.878 841.615 255.878H862.387V248.752C862.387 244.709 861.073 241.575 858.445 239.352C855.817 237.027 852.229 235.864 847.68 235.864C843.536 235.864 840.099 236.774 837.37 238.593C834.641 240.413 833.024 242.889 832.518 246.023H814.021C814.931 238.139 818.469 231.872 824.634 227.222C830.8 222.573 838.684 220.248 848.287 220.248C858.495 220.248 866.531 222.825 872.394 227.98C878.357 233.034 881.339 239.907 881.339 248.6V305.153H862.993V290.598H859.961L862.993 286.504C862.993 292.67 860.719 297.572 856.171 301.211C851.622 304.85 845.557 306.669 837.977 306.669ZM844.193 292.417C849.55 292.417 853.896 291.053 857.232 288.324C860.669 285.595 862.387 282.057 862.387 277.71V267.552H841.919C838.078 267.552 834.995 268.664 832.67 270.888C830.345 273.111 829.183 276.043 829.183 279.681C829.183 283.623 830.497 286.757 833.125 289.082C835.854 291.305 839.543 292.417 844.193 292.417ZM904.325 305.153V221.764H922.823V237.684H927.977L922.823 242.081C922.823 235.207 924.794 229.85 928.736 226.009C932.779 222.168 938.287 220.248 945.262 220.248C953.449 220.248 959.969 222.977 964.82 228.435C969.773 233.893 972.249 241.221 972.249 250.42V305.153H953.297V252.391C953.297 247.337 951.983 243.445 949.355 240.716C946.727 237.987 943.038 236.622 938.287 236.622C933.638 236.622 929.949 238.038 927.219 240.868C924.591 243.698 923.277 247.741 923.277 252.997V305.153H904.325ZM1041.78 305.153C1036.32 305.153 1031.52 304.041 1027.38 301.817C1023.34 299.594 1020.15 296.46 1017.83 292.417C1015.5 288.273 1014.34 283.522 1014.34 278.165V211.606H987.655V194.473H1033.29V278.165C1033.29 281.198 1034.15 283.623 1035.87 285.443C1037.69 287.161 1040.11 288.02 1043.15 288.02H1068.32V305.153H1041.78ZM1110.71 306.669C1102.12 306.669 1095.34 304.395 1090.39 299.846C1085.44 295.298 1082.96 289.183 1082.96 281.501C1082.96 273.314 1085.69 266.996 1091.15 262.549C1096.61 258.101 1104.34 255.878 1114.35 255.878H1135.12V248.752C1135.12 244.709 1133.8 241.575 1131.18 239.352C1128.55 237.027 1124.96 235.864 1120.41 235.864C1116.27 235.864 1112.83 236.774 1110.1 238.593C1107.37 240.413 1105.76 242.889 1105.25 246.023H1086.75C1087.66 238.139 1091.2 231.872 1097.37 227.222C1103.53 222.573 1111.42 220.248 1121.02 220.248C1131.23 220.248 1139.26 222.825 1145.13 227.98C1151.09 233.034 1154.07 239.907 1154.07 248.6V305.153H1135.73V290.598H1132.69L1135.73 286.504C1135.73 292.67 1133.45 297.572 1128.9 301.211C1124.35 304.85 1118.29 306.669 1110.71 306.669ZM1116.92 292.417C1122.28 292.417 1126.63 291.053 1129.96 288.324C1133.4 285.595 1135.12 282.057 1135.12 277.71V267.552H1114.65C1110.81 267.552 1107.73 268.664 1105.4 270.888C1103.08 273.111 1101.91 276.043 1101.91 279.681C1101.91 283.623 1103.23 286.757 1105.86 289.082C1108.59 291.305 1112.28 292.417 1116.92 292.417ZM1217.99 306.669C1211.12 306.669 1205.66 304.749 1201.62 300.908C1197.58 296.966 1195.55 291.609 1195.55 284.836L1199.8 289.233H1195.55V305.153H1177.06V194.473H1196.01V217.822L1195.4 237.684H1199.8L1195.55 242.081C1195.55 235.308 1197.58 230.002 1201.62 226.161C1205.66 222.219 1211.12 220.248 1217.99 220.248C1226.38 220.248 1233.1 223.129 1238.16 228.89C1243.21 234.651 1245.74 242.434 1245.74 252.239V274.83C1245.74 284.533 1243.21 292.266 1238.16 298.027C1233.1 303.788 1226.38 306.669 1217.99 306.669ZM1211.32 290.295C1216.17 290.295 1219.96 288.88 1222.69 286.049C1225.42 283.219 1226.79 279.176 1226.79 273.92V252.997C1226.79 247.741 1225.42 243.698 1222.69 240.868C1219.96 238.038 1216.17 236.622 1211.32 236.622C1206.57 236.622 1202.83 238.088 1200.1 241.019C1197.37 243.849 1196.01 247.842 1196.01 252.997V273.92C1196.01 279.075 1197.37 283.118 1200.1 286.049C1202.83 288.88 1206.57 290.295 1211.32 290.295ZM1298.59 306.518C1292.23 306.518 1286.67 305.507 1281.92 303.485C1277.17 301.464 1273.43 298.684 1270.7 295.146C1268.07 291.508 1266.65 287.262 1266.45 282.411H1285.4C1285.61 285.039 1286.87 287.161 1289.19 288.778C1291.62 290.396 1294.75 291.204 1298.59 291.204H1305.27C1309.91 291.204 1313.4 290.295 1315.73 288.475C1318.05 286.656 1319.21 284.179 1319.21 281.046C1319.21 278.115 1318.15 275.841 1316.03 274.223C1314.01 272.505 1310.82 271.393 1306.48 270.888L1296.17 269.372C1286.67 268.058 1279.69 265.531 1275.25 261.791C1270.8 258.051 1268.57 252.441 1268.57 244.961C1268.57 237.178 1271.2 231.164 1276.46 226.919C1281.71 222.573 1289.45 220.399 1299.66 220.399H1305.42C1314.72 220.399 1322.15 222.472 1327.7 226.616C1333.26 230.76 1336.25 236.319 1336.65 243.294H1317.7C1317.39 241.07 1316.13 239.25 1313.91 237.835C1311.78 236.42 1308.95 235.713 1305.42 235.713H1299.66C1295.31 235.713 1292.13 236.521 1290.1 238.139C1288.18 239.655 1287.22 241.929 1287.22 244.961C1287.22 247.791 1288.08 249.914 1289.8 251.329C1291.52 252.643 1294.3 253.603 1298.14 254.21L1308.9 255.726C1318.81 257.141 1326.09 259.82 1330.74 263.762C1335.49 267.603 1337.86 273.314 1337.86 280.894C1337.86 288.981 1335.08 295.298 1329.52 299.846C1324.07 304.294 1315.98 306.518 1305.27 306.518H1298.59Z" fill="white"/>
<path d="M1364.68 360.25H1390.67V386.241H1364.68V360.25Z" fill="white" stroke="#8F54BE" stroke-width="8.66379"/>
<path d="M394.332 360.25H420.323V386.241H394.332V360.25Z" fill="white" stroke="#8F54BE" stroke-width="8.66379"/>
<path d="M1364.68 139.323V113.332H1390.67V139.323H1364.68Z" fill="white" stroke="#8F54BE" stroke-width="8.66379"/>
<path d="M394.332 113.332H420.323V139.323H394.332V113.332Z" fill="white" stroke="#8F54BE" stroke-width="8.66379"/>
<g filter="url(#filter0_d_909_365)">
<path d="M1286.5 465.103L1263.39 357.325C1263.19 356.406 1264.18 355.69 1264.99 356.162L1360.39 411.538C1361.2 412.011 1361.07 413.225 1360.17 413.508L1314.56 427.878C1314.33 427.951 1314.13 428.099 1313.99 428.298L1288.45 465.489C1287.92 466.272 1286.7 466.032 1286.5 465.103Z" fill="#8F54BE"/>
<path d="M1258.1 358.461L1281.21 466.238C1282.4 471.815 1289.69 473.255 1292.92 468.554L1288.45 465.489L1292.92 468.554L1317.61 432.594L1361.8 418.672C1367.18 416.975 1367.99 409.69 1363.11 406.855L1267.71 351.479C1262.83 348.648 1256.91 352.947 1258.1 358.461Z" stroke="white" stroke-width="10.8297"/>
</g>
</g>
<defs>
<filter id="filter0_d_909_365" x="1208.9" y="301.531" width="206.483" height="218.887" filterUnits="userSpaceOnUse" color-interpolation-filters="sRGB">
<feFlood flood-opacity="0" result="BackgroundImageFix"/>
<feColorMatrix in="SourceAlpha" type="matrix" values="0 0 0 0 0 0 0 0 0 0 0 0 0 0 0 0 0 0 127 0" result="hardAlpha"/>
<feOffset/>
<feGaussianBlur stdDeviation="21.8109"/>
<feComposite in2="hardAlpha" operator="out"/>
<feColorMatrix type="matrix" values="0 0 0 0 0 0 0 0 0 0 0 0 0 0 0 0 0 0 0.25 0"/>
<feBlend mode="normal" in2="BackgroundImageFix" result="effect1_dropShadow_909_365"/>
<feBlend mode="normal" in="SourceGraphic" in2="effect1_dropShadow_909_365" result="shape"/>
</filter>
<clipPath id="clip0_909_365">
<rect width="1785" height="500" fill="white"/>
</clipPath>
</defs>
</svg>
