<svg width="2860" height="1380" viewBox="0 0 2860 1380" fill="none" xmlns="http://www.w3.org/2000/svg">
<g clip-path="url(#clip0_560_184)">
<g opacity="0.5" filter="url(#filter0_f_560_184)">
<rect x="120" y="126" width="2620" height="1128.44" rx="20.1562" fill="white"/>
<rect x="120" y="126" width="2620" height="1128.44" rx="20.1562" fill="#121212"/>
<rect x="120" y="126" width="2620" height="1128.44" rx="20.1562" fill="url(#paint0_radial_560_184)"/>
<rect x="120" y="126" width="2620" height="1128.44" rx="20.1562" fill="url(#paint1_radial_560_184)"/>
<rect x="120" y="126" width="2620" height="1128.44" rx="20.1562" fill="url(#paint2_radial_560_184)" fill-opacity="0.15"/>
</g>
<rect x="150" y="150" width="2560" height="1080" rx="20" fill="white"/>
<rect x="150" y="150" width="2560" height="1080" rx="20" fill="#121212"/>
<rect x="150" y="150" width="2560" height="1080" rx="20" fill="url(#paint3_radial_560_184)"/>
<rect x="150" y="150" width="2560" height="1080" rx="20" fill="url(#paint4_radial_560_184)"/>
<rect x="150" y="150" width="2560" height="1080" rx="20" fill="url(#paint5_radial_560_184)" fill-opacity="0.15"/>
<path fill-rule="evenodd" clip-rule="evenodd" d="M765.947 756C748.429 756 733.144 751.646 720.093 742.939C707.042 734.231 696.93 722.389 689.758 707.412C682.586 692.435 679 675.543 679 656.735C679 637.694 682.586 620.744 689.758 605.883C697.048 590.906 707.336 579.122 720.622 570.531C733.908 561.823 749.546 557.469 767.535 557.469C785.641 557.469 800.809 561.823 813.037 570.531C813.692 570.987 814.338 571.451 814.977 571.925V521.787C814.977 509.754 824.847 500 837.022 500H849.327C854.025 500 857.833 503.758 857.833 508.393V747.607C857.833 752.242 854.025 756 849.327 756H828.774C824.076 756 820.268 752.242 820.268 747.607V736.976C817.88 739.105 815.352 741.092 812.684 742.939C800.103 751.646 784.524 756 765.947 756ZM815.329 688.952C818.621 679.664 820.268 668.925 820.268 656.735C820.268 644.428 818.621 633.689 815.329 624.517C812.155 615.229 807.158 608.031 800.338 602.922C793.519 597.698 784.701 595.086 773.884 595.086C762.479 595.086 753.073 597.872 745.666 603.445C738.258 608.902 732.791 616.332 729.264 625.736C725.736 635.024 723.973 645.357 723.973 656.735C723.973 668.229 725.678 678.678 729.087 688.082C732.615 697.37 737.964 704.742 745.136 710.199C752.309 715.655 761.421 718.384 772.473 718.384C783.878 718.384 793.049 715.83 799.986 710.721C807.04 705.497 812.155 698.24 815.329 688.952Z" fill="white"/>
<path d="M1973.98 599.721V753.178H2016.36V599.721H2092.32V753.178H2134.7V599.721H2180.59V567.17H2134.7V555.286C2134.7 548.856 2136.63 543.689 2140.5 539.785C2144.48 535.766 2150.52 533.757 2158.61 533.757H2180.59V500H2156.85C2152.28 500 2146.95 500.172 2140.85 500.517C2134.75 500.746 2128.54 502.009 2122.21 504.306C2116 506.487 2110.2 510.506 2104.8 516.362C2100.47 520.955 2097.48 526.064 2095.84 531.69C2094.2 537.316 2093.2 543 2092.85 548.741C2092.5 554.367 2092.32 559.534 2092.32 564.242V567.17H2016.36V555.286C2016.36 548.856 2018.29 543.689 2022.16 539.785C2026.15 535.766 2032.19 533.757 2040.27 533.757H2062.25V500H2038.52C2033.94 500 2028.61 500.172 2022.51 500.517C2016.42 500.746 2010.21 502.009 2003.88 504.306C1997.66 506.487 1991.86 510.506 1986.47 516.362C1982.13 520.955 1979.14 526.064 1977.5 531.69C1975.86 537.316 1974.86 543 1974.51 548.741C1974.16 554.367 1973.98 559.534 1973.98 564.242V567.17H1943.39V599.721H1973.98Z" fill="white"/>
<path fill-rule="evenodd" clip-rule="evenodd" d="M965.274 756C946.284 756 929.698 751.809 915.514 743.427C901.33 735.045 890.311 723.506 882.457 708.809C874.72 693.997 870.852 677.004 870.852 657.829C870.852 638.31 874.838 621.201 882.809 606.504C890.78 591.807 901.857 580.325 916.041 572.058C930.225 563.791 946.636 559.658 965.274 559.658C984.382 559.658 1001.03 563.849 1015.21 572.231C1029.39 580.612 1040.41 592.209 1048.27 607.021C1056.12 621.718 1060.05 638.654 1060.05 657.829C1060.05 677.119 1056.06 694.169 1048.09 708.981C1040.24 723.678 1029.22 735.218 1015.04 743.599C1000.85 751.867 984.264 756 965.274 756ZM965.274 717.076C982.154 717.076 994.697 711.565 1002.9 700.542C1011.11 689.519 1015.21 675.282 1015.21 657.829C1015.21 639.802 1011.05 625.45 1002.73 614.771C994.404 603.978 981.92 598.582 965.274 598.582C953.904 598.582 944.526 601.108 937.141 606.16C929.873 611.097 924.481 618.044 920.964 627C917.448 635.841 915.689 646.117 915.689 657.829C915.689 675.856 919.851 690.266 928.174 701.059C936.614 711.737 948.981 717.076 965.274 717.076Z" fill="white"/>
<path fill-rule="evenodd" clip-rule="evenodd" d="M1219.74 741.128C1203.17 750.746 1186.52 755.679 1169.81 755.924C1153.09 756.17 1137.48 752.111 1122.97 743.747C1108.56 735.324 1096.52 722.997 1086.84 706.767C1076.4 689.25 1070.78 672.065 1069.98 655.212C1069.12 638.259 1072.68 622.672 1080.66 608.45C1088.63 594.228 1100.65 582.455 1116.72 573.129C1133.69 563.277 1150.42 558.828 1166.9 559.785C1183.43 560.584 1198.79 566.387 1212.98 577.197C1227.18 588.006 1239.3 603.42 1249.33 623.441L1130.86 692.207C1138.95 703.007 1147.94 710.246 1157.82 713.925C1170.41 718.609 1183.67 716.904 1197.61 708.811C1206.6 703.591 1213.18 697.175 1217.35 689.561C1221.56 681.791 1223.21 673.168 1222.33 663.693L1264.77 653.444C1267.12 671.529 1264.12 688.391 1255.76 704.032C1247.51 719.614 1235.5 731.979 1219.74 741.128ZM1173.18 598.706C1180.95 601.859 1188.61 608.271 1196.15 617.942L1115.65 664.671C1111.8 654.444 1110.49 645.082 1111.71 636.583C1113.56 623.256 1121.96 612.252 1136.91 603.572C1150.14 595.889 1162.23 594.267 1173.18 598.706Z" fill="white"/>
<path d="M1291.25 740.499C1305.9 750.833 1324.95 756 1348.39 756C1372.89 756 1392.06 750.661 1405.89 739.983C1419.84 729.304 1426.81 714.607 1426.81 695.892C1426.81 686.247 1424.76 678.037 1420.66 671.263C1416.67 664.489 1410.11 658.69 1400.97 653.868C1391.94 648.93 1379.87 644.567 1364.74 640.778C1349.97 637.104 1338.84 634.004 1331.34 631.478C1323.95 628.952 1319.03 626.426 1316.57 623.9C1314.1 621.374 1312.87 618.331 1312.87 614.771C1312.87 608.456 1315.92 603.576 1322.02 600.132C1328.11 596.572 1336.14 595.08 1346.11 595.654C1356.54 596.228 1364.86 598.811 1371.07 603.404C1377.4 607.997 1381.1 614.255 1382.15 622.177L1425.41 614.599C1423.77 603.462 1419.43 593.759 1412.39 585.492C1405.36 577.225 1396.1 570.853 1384.61 566.375C1373.24 561.897 1360.17 559.658 1345.4 559.658C1330.28 559.658 1317.15 562.012 1306.02 566.719C1294.88 571.312 1286.21 577.914 1279.99 586.526C1273.78 595.137 1270.67 605.241 1270.67 616.838C1270.67 626.139 1272.72 634.061 1276.83 640.606C1280.93 647.151 1287.67 652.834 1297.05 657.657C1306.43 662.364 1319.09 666.785 1335.03 670.918C1349.33 674.593 1359.94 677.635 1366.85 680.047C1373.77 682.458 1378.22 684.984 1380.22 687.625C1382.33 690.151 1383.38 693.538 1383.38 697.786C1383.38 704.675 1380.57 710.129 1374.94 714.148C1369.43 718.052 1361.58 720.004 1351.38 720.004C1339.78 720.004 1330.16 717.363 1322.54 712.081C1314.92 706.8 1310 699.566 1307.77 690.38L1264.52 696.925C1267.68 715.641 1276.59 730.166 1291.25 740.499Z" fill="white"/>
<path d="M1793.87 746.744C1803.02 751.279 1814.62 753.546 1828.69 753.546C1846.51 753.546 1861.51 749.805 1873.7 742.323C1880.25 738.244 1885.93 733.429 1890.76 727.878V753.541H1928.21V564.629H1885.66V659.003C1885.66 670.112 1884.37 679.294 1881.79 686.549C1879.21 693.804 1875.75 699.529 1871.42 703.724C1867.2 707.805 1862.45 710.695 1857.17 712.396C1851.9 714.096 1846.56 714.946 1841.17 714.946C1831.09 714.946 1823.06 712.849 1817.08 708.655C1811.22 704.46 1806.77 699.132 1803.72 692.671C1800.79 686.096 1798.91 679.294 1798.09 672.266C1797.27 665.124 1796.86 658.719 1796.86 653.051V564.629H1753.96V667.165C1753.96 671.586 1754.31 677.367 1755.01 684.509C1755.83 691.537 1757.53 699.019 1760.11 706.954C1762.69 714.89 1766.68 722.371 1772.07 729.4C1777.46 736.428 1784.73 742.21 1793.87 746.744Z" fill="white"/>
<path d="M1704.91 755.52C1714.74 755.8 1724.72 755.206 1734.86 753.737C1738.91 753.149 1741.83 749.658 1741.83 745.613V727.523C1741.83 722.4 1737.22 718.496 1732.05 718.964C1724.1 719.683 1716.81 719.755 1710.18 719.179C1700.92 718.376 1694.18 714.529 1689.96 707.64C1687.74 704.08 1686.5 699.488 1686.27 693.861C1686.15 688.235 1686.09 681.691 1686.09 674.227V599.135H1741.83V566.583H1686.09V523.308C1686.09 518.672 1682.29 514.914 1677.59 514.914H1664.05C1652.92 514.914 1643.89 523.818 1643.89 534.8V566.583H1609.43V599.135H1643.89V676.638C1643.89 687.202 1644.01 696.675 1644.25 705.056C1644.48 713.438 1646.77 721.648 1651.1 729.685C1656.03 738.526 1663.24 745.014 1672.73 749.147C1682.23 753.166 1692.95 755.29 1704.91 755.52Z" fill="white"/>
<path d="M1466.53 740.499C1481.18 750.833 1500.23 756 1523.67 756C1548.17 756 1567.34 750.661 1581.17 739.983C1595.12 729.304 1602.1 714.607 1602.1 695.892C1602.1 686.247 1600.04 678.037 1595.94 671.263C1591.96 664.489 1585.39 658.69 1576.25 653.868C1567.22 648.93 1555.15 644.567 1540.03 640.778C1525.26 637.104 1514.12 634.004 1506.62 631.478C1499.23 628.952 1494.31 626.426 1491.85 623.9C1489.39 621.374 1488.16 618.331 1488.16 614.771C1488.16 608.456 1491.2 603.576 1497.3 600.132C1503.39 596.572 1511.42 595.08 1521.39 595.654C1531.82 596.228 1540.14 598.811 1546.36 603.404C1552.69 607.997 1556.38 614.255 1557.43 622.177L1600.69 614.599C1599.05 603.462 1594.71 593.759 1587.68 585.492C1580.64 577.225 1571.38 570.853 1559.9 566.375C1548.52 561.897 1535.45 559.658 1520.68 559.658C1505.56 559.658 1492.43 562.012 1481.3 566.719C1470.16 571.312 1461.49 577.914 1455.27 586.526C1449.06 595.137 1445.96 605.241 1445.96 616.838C1445.96 626.139 1448.01 634.061 1452.11 640.606C1456.21 647.151 1462.95 652.834 1472.33 657.657C1481.71 662.364 1494.37 666.785 1510.31 670.918C1524.61 674.593 1535.22 677.635 1542.14 680.047C1549.05 682.458 1553.51 684.984 1555.5 687.625C1557.61 690.151 1558.66 693.538 1558.66 697.786C1558.66 704.675 1555.85 710.129 1550.22 714.148C1544.71 718.052 1536.86 720.004 1526.66 720.004C1515.06 720.004 1505.45 717.363 1497.83 712.081C1490.21 706.8 1485.28 699.566 1483.06 690.38L1439.8 696.925C1442.97 715.641 1451.88 730.166 1466.53 740.499Z" fill="white"/>
<path d="M1048.89 833.64C1047.86 833.64 1046.71 834.344 1045.43 835.752C1044.2 837.16 1042.92 839.059 1041.59 841.448C1040.31 843.837 1039.1 846.547 1037.94 849.576C1036.84 852.605 1035.9 855.741 1035.13 858.984L1036.22 852.2C1037.92 847.123 1039.59 843.048 1041.21 839.976C1042.83 836.904 1044.45 834.664 1046.07 833.256C1047.74 831.848 1049.49 831.144 1051.32 831.144C1053.5 831.144 1055.2 831.933 1056.44 833.512C1057.72 835.048 1058.36 837.352 1058.36 840.424C1058.36 842.387 1058.08 844.52 1057.53 846.824C1057.02 849.085 1056.23 851.347 1055.16 853.608C1054.09 855.827 1052.77 857.875 1051.19 859.752C1049.66 861.629 1047.89 863.123 1045.88 864.232C1043.88 865.341 1041.66 865.896 1039.22 865.896C1037.99 865.896 1036.86 865.555 1035.83 864.872C1034.85 864.189 1034.17 863.229 1033.78 861.992L1034.3 860.776C1034.85 862.056 1035.47 862.973 1036.15 863.528C1036.84 864.04 1037.65 864.296 1038.58 864.296C1039.99 864.296 1041.34 863.741 1042.62 862.632C1043.9 861.523 1045.07 860.051 1046.14 858.216C1047.25 856.339 1048.21 854.269 1049.02 852.008C1049.83 849.747 1050.45 847.485 1050.87 845.224C1051.34 842.92 1051.58 840.787 1051.58 838.824C1051.58 837.032 1051.34 835.731 1050.87 834.92C1050.4 834.067 1049.74 833.64 1048.89 833.64ZM1034.55 861.736C1033.4 862.291 1032.21 862.952 1030.97 863.72C1029.77 864.445 1028.6 865.213 1027.45 866.024L1026.49 865.576C1026.79 864.979 1027.04 864.381 1027.26 863.784C1027.43 863.144 1027.58 862.504 1027.7 861.864L1039.03 822.312C1039.42 820.861 1039.35 819.795 1038.84 819.112C1038.37 818.429 1037.09 818.088 1035 818.088L1035.38 816.744C1037.94 816.701 1040.21 816.467 1042.17 816.04C1044.17 815.571 1046.05 814.931 1047.8 814.12L1034.55 861.736ZM1102.56 861.992L1097.44 867.688L1092.45 837.608C1092.23 836.328 1092 835.453 1091.74 834.984C1091.49 834.472 1091.08 834.216 1090.53 834.216C1090.1 834.216 1089.61 834.579 1089.05 835.304C1088.5 835.987 1087.82 837.459 1087.01 839.72L1086.11 842.344H1084.89L1086.49 837.672C1087.39 835.069 1088.5 833.341 1089.82 832.488C1091.14 831.592 1092.53 831.144 1093.98 831.144C1095.48 831.144 1096.63 831.592 1097.44 832.488C1098.29 833.341 1098.89 834.963 1099.23 837.352L1102.56 861.992ZM1088.09 873.96C1090.01 872.979 1092.02 871.635 1094.11 869.928C1096.2 868.264 1098.36 866.003 1100.57 863.144C1103.05 860.029 1105.27 856.573 1107.23 852.776C1109.19 848.979 1110.6 845.203 1111.45 841.448C1110.64 840.979 1109.81 840.424 1108.96 839.784C1108.15 839.101 1107.46 838.333 1106.91 837.48C1106.4 836.627 1106.16 835.667 1106.21 834.6C1106.29 833.491 1106.65 832.637 1107.29 832.04C1107.93 831.443 1108.79 831.144 1109.85 831.144C1111.09 831.144 1111.99 831.613 1112.54 832.552C1113.14 833.448 1113.44 834.771 1113.44 836.52C1113.44 838.653 1113.08 840.957 1112.35 843.432C1111.67 845.864 1110.71 848.36 1109.47 850.92C1108.28 853.48 1106.93 855.955 1105.44 858.344C1103.94 860.691 1102.41 862.845 1100.83 864.808C1099.93 865.917 1098.8 867.133 1097.44 868.456C1096.12 869.821 1094.6 871.144 1092.89 872.424C1091.23 873.704 1089.37 874.771 1087.33 875.624C1086.17 876.136 1085.15 876.499 1084.25 876.712C1083.4 876.925 1082.7 877.032 1082.14 877.032C1081.12 877.032 1080.26 876.776 1079.58 876.264C1078.86 875.752 1078.49 875.027 1078.49 874.088C1078.49 873.107 1078.88 872.317 1079.65 871.72C1080.37 871.123 1081.25 870.824 1082.27 870.824C1083.38 870.824 1084.4 871.123 1085.34 871.72C1086.32 872.36 1087.24 873.107 1088.09 873.96ZM1226.16 819.88H1229.88C1231.54 819.88 1233.14 819.859 1234.68 819.816C1236.21 819.773 1237.53 819.731 1238.64 819.688L1238.32 820.968C1236.87 821.011 1235.74 821.181 1234.93 821.48C1234.12 821.736 1233.48 822.248 1233.01 823.016C1232.59 823.741 1232.16 824.893 1231.73 826.472L1223.28 858.216C1222.9 859.752 1222.73 860.904 1222.77 861.672C1222.86 862.44 1223.24 862.952 1223.92 863.208C1224.61 863.464 1225.65 863.635 1227.06 863.72L1226.8 865C1225.69 864.915 1224.37 864.872 1222.84 864.872C1221.34 864.829 1219.76 864.808 1218.1 864.808C1216.31 864.808 1214.6 864.829 1212.98 864.872C1211.4 864.872 1210.12 864.915 1209.14 865L1209.4 863.72C1210.89 863.635 1212.02 863.464 1212.79 863.208C1213.6 862.952 1214.24 862.44 1214.71 861.672C1215.18 860.904 1215.6 859.752 1215.99 858.216L1225.27 823.72L1198.71 865.32H1197.3L1192.69 824.168L1183.92 857.32C1183.58 858.771 1183.41 859.965 1183.41 860.904C1183.45 861.843 1183.86 862.525 1184.63 862.952C1185.44 863.379 1186.7 863.635 1188.4 863.72L1188.08 865C1187.61 864.957 1186.97 864.936 1186.16 864.936C1185.4 864.893 1184.59 864.872 1183.73 864.872C1182.92 864.829 1182.15 864.808 1181.43 864.808C1180.32 864.808 1179.21 864.829 1178.1 864.872C1176.99 864.872 1176.07 864.915 1175.35 865L1175.67 863.72C1177.16 863.635 1178.31 863.379 1179.12 862.952C1179.98 862.525 1180.66 861.843 1181.17 860.904C1181.68 859.965 1182.11 858.771 1182.45 857.32L1190.71 826.472C1191.13 824.893 1191.31 823.741 1191.22 823.016C1191.13 822.248 1190.75 821.736 1190.07 821.48C1189.43 821.181 1188.38 821.011 1186.93 820.968L1187.25 819.688C1188.06 819.731 1189.04 819.773 1190.2 819.816C1191.39 819.859 1192.65 819.88 1193.97 819.88C1195 819.88 1196.02 819.859 1197.04 819.816C1198.07 819.773 1198.94 819.731 1199.67 819.688L1203.25 855.912L1226.16 819.88ZM1276.3 832.424C1275.06 832.424 1273.84 832.979 1272.65 834.088C1271.45 835.197 1270.32 836.712 1269.26 838.632C1268.23 840.509 1267.31 842.621 1266.5 844.968C1265.69 847.315 1265.05 849.747 1264.58 852.264C1264.16 854.781 1263.94 857.171 1263.94 859.432C1263.94 861.224 1264.2 862.547 1264.71 863.4C1265.27 864.211 1266.06 864.616 1267.08 864.616C1268.32 864.616 1269.53 864.061 1270.73 862.952C1271.92 861.843 1273.05 860.349 1274.12 858.472C1275.19 856.595 1276.1 854.504 1276.87 852.2C1277.68 849.853 1278.3 847.421 1278.73 844.904C1279.2 842.387 1279.43 839.955 1279.43 837.608C1279.43 835.731 1279.18 834.408 1278.66 833.64C1278.15 832.829 1277.36 832.424 1276.3 832.424ZM1257.42 855.656C1257.42 853.779 1257.67 851.731 1258.18 849.512C1258.7 847.293 1259.49 845.096 1260.55 842.92C1261.62 840.744 1262.9 838.781 1264.39 837.032C1265.93 835.24 1267.72 833.811 1269.77 832.744C1271.86 831.677 1274.16 831.144 1276.68 831.144C1279.54 831.144 1281.8 831.997 1283.46 833.704C1285.13 835.368 1285.96 837.928 1285.96 841.384C1285.96 843.261 1285.7 845.309 1285.19 847.528C1284.68 849.747 1283.89 851.944 1282.82 854.12C1281.76 856.296 1280.46 858.28 1278.92 860.072C1277.43 861.821 1275.63 863.229 1273.54 864.296C1271.5 865.363 1269.21 865.896 1266.7 865.896C1263.84 865.896 1261.58 865.043 1259.91 863.336C1258.25 861.629 1257.42 859.069 1257.42 855.656ZM1320.26 865H1313.54L1321.22 837.48C1321.6 836.115 1321.73 835.155 1321.6 834.6C1321.48 834.045 1321.07 833.768 1320.39 833.768C1319.54 833.768 1318.75 834.216 1318.02 835.112C1317.3 836.008 1316.53 837.565 1315.72 839.784L1314.76 842.472H1313.54L1315.14 837.736C1315.78 835.987 1316.55 834.643 1317.44 833.704C1318.34 832.765 1319.28 832.104 1320.26 831.72C1321.28 831.336 1322.29 831.144 1323.27 831.144C1324.59 831.144 1325.55 831.421 1326.15 831.976C1326.75 832.531 1327.11 833.256 1327.24 834.152C1327.36 835.048 1327.34 836.029 1327.17 837.096C1327.04 838.12 1326.85 839.123 1326.6 840.104L1320.26 865ZM1336.64 832.68C1335.71 832.68 1334.72 833.085 1333.7 833.896C1332.68 834.664 1331.63 835.837 1330.56 837.416C1329.5 838.995 1328.41 840.979 1327.3 843.368C1326.23 845.757 1325.15 848.552 1324.04 851.752C1322.97 854.909 1321.9 858.493 1320.84 862.504L1322.37 854.184C1323.74 849.832 1325.02 846.184 1326.21 843.24C1327.41 840.296 1328.58 837.949 1329.73 836.2C1330.93 834.408 1332.14 833.128 1333.38 832.36C1334.66 831.549 1336.03 831.144 1337.48 831.144C1338.84 831.144 1339.89 831.549 1340.61 832.36C1341.38 833.128 1341.76 834.109 1341.76 835.304C1341.76 836.285 1341.53 837.181 1341.06 837.992C1340.59 838.76 1339.97 839.4 1339.2 839.912C1338.48 840.381 1337.65 840.616 1336.71 840.616C1335.81 840.616 1335.09 840.381 1334.53 839.912C1333.98 839.4 1333.7 838.696 1333.7 837.8C1333.7 836.989 1333.87 836.264 1334.21 835.624C1334.55 834.984 1335 834.429 1335.56 833.96C1336.11 833.491 1336.73 833.149 1337.41 832.936C1337.33 832.851 1337.22 832.787 1337.09 832.744C1336.96 832.701 1336.82 832.68 1336.64 832.68ZM1377.31 850.6L1379.36 850.536C1377.78 851.347 1376.35 852.093 1375.07 852.776C1373.79 853.416 1372.77 854.035 1372 854.632C1371.23 855.187 1370.85 855.72 1370.85 856.232C1370.85 856.659 1371.12 857.043 1371.68 857.384C1372.28 857.683 1373.17 858.003 1374.37 858.344L1379.29 859.752C1380.62 860.093 1381.81 860.52 1382.88 861.032C1383.99 861.501 1384.86 862.12 1385.5 862.888C1386.19 863.613 1386.53 864.573 1386.53 865.768C1386.53 867.005 1386.12 868.285 1385.31 869.608C1384.5 870.973 1383.31 872.232 1381.73 873.384C1380.15 874.579 1378.19 875.539 1375.84 876.264C1373.49 877.032 1370.78 877.416 1367.71 877.416C1365.49 877.416 1363.59 877.203 1362.01 876.776C1360.39 876.392 1359.18 875.837 1358.37 875.112C1357.51 874.387 1357.09 873.533 1357.09 872.552C1357.09 871.827 1357.34 871.101 1357.85 870.376C1358.32 869.651 1359.01 868.968 1359.9 868.328C1360.76 867.731 1361.8 867.155 1363.04 866.6C1364.23 866.088 1365.56 865.683 1367.01 865.384L1367.39 866.344C1365.85 867.155 1364.79 868.029 1364.19 868.968C1363.59 869.949 1363.29 870.931 1363.29 871.912C1363.29 873.448 1363.85 874.557 1364.96 875.24C1366.07 875.965 1367.45 876.328 1369.12 876.328C1370.44 876.328 1371.81 876.115 1373.21 875.688C1374.67 875.261 1376.01 874.685 1377.25 873.96C1378.48 873.277 1379.47 872.467 1380.19 871.528C1380.92 870.632 1381.28 869.672 1381.28 868.648C1381.28 867.965 1381.04 867.496 1380.57 867.24C1380.11 866.984 1379.4 866.749 1378.46 866.536L1368.86 863.976C1367.84 863.72 1366.99 863.272 1366.3 862.632C1365.62 861.949 1365.28 861.075 1365.28 860.008C1365.28 859.069 1365.64 858.131 1366.37 857.192C1367.13 856.253 1368.39 855.272 1370.14 854.248C1371.89 853.181 1374.28 851.965 1377.31 850.6ZM1380.45 832.296C1379.25 832.296 1378.23 832.659 1377.37 833.384C1376.56 834.109 1375.86 835.048 1375.26 836.2C1374.71 837.352 1374.26 838.589 1373.92 839.912C1373.62 841.192 1373.41 842.408 1373.28 843.56C1373.15 844.712 1373.09 845.651 1373.09 846.376C1373.09 847.741 1373.34 848.723 1373.85 849.32C1374.41 849.875 1375.13 850.152 1376.03 850.152C1377.44 850.152 1378.59 849.683 1379.49 848.744C1380.43 847.805 1381.15 846.632 1381.66 845.224C1382.22 843.773 1382.6 842.301 1382.81 840.808C1383.03 839.315 1383.13 837.992 1383.13 836.84C1383.13 835.475 1382.96 834.387 1382.62 833.576C1382.28 832.723 1381.56 832.296 1380.45 832.296ZM1380.96 831.144C1383.56 831.144 1385.69 831.72 1387.36 832.872C1389.02 833.981 1389.85 835.816 1389.85 838.376C1389.85 840.424 1389.24 842.451 1388 844.456C1386.8 846.419 1385.12 848.061 1382.94 849.384C1380.77 850.664 1378.19 851.304 1375.2 851.304C1372.72 851.304 1370.65 850.749 1368.99 849.64C1367.33 848.488 1366.49 846.696 1366.49 844.264C1366.49 843.027 1366.75 841.661 1367.26 840.168C1367.82 838.632 1368.67 837.203 1369.82 835.88C1370.97 834.515 1372.47 833.384 1374.3 832.488C1376.14 831.592 1378.36 831.144 1380.96 831.144ZM1385.69 834.472L1384.48 834.024C1385.12 832.531 1386.14 831.229 1387.55 830.12C1389 829.011 1390.54 828.456 1392.16 828.456C1393.35 828.456 1394.29 828.797 1394.97 829.48C1395.66 830.12 1396 831.08 1396 832.36C1396 833.555 1395.7 834.451 1395.1 835.048C1394.51 835.645 1393.84 835.944 1393.12 835.944C1392.44 835.944 1391.77 835.709 1391.13 835.24C1390.54 834.771 1390.17 834.024 1390.05 833C1389.92 831.976 1390.2 830.696 1390.88 829.16L1391.58 829.352C1389.83 830.035 1388.57 830.76 1387.81 831.528C1387.04 832.253 1386.33 833.235 1385.69 834.472ZM1425.31 863.4C1426.25 863.4 1427.3 862.845 1428.45 861.736C1429.6 860.627 1430.77 859.112 1431.97 857.192C1433.16 855.229 1434.27 852.968 1435.3 850.408C1436.32 847.848 1437.17 845.117 1437.86 842.216L1436.7 849.192C1435.25 853.245 1433.76 856.509 1432.22 858.984C1430.73 861.416 1429.2 863.187 1427.62 864.296C1426.04 865.363 1424.42 865.896 1422.75 865.896C1420.62 865.896 1419.02 865.192 1417.95 863.784C1416.89 862.333 1416.35 860.435 1416.35 858.088C1416.35 855.955 1416.69 853.672 1417.38 851.24C1418.1 848.808 1419.08 846.397 1420.32 844.008C1421.6 841.619 1423.05 839.464 1424.67 837.544C1426.29 835.624 1428.04 834.088 1429.92 832.936C1431.8 831.741 1433.68 831.144 1435.55 831.144C1437 831.144 1438.11 831.827 1438.88 833.192C1439.69 834.515 1439.88 836.456 1439.46 839.016L1438.75 839.4C1439.05 837.395 1438.92 835.795 1438.37 834.6C1437.86 833.363 1437 832.744 1435.81 832.744C1434.78 832.744 1433.7 833.277 1432.54 834.344C1431.39 835.368 1430.26 836.797 1429.15 838.632C1428.09 840.424 1427.08 842.451 1426.14 844.712C1425.25 846.973 1424.54 849.32 1424.03 851.752C1423.52 854.141 1423.26 856.488 1423.26 858.792C1423.26 860.499 1423.44 861.693 1423.78 862.376C1424.16 863.059 1424.67 863.4 1425.31 863.4ZM1440.61 832.04C1441.89 831.997 1443.13 831.912 1444.32 831.784C1445.52 831.656 1446.62 831.443 1447.65 831.144L1439.52 859.496C1439.39 859.965 1439.26 860.499 1439.14 861.096C1439.05 861.651 1439.07 862.141 1439.2 862.568C1439.37 862.995 1439.78 863.208 1440.42 863.208C1441.18 863.208 1441.95 862.803 1442.72 861.992C1443.49 861.139 1444.26 859.539 1445.02 857.192L1445.92 854.568H1447.14L1445.54 859.24C1444.94 860.989 1444.21 862.333 1443.36 863.272C1442.51 864.211 1441.59 864.872 1440.61 865.256C1439.67 865.683 1438.75 865.896 1437.86 865.896C1435.98 865.896 1434.66 865.299 1433.89 864.104C1433.33 863.165 1433.14 862.035 1433.31 860.712C1433.53 859.347 1433.82 857.939 1434.21 856.488L1440.61 832.04ZM1482.15 865H1475.43L1483.11 837.48C1483.29 836.925 1483.41 836.371 1483.5 835.816C1483.63 835.219 1483.61 834.728 1483.43 834.344C1483.26 833.96 1482.86 833.768 1482.22 833.768C1481.37 833.768 1480.58 834.195 1479.85 835.048C1479.17 835.901 1478.42 837.48 1477.61 839.784L1476.65 842.472H1475.43L1477.03 837.736C1477.97 835.133 1479.13 833.384 1480.49 832.488C1481.9 831.592 1483.37 831.144 1484.91 831.144C1486.27 831.144 1487.27 831.421 1487.91 831.976C1488.55 832.531 1488.94 833.256 1489.07 834.152C1489.24 835.005 1489.24 835.965 1489.07 837.032C1488.94 838.056 1488.75 839.08 1488.49 840.104L1482.15 865ZM1484.78 852.52C1486.31 848.424 1487.79 845.011 1489.19 842.28C1490.65 839.507 1492.05 837.309 1493.42 835.688C1494.78 834.067 1496.17 832.915 1497.58 832.232C1499.03 831.507 1500.54 831.144 1502.12 831.144C1504.17 831.144 1505.58 831.613 1506.35 832.552C1507.16 833.491 1507.52 834.707 1507.43 836.2C1507.39 837.651 1507.11 839.187 1506.6 840.808L1500.39 859.56C1499.97 860.712 1499.82 861.629 1499.95 862.312C1500.07 862.952 1500.54 863.272 1501.35 863.272C1502.08 863.272 1502.81 862.867 1503.53 862.056C1504.3 861.245 1505.11 859.645 1505.96 857.256L1506.92 854.632H1508.14L1506.54 859.304C1505.94 861.096 1505.17 862.461 1504.23 863.4C1503.34 864.339 1502.38 864.979 1501.35 865.32C1500.37 865.704 1499.41 865.896 1498.47 865.896C1497.41 865.896 1496.51 865.725 1495.79 865.384C1495.06 865.043 1494.51 864.573 1494.12 863.976C1493.61 863.165 1493.42 862.141 1493.55 860.904C1493.67 859.624 1494.02 858.173 1494.57 856.552L1500.52 838.568C1500.74 837.928 1500.91 837.224 1501.03 836.456C1501.16 835.688 1501.14 835.027 1500.97 834.472C1500.8 833.875 1500.27 833.576 1499.37 833.576C1498.43 833.576 1497.41 834.045 1496.3 834.984C1495.19 835.923 1494.02 837.267 1492.78 839.016C1491.58 840.723 1490.41 842.749 1489.26 845.096C1488.11 847.443 1487 850.003 1485.93 852.776C1484.86 855.507 1483.88 858.408 1482.99 861.48L1484.78 852.52ZM1611.81 841.576L1611.61 842.856H1589.66L1589.85 841.576H1611.81ZM1602.78 827.176C1601.29 827.176 1599.92 827.005 1598.69 826.664C1597.45 826.323 1596.25 825.917 1595.1 825.448C1593.99 824.979 1592.84 824.573 1591.65 824.232C1590.45 823.891 1589.13 823.72 1587.68 823.72C1586.31 823.72 1585.29 824.083 1584.61 824.808C1583.92 825.491 1583.6 826.472 1583.65 827.752C1583.69 829.075 1584.16 830.141 1585.05 830.952C1585.99 831.72 1587.38 832.232 1589.21 832.488C1589.21 832.488 1589.17 832.701 1589.09 833.128C1589.04 833.555 1589.02 833.768 1589.02 833.768C1587.57 833.555 1586.21 833.171 1584.93 832.616C1583.65 832.019 1582.6 831.165 1581.79 830.056C1581.02 828.904 1580.62 827.475 1580.57 825.768C1580.53 823.464 1581.19 821.544 1582.56 820.008C1583.97 818.472 1585.97 817.704 1588.57 817.704C1590.07 817.704 1591.39 817.939 1592.54 818.408C1593.74 818.877 1594.85 819.432 1595.87 820.072C1596.94 820.712 1597.98 821.373 1599.01 822.056C1600.03 822.696 1601.12 823.251 1602.27 823.72C1603.46 824.189 1604.79 824.424 1606.24 824.424C1608.29 824.424 1610.16 824.189 1611.87 823.72C1613.58 823.208 1615.43 822.525 1617.44 821.672C1618.33 820.307 1619.21 819.261 1620.06 818.536C1620.92 817.811 1621.66 817.725 1622.3 818.28C1622.81 818.707 1622.79 819.283 1622.24 820.008C1621.68 820.733 1620.28 821.523 1618.01 822.376C1614.56 824.808 1611.74 828.008 1609.57 831.976C1607.39 835.944 1605.66 840.403 1604.38 845.352L1600.41 860.84C1599.69 863.741 1598.62 866.408 1597.21 868.84C1595.81 871.315 1594.01 873.299 1591.84 874.792C1589.66 876.285 1587.06 877.032 1584.03 877.032C1582.62 877.032 1581.36 876.883 1580.25 876.584C1579.19 876.328 1578.33 875.901 1577.69 875.304C1577.05 874.707 1576.71 873.96 1576.67 873.064C1576.63 871.997 1576.99 871.037 1577.76 870.184C1578.53 869.373 1579.55 868.968 1580.83 868.968C1581.81 868.968 1582.62 869.224 1583.26 869.736C1583.9 870.291 1584.24 871.016 1584.29 871.912C1584.29 872.765 1584.01 873.512 1583.45 874.152C1582.94 874.792 1582.26 875.304 1581.41 875.688C1581.7 875.773 1582.02 875.837 1582.37 875.88C1582.71 875.965 1583.07 876.008 1583.45 876.008C1585.08 876.008 1586.4 875.496 1587.42 874.472C1588.49 873.448 1589.38 872.061 1590.11 870.312C1590.84 868.563 1591.5 866.579 1592.09 864.36C1592.73 862.099 1593.35 859.752 1593.95 857.32L1596.38 848.232C1597.24 845.032 1598.32 842.195 1599.65 839.72C1600.97 837.245 1602.5 835.048 1604.25 833.128C1606 831.165 1607.92 829.352 1610.01 827.688C1612.1 826.024 1614.3 824.381 1616.61 822.76C1615.41 823.272 1614.24 823.805 1613.09 824.36C1611.93 824.872 1610.78 825.341 1609.63 825.768C1608.52 826.195 1607.39 826.536 1606.24 826.792C1605.13 827.048 1603.98 827.176 1602.78 827.176ZM1656.25 832.424C1655.02 832.424 1653.8 832.979 1652.61 834.088C1651.41 835.197 1650.28 836.712 1649.21 838.632C1648.19 840.509 1647.27 842.621 1646.46 844.968C1645.65 847.315 1645.01 849.747 1644.54 852.264C1644.11 854.781 1643.9 857.171 1643.9 859.432C1643.9 861.224 1644.16 862.547 1644.67 863.4C1645.22 864.211 1646.01 864.616 1647.04 864.616C1648.27 864.616 1649.49 864.061 1650.69 862.952C1651.88 861.843 1653.01 860.349 1654.08 858.472C1655.14 856.595 1656.06 854.504 1656.83 852.2C1657.64 849.853 1658.26 847.421 1658.69 844.904C1659.15 842.387 1659.39 839.955 1659.39 837.608C1659.39 835.731 1659.13 834.408 1658.62 833.64C1658.11 832.829 1657.32 832.424 1656.25 832.424ZM1637.37 855.656C1637.37 853.779 1637.63 851.731 1638.14 849.512C1638.65 847.293 1639.44 845.096 1640.51 842.92C1641.58 840.744 1642.86 838.781 1644.35 837.032C1645.89 835.24 1647.68 833.811 1649.73 832.744C1651.82 831.677 1654.12 831.144 1656.64 831.144C1659.5 831.144 1661.76 831.997 1663.42 833.704C1665.09 835.368 1665.92 837.928 1665.92 841.384C1665.92 843.261 1665.66 845.309 1665.15 847.528C1664.64 849.747 1663.85 851.944 1662.78 854.12C1661.71 856.296 1660.41 858.28 1658.88 860.072C1657.38 861.821 1655.59 863.229 1653.5 864.296C1651.45 865.363 1649.17 865.896 1646.65 865.896C1643.79 865.896 1641.53 865.043 1639.87 863.336C1638.21 861.629 1637.37 859.069 1637.37 855.656ZM1700.28 865H1693.56L1701.24 837.48C1701.41 836.925 1701.54 836.371 1701.63 835.816C1701.75 835.219 1701.73 834.728 1701.56 834.344C1701.39 833.96 1700.99 833.768 1700.35 833.768C1699.49 833.768 1698.7 834.195 1697.98 835.048C1697.3 835.901 1696.55 837.48 1695.74 839.784L1694.78 842.472H1693.56L1695.16 837.736C1696.1 835.133 1697.25 833.384 1698.62 832.488C1700.03 831.592 1701.5 831.144 1703.03 831.144C1704.4 831.144 1705.4 831.421 1706.04 831.976C1706.68 832.531 1707.07 833.256 1707.19 834.152C1707.36 835.005 1707.36 835.965 1707.19 837.032C1707.07 838.056 1706.87 839.08 1706.62 840.104L1700.28 865ZM1702.91 852.52C1704.44 848.424 1705.91 845.011 1707.32 842.28C1708.77 839.507 1710.18 837.309 1711.55 835.688C1712.91 834.067 1714.3 832.915 1715.71 832.232C1717.16 831.507 1718.67 831.144 1720.25 831.144C1722.3 831.144 1723.71 831.613 1724.47 832.552C1725.28 833.491 1725.65 834.707 1725.56 836.2C1725.52 837.651 1725.24 839.187 1724.73 840.808L1718.52 859.56C1718.1 860.712 1717.95 861.629 1718.07 862.312C1718.2 862.952 1718.67 863.272 1719.48 863.272C1720.21 863.272 1720.93 862.867 1721.66 862.056C1722.43 861.245 1723.24 859.645 1724.09 857.256L1725.05 854.632H1726.27L1724.67 859.304C1724.07 861.096 1723.3 862.461 1722.36 863.4C1721.47 864.339 1720.51 864.979 1719.48 865.32C1718.5 865.704 1717.54 865.896 1716.6 865.896C1715.54 865.896 1714.64 865.725 1713.91 865.384C1713.19 865.043 1712.63 864.573 1712.25 863.976C1711.74 863.165 1711.55 862.141 1711.67 860.904C1711.8 859.624 1712.14 858.173 1712.7 856.552L1718.65 838.568C1718.86 837.928 1719.03 837.224 1719.16 836.456C1719.29 835.688 1719.27 835.027 1719.1 834.472C1718.93 833.875 1718.39 833.576 1717.5 833.576C1716.56 833.576 1715.54 834.045 1714.43 834.984C1713.32 835.923 1712.14 837.267 1710.91 839.016C1709.71 840.723 1708.54 842.749 1707.39 845.096C1706.23 847.443 1705.12 850.003 1704.06 852.776C1702.99 855.507 1702.01 858.408 1701.11 861.48L1702.91 852.52ZM1759.09 850.664C1761.27 849.896 1763.25 849.107 1765.04 848.296C1766.88 847.485 1768.37 846.611 1769.52 845.672C1771.1 844.349 1772.34 842.792 1773.24 841C1774.17 839.165 1774.64 837.16 1774.64 834.984C1774.64 833.875 1774.56 833.171 1774.39 832.872C1774.22 832.531 1773.96 832.36 1773.62 832.36C1772.6 832.36 1771.49 832.829 1770.29 833.768C1769.14 834.707 1767.99 836.008 1766.84 837.672C1765.68 839.293 1764.62 841.149 1763.64 843.24C1762.7 845.288 1761.93 847.485 1761.33 849.832C1760.78 852.136 1760.5 854.419 1760.5 856.68C1760.5 858.899 1760.9 860.477 1761.72 861.416C1762.57 862.355 1763.68 862.824 1765.04 862.824C1766.45 862.824 1768.01 862.397 1769.72 861.544C1771.42 860.648 1773.11 859.069 1774.77 856.808L1775.8 857.32C1774.94 858.728 1773.83 860.093 1772.47 861.416C1771.1 862.739 1769.54 863.827 1767.8 864.68C1766.09 865.491 1764.23 865.896 1762.23 865.896C1760.48 865.896 1758.92 865.555 1757.56 864.872C1756.19 864.189 1755.12 863.187 1754.36 861.864C1753.63 860.499 1753.27 858.835 1753.27 856.872C1753.27 854.909 1753.61 852.776 1754.29 850.472C1755.02 848.125 1756.02 845.821 1757.3 843.56C1758.62 841.299 1760.18 839.229 1761.97 837.352C1763.76 835.432 1765.77 833.917 1767.99 832.808C1770.21 831.699 1772.55 831.144 1775.03 831.144C1776.56 831.144 1777.84 831.528 1778.87 832.296C1779.89 833.021 1780.4 834.131 1780.4 835.624C1780.4 837.331 1779.91 838.931 1778.93 840.424C1777.99 841.875 1776.71 843.197 1775.09 844.392C1773.47 845.587 1771.7 846.653 1769.78 847.592C1767.9 848.531 1766 849.341 1764.08 850.024C1762.21 850.707 1760.52 851.261 1759.03 851.688L1759.09 850.664ZM1808.46 864.04C1808.8 864.211 1809.16 864.36 1809.55 864.488C1809.97 864.573 1810.55 864.616 1811.28 864.616C1813.03 864.616 1814.48 864.083 1815.63 863.016C1816.78 861.907 1817.36 860.349 1817.36 858.344C1817.36 857.021 1817.08 855.677 1816.52 854.312C1816.01 852.947 1815.16 851.411 1813.96 849.704C1812.98 848.253 1812.04 846.824 1811.15 845.416C1810.29 843.965 1809.87 842.28 1809.87 840.36C1809.87 838.525 1810.32 836.925 1811.21 835.56C1812.11 834.195 1813.35 833.128 1814.92 832.36C1816.55 831.549 1818.36 831.144 1820.36 831.144C1821.69 831.144 1822.99 831.315 1824.27 831.656C1825.59 831.955 1826.68 832.531 1827.53 833.384C1828.39 834.237 1828.81 835.475 1828.81 837.096C1828.81 837.565 1828.68 838.099 1828.43 838.696C1828.21 839.293 1827.87 839.805 1827.4 840.232C1826.93 840.659 1826.32 840.872 1825.55 840.872C1824.74 840.872 1824.05 840.573 1823.5 839.976C1822.95 839.379 1822.67 838.611 1822.67 837.672C1822.67 836.776 1822.84 835.944 1823.18 835.176C1823.52 834.365 1823.97 833.64 1824.52 833C1823.8 832.573 1822.84 832.36 1821.64 832.36C1820.07 832.36 1818.76 832.872 1817.74 833.896C1816.76 834.92 1816.27 836.349 1816.27 838.184C1816.27 839.165 1816.42 840.061 1816.72 840.872C1817.01 841.64 1817.46 842.451 1818.06 843.304C1818.66 844.157 1819.34 845.181 1820.11 846.376C1821.22 848.125 1822.11 849.747 1822.8 851.24C1823.52 852.733 1823.88 854.291 1823.88 855.912C1823.88 857.832 1823.37 859.56 1822.35 861.096C1821.37 862.589 1820.02 863.763 1818.32 864.616C1816.61 865.469 1814.67 865.896 1812.49 865.896C1810.96 865.896 1809.46 865.661 1808.01 865.192C1806.6 864.765 1805.45 864.083 1804.56 863.144C1803.66 862.163 1803.21 860.84 1803.21 859.176C1803.21 858.408 1803.45 857.64 1803.92 856.872C1804.34 856.104 1805.07 855.72 1806.09 855.72C1807.16 855.72 1807.93 856.168 1808.4 857.064C1808.91 857.917 1809.16 858.92 1809.16 860.072C1809.16 860.925 1809.08 861.672 1808.91 862.312C1808.74 862.952 1808.59 863.528 1808.46 864.04Z" fill="white"/>
</g>
<defs>
<filter id="filter0_f_560_184" x="-30" y="-24" width="2920" height="1428.44" filterUnits="userSpaceOnUse" color-interpolation-filters="sRGB">
<feFlood flood-opacity="0" result="BackgroundImageFix"/>
<feBlend mode="normal" in="SourceGraphic" in2="BackgroundImageFix" result="shape"/>
<feGaussianBlur stdDeviation="75" result="effect1_foregroundBlur_560_184"/>
</filter>
<radialGradient id="paint0_radial_560_184" cx="0" cy="0" r="1" gradientUnits="userSpaceOnUse" gradientTransform="translate(2422.73 126) rotate(154.174) scale(2160.29 1705.75)">
<stop stop-color="#7F97EF"/>
<stop offset="1" stop-color="#3D218D" stop-opacity="0"/>
</radialGradient>
<radialGradient id="paint1_radial_560_184" cx="0" cy="0" r="1" gradientUnits="userSpaceOnUse" gradientTransform="translate(120 1164.08) rotate(-18.0455) scale(2717.87 1663.8)">
<stop stop-color="#1F0B38"/>
<stop offset="1" stop-color="#7F4FE7" stop-opacity="0"/>
</radialGradient>
<radialGradient id="paint2_radial_560_184" cx="0" cy="0" r="1" gradientUnits="userSpaceOnUse" gradientTransform="translate(421.914 126) rotate(28.9948) scale(1673.23 1464.14)">
<stop stop-color="#A2D8FF"/>
<stop offset="1" stop-color="#A2CDFF" stop-opacity="0"/>
</radialGradient>
<radialGradient id="paint3_radial_560_184" cx="0" cy="0" r="1" gradientUnits="userSpaceOnUse" gradientTransform="translate(2400 150) rotate(154.637) scale(2102.68 1638.85)">
<stop stop-color="#7F97EF"/>
<stop offset="1" stop-color="#3D218D" stop-opacity="0"/>
</radialGradient>
<radialGradient id="paint4_radial_560_184" cx="0" cy="0" r="1" gradientUnits="userSpaceOnUse" gradientTransform="translate(150 1143.52) rotate(-17.699) scale(2650.45 1595.48)">
<stop stop-color="#1F0B38"/>
<stop offset="1" stop-color="#7F4FE7" stop-opacity="0"/>
</radialGradient>
<radialGradient id="paint5_radial_560_184" cx="0" cy="0" r="1" gradientUnits="userSpaceOnUse" gradientTransform="translate(445 150) rotate(28.4945) scale(1627.1 1408.02)">
<stop stop-color="#A2D8FF"/>
<stop offset="1" stop-color="#A2CDFF" stop-opacity="0"/>
</radialGradient>
<clipPath id="clip0_560_184">
<rect width="2860" height="1380" fill="white"/>
</clipPath>
</defs>
</svg>
