<svg width="2011" height="1183" viewBox="0 0 2011 1183" fill="none" xmlns="http://www.w3.org/2000/svg">
<g clip-path="url(#clip0_724_460)">
<g opacity="0.75" filter="url(#filter0_d_724_460)">
<rect x="508.994" y="591.529" width="695.127" height="695.127" rx="8.68908" transform="rotate(-45 508.994 591.529)" fill="#0E0C0A"/>
<rect x="506.69" y="591.529" width="698.385" height="698.385" rx="10.3183" transform="rotate(-45 506.69 591.529)" stroke="#E5793B" stroke-width="3.25841"/>
</g>
<path fill-rule="evenodd" clip-rule="evenodd" d="M1474.05 500.808C1474.05 500.807 1474.05 500.807 1474.05 500.806L1469.58 501.22C1469.58 493.825 1475.58 487.831 1482.97 487.831H1499.38C1499.43 484.573 1499.53 481.066 1499.67 477.311C1499.91 471.199 1500.84 465.05 1502.47 458.871L1502.48 458.833L1502.49 458.796C1504.34 452.223 1507.67 446.298 1512.41 441.046C1518.32 434.404 1524.88 429.688 1532.14 427.168C1539.03 424.707 1545.79 423.381 1552.39 423.255C1558.48 423.033 1563.71 422.921 1568.08 422.921H1581.35C1588.75 422.921 1594.75 428.917 1594.75 436.313V455.073C1594.75 462.469 1588.75 468.465 1581.35 468.465H1569.74C1563.39 468.465 1559.54 470.103 1557.26 472.542L1557.24 472.567L1557.21 472.592C1554.6 475.299 1553.33 478.456 1553.33 482.309V487.831H1614.02L1565.87 492.295H1565.88L1614.02 487.831C1614.08 484.573 1614.17 481.066 1614.32 477.311C1614.55 471.199 1615.49 465.05 1617.11 458.871L1617.12 458.833L1617.13 458.796C1618.98 452.223 1622.31 446.298 1627.05 441.046C1632.96 434.404 1639.53 429.688 1646.78 427.168C1653.67 424.707 1660.43 423.381 1667.03 423.255C1673.12 423.033 1678.36 422.921 1682.73 422.921H1696C1703.39 422.921 1709.39 428.917 1709.39 436.313V455.073C1709.39 462.469 1703.39 468.465 1696 468.465H1684.38C1678.03 468.465 1674.19 470.103 1671.9 472.542L1671.88 472.567L1671.86 472.592C1669.25 475.299 1667.97 478.456 1667.97 482.309V487.831H1697.25C1704.64 487.831 1710.64 493.827 1710.64 501.223V518.318C1710.64 525.715 1704.64 531.71 1697.25 531.71H1667.97V666.033C1667.97 673.429 1661.98 679.425 1654.58 679.425H1627.37C1619.98 679.425 1613.98 673.429 1613.98 666.033V531.71H1553.33V666.033C1553.33 673.429 1547.33 679.425 1539.94 679.425L1432.31 679.424C1424.91 679.424 1418.91 673.428 1418.91 666.032V661.619C1416.56 663.6 1414.06 665.46 1411.42 667.199C1399.03 675.454 1383.59 679.421 1365.39 679.421C1350.9 679.421 1338.67 676.964 1328.98 671.729C1319.6 666.663 1312.12 660.158 1306.7 652.166L1306.69 652.147L1306.67 652.128C1301.57 644.432 1297.87 636.389 1295.64 628.007L1295.64 627.992C1293.48 619.797 1292.15 612.244 1291.69 605.355C1291.25 598.797 1291.02 593.898 1291.02 590.741V528.584L1246.03 528.585V593.086C1246.03 600.033 1246.09 606.311 1246.2 611.923C1246.4 616.972 1247.45 620.55 1248.99 622.993L1248.99 622.998C1252.43 628.458 1257.34 631.966 1263.78 631.256L1264.16 631.213L1264.55 631.238C1270.16 631.595 1276.23 631.524 1282.74 631.011C1290.55 630.397 1297.72 636.4 1297.72 644.587V664.573C1297.72 670.968 1293.15 676.656 1286.6 677.616C1276.51 679.097 1266.54 679.697 1256.71 679.424C1244.43 679.191 1233.27 677.066 1223.3 672.939L1223.27 672.927L1223.24 672.914C1213.06 668.532 1205.24 661.475 1199.89 651.838L1199.88 651.814L1199.87 651.789C1195.15 643.029 1192.62 634.028 1192.38 624.825L1192.38 624.824C1192.15 616.233 1192.04 606.541 1192.04 595.749V528.585L1113.77 528.585V528.59H1109.3C1101.42 528.59 1096.23 529.34 1092.41 531.422C1088.71 533.494 1087.26 536.079 1087.26 539.497C1087.26 541.459 1087.87 542.906 1089.07 544.128C1090.51 545.473 1094.09 547.373 1100.75 549.568C1107.46 551.741 1117.73 554.596 1131.61 558.139L1131.63 558.143L1131.64 558.146C1145.43 561.75 1156.72 566.033 1165.36 571.074C1174.17 576.031 1180.85 582.21 1185.09 589.718C1189.3 597.079 1191.3 605.813 1191.3 615.724C1191.3 635.367 1184.16 651.188 1169.74 662.658C1155.44 674.029 1136 679.44 1111.95 679.44C1088.76 679.44 1069.53 674.183 1054.64 663.263L1054.63 663.251L1054.61 663.239C1042.21 653.969 1033.89 641.5 1029.67 626.021C1027.58 618.341 1033.13 611.387 1040.32 610.294L1069.25 605.904C1076.4 604.819 1082.28 609.586 1084.86 615.045C1086.8 619.156 1089.58 622.553 1093.24 625.283C1098.82 629.367 1106.06 631.565 1115.27 631.565C1122.94 631.565 1128.19 630.096 1131.56 627.738C1134.75 625.398 1136.32 622.332 1136.32 618.054C1136.32 615.242 1135.63 613.529 1134.71 612.434L1134.67 612.391L1134.64 612.347C1134.28 611.9 1133.43 611.147 1131.69 610.2C1130 609.279 1127.71 608.306 1124.76 607.301L1124.75 607.297L1124.74 607.293C1118.83 605.242 1109.47 602.504 1096.57 599.071C1081.82 595.252 1069.8 590.929 1060.65 586.042C1051.43 581.119 1044.43 575.074 1040.04 567.759L1040.03 567.745L1040.02 567.731C1035.67 560.365 1033.6 551.666 1033.6 541.827C1033.6 529.5 1036.74 518.604 1043.17 509.335C1049.55 500.023 1058.48 492.972 1069.76 488.131C1081.15 483.18 1094.36 480.777 1109.29 480.775L1192.04 480.775V449.705C1192.04 442.309 1198.04 436.313 1205.44 436.313H1232.64C1240.04 436.313 1246.03 442.309 1246.03 449.705V480.775L1332.28 480.775C1339.67 480.775 1345.67 486.771 1345.67 494.167V574.763C1345.67 578.726 1345.88 583.885 1346.32 590.269C1346.73 596.15 1348.02 602.125 1350.21 608.201C1352.26 613.892 1355.55 618.603 1360.11 622.413C1364.35 625.863 1370.66 627.886 1379.64 627.886C1383.04 627.886 1386.78 627.349 1390.88 626.216C1394.54 625.203 1398.08 623.248 1401.5 620.218C1404.66 617.303 1407.47 612.853 1409.73 606.542L1409.74 606.523L1409.75 606.504C1412.03 600.305 1413.28 591.898 1413.28 581.088V501.22C1413.28 493.824 1419.28 487.828 1426.67 487.828H1456.19C1463.58 487.828 1469.58 493.824 1469.58 501.22V501.223L1474.05 500.808ZM1469.58 518.318V635.543H1499.34V531.71H1482.97C1475.58 531.71 1469.58 525.715 1469.58 518.318Z" fill="#0E0C0A"/>
<path fill-rule="evenodd" clip-rule="evenodd" d="M864.483 534.375C866.181 538.714 867.59 543.237 868.714 547.939C868.525 545.954 868.432 543.916 868.432 541.827C868.432 529.499 871.572 518.601 878.003 509.332C884.386 500.022 893.312 492.972 904.59 488.131C915.98 483.179 929.198 480.775 944.133 480.775H1064.33C1069.41 480.775 1070.75 487.543 1066.39 489.678C1056.7 494.427 1048.91 500.959 1043.18 509.325L1043.17 509.334L1043.16 509.344C1040.97 512.509 1039.17 515.852 1037.74 519.364C1035.66 524.482 1030.75 528.59 1024.62 528.59H944.133C936.251 528.59 931.065 529.34 927.24 531.421C923.538 533.493 922.091 536.078 922.091 539.497C922.091 541.459 922.699 542.906 923.896 544.128C925.336 545.473 928.92 547.373 935.579 549.567C942.287 551.74 952.554 554.596 966.443 558.139L966.455 558.143L966.468 558.146C980.258 561.75 991.549 566.033 1000.19 571.074C1009 576.032 1015.68 582.211 1019.92 589.72C1024.13 597.081 1026.13 605.814 1026.13 615.724C1026.13 635.367 1018.99 651.188 1004.56 662.658C991.55 673.009 970.649 678.326 949.684 679.281L949.622 679.412H945.647C944.706 679.43 943.765 679.439 942.824 679.44L935.167 679.444L935.186 679.412H783.243L783.196 679.411C765.31 679.034 749.278 674.95 735.214 667.051L735.196 667.04L735.178 667.03C720.578 658.648 709.073 647.15 700.725 632.591L700.715 632.573L700.705 632.554C694.699 621.846 690.901 610.06 689.28 597.242H685.456C683.746 609.736 680.091 621.221 674.456 631.655C666.456 646.563 655.229 658.315 640.824 666.834L640.819 666.837L640.815 666.84C626.455 675.285 609.915 679.44 591.336 679.44C590.695 679.44 590.057 679.435 589.42 679.425H462.125C455.442 679.425 449.903 674.529 448.896 668.129C436.639 675.724 421.875 679.411 404.823 679.411C387.575 679.411 372.274 675.036 359.091 666.168C346.024 657.377 335.855 645.435 328.577 630.463L328.571 630.451L328.565 630.438C321.394 615.448 317.856 598.632 317.856 580.079C317.856 561.197 321.447 544.252 328.749 529.349L328.752 529.343L328.755 529.336C336.159 514.342 346.572 502.45 359.988 493.777C373.503 485.041 389.28 480.746 407.142 480.746C420.596 480.746 432.622 483.246 443.101 488.364V436.313C443.101 428.917 449.097 422.921 456.493 422.921H484.03C491.427 422.921 497.423 428.917 497.423 436.313V563.852C499.074 550.964 502.768 539.18 508.555 528.546C516.66 513.544 527.882 501.788 542.19 493.374C556.541 484.935 572.968 480.775 591.336 480.775C610.028 480.775 626.632 484.987 640.998 493.551C655.408 502.076 666.633 513.889 674.63 528.907C678.902 536.871 682.021 545.46 684 554.655L700.094 554.655C695.704 551.583 693.294 545.964 695.505 540.113C696.947 536.297 698.609 532.618 700.491 529.079C708.589 513.854 719.81 501.972 734.133 493.547C748.484 484.993 764.916 480.775 783.29 480.775C802.789 480.775 819.659 485.393 833.667 494.854C847.627 504.283 857.889 517.522 864.483 534.375ZM946.945 674.916C947.185 674.909 947.425 674.902 947.665 674.894C947.777 674.89 947.89 674.886 948.002 674.882C947.65 674.894 947.298 674.906 946.945 674.916ZM895.478 586.042C904.628 590.929 916.647 595.252 931.402 599.071C944.299 602.504 953.66 605.242 959.568 607.293L959.58 607.297L959.591 607.301C962.54 608.306 964.826 609.279 966.519 610.2C968.258 611.147 969.112 611.9 969.467 612.347L969.502 612.391L969.538 612.434C970.456 613.529 971.146 615.242 971.146 618.054C971.146 619.074 970.951 620.878 970.218 622.699C969.299 624.981 967.314 626.443 963.766 627.319C960.108 628.222 955.69 628.265 951.118 628.264L783.291 628.237C770.326 628.237 761.086 624.093 754.818 616.284C750.972 611.341 748.185 605.039 746.585 597.22H858.762C865.655 597.22 871.647 591.918 871.932 584.76C872.306 575.363 871.886 566.465 870.657 558.079C871.686 561.509 873.079 564.73 874.851 567.731L874.859 567.745L874.868 567.759C879.261 575.074 886.261 581.119 895.478 586.042ZM942.837 674.975L942.886 674.975C942.864 674.975 942.843 674.975 942.821 674.975H942.837ZM497.423 628.222V596.431C498.474 604.683 500.352 612.511 503.073 619.903C504.996 625.129 510.019 628.222 515.264 628.222H497.423ZM748.019 554.655L748.016 554.672H816.087C814.717 547.937 812.63 542.887 810.007 539.306L809.986 539.278L809.966 539.249C805.319 532.695 797.489 528.982 785.278 528.982C770.877 528.982 761.062 533.359 754.852 541.39C753.001 543.793 751.39 546.578 750.035 549.77C749.229 551.669 747.937 553.373 746.292 554.655L748.019 554.655ZM563.842 623.62C564.796 621.352 564.797 618.309 562.917 615.852C556.501 607.315 553.058 595.55 553.058 580.107C553.058 570.104 554.487 561.514 557.233 554.25C560.039 547.115 564.216 541.7 569.721 537.819C575.079 534.042 582.173 531.977 591.336 531.977C604.486 531.977 613.741 536.312 619.909 544.511L619.919 544.524L619.929 544.537C626.454 553.078 629.946 564.786 629.946 580.107C629.946 594.837 626.524 606.497 620.031 615.43L620.028 615.433L620.026 615.437C614.171 623.525 605.308 627.939 592.649 628.222H557.104C560.536 628.222 562.87 625.931 563.842 623.62ZM433.693 535.811L433.709 535.824L433.726 535.837C438.761 539.75 442.552 545.322 444.973 552.823C447.449 560.493 448.733 569.555 448.733 580.079C448.733 590.602 447.449 599.664 444.973 607.334C442.566 614.791 438.695 620.351 433.458 624.272L433.442 624.284L433.426 624.297C428.467 628.079 421.515 630.206 412.112 630.206C403.156 630.206 396.249 627.969 391.022 623.843C385.56 619.531 381.435 613.706 378.705 606.192C375.921 598.419 374.497 589.731 374.497 580.079C374.497 570.556 375.97 562 378.849 554.357L378.852 554.347L378.856 554.338C381.684 546.724 385.958 540.847 391.625 536.528L391.629 536.525L391.634 536.521C397.209 532.249 404.474 529.952 413.769 529.952C422.437 529.952 428.938 532.044 433.693 535.811Z" fill="#0E0C0A"/>
<mask id="path-4-outside-1_724_460" maskUnits="userSpaceOnUse" x="303.928" y="408.993" width="1394" height="258" fill="black">
<rect fill="white" x="303.928" y="408.993" width="1394" height="258"/>
<path fill-rule="evenodd" clip-rule="evenodd" d="M1490.41 513.854V661.569H1526.55C1531.48 661.569 1535.47 657.571 1535.47 652.641V513.854H1576.89V478.903H1535.47V468.917C1535.47 463.923 1537.19 459.652 1540.61 456.101C1544.03 452.439 1549.28 450.609 1556.35 450.609H1567.96C1572.89 450.609 1576.89 446.611 1576.89 441.681V422.921C1576.89 417.99 1572.89 413.993 1567.96 413.993H1554.69C1550.38 413.993 1545.19 414.104 1539.12 414.326C1533.04 414.437 1526.75 415.657 1520.23 417.987C1513.83 420.206 1507.86 424.423 1502.34 430.636C1498.03 435.408 1495.05 440.733 1493.39 446.614C1491.85 452.495 1490.96 458.32 1490.74 464.09C1490.53 469.58 1490.42 474.518 1490.41 478.903H1469.58C1464.65 478.903 1460.65 482.9 1460.65 487.831V504.926C1460.65 509.857 1464.65 513.854 1469.58 513.854H1490.41ZM1605.05 652.641C1605.05 657.571 1609.05 661.569 1613.98 661.569H1641.19C1646.12 661.569 1650.12 657.571 1650.12 652.641V513.854H1683.85C1688.79 513.854 1692.78 509.857 1692.78 504.926V487.831C1692.78 482.9 1688.79 478.903 1683.85 478.903H1650.12V468.917C1650.12 463.923 1651.83 459.652 1655.25 456.101C1658.68 452.439 1663.92 450.609 1670.99 450.609H1682.6C1687.54 450.609 1691.53 446.611 1691.53 441.681V422.921C1691.53 417.99 1687.54 413.993 1682.6 413.993H1669.33C1665.03 413.993 1659.84 414.104 1653.76 414.326C1647.69 414.437 1641.39 415.657 1634.87 417.987C1628.47 420.206 1622.5 424.423 1616.98 430.636C1612.68 435.408 1609.69 440.733 1608.04 446.614C1606.49 452.495 1605.61 458.32 1605.39 464.09C1605.18 469.58 1605.07 474.518 1605.06 478.903H1576.89V513.854H1605.05V652.641ZM1317.71 654.409C1326.54 659.18 1337.98 661.565 1352 661.565C1369.56 661.565 1384.09 657.738 1395.57 650.081C1401.02 646.483 1405.83 642.357 1409.99 637.704V652.64C1409.99 657.571 1413.98 661.568 1418.91 661.568L1481.5 661.568V626.615H1451.72V487.828C1451.72 482.897 1447.73 478.9 1442.8 478.9H1413.28C1408.35 478.9 1404.35 482.897 1404.35 487.828V567.696C1404.35 578.791 1403.08 587.779 1400.54 594.658C1398.11 601.426 1394.96 606.586 1391.1 610.137C1387.23 613.576 1383.09 615.906 1378.67 617.127C1374.26 618.348 1370.11 618.958 1366.25 618.958C1356.64 618.958 1349.19 616.794 1343.88 612.467C1338.69 608.139 1334.94 602.758 1332.62 596.323C1330.3 589.887 1328.92 583.507 1328.48 577.183C1328.03 570.747 1327.81 565.477 1327.81 561.371V519.656H1282.09V577.349C1282.09 580.345 1282.31 585.116 1282.75 591.662C1283.19 598.209 1284.46 605.476 1286.56 613.466C1288.66 621.344 1292.14 628.944 1297 636.267C1301.97 643.59 1308.87 649.637 1317.71 654.409ZM1272.56 659.807C1276.81 659.185 1279.86 655.474 1279.86 651.181V631.194C1279.86 625.785 1275.09 621.645 1269.7 622.069C1263 622.596 1256.73 622.673 1250.87 622.301C1242.15 623.264 1235.8 618.307 1231.82 611.982C1229.72 608.653 1228.56 604.215 1228.34 598.667C1228.23 593.008 1228.18 586.684 1228.18 579.693V510.729L1327.81 510.728V480.775C1327.81 475.844 1323.82 471.847 1318.88 471.847L1228.18 471.847V436.313C1228.18 431.382 1224.18 427.385 1219.25 427.385H1192.04C1187.11 427.385 1183.11 431.382 1183.11 436.313V471.847L1152.9 471.847H1095.89C1081.43 471.849 1068.85 474.179 1058.14 478.837C1047.54 483.386 1039.31 489.933 1033.45 498.476C1027.6 506.909 1024.67 516.895 1024.67 528.435C1024.67 537.644 1026.61 545.522 1030.47 552.069C1034.34 558.504 1040.63 564.052 1049.36 568.712C1058.08 573.372 1069.74 577.589 1084.31 581.361C1097.24 584.801 1106.73 587.575 1112.81 589.683C1118.99 591.791 1122.97 593.955 1124.74 596.174C1126.5 598.282 1127.39 601.112 1127.39 604.662C1127.39 610.321 1125.18 614.759 1120.76 617.977C1116.34 621.084 1110.05 622.637 1101.88 622.637C1091.94 622.637 1083.71 620.252 1077.19 615.481C1072.94 612.313 1069.68 608.339 1067.43 603.558C1065.42 599.313 1061.16 596.221 1056.52 596.926L1027.6 601.316C1022.7 602.059 1019.28 606.674 1020.59 611.455C1024.56 626.02 1032.32 637.626 1043.89 646.271C1057.81 656.479 1076.03 661.583 1098.56 661.583C1121.98 661.583 1140.31 656.313 1153.56 645.772C1166.82 635.231 1173.44 620.751 1173.44 602.332C1173.44 593.012 1171.57 585.078 1167.81 578.532C1164.06 571.874 1158.04 566.216 1149.75 561.555C1141.58 556.784 1130.7 552.623 1117.12 549.073C1103.2 545.522 1092.82 542.637 1085.97 540.418C1079.23 538.199 1074.76 536.035 1072.55 533.927C1070.45 531.819 1069.4 529.211 1069.4 526.105C1069.4 520.89 1071.89 516.895 1076.86 514.121C1081.74 511.459 1087.9 510.734 1095.91 510.734V510.728L1152.9 510.729H1183.11V582.356C1183.11 593.119 1183.22 602.773 1183.45 611.316C1183.67 619.749 1185.99 628.071 1190.4 636.282C1195.26 645.047 1202.33 651.427 1211.61 655.422C1221 659.305 1231.6 661.347 1243.42 661.569C1252.99 661.836 1262.71 661.253 1272.56 659.807ZM348.191 649.072C360.561 657.394 374.974 661.555 391.431 661.555C409.212 661.555 424.067 657.394 435.995 649.072C436.636 648.625 437.268 648.17 437.892 647.706C438.539 647.223 439.177 646.732 439.806 646.232V652.64C439.806 657.571 443.803 661.568 448.734 661.568H576.065C576.689 661.578 577.315 661.583 577.945 661.583C595.837 661.583 611.575 657.589 625.16 649.6C638.855 641.5 649.513 630.349 657.134 616.146C663.065 605.166 666.721 592.912 668.102 579.386H679.896C681.132 593.208 684.902 605.739 691.206 616.979C699.158 630.848 710.092 641.777 724.008 649.766C737.355 657.263 752.652 661.192 769.898 661.556H853.812H853.812H929.445L929.429 661.583C930.357 661.583 931.284 661.573 932.211 661.556H933.402L933.416 661.527C954.884 660.939 975.912 655.699 988.394 645.772C1001.65 635.231 1008.27 620.751 1008.27 602.332C1008.27 593.012 1006.4 585.078 1002.64 578.532C998.886 571.874 992.867 566.216 984.584 561.555C976.411 556.784 965.532 552.623 951.947 549.073C938.031 545.522 927.649 542.637 920.801 540.418C914.064 538.199 909.591 536.035 907.382 533.927C905.284 531.819 904.235 529.211 904.235 526.105C904.235 520.89 906.72 516.895 911.69 514.121C916.565 511.459 922.733 510.734 930.742 510.734H1011.23C1015.24 510.734 1018.7 508.016 1020.21 504.292C1021.76 500.477 1023.72 496.844 1026.1 493.408C1032.32 484.351 1040.72 477.333 1051.03 472.277C1051.25 472.173 1051.17 471.847 1050.94 471.847H930.742C916.273 471.847 903.682 474.177 892.969 478.837C882.367 483.386 874.138 489.933 868.285 498.476C862.431 506.909 859.504 516.895 859.504 528.435C859.504 537.644 861.437 545.522 865.303 552.069C869.168 558.504 875.464 564.052 884.189 568.712C892.914 573.372 904.566 577.589 919.145 581.361C932.067 584.801 941.565 587.575 947.64 589.683C953.825 591.791 957.801 593.955 959.568 596.174C961.335 598.282 962.218 601.112 962.218 604.662C962.218 606.134 961.954 608.523 960.967 610.975C957.633 619.254 946.651 619.338 937.726 619.336L853.812 619.322H853.812L769.898 619.309C755.872 619.309 745.214 614.759 737.925 605.661C733.508 599.995 730.45 592.902 728.751 584.381C728.224 581.738 730.318 579.364 733.013 579.364H845.37C850.003 579.364 853.895 575.82 854.079 571.19C854.809 552.842 852.427 536.649 846.934 522.61C840.639 506.521 830.919 494.038 817.776 485.161C804.633 476.285 788.674 471.847 769.898 471.847C752.227 471.847 736.599 475.897 723.014 483.996C709.43 491.985 698.772 503.247 691.04 517.783C689.249 521.151 687.665 524.657 686.288 528.299C684.235 533.732 688.514 539.209 694.322 539.209H725.957C728.866 539.209 731.398 537.312 732.534 534.635C734.022 531.127 735.819 528.006 737.925 525.272C745.214 515.841 756.535 511.125 771.886 511.125C785.029 511.125 794.473 515.175 800.216 523.275C804.067 528.531 806.651 536.021 807.969 545.744H729.114L729.118 545.727L666.939 545.727C665.117 535.567 661.903 526.197 657.299 517.616C649.679 503.303 639.021 492.096 625.326 483.996C611.741 475.897 595.947 471.847 577.945 471.847C560.273 471.847 544.645 475.841 531.061 483.83C517.476 491.819 506.818 502.97 499.087 517.284C491.355 531.486 487.49 547.963 487.49 566.715C487.49 580.66 489.617 593.412 493.87 604.969C495.093 608.289 498.333 610.366 501.872 610.366H543.712C546.184 610.366 547.482 607.117 545.971 605.162C538.792 595.619 535.202 582.804 535.202 566.715C535.202 556.285 536.693 547.131 539.675 539.253C542.768 531.375 547.462 525.217 553.757 520.779C560.052 516.34 568.115 514.121 577.945 514.121C592.192 514.121 602.905 518.892 610.084 528.435C617.374 537.977 621.018 550.737 621.018 566.715C621.018 582.138 617.429 594.787 610.25 604.662C603.181 614.427 592.413 619.309 577.945 619.309H577.932V619.294H576.605H500.62H479.567V422.921C479.567 417.99 475.57 413.993 470.639 413.993H443.101C438.17 413.993 434.173 417.99 434.173 422.921V482.608C423.038 475.415 409.563 471.818 393.751 471.818C376.631 471.818 361.721 475.924 349.02 484.134C336.318 492.345 326.433 503.607 319.366 517.921C312.407 532.123 308.928 548.378 308.928 566.687C308.928 584.662 312.353 600.806 319.2 615.119C326.158 629.433 335.821 640.751 348.191 649.072ZM439.806 566.687C439.806 577.56 438.48 587.103 435.83 595.314C433.179 603.524 428.817 609.904 422.742 614.454C416.778 619.003 408.771 621.278 398.72 621.278C389.001 621.278 381.049 618.836 374.864 613.954C368.679 609.072 364.096 602.526 361.114 594.315C358.132 585.993 356.641 576.784 356.641 566.687C356.641 556.701 358.186 547.602 361.279 539.391C364.371 531.069 369.121 524.468 375.527 519.586C382.043 514.592 390.326 512.095 400.377 512.095C409.765 512.095 417.331 514.37 423.073 518.92C428.927 523.469 433.179 529.849 435.83 538.06C438.48 546.271 439.806 555.813 439.806 566.687Z"/>
</mask>
<path fill-rule="evenodd" clip-rule="evenodd" d="M1490.41 513.854V661.569H1526.55C1531.48 661.569 1535.47 657.571 1535.47 652.641V513.854H1576.89V478.903H1535.47V468.917C1535.47 463.923 1537.19 459.652 1540.61 456.101C1544.03 452.439 1549.28 450.609 1556.35 450.609H1567.96C1572.89 450.609 1576.89 446.611 1576.89 441.681V422.921C1576.89 417.99 1572.89 413.993 1567.96 413.993H1554.69C1550.38 413.993 1545.19 414.104 1539.12 414.326C1533.04 414.437 1526.75 415.657 1520.23 417.987C1513.83 420.206 1507.86 424.423 1502.34 430.636C1498.03 435.408 1495.05 440.733 1493.39 446.614C1491.85 452.495 1490.96 458.32 1490.74 464.09C1490.53 469.58 1490.42 474.518 1490.41 478.903H1469.58C1464.65 478.903 1460.65 482.9 1460.65 487.831V504.926C1460.65 509.857 1464.65 513.854 1469.58 513.854H1490.41ZM1605.05 652.641C1605.05 657.571 1609.05 661.569 1613.98 661.569H1641.19C1646.12 661.569 1650.12 657.571 1650.12 652.641V513.854H1683.85C1688.79 513.854 1692.78 509.857 1692.78 504.926V487.831C1692.78 482.9 1688.79 478.903 1683.85 478.903H1650.12V468.917C1650.12 463.923 1651.83 459.652 1655.25 456.101C1658.68 452.439 1663.92 450.609 1670.99 450.609H1682.6C1687.54 450.609 1691.53 446.611 1691.53 441.681V422.921C1691.53 417.99 1687.54 413.993 1682.6 413.993H1669.33C1665.03 413.993 1659.84 414.104 1653.76 414.326C1647.69 414.437 1641.39 415.657 1634.87 417.987C1628.47 420.206 1622.5 424.423 1616.98 430.636C1612.68 435.408 1609.69 440.733 1608.04 446.614C1606.49 452.495 1605.61 458.32 1605.39 464.09C1605.18 469.58 1605.07 474.518 1605.06 478.903H1576.89V513.854H1605.05V652.641ZM1317.71 654.409C1326.54 659.18 1337.98 661.565 1352 661.565C1369.56 661.565 1384.09 657.738 1395.57 650.081C1401.02 646.483 1405.83 642.357 1409.99 637.704V652.64C1409.99 657.571 1413.98 661.568 1418.91 661.568L1481.5 661.568V626.615H1451.72V487.828C1451.72 482.897 1447.73 478.9 1442.8 478.9H1413.28C1408.35 478.9 1404.35 482.897 1404.35 487.828V567.696C1404.35 578.791 1403.08 587.779 1400.54 594.658C1398.11 601.426 1394.96 606.586 1391.1 610.137C1387.23 613.576 1383.09 615.906 1378.67 617.127C1374.26 618.348 1370.11 618.958 1366.25 618.958C1356.64 618.958 1349.19 616.794 1343.88 612.467C1338.69 608.139 1334.94 602.758 1332.62 596.323C1330.3 589.887 1328.92 583.507 1328.48 577.183C1328.03 570.747 1327.81 565.477 1327.81 561.371V519.656H1282.09V577.349C1282.09 580.345 1282.31 585.116 1282.75 591.662C1283.19 598.209 1284.46 605.476 1286.56 613.466C1288.66 621.344 1292.14 628.944 1297 636.267C1301.97 643.59 1308.87 649.637 1317.71 654.409ZM1272.56 659.807C1276.81 659.185 1279.86 655.474 1279.86 651.181V631.194C1279.86 625.785 1275.09 621.645 1269.7 622.069C1263 622.596 1256.73 622.673 1250.87 622.301C1242.15 623.264 1235.8 618.307 1231.82 611.982C1229.72 608.653 1228.56 604.215 1228.34 598.667C1228.23 593.008 1228.18 586.684 1228.18 579.693V510.729L1327.81 510.728V480.775C1327.81 475.844 1323.82 471.847 1318.88 471.847L1228.18 471.847V436.313C1228.18 431.382 1224.18 427.385 1219.25 427.385H1192.04C1187.11 427.385 1183.11 431.382 1183.11 436.313V471.847L1152.9 471.847H1095.89C1081.43 471.849 1068.85 474.179 1058.14 478.837C1047.54 483.386 1039.31 489.933 1033.45 498.476C1027.6 506.909 1024.67 516.895 1024.67 528.435C1024.67 537.644 1026.61 545.522 1030.47 552.069C1034.34 558.504 1040.63 564.052 1049.36 568.712C1058.08 573.372 1069.74 577.589 1084.31 581.361C1097.24 584.801 1106.73 587.575 1112.81 589.683C1118.99 591.791 1122.97 593.955 1124.74 596.174C1126.5 598.282 1127.39 601.112 1127.39 604.662C1127.39 610.321 1125.18 614.759 1120.76 617.977C1116.34 621.084 1110.05 622.637 1101.88 622.637C1091.94 622.637 1083.71 620.252 1077.19 615.481C1072.94 612.313 1069.68 608.339 1067.43 603.558C1065.42 599.313 1061.16 596.221 1056.52 596.926L1027.6 601.316C1022.7 602.059 1019.28 606.674 1020.59 611.455C1024.56 626.02 1032.32 637.626 1043.89 646.271C1057.81 656.479 1076.03 661.583 1098.56 661.583C1121.98 661.583 1140.31 656.313 1153.56 645.772C1166.82 635.231 1173.44 620.751 1173.44 602.332C1173.44 593.012 1171.57 585.078 1167.81 578.532C1164.06 571.874 1158.04 566.216 1149.75 561.555C1141.58 556.784 1130.7 552.623 1117.12 549.073C1103.2 545.522 1092.82 542.637 1085.97 540.418C1079.23 538.199 1074.76 536.035 1072.55 533.927C1070.45 531.819 1069.4 529.211 1069.4 526.105C1069.4 520.89 1071.89 516.895 1076.86 514.121C1081.74 511.459 1087.9 510.734 1095.91 510.734V510.728L1152.9 510.729H1183.11V582.356C1183.11 593.119 1183.22 602.773 1183.45 611.316C1183.67 619.749 1185.99 628.071 1190.4 636.282C1195.26 645.047 1202.33 651.427 1211.61 655.422C1221 659.305 1231.6 661.347 1243.42 661.569C1252.99 661.836 1262.71 661.253 1272.56 659.807ZM348.191 649.072C360.561 657.394 374.974 661.555 391.431 661.555C409.212 661.555 424.067 657.394 435.995 649.072C436.636 648.625 437.268 648.17 437.892 647.706C438.539 647.223 439.177 646.732 439.806 646.232V652.64C439.806 657.571 443.803 661.568 448.734 661.568H576.065C576.689 661.578 577.315 661.583 577.945 661.583C595.837 661.583 611.575 657.589 625.16 649.6C638.855 641.5 649.513 630.349 657.134 616.146C663.065 605.166 666.721 592.912 668.102 579.386H679.896C681.132 593.208 684.902 605.739 691.206 616.979C699.158 630.848 710.092 641.777 724.008 649.766C737.355 657.263 752.652 661.192 769.898 661.556H853.812H853.812H929.445L929.429 661.583C930.357 661.583 931.284 661.573 932.211 661.556H933.402L933.416 661.527C954.884 660.939 975.912 655.699 988.394 645.772C1001.65 635.231 1008.27 620.751 1008.27 602.332C1008.27 593.012 1006.4 585.078 1002.64 578.532C998.886 571.874 992.867 566.216 984.584 561.555C976.411 556.784 965.532 552.623 951.947 549.073C938.031 545.522 927.649 542.637 920.801 540.418C914.064 538.199 909.591 536.035 907.382 533.927C905.284 531.819 904.235 529.211 904.235 526.105C904.235 520.89 906.72 516.895 911.69 514.121C916.565 511.459 922.733 510.734 930.742 510.734H1011.23C1015.24 510.734 1018.7 508.016 1020.21 504.292C1021.76 500.477 1023.72 496.844 1026.1 493.408C1032.32 484.351 1040.72 477.333 1051.03 472.277C1051.25 472.173 1051.17 471.847 1050.94 471.847H930.742C916.273 471.847 903.682 474.177 892.969 478.837C882.367 483.386 874.138 489.933 868.285 498.476C862.431 506.909 859.504 516.895 859.504 528.435C859.504 537.644 861.437 545.522 865.303 552.069C869.168 558.504 875.464 564.052 884.189 568.712C892.914 573.372 904.566 577.589 919.145 581.361C932.067 584.801 941.565 587.575 947.64 589.683C953.825 591.791 957.801 593.955 959.568 596.174C961.335 598.282 962.218 601.112 962.218 604.662C962.218 606.134 961.954 608.523 960.967 610.975C957.633 619.254 946.651 619.338 937.726 619.336L853.812 619.322H853.812L769.898 619.309C755.872 619.309 745.214 614.759 737.925 605.661C733.508 599.995 730.45 592.902 728.751 584.381C728.224 581.738 730.318 579.364 733.013 579.364H845.37C850.003 579.364 853.895 575.82 854.079 571.19C854.809 552.842 852.427 536.649 846.934 522.61C840.639 506.521 830.919 494.038 817.776 485.161C804.633 476.285 788.674 471.847 769.898 471.847C752.227 471.847 736.599 475.897 723.014 483.996C709.43 491.985 698.772 503.247 691.04 517.783C689.249 521.151 687.665 524.657 686.288 528.299C684.235 533.732 688.514 539.209 694.322 539.209H725.957C728.866 539.209 731.398 537.312 732.534 534.635C734.022 531.127 735.819 528.006 737.925 525.272C745.214 515.841 756.535 511.125 771.886 511.125C785.029 511.125 794.473 515.175 800.216 523.275C804.067 528.531 806.651 536.021 807.969 545.744H729.114L729.118 545.727L666.939 545.727C665.117 535.567 661.903 526.197 657.299 517.616C649.679 503.303 639.021 492.096 625.326 483.996C611.741 475.897 595.947 471.847 577.945 471.847C560.273 471.847 544.645 475.841 531.061 483.83C517.476 491.819 506.818 502.97 499.087 517.284C491.355 531.486 487.49 547.963 487.49 566.715C487.49 580.66 489.617 593.412 493.87 604.969C495.093 608.289 498.333 610.366 501.872 610.366H543.712C546.184 610.366 547.482 607.117 545.971 605.162C538.792 595.619 535.202 582.804 535.202 566.715C535.202 556.285 536.693 547.131 539.675 539.253C542.768 531.375 547.462 525.217 553.757 520.779C560.052 516.34 568.115 514.121 577.945 514.121C592.192 514.121 602.905 518.892 610.084 528.435C617.374 537.977 621.018 550.737 621.018 566.715C621.018 582.138 617.429 594.787 610.25 604.662C603.181 614.427 592.413 619.309 577.945 619.309H577.932V619.294H576.605H500.62H479.567V422.921C479.567 417.99 475.57 413.993 470.639 413.993H443.101C438.17 413.993 434.173 417.99 434.173 422.921V482.608C423.038 475.415 409.563 471.818 393.751 471.818C376.631 471.818 361.721 475.924 349.02 484.134C336.318 492.345 326.433 503.607 319.366 517.921C312.407 532.123 308.928 548.378 308.928 566.687C308.928 584.662 312.353 600.806 319.2 615.119C326.158 629.433 335.821 640.751 348.191 649.072ZM439.806 566.687C439.806 577.56 438.48 587.103 435.83 595.314C433.179 603.524 428.817 609.904 422.742 614.454C416.778 619.003 408.771 621.278 398.72 621.278C389.001 621.278 381.049 618.836 374.864 613.954C368.679 609.072 364.096 602.526 361.114 594.315C358.132 585.993 356.641 576.784 356.641 566.687C356.641 556.701 358.186 547.602 361.279 539.391C364.371 531.069 369.121 524.468 375.527 519.586C382.043 514.592 390.326 512.095 400.377 512.095C409.765 512.095 417.331 514.37 423.073 518.92C428.927 523.469 433.179 529.849 435.83 538.06C438.48 546.271 439.806 555.813 439.806 566.687Z" fill="#EFE8E4"/>
<path d="M1490.41 661.569H1485.95V666.033H1490.41V661.569ZM1490.41 513.854H1494.88V509.39H1490.41V513.854ZM1535.47 513.854V509.39H1531.01V513.854H1535.47ZM1576.89 513.854V518.318H1581.35V513.854H1576.89ZM1576.89 478.903H1581.35V474.439H1576.89V478.903ZM1535.47 478.903H1531.01V483.367H1535.47V478.903ZM1540.61 456.101L1543.82 459.2L1543.85 459.175L1543.87 459.15L1540.61 456.101ZM1539.12 414.326L1539.2 418.789L1539.24 418.788L1539.28 418.787L1539.12 414.326ZM1520.23 417.987L1521.69 422.205L1521.71 422.198L1521.73 422.191L1520.23 417.987ZM1502.34 430.636L1505.65 433.628L1505.66 433.615L1505.68 433.602L1502.34 430.636ZM1493.39 446.614L1489.1 445.404L1489.09 445.441L1489.08 445.479L1493.39 446.614ZM1490.74 464.09L1486.28 463.919L1486.28 463.919L1490.74 464.09ZM1490.41 478.903V483.367H1494.87L1494.88 478.913L1490.41 478.903ZM1650.12 513.854V509.39H1645.65V513.854H1650.12ZM1650.12 478.903H1645.65V483.367H1650.12V478.903ZM1655.25 456.101L1658.47 459.2L1658.49 459.175L1658.51 459.15L1655.25 456.101ZM1653.76 414.326L1653.84 418.789L1653.88 418.788L1653.92 418.787L1653.76 414.326ZM1634.87 417.987L1636.34 422.205L1636.36 422.198L1636.38 422.191L1634.87 417.987ZM1616.98 430.636L1620.3 433.628L1620.31 433.615L1620.32 433.602L1616.98 430.636ZM1608.04 446.614L1603.74 445.404L1603.73 445.441L1603.72 445.479L1608.04 446.614ZM1605.39 464.09L1609.85 464.261L1609.85 464.261L1605.39 464.09ZM1605.06 478.903V483.367H1609.51L1609.52 478.913L1605.06 478.903ZM1576.89 478.903V474.439H1572.43V478.903H1576.89ZM1576.89 513.854H1572.43V518.318H1576.89V513.854ZM1605.05 513.854H1609.52V509.39H1605.05V513.854ZM1317.71 654.409L1319.83 650.481L1319.83 650.481L1317.71 654.409ZM1395.57 650.081L1393.11 646.356L1393.1 646.361L1393.1 646.367L1395.57 650.081ZM1409.99 637.704H1414.45V626.009L1406.66 634.729L1409.99 637.704ZM1418.91 661.568L1418.91 657.104L1418.91 657.104L1418.91 661.568ZM1481.5 661.568L1481.5 666.032L1485.96 666.032V661.568H1481.5ZM1481.5 626.615H1485.96V622.151H1481.5V626.615ZM1451.72 626.615H1447.26V631.079H1451.72V626.615ZM1400.54 594.658L1396.35 593.111L1396.35 593.131L1396.34 593.15L1400.54 594.658ZM1391.1 610.137L1394.07 613.472L1394.09 613.448L1394.12 613.424L1391.1 610.137ZM1378.67 617.127L1377.48 612.824L1377.48 612.824L1378.67 617.127ZM1343.88 612.467L1341.02 615.896L1341.04 615.91L1341.06 615.925L1343.88 612.467ZM1328.48 577.183L1324.02 577.488L1324.02 577.494L1328.48 577.183ZM1327.81 519.656H1332.28V515.192H1327.81V519.656ZM1282.09 519.656V515.192H1277.63V519.656H1282.09ZM1282.75 591.662L1278.3 591.963L1278.3 591.963L1282.75 591.662ZM1286.56 613.466L1282.24 614.599L1282.25 614.607L1282.25 614.615L1286.56 613.466ZM1297 636.267L1293.28 638.735L1293.29 638.755L1293.31 638.774L1297 636.267ZM1272.56 659.807L1273.21 664.224L1273.21 664.224L1272.56 659.807ZM1269.7 622.069L1269.35 617.619L1269.35 617.619L1269.7 622.069ZM1250.87 622.301L1251.16 617.846L1250.77 617.821L1250.38 617.864L1250.87 622.301ZM1231.82 611.982L1235.6 609.606L1235.6 609.601L1231.82 611.982ZM1228.34 598.667L1223.88 598.754L1223.88 598.8L1223.88 598.845L1228.34 598.667ZM1228.18 510.729L1228.18 506.265L1223.71 506.265V510.729H1228.18ZM1327.81 510.728L1327.81 515.192L1332.28 515.192V510.728H1327.81ZM1318.88 471.847L1318.88 467.383L1318.88 467.383L1318.88 471.847ZM1228.18 471.847H1223.71V476.311L1228.18 476.311L1228.18 471.847ZM1183.11 471.847L1183.11 476.311L1187.58 476.311V471.847H1183.11ZM1152.9 471.847L1152.9 467.383H1152.9V471.847ZM1095.89 471.847L1095.89 467.383L1095.89 467.383L1095.89 471.847ZM1058.14 478.837L1059.9 482.939L1059.91 482.935L1059.92 482.93L1058.14 478.837ZM1033.45 498.476L1037.12 501.022L1037.13 501.011L1037.14 500.999L1033.45 498.476ZM1030.47 552.069L1026.63 554.338L1026.64 554.353L1026.65 554.367L1030.47 552.069ZM1049.36 568.712L1051.46 564.775L1051.46 564.775L1049.36 568.712ZM1084.31 581.361L1085.46 577.047L1085.45 577.044L1085.43 577.04L1084.31 581.361ZM1112.81 589.683L1111.35 593.9L1111.36 593.904L1111.37 593.908L1112.81 589.683ZM1124.74 596.174L1121.25 598.955L1121.28 598.999L1121.32 599.042L1124.74 596.174ZM1120.76 617.977L1123.33 621.629L1123.36 621.607L1123.39 621.586L1120.76 617.977ZM1077.19 615.481L1074.52 619.061L1074.54 619.072L1074.55 619.082L1077.19 615.481ZM1067.43 603.558L1063.39 605.464L1063.39 605.464L1067.43 603.558ZM1056.52 596.926L1055.85 592.512L1055.85 592.512L1056.52 596.926ZM1027.6 601.316L1026.93 596.902L1026.93 596.902L1027.6 601.316ZM1020.59 611.455L1016.28 612.629L1016.28 612.629L1020.59 611.455ZM1043.89 646.271L1041.22 649.847L1041.24 649.859L1041.25 649.871L1043.89 646.271ZM1167.81 578.532L1163.92 580.725L1163.93 580.739L1163.94 580.753L1167.81 578.532ZM1149.75 561.555L1147.5 565.411L1147.53 565.429L1147.56 565.446L1149.75 561.555ZM1117.12 549.073L1118.25 544.754L1118.23 544.751L1118.22 544.747L1117.12 549.073ZM1085.97 540.418L1084.57 544.658L1084.58 544.661L1084.6 544.665L1085.97 540.418ZM1072.55 533.927L1069.39 537.076L1069.43 537.117L1069.47 537.156L1072.55 533.927ZM1076.86 514.121L1074.72 510.203L1074.7 510.213L1074.68 510.223L1076.86 514.121ZM1095.91 510.734V515.198H1100.38V510.734H1095.91ZM1095.91 510.728L1095.91 506.264L1091.45 506.264V510.728H1095.91ZM1152.9 510.729L1152.9 515.193H1152.9V510.729ZM1183.11 510.729H1187.58V506.265H1183.11V510.729ZM1183.45 611.316L1178.98 611.432L1178.98 611.433L1183.45 611.316ZM1190.4 636.282L1186.47 638.397L1186.49 638.421L1186.5 638.446L1190.4 636.282ZM1211.61 655.422L1209.84 659.522L1209.87 659.535L1209.9 659.547L1211.61 655.422ZM1243.42 661.569L1243.54 657.106L1243.52 657.106L1243.5 657.105L1243.42 661.569ZM348.191 649.072L350.683 645.368L350.683 645.368L348.191 649.072ZM435.995 649.072L433.442 645.41L433.441 645.411L435.995 649.072ZM437.892 647.706L440.558 651.286L440.559 651.285L437.892 647.706ZM439.806 646.232H444.27V636.97L437.025 642.74L439.806 646.232ZM576.065 661.568L576.136 657.105L576.1 657.104H576.065V661.568ZM625.16 649.6L627.423 653.448L627.432 653.442L625.16 649.6ZM657.134 616.146L653.206 614.025L653.2 614.036L657.134 616.146ZM668.102 579.386V574.922H664.07L663.661 578.932L668.102 579.386ZM679.896 579.386L684.342 578.988L683.978 574.922H679.896V579.386ZM691.206 616.979L687.313 619.162L687.323 619.181L687.333 619.199L691.206 616.979ZM724.008 649.766L721.786 653.638L721.804 653.648L721.822 653.659L724.008 649.766ZM769.898 661.556L769.804 666.019L769.851 666.02H769.898V661.556ZM929.445 661.556L933.331 663.752L937.096 657.092H929.445V661.556ZM929.429 661.583L925.543 659.387L921.776 666.052L929.432 666.047L929.429 661.583ZM932.211 661.556V657.092H932.168L932.125 657.092L932.211 661.556ZM933.402 661.556V666.02H936.236L937.442 663.456L933.402 661.556ZM933.416 661.527L933.293 657.065L930.546 657.14L929.376 659.627L933.416 661.527ZM988.394 645.772L991.173 649.266L991.173 649.266L988.394 645.772ZM1002.64 578.532L998.753 580.725L998.761 580.739L998.769 580.753L1002.64 578.532ZM984.584 561.555L982.333 565.411L982.364 565.429L982.395 565.446L984.584 561.555ZM951.947 549.073L953.076 544.754L953.063 544.751L953.051 544.747L951.947 549.073ZM920.801 540.418L919.405 544.658L919.415 544.661L919.425 544.665L920.801 540.418ZM907.382 533.927L904.219 537.076L904.259 537.117L904.3 537.156L907.382 533.927ZM911.69 514.121L909.551 510.203L909.532 510.213L909.514 510.223L911.69 514.121ZM1020.21 504.292L1016.08 502.612L1016.08 502.612L1020.21 504.292ZM1026.1 493.408L1029.77 495.952L1029.78 495.942L1029.79 495.932L1026.1 493.408ZM1051.03 472.277L1049.07 468.269L1049.07 468.269L1051.03 472.277ZM892.969 478.837L894.729 482.939L894.74 482.935L894.75 482.93L892.969 478.837ZM868.285 498.476L871.952 501.022L871.96 501.011L871.967 500.999L868.285 498.476ZM865.303 552.069L861.459 554.338L861.467 554.353L861.476 554.367L865.303 552.069ZM884.189 568.712L882.086 572.65L882.086 572.65L884.189 568.712ZM919.145 581.361L920.293 577.047L920.278 577.044L920.263 577.04L919.145 581.361ZM947.64 589.683L946.176 593.9L946.188 593.904L946.199 593.908L947.64 589.683ZM959.568 596.174L956.076 598.955L956.111 598.999L956.147 599.042L959.568 596.174ZM960.967 610.975L956.826 609.307L956.826 609.307L960.967 610.975ZM937.726 619.336L937.727 614.872L937.727 614.872L937.726 619.336ZM853.812 619.322L853.813 614.858H853.812V619.322ZM853.812 619.322L853.811 623.786H853.812V619.322ZM769.898 619.309L769.899 614.845H769.898V619.309ZM737.925 605.661L734.404 608.405L734.422 608.429L734.441 608.452L737.925 605.661ZM728.751 584.381L733.129 583.508L733.129 583.508L728.751 584.381ZM854.079 571.19L849.619 571.013L849.619 571.013L854.079 571.19ZM846.934 522.61L851.091 520.983L851.091 520.983L846.934 522.61ZM817.776 485.161L820.275 481.462L820.275 481.462L817.776 485.161ZM723.014 483.996L725.277 487.844L725.289 487.838L725.301 487.831L723.014 483.996ZM691.04 517.783L694.982 519.879L694.982 519.879L691.04 517.783ZM686.288 528.299L682.113 526.721L682.113 526.721L686.288 528.299ZM732.534 534.635L728.424 532.891L728.424 532.891L732.534 534.635ZM737.925 525.272L734.392 522.543L734.388 522.548L737.925 525.272ZM800.216 523.275L796.574 525.857L796.594 525.886L796.615 525.914L800.216 523.275ZM807.969 545.744V550.208H813.078L812.392 545.145L807.969 545.744ZM729.114 545.744L724.748 544.817L723.603 550.208H729.114V545.744ZM729.118 545.727L733.485 546.654L734.629 541.263L729.118 541.263L729.118 545.727ZM666.939 545.727L662.545 546.515L663.205 550.191L666.939 550.191L666.939 545.727ZM657.299 517.616L653.359 519.714L653.362 519.721L653.366 519.727L657.299 517.616ZM625.326 483.996L623.039 487.831L623.046 487.835L623.053 487.839L625.326 483.996ZM531.061 483.83L528.798 479.982L528.798 479.982L531.061 483.83ZM499.087 517.284L503.007 519.418L503.011 519.411L503.014 519.405L499.087 517.284ZM493.87 604.969L489.681 606.511L489.681 606.511L493.87 604.969ZM545.971 605.162L542.403 607.845L542.421 607.869L542.439 607.892L545.971 605.162ZM539.675 539.253L535.52 537.622L535.51 537.647L535.5 537.673L539.675 539.253ZM610.084 528.435L606.517 531.118L606.527 531.132L606.537 531.145L610.084 528.435ZM610.25 604.662L606.639 602.037L606.634 602.045L610.25 604.662ZM577.932 619.309H573.468V623.773H577.932V619.309ZM577.932 619.294H582.396V614.83H577.932V619.294ZM479.567 619.294H475.103V623.758H479.567V619.294ZM434.173 482.608L431.751 486.358L438.637 490.806V482.608H434.173ZM349.02 484.134L346.596 480.385L346.596 480.385L349.02 484.134ZM319.366 517.921L315.363 515.944L315.357 515.957L319.366 517.921ZM319.2 615.119L315.173 617.046L315.179 617.058L315.185 617.071L319.2 615.119ZM435.83 595.314L440.078 596.685L440.078 596.685L435.83 595.314ZM422.742 614.454L420.066 610.88L420.05 610.892L420.034 610.904L422.742 614.454ZM374.864 613.954L372.099 617.458L372.099 617.458L374.864 613.954ZM361.114 594.315L356.911 595.82L356.915 595.829L356.918 595.838L361.114 594.315ZM361.279 539.391L365.457 540.965L365.46 540.955L365.464 540.946L361.279 539.391ZM375.527 519.586L378.233 523.136L378.242 523.129L375.527 519.586ZM423.073 518.92L420.301 522.419L420.317 522.432L420.334 522.444L423.073 518.92ZM435.83 538.06L440.078 536.688L440.078 536.688L435.83 538.06ZM1494.88 661.569V513.854H1485.95V661.569H1494.88ZM1526.55 657.105H1490.41V666.033H1526.55V657.105ZM1531.01 652.641C1531.01 655.106 1529.01 657.105 1526.55 657.105V666.033C1533.94 666.033 1539.94 660.037 1539.94 652.641H1531.01ZM1531.01 513.854V652.641H1539.94V513.854H1531.01ZM1576.89 509.39H1535.47V518.318H1576.89V509.39ZM1572.43 478.903V513.854H1581.35V478.903H1572.43ZM1535.47 483.367H1576.89V474.439H1535.47V483.367ZM1531.01 468.917V478.903H1539.94V468.917H1531.01ZM1537.4 453.002C1533.16 457.396 1531.01 462.784 1531.01 468.917H1539.94C1539.94 465.063 1541.21 461.907 1543.82 459.2L1537.4 453.002ZM1556.35 446.145C1548.56 446.145 1541.91 448.168 1537.35 453.052L1543.87 459.15C1546.15 456.71 1550 455.073 1556.35 455.073V446.145ZM1567.96 446.145H1556.35V455.073H1567.96V446.145ZM1572.43 441.681C1572.43 444.146 1570.43 446.145 1567.96 446.145V455.073C1575.36 455.073 1581.35 449.077 1581.35 441.681H1572.43ZM1572.43 422.921V441.681H1581.35V422.921H1572.43ZM1567.96 418.457C1570.43 418.457 1572.43 420.455 1572.43 422.921H1581.35C1581.35 415.525 1575.36 409.529 1567.96 409.529V418.457ZM1554.69 418.457H1567.96V409.529H1554.69V418.457ZM1539.28 418.787C1545.32 418.566 1550.45 418.457 1554.69 418.457V409.529C1550.31 409.529 1545.06 409.641 1538.96 409.865L1539.28 418.787ZM1521.73 422.191C1527.86 420.001 1533.67 418.89 1539.2 418.789L1539.04 409.862C1532.41 409.983 1525.64 411.313 1518.73 413.784L1521.73 422.191ZM1505.68 433.602C1510.8 427.831 1516.16 424.124 1521.69 422.205L1518.77 413.769C1511.5 416.289 1504.92 421.014 1499 427.671L1505.68 433.602ZM1497.69 447.825C1499.15 442.64 1501.78 437.916 1505.65 433.628L1499.03 427.645C1494.28 432.899 1490.95 438.827 1489.1 445.404L1497.69 447.825ZM1495.2 464.261C1495.41 458.833 1496.24 453.331 1497.71 447.749L1489.08 445.479C1487.45 451.658 1486.52 457.807 1486.28 463.919L1495.2 464.261ZM1494.88 478.913C1494.89 474.593 1495 469.71 1495.2 464.261L1486.28 463.919C1486.07 469.45 1485.96 474.442 1485.95 478.892L1494.88 478.913ZM1469.58 483.367H1490.41V474.439H1469.58V483.367ZM1465.12 487.831C1465.12 485.365 1467.11 483.367 1469.58 483.367V474.439C1462.18 474.439 1456.19 480.435 1456.19 487.831H1465.12ZM1465.12 504.926V487.831H1456.19V504.926H1465.12ZM1469.58 509.39C1467.11 509.39 1465.12 507.392 1465.12 504.926H1456.19C1456.19 512.322 1462.18 518.318 1469.58 518.318V509.39ZM1490.41 509.39H1469.58V518.318H1490.41V509.39ZM1613.98 657.105C1611.52 657.105 1609.52 655.106 1609.52 652.641H1600.59C1600.59 660.037 1606.59 666.033 1613.98 666.033V657.105ZM1641.19 657.105H1613.98V666.033H1641.19V657.105ZM1645.65 652.641C1645.65 655.106 1643.65 657.105 1641.19 657.105V666.033C1648.58 666.033 1654.58 660.037 1654.58 652.641H1645.65ZM1645.65 513.854V652.641H1654.58V513.854H1645.65ZM1683.85 509.39H1650.12V518.318H1683.85V509.39ZM1688.32 504.926C1688.32 507.392 1686.32 509.39 1683.85 509.39V518.318C1691.25 518.318 1697.25 512.322 1697.25 504.926H1688.32ZM1688.32 487.831V504.926H1697.25V487.831H1688.32ZM1683.85 483.367C1686.32 483.367 1688.32 485.365 1688.32 487.831H1697.25C1697.25 480.435 1691.25 474.439 1683.85 474.439V483.367ZM1650.12 483.367H1683.85V474.439H1650.12V483.367ZM1645.65 468.917V478.903H1654.58V468.917H1645.65ZM1652.04 453.002C1647.8 457.396 1645.65 462.784 1645.65 468.917H1654.58C1654.58 465.063 1655.85 461.907 1658.47 459.2L1652.04 453.002ZM1670.99 446.145C1663.2 446.145 1656.56 448.168 1651.99 453.052L1658.51 459.15C1660.79 456.71 1664.64 455.073 1670.99 455.073V446.145ZM1682.6 446.145H1670.99V455.073H1682.6V446.145ZM1687.07 441.681C1687.07 444.146 1685.07 446.145 1682.6 446.145V455.073C1690 455.073 1696 449.077 1696 441.681H1687.07ZM1687.07 422.921V441.681H1696V422.921H1687.07ZM1682.6 418.457C1685.07 418.457 1687.07 420.455 1687.07 422.921H1696C1696 415.525 1690 409.529 1682.6 409.529V418.457ZM1669.33 418.457H1682.6V409.529H1669.33V418.457ZM1653.92 418.787C1659.96 418.566 1665.1 418.457 1669.33 418.457V409.529C1664.95 409.529 1659.71 409.641 1653.6 409.865L1653.92 418.787ZM1636.38 422.191C1642.5 420.001 1648.31 418.89 1653.84 418.789L1653.68 409.862C1647.06 409.983 1640.28 411.313 1633.37 413.784L1636.38 422.191ZM1620.32 433.602C1625.45 427.831 1630.8 424.124 1636.34 422.205L1633.41 413.769C1626.14 416.289 1619.56 421.014 1613.65 427.671L1620.32 433.602ZM1612.33 447.825C1613.79 442.64 1616.42 437.916 1620.3 433.628L1613.67 427.645C1608.93 432.899 1605.59 438.827 1603.74 445.404L1612.33 447.825ZM1609.85 464.261C1610.05 458.834 1610.89 453.332 1612.35 447.749L1603.72 445.479C1602.09 451.658 1601.16 457.807 1600.92 463.919L1609.85 464.261ZM1609.52 478.913C1609.53 474.593 1609.64 469.71 1609.85 464.261L1600.92 463.919C1600.71 469.45 1600.6 474.442 1600.59 478.892L1609.52 478.913ZM1576.89 483.367H1605.06V474.439H1576.89V483.367ZM1581.35 513.854V478.903H1572.43V513.854H1581.35ZM1605.05 509.39H1576.89V518.318H1605.05V509.39ZM1609.52 652.641V513.854H1600.59V652.641H1609.52ZM1352 657.101C1338.44 657.101 1327.81 654.788 1319.83 650.481L1315.59 658.337C1325.28 663.572 1337.51 666.029 1352 666.029V657.101ZM1393.1 646.367C1382.52 653.417 1368.92 657.101 1352 657.101V666.029C1370.2 666.029 1385.65 662.058 1398.05 653.796L1393.1 646.367ZM1406.66 634.729C1402.77 639.082 1398.26 642.959 1393.11 646.356L1398.03 653.807C1403.79 650.006 1408.89 645.631 1413.31 640.679L1406.66 634.729ZM1414.45 652.64V637.704H1405.52V652.64H1414.45ZM1418.91 657.104C1416.45 657.104 1414.45 655.105 1414.45 652.64H1405.52C1405.52 660.036 1411.52 666.032 1418.91 666.032L1418.91 657.104ZM1481.5 657.104L1418.91 657.104L1418.91 666.032L1481.5 666.032L1481.5 657.104ZM1477.03 626.615V661.568H1485.96V626.615H1477.03ZM1451.72 631.079H1481.5V622.151H1451.72V631.079ZM1447.26 487.828V626.615H1456.19V487.828H1447.26ZM1442.8 483.364C1445.26 483.364 1447.26 485.363 1447.26 487.828H1456.19C1456.19 480.432 1450.19 474.436 1442.8 474.436V483.364ZM1413.28 483.364H1442.8V474.436H1413.28V483.364ZM1408.82 487.828C1408.82 485.363 1410.82 483.364 1413.28 483.364V474.436C1405.88 474.436 1399.89 480.432 1399.89 487.828H1408.82ZM1408.82 567.696V487.828H1399.89V567.696H1408.82ZM1404.73 596.204C1407.52 588.645 1408.82 579.076 1408.82 567.696H1399.89C1399.89 578.506 1398.64 586.913 1396.35 593.111L1404.73 596.204ZM1394.12 613.424C1398.68 609.238 1402.16 603.376 1404.74 596.166L1396.34 593.15C1394.07 599.477 1391.25 603.934 1388.08 606.849L1394.12 613.424ZM1379.86 621.43C1385.02 620.005 1389.76 617.307 1394.07 613.472L1388.13 606.802C1384.71 609.846 1381.16 611.808 1377.48 612.824L1379.86 621.43ZM1366.25 623.422C1370.58 623.422 1375.13 622.738 1379.86 621.43L1377.48 612.824C1373.39 613.957 1369.65 614.494 1366.25 614.494V623.422ZM1341.06 615.925C1347.43 621.121 1356.02 623.422 1366.25 623.422V614.494C1357.26 614.494 1350.94 612.467 1346.71 609.008L1341.06 615.925ZM1328.42 597.836C1331 605.008 1335.22 611.054 1341.02 615.896L1346.74 609.038C1342.17 605.225 1338.87 600.508 1336.82 594.809L1328.42 597.836ZM1324.02 577.494C1324.5 584.26 1325.97 591.044 1328.42 597.836L1336.82 594.809C1334.63 588.73 1333.34 582.754 1332.93 576.871L1324.02 577.494ZM1323.35 561.371C1323.35 565.619 1323.58 571.002 1324.02 577.488L1332.93 576.877C1332.49 570.493 1332.28 565.334 1332.28 561.371H1323.35ZM1323.35 519.656V561.371H1332.28V519.656H1323.35ZM1282.09 524.12H1327.81V515.192H1282.09V524.12ZM1286.55 577.349V519.656H1277.63V577.349H1286.55ZM1287.21 591.362C1286.77 584.826 1286.55 580.184 1286.55 577.349H1277.63C1277.63 580.506 1277.86 585.405 1278.3 591.963L1287.21 591.362ZM1290.88 612.332C1288.84 604.548 1287.62 597.565 1287.21 591.362L1278.3 591.963C1278.76 598.852 1280.09 606.404 1282.24 614.599L1290.88 612.332ZM1300.72 633.799C1296.11 626.849 1292.84 619.69 1290.88 612.316L1282.25 614.615C1284.48 622.997 1288.17 631.04 1293.28 638.735L1300.72 633.799ZM1319.83 650.481C1311.54 646.004 1305.21 640.415 1300.69 633.76L1293.31 638.774C1298.73 646.766 1306.21 653.271 1315.59 658.337L1319.83 650.481ZM1275.4 651.181C1275.4 653.373 1273.86 655.105 1271.92 655.391L1273.21 664.224C1279.76 663.264 1284.33 657.576 1284.33 651.181H1275.4ZM1275.4 631.194V651.181H1284.33V631.194H1275.4ZM1270.05 626.52C1273.02 626.286 1275.4 628.562 1275.4 631.194H1284.33C1284.33 623.008 1277.16 617.005 1269.35 617.619L1270.05 626.52ZM1250.59 626.756C1256.68 627.143 1263.17 627.06 1270.05 626.52L1269.35 617.619C1262.83 618.131 1256.77 618.203 1251.16 617.846L1250.59 626.756ZM1228.04 614.358C1232.56 621.547 1240.34 627.954 1251.36 626.738L1250.38 617.864C1243.95 618.574 1239.03 615.066 1235.6 609.606L1228.04 614.358ZM1223.88 598.845C1224.12 604.87 1225.39 610.155 1228.04 614.363L1235.6 609.601C1234.05 607.152 1233 603.56 1232.8 598.49L1223.88 598.845ZM1223.71 579.693C1223.71 586.706 1223.77 593.061 1223.88 598.754L1232.8 598.58C1232.7 592.956 1232.64 586.661 1232.64 579.693H1223.71ZM1223.71 510.729V579.693H1232.64V510.729H1223.71ZM1327.81 506.264L1228.18 506.265L1228.18 515.193L1327.81 515.192L1327.81 506.264ZM1323.35 480.775V510.728H1332.28V480.775H1323.35ZM1318.88 476.311C1321.35 476.311 1323.35 478.309 1323.35 480.775H1332.28C1332.28 473.378 1326.28 467.383 1318.88 467.383L1318.88 476.311ZM1228.18 476.311L1318.88 476.311L1318.88 467.383L1228.18 467.383L1228.18 476.311ZM1223.71 436.313V471.847H1232.64V436.313H1223.71ZM1219.25 431.849C1221.71 431.849 1223.71 433.848 1223.71 436.313H1232.64C1232.64 428.917 1226.64 422.921 1219.25 422.921V431.849ZM1192.04 431.849H1219.25V422.921H1192.04V431.849ZM1187.58 436.313C1187.58 433.848 1189.58 431.849 1192.04 431.849V422.921C1184.65 422.921 1178.65 428.917 1178.65 436.313H1187.58ZM1187.58 471.847V436.313H1178.65V471.847H1187.58ZM1152.9 476.311L1183.11 476.311L1183.11 467.383L1152.9 467.383L1152.9 476.311ZM1095.89 476.311H1152.9V467.383H1095.89V476.311ZM1059.92 482.93C1069.95 478.567 1081.9 476.313 1095.89 476.311L1095.89 467.383C1080.96 467.385 1067.75 469.79 1056.36 474.743L1059.92 482.93ZM1037.14 500.999C1042.46 493.232 1049.98 487.194 1059.9 482.939L1056.38 474.735C1045.09 479.578 1036.16 486.634 1029.77 495.953L1037.14 500.999ZM1029.14 528.435C1029.14 517.688 1031.85 508.616 1037.12 501.022L1029.79 495.931C1023.35 505.202 1020.21 516.103 1020.21 528.435H1029.14ZM1034.32 549.799C1030.93 544.072 1029.14 537.015 1029.14 528.435H1020.21C1020.21 538.274 1022.28 546.972 1026.63 554.338L1034.32 549.799ZM1051.46 564.775C1043.23 560.377 1037.64 555.327 1034.3 549.77L1026.65 554.367C1031.04 561.682 1038.04 567.727 1047.26 572.65L1051.46 564.775ZM1085.43 577.04C1071.04 573.315 1059.76 569.206 1051.46 564.775L1047.26 572.65C1056.41 577.539 1068.43 581.863 1083.2 585.683L1085.43 577.04ZM1114.27 585.466C1108.03 583.301 1098.4 580.492 1085.46 577.047L1083.17 585.675C1096.07 589.11 1105.44 591.849 1111.35 593.9L1114.27 585.466ZM1128.23 593.393C1126.82 591.621 1124.8 590.183 1122.56 588.966C1120.28 587.723 1117.49 586.561 1114.25 585.458L1111.37 593.908C1114.32 594.913 1116.6 595.887 1118.3 596.808C1120.04 597.755 1120.89 598.508 1121.25 598.955L1128.23 593.393ZM1131.85 604.662C1131.85 600.373 1130.78 596.428 1128.16 593.306L1121.32 599.042C1122.23 600.137 1122.92 601.85 1122.92 604.662H1131.85ZM1123.39 621.586C1129.01 617.493 1131.85 611.689 1131.85 604.662H1122.92C1122.92 608.954 1121.35 612.026 1118.13 614.369L1123.39 621.586ZM1101.88 627.101C1110.52 627.101 1117.86 625.472 1123.33 621.629L1118.19 614.326C1114.82 616.696 1109.57 618.173 1101.88 618.173V627.101ZM1074.55 619.082C1082 624.532 1091.21 627.101 1101.88 627.101V618.173C1092.66 618.173 1085.42 615.971 1079.83 611.879L1074.55 619.082ZM1063.39 605.464C1065.96 610.909 1069.69 615.457 1074.52 619.061L1079.86 611.901C1076.19 609.169 1073.41 605.769 1071.46 601.652L1063.39 605.464ZM1057.19 601.339C1059.32 601.016 1061.96 602.433 1063.39 605.464L1071.46 601.652C1068.89 596.194 1063 591.427 1055.85 592.512L1057.19 601.339ZM1028.27 605.729L1057.19 601.339L1055.85 592.512L1026.93 596.902L1028.27 605.729ZM1024.89 610.282C1024.38 608.4 1025.67 606.125 1028.27 605.729L1026.93 596.902C1019.73 597.994 1014.19 604.949 1016.28 612.629L1024.89 610.282ZM1046.56 642.696C1035.83 634.675 1028.61 623.933 1024.89 610.282L1016.28 612.629C1020.5 628.108 1028.82 640.577 1041.22 649.847L1046.56 642.696ZM1098.56 657.119C1076.69 657.119 1059.48 652.168 1046.53 642.672L1041.25 649.871C1056.14 660.79 1075.37 666.047 1098.56 666.047V657.119ZM1150.78 642.278C1138.58 651.989 1121.35 657.119 1098.56 657.119V666.047C1122.6 666.047 1142.04 660.637 1156.34 649.266L1150.78 642.278ZM1168.98 602.332C1168.98 619.527 1162.87 632.666 1150.78 642.278L1156.34 649.266C1170.76 637.796 1177.91 621.975 1177.91 602.332H1168.98ZM1163.94 580.753C1167.23 586.482 1168.98 593.61 1168.98 602.332H1177.91C1177.91 592.414 1175.91 583.675 1171.68 576.311L1163.94 580.753ZM1147.56 565.446C1155.31 569.803 1160.66 574.932 1163.92 580.725L1171.7 576.339C1167.46 568.817 1160.76 562.628 1151.94 557.665L1147.56 565.446ZM1115.99 553.392C1129.35 556.884 1139.81 560.918 1147.5 565.411L1152 557.7C1143.35 552.651 1132.05 548.363 1118.25 544.754L1115.99 553.392ZM1084.6 544.665C1091.58 546.929 1102.08 549.842 1116.01 553.398L1118.22 544.747C1104.32 541.202 1094.06 538.345 1087.35 536.172L1084.6 544.665ZM1069.47 537.156C1072.48 540.025 1077.83 542.436 1084.57 544.658L1087.37 536.178C1080.64 533.962 1077.05 532.046 1075.63 530.698L1069.47 537.156ZM1064.94 526.105C1064.94 530.333 1066.42 534.091 1069.39 537.076L1075.72 530.778C1074.49 529.547 1073.87 528.09 1073.87 526.105H1064.94ZM1074.68 510.223C1068.46 513.698 1064.94 519.098 1064.94 526.105H1073.87C1073.87 522.681 1075.32 520.093 1079.04 518.019L1074.68 510.223ZM1095.91 506.27C1087.79 506.27 1080.64 506.968 1074.72 510.203L1079 518.039C1082.83 515.95 1088.02 515.198 1095.91 515.198V506.27ZM1091.45 510.728V510.734H1100.38V510.728H1091.45ZM1152.9 506.265L1095.91 506.264L1095.91 515.192L1152.9 515.193L1152.9 506.265ZM1183.11 506.265H1152.9V515.193H1183.11V506.265ZM1187.58 582.356V510.729H1178.65V582.356H1187.58ZM1187.91 611.201C1187.69 602.704 1187.58 593.09 1187.58 582.356H1178.65C1178.65 593.148 1178.76 602.841 1178.98 611.432L1187.91 611.201ZM1194.33 634.166C1190.21 626.505 1188.11 618.863 1187.91 611.199L1178.98 611.433C1179.22 620.635 1181.76 629.636 1186.47 638.397L1194.33 634.166ZM1213.37 651.322C1205 647.715 1198.68 642.011 1194.31 634.117L1186.5 638.446C1191.84 648.083 1199.67 655.14 1209.84 659.522L1213.37 651.322ZM1243.5 657.105C1232.15 656.892 1222.11 654.934 1213.32 651.297L1209.9 659.547C1219.89 663.676 1231.05 665.801 1243.33 666.032L1243.5 657.105ZM1271.92 655.391C1262.31 656.799 1252.85 657.366 1243.54 657.106L1243.29 666.031C1253.13 666.306 1263.11 665.706 1273.21 664.224L1271.92 655.391ZM391.431 657.091C375.766 657.091 362.241 653.143 350.683 645.368L345.7 652.776C358.882 661.644 374.183 666.019 391.431 666.019V657.091ZM433.441 645.411C422.415 653.103 408.505 657.091 391.431 657.091V666.019C409.92 666.019 425.719 661.684 438.55 652.733L433.441 645.411ZM435.225 644.125C434.64 644.562 434.045 644.99 433.442 645.41L438.549 652.734C439.227 652.261 439.897 651.778 440.558 651.286L435.225 644.125ZM437.025 642.74C436.434 643.21 435.834 643.672 435.225 644.126L440.559 651.285C441.244 650.775 441.92 650.255 442.587 649.724L437.025 642.74ZM444.27 652.64V646.232H435.342V652.64H444.27ZM448.734 657.104C446.268 657.104 444.27 655.106 444.27 652.64H435.342C435.342 660.037 441.337 666.033 448.734 666.033V657.104ZM576.065 657.104H448.734V666.033H576.065V657.104ZM577.945 657.119C577.339 657.119 576.736 657.115 576.136 657.105L575.994 666.032C576.642 666.042 577.292 666.047 577.945 666.047V657.119ZM622.897 645.752C610.087 653.285 595.151 657.119 577.945 657.119V666.047C596.523 666.047 613.063 661.892 627.423 653.448L622.897 645.752ZM653.2 614.036C645.959 627.53 635.872 638.078 622.887 645.758L627.432 653.442C641.838 644.922 653.067 633.168 661.067 618.257L653.2 614.036ZM663.661 578.932C662.334 591.927 658.834 603.606 653.206 614.025L661.062 618.268C667.296 606.726 671.107 593.898 672.543 579.839L663.661 578.932ZM679.896 574.922H668.102V583.85H679.896V574.922ZM695.1 614.795C689.127 604.146 685.526 592.231 684.342 578.988L675.449 579.783C676.737 594.184 680.677 607.331 687.313 619.162L695.1 614.795ZM726.231 645.895C712.999 638.299 702.635 627.938 695.079 614.758L687.333 619.199C695.681 633.758 707.186 645.256 721.786 653.638L726.231 645.895ZM769.992 657.093C753.385 656.743 738.824 652.967 726.194 645.874L721.822 653.659C735.886 661.558 751.918 665.642 769.804 666.019L769.992 657.093ZM853.812 657.092H769.898V666.02H853.812V657.092ZM853.812 657.092H853.812V666.02H853.812V657.092ZM929.445 657.092H853.812V666.02H929.445V657.092ZM933.316 663.78L933.331 663.752L925.559 659.359L925.543 659.387L933.316 663.78ZM932.125 657.092C931.226 657.11 930.326 657.119 929.427 657.119L929.432 666.047C930.387 666.047 931.343 666.037 932.297 666.019L932.125 657.092ZM933.402 657.092H932.211V666.02H933.402V657.092ZM929.376 659.627L929.363 659.655L937.442 663.456L937.455 663.428L929.376 659.627ZM985.615 642.278C974.237 651.328 954.358 656.487 933.293 657.065L933.538 665.99C955.411 665.39 977.588 660.07 991.173 649.266L985.615 642.278ZM1003.81 602.332C1003.81 619.527 997.701 632.666 985.615 642.278L991.173 649.266C1005.59 637.796 1012.74 621.975 1012.74 602.332H1003.81ZM998.769 580.753C1002.06 586.482 1003.81 593.61 1003.81 602.332H1012.74C1012.74 592.414 1010.74 583.675 1006.51 576.311L998.769 580.753ZM982.395 565.446C990.139 569.803 995.486 574.932 998.753 580.725L1006.53 576.339C1002.29 568.817 995.595 562.628 986.772 557.665L982.395 565.446ZM950.818 553.392C964.18 556.884 974.636 560.918 982.333 565.411L986.834 557.7C978.185 552.651 966.883 548.363 953.076 544.754L950.818 553.392ZM919.425 544.665C926.413 546.929 936.907 549.842 950.843 553.398L953.051 544.747C939.155 541.202 928.885 538.345 922.178 536.172L919.425 544.665ZM904.3 537.156C907.305 540.025 912.659 542.436 919.405 544.658L922.198 536.178C915.469 533.962 911.877 532.046 910.464 530.698L904.3 537.156ZM899.771 526.105C899.771 530.333 901.247 534.091 904.219 537.076L910.546 530.778C909.321 529.547 908.699 528.09 908.699 526.105H899.771ZM909.514 510.223C903.289 513.698 899.771 519.098 899.771 526.105H908.699C908.699 522.681 910.15 520.093 913.865 518.019L909.514 510.223ZM930.742 506.27C922.62 506.27 915.475 506.968 909.551 510.203L913.829 518.039C917.656 515.95 922.846 515.198 930.742 515.198V506.27ZM1011.23 506.27H930.742V515.198H1011.23V506.27ZM1016.08 502.612C1015.13 504.942 1013.14 506.27 1011.23 506.27V515.198C1017.35 515.198 1022.27 511.09 1024.35 505.972L1016.08 502.612ZM1022.44 490.864C1019.87 494.571 1017.75 498.494 1016.08 502.612L1024.35 505.972C1025.77 502.46 1027.58 499.117 1029.77 495.952L1022.44 490.864ZM1049.07 468.269C1038.13 473.631 1029.11 481.136 1022.42 490.883L1029.79 495.932C1035.52 487.567 1043.31 481.034 1053 476.286L1049.07 468.269ZM1050.94 476.311C1046.33 476.311 1045.14 470.195 1049.07 468.269L1053 476.286C1057.36 474.15 1056.02 467.383 1050.94 467.383V476.311ZM930.742 476.311H1050.94V467.383H930.742V476.311ZM894.75 482.93C904.784 478.566 916.744 476.311 930.742 476.311V467.383C915.802 467.383 902.581 469.788 891.189 474.743L894.75 482.93ZM871.967 500.999C877.289 493.232 884.813 487.194 894.729 482.939L891.209 474.735C879.92 479.578 870.987 486.634 864.602 495.953L871.967 500.999ZM863.968 528.435C863.968 517.688 866.68 508.616 871.952 501.022L864.618 495.931C858.182 505.202 855.04 516.103 855.04 528.435H863.968ZM869.147 549.799C865.765 544.072 863.968 537.015 863.968 528.435H855.04C855.04 538.274 857.109 546.972 861.459 554.338L869.147 549.799ZM886.292 564.775C878.059 560.377 872.467 555.327 869.129 549.77L861.476 554.367C865.869 561.682 872.869 567.727 882.086 572.65L886.292 564.775ZM920.263 577.04C905.869 573.315 894.588 569.206 886.292 564.775L882.086 572.65C891.24 577.539 903.263 581.863 918.026 585.683L920.263 577.04ZM949.103 585.466C942.865 583.301 933.234 580.492 920.293 577.047L917.997 585.675C930.9 589.11 940.266 591.849 946.176 593.9L949.103 585.466ZM963.06 593.393C961.649 591.621 959.63 590.183 957.394 588.966C955.11 587.723 952.316 586.561 949.08 585.458L946.199 593.908C949.148 594.913 951.434 595.887 953.127 596.808C954.866 597.755 955.72 598.508 956.076 598.955L963.06 593.393ZM966.682 604.662C966.682 600.373 965.605 596.428 962.989 593.306L956.147 599.042C957.064 600.137 957.754 601.85 957.754 604.662H966.682ZM965.108 612.642C966.349 609.559 966.682 606.585 966.682 604.662H957.754C957.754 605.682 957.559 607.486 956.826 609.307L965.108 612.642ZM937.725 623.8C942.079 623.801 947.615 623.803 952.513 622.595C957.519 621.359 962.693 618.64 965.108 612.642L956.826 609.307C955.907 611.589 953.923 613.051 950.374 613.927C946.716 614.829 942.298 614.873 937.727 614.872L937.725 623.8ZM853.812 623.786L937.725 623.8L937.727 614.872L853.813 614.858L853.812 623.786ZM853.812 623.786H853.812V614.858H853.812V623.786ZM769.898 623.773L853.811 623.786L853.812 614.858L769.899 614.845L769.898 623.773ZM734.441 608.452C742.751 618.825 754.822 623.773 769.898 623.773V614.845C756.921 614.845 747.676 610.693 741.408 602.87L734.441 608.452ZM724.373 585.254C726.18 594.316 729.479 602.088 734.404 608.405L741.445 602.916C737.537 597.903 734.72 591.488 733.129 583.508L724.373 585.254ZM733.013 574.9C727.723 574.9 723.253 579.637 724.373 585.254L733.129 583.508C733.135 583.541 733.137 583.603 733.118 583.672C733.101 583.734 733.075 583.773 733.058 583.792C733.027 583.828 733 583.828 733.013 583.828V574.9ZM845.37 574.9H733.013V583.828H845.37V574.9ZM849.619 571.013C849.535 573.114 847.743 574.9 845.37 574.9V583.828C852.263 583.828 858.255 578.526 858.54 571.368L849.619 571.013ZM842.777 524.236C848.002 537.591 850.329 553.149 849.619 571.013L858.54 571.368C859.289 552.535 856.852 535.707 851.091 520.983L842.777 524.236ZM815.278 488.861C827.603 497.185 836.78 508.912 842.777 524.236L851.091 520.983C844.497 504.13 834.236 490.891 820.275 481.462L815.278 488.861ZM769.898 476.311C787.951 476.311 803 480.569 815.278 488.861L820.275 481.462C806.267 472.001 789.398 467.383 769.898 467.383V476.311ZM725.301 487.831C738.115 480.19 752.935 476.311 769.898 476.311V467.383C751.519 467.383 735.083 471.603 720.728 480.162L725.301 487.831ZM694.982 519.879C702.344 506.037 712.435 495.396 725.277 487.844L720.752 480.148C706.424 488.574 695.199 500.458 687.099 515.687L694.982 519.879ZM690.464 529.877C691.775 526.409 693.281 523.077 694.982 519.879L687.099 515.687C685.217 519.226 683.555 522.905 682.113 526.721L690.464 529.877ZM694.322 534.745C691.216 534.745 689.659 532.008 690.464 529.877L682.113 526.721C678.812 535.457 685.813 543.673 694.322 543.673V534.745ZM725.957 534.745H694.322V543.673H725.957V534.745ZM728.424 532.891C727.893 534.142 726.844 534.745 725.957 534.745V543.673C730.887 543.673 734.902 540.482 736.643 536.378L728.424 532.891ZM734.388 522.548C732.028 525.613 730.045 529.07 728.424 532.891L736.643 536.378C737.998 533.185 739.61 530.4 741.461 527.997L734.388 522.548ZM771.886 506.661C755.587 506.661 742.762 511.714 734.392 522.543L741.457 528.002C747.666 519.968 757.482 515.59 771.886 515.59V506.661ZM803.857 520.693C797.018 511.048 785.962 506.661 771.886 506.661V515.59C784.097 515.59 791.927 519.303 796.574 525.857L803.857 520.693ZM812.392 545.145C811.021 535.027 808.275 526.722 803.817 520.637L796.615 525.914C799.859 530.341 802.281 537.015 803.545 546.343L812.392 545.145ZM729.114 550.208H807.969V541.28H729.114V550.208ZM724.751 544.8L724.748 544.817L733.481 546.671L733.485 546.654L724.751 544.8ZM666.939 550.191L729.118 550.191L729.118 541.263L666.939 541.263L666.939 550.191ZM653.366 519.727C657.735 527.869 660.801 536.79 662.545 546.515L671.333 544.939C669.433 534.344 666.072 524.524 661.233 515.506L653.366 519.727ZM623.053 487.839C636.029 495.513 646.116 506.11 653.359 519.714L661.24 515.519C653.242 500.496 642.013 488.68 627.598 480.154L623.053 487.839ZM577.945 476.311C595.256 476.311 610.237 480.197 623.039 487.831L627.612 480.162C613.244 471.596 596.638 467.383 577.945 467.383V476.311ZM533.323 487.678C546.142 480.14 560.97 476.311 577.945 476.311V467.383C559.576 467.383 543.149 471.542 528.798 479.982L533.323 487.678ZM503.014 519.405C510.372 505.784 520.464 495.24 533.323 487.678L528.798 479.982C514.487 488.398 503.264 500.156 495.159 515.162L503.014 519.405ZM491.954 566.715C491.954 548.589 495.686 532.868 503.007 519.418L495.166 515.149C487.025 530.104 483.026 547.337 483.026 566.715H491.954ZM498.06 603.427C494.01 592.424 491.954 580.203 491.954 566.715H483.026C483.026 581.117 485.223 594.399 489.681 606.511L498.06 603.427ZM501.872 605.902C500.039 605.902 498.581 604.842 498.06 603.427L489.681 606.511C491.605 611.737 496.627 614.83 501.872 614.83V605.902ZM543.712 605.902H501.872V614.83H543.712V605.902ZM542.439 607.892C542.047 607.385 542.151 606.93 542.22 606.766C542.27 606.648 542.384 606.45 542.637 606.26C542.918 606.049 543.305 605.902 543.712 605.902V614.83C547.144 614.83 549.478 612.539 550.45 610.228C551.408 607.951 551.405 604.893 549.503 602.432L542.439 607.892ZM530.738 566.715C530.738 583.439 534.47 597.3 542.403 607.845L549.538 602.478C543.114 593.939 539.666 582.168 539.666 566.715H530.738ZM535.5 537.673C532.288 546.16 530.738 555.869 530.738 566.715H539.666C539.666 556.701 541.099 548.102 543.85 540.833L535.5 537.673ZM551.185 517.13C544.106 522.121 538.899 529.015 535.52 537.622L543.831 540.884C546.637 533.736 550.817 528.313 556.329 524.427L551.185 517.13ZM577.945 509.657C567.448 509.657 558.417 512.031 551.185 517.13L556.329 524.427C561.688 520.65 568.781 518.585 577.945 518.585V509.657ZM613.651 525.751C605.461 514.865 593.29 509.657 577.945 509.657V518.585C591.094 518.585 600.349 522.92 606.517 531.118L613.651 525.751ZM625.482 566.715C625.482 550.08 621.685 536.268 613.632 525.725L606.537 531.145C613.062 539.686 616.554 551.394 616.554 566.715H625.482ZM613.861 607.287C621.725 596.469 625.482 582.831 625.482 566.715H616.554C616.554 581.445 613.132 593.105 606.639 602.037L613.861 607.287ZM577.945 623.773C593.52 623.773 605.784 618.444 613.866 607.28L606.634 602.045C600.578 610.409 591.306 614.845 577.945 614.845V623.773ZM577.932 623.773H577.945V614.845H577.932V623.773ZM573.468 619.294V619.309H582.396V619.294H573.468ZM576.605 623.758H577.932V614.83H576.605V623.758ZM500.62 623.758H576.605V614.83H500.62V623.758ZM479.567 623.758H500.62V614.83H479.567V623.758ZM475.103 422.921V619.294H484.031V422.921H475.103ZM470.639 418.457C473.104 418.457 475.103 420.455 475.103 422.921H484.031C484.031 415.525 478.035 409.529 470.639 409.529V418.457ZM443.101 418.457H470.639V409.529H443.101V418.457ZM438.637 422.921C438.637 420.455 440.636 418.457 443.101 418.457V409.529C435.705 409.529 429.709 415.525 429.709 422.921H438.637ZM438.637 482.608V422.921H429.709V482.608H438.637ZM393.751 476.282C408.872 476.282 421.467 479.714 431.751 486.358L436.595 478.858C424.609 471.115 410.255 467.354 393.751 467.354V476.282ZM351.443 487.883C363.33 480.199 377.374 476.282 393.751 476.282V467.354C375.888 467.354 360.112 471.648 346.596 480.385L351.443 487.883ZM323.368 519.897C330.1 506.264 339.457 495.632 351.443 487.883L346.596 480.385C333.18 489.058 322.767 500.95 315.363 515.944L323.368 519.897ZM313.392 566.687C313.392 548.952 316.759 533.386 323.374 519.885L315.357 515.957C308.055 530.86 304.464 547.805 304.464 566.687H313.392ZM323.227 613.193C316.703 599.556 313.392 584.084 313.392 566.687H304.464C304.464 585.24 308.002 602.056 315.173 617.046L323.227 613.193ZM350.683 645.368C339.011 637.516 329.852 626.823 323.215 613.168L315.185 617.071C322.463 632.043 332.632 643.985 345.7 652.776L350.683 645.368ZM440.078 596.685C442.903 587.933 444.27 577.91 444.27 566.687H435.342C435.342 577.21 434.057 586.272 431.582 593.942L440.078 596.685ZM425.417 618.027C432.33 612.85 437.184 605.65 440.078 596.685L431.582 593.942C429.174 601.399 425.303 606.959 420.066 610.88L425.417 618.027ZM398.72 625.742C409.419 625.742 418.481 623.319 425.449 618.003L420.034 610.904C415.076 614.687 408.123 616.814 398.72 616.814V625.742ZM372.099 617.458C379.241 623.096 388.238 625.742 398.72 625.742V616.814C389.764 616.814 382.858 614.576 377.63 610.45L372.099 617.458ZM356.918 595.838C360.151 604.742 365.193 612.007 372.099 617.458L377.63 610.45C372.166 606.137 368.04 600.309 365.31 592.791L356.918 595.838ZM352.177 566.687C352.177 577.225 353.734 586.952 356.911 595.82L365.316 592.809C362.53 585.034 361.105 576.343 361.105 566.687H352.177ZM357.102 537.817C353.795 546.596 352.177 556.237 352.177 566.687H361.105C361.105 557.164 362.578 548.608 365.457 540.965L357.102 537.817ZM372.821 516.035C365.676 521.48 360.45 528.806 357.095 537.836L365.464 540.946C368.293 533.332 372.566 527.455 378.233 523.136L372.821 516.035ZM400.377 507.631C389.57 507.631 380.269 510.328 372.812 516.042L378.242 523.129C383.817 518.857 391.082 516.56 400.377 516.56V507.631ZM425.845 515.421C419.115 510.088 410.484 507.631 400.377 507.631V516.56C409.046 516.56 415.546 518.652 420.301 522.419L425.845 515.421ZM440.078 536.688C437.198 527.768 432.484 520.58 425.812 515.395L420.334 522.444C425.369 526.358 429.16 531.93 431.582 539.431L440.078 536.688ZM444.27 566.687C444.27 555.463 442.903 545.44 440.078 536.688L431.582 539.431C434.057 547.101 435.342 556.163 435.342 566.687H444.27Z" fill="#0E0C0A" mask="url(#path-4-outside-1_724_460)"/>
<path d="M864.148 723.798V705.029H871.656C872.994 705.029 874.076 705.299 874.901 705.837C875.727 706.367 876.331 707.037 876.713 707.845C877.095 708.653 877.286 709.469 877.286 710.295C877.286 711.346 877.047 712.22 876.57 712.915C876.1 713.61 875.453 714.075 874.628 714.309V713.658C875.801 713.901 876.678 714.444 877.26 715.287C877.851 716.13 878.147 717.072 878.147 718.115C878.147 719.236 877.938 720.222 877.521 721.074C877.113 721.925 876.487 722.594 875.644 723.081C874.801 723.559 873.741 723.798 872.464 723.798H864.148ZM867.746 720.461H872.099C872.577 720.461 873.003 720.361 873.376 720.161C873.75 719.953 874.041 719.666 874.25 719.301C874.467 718.928 874.575 718.489 874.575 717.985C874.575 717.542 874.484 717.146 874.302 716.799C874.119 716.451 873.841 716.177 873.468 715.978C873.103 715.769 872.646 715.665 872.099 715.665H867.746V720.461ZM867.746 712.354H871.604C872.003 712.354 872.36 712.285 872.672 712.146C872.985 712.007 873.233 711.794 873.415 711.507C873.598 711.212 873.689 710.834 873.689 710.373C873.689 709.8 873.511 709.317 873.155 708.926C872.798 708.535 872.281 708.34 871.604 708.34H867.746V712.354ZM887.151 723.798V716.16L880.739 705.029H884.884L888.95 712.094L893.017 705.029H897.161L890.749 716.16V723.798H887.151ZM908.371 723.798V705.029H911.551L917.755 717.49L923.959 705.029H927.14V723.798H923.829V712.589L918.381 723.798H917.13L911.682 712.589V723.798H908.371ZM941.46 724.189C939.583 724.189 937.962 723.78 936.598 722.964C935.243 722.147 934.196 721.004 933.457 719.536C932.727 718.067 932.362 716.36 932.362 714.414C932.362 712.467 932.727 710.76 933.457 709.291C934.196 707.823 935.243 706.68 936.598 705.864C937.962 705.047 939.583 704.638 941.46 704.638C943.337 704.638 944.953 705.047 946.308 705.864C947.672 706.68 948.719 707.823 949.449 709.291C950.188 710.76 950.557 712.467 950.557 714.414C950.557 716.36 950.188 718.067 949.449 719.536C948.719 721.004 947.672 722.147 946.308 722.964C944.953 723.78 943.337 724.189 941.46 724.189ZM941.46 720.852C942.65 720.87 943.641 720.613 944.431 720.083C945.222 719.553 945.813 718.802 946.204 717.828C946.604 716.855 946.803 715.717 946.803 714.414C946.803 713.11 946.604 711.981 946.204 711.025C945.813 710.069 945.222 709.326 944.431 708.796C943.641 708.266 942.65 707.992 941.46 707.975C940.269 707.958 939.279 708.214 938.488 708.744C937.697 709.274 937.102 710.026 936.702 710.999C936.311 711.972 936.116 713.11 936.116 714.414C936.116 715.717 936.311 716.847 936.702 717.802C937.102 718.758 937.697 719.501 938.488 720.031C939.279 720.561 940.269 720.835 941.46 720.852ZM955.766 723.798V705.029H963.69C963.873 705.029 964.116 705.038 964.42 705.055C964.733 705.064 965.011 705.09 965.254 705.134C966.375 705.307 967.292 705.677 968.004 706.241C968.725 706.806 969.256 707.519 969.594 708.379C969.933 709.231 970.103 710.182 970.103 711.233C970.103 712.806 969.712 714.153 968.93 715.274C968.148 716.386 966.922 717.072 965.254 717.333L963.69 717.437H959.311V723.798H955.766ZM966.349 723.798L962.647 716.16L966.297 715.456L970.363 723.798H966.349ZM959.311 714.127H963.534C963.716 714.127 963.916 714.118 964.133 714.101C964.351 714.083 964.55 714.049 964.733 713.997C965.211 713.866 965.58 713.649 965.841 713.345C966.101 713.032 966.28 712.689 966.375 712.315C966.479 711.933 966.531 711.572 966.531 711.233C966.531 710.895 966.479 710.538 966.375 710.165C966.28 709.782 966.101 709.439 965.841 709.135C965.58 708.822 965.211 708.601 964.733 708.47C964.55 708.418 964.351 708.383 964.133 708.366C963.916 708.349 963.716 708.34 963.534 708.34H959.311V714.127ZM983.656 724.189C982.474 724.189 981.349 723.98 980.28 723.563C979.211 723.137 978.264 722.512 977.439 721.686C976.622 720.861 975.974 719.84 975.497 718.623C975.027 717.407 974.793 716.004 974.793 714.414C974.793 712.337 975.188 710.573 975.979 709.122C976.778 707.662 977.847 706.55 979.185 705.785C980.532 705.021 982.022 704.638 983.656 704.638C986.071 704.638 987.97 705.199 989.351 706.32C990.733 707.441 991.658 709.026 992.127 711.077L988.504 711.598C988.165 710.503 987.609 709.63 986.836 708.979C986.071 708.318 985.089 707.984 983.89 707.975C982.7 707.958 981.709 708.214 980.919 708.744C980.128 709.274 979.533 710.026 979.133 710.999C978.742 711.972 978.546 713.11 978.546 714.414C978.546 715.717 978.742 716.847 979.133 717.802C979.533 718.758 980.128 719.501 980.919 720.031C981.709 720.561 982.7 720.835 983.89 720.852C984.698 720.87 985.428 720.731 986.08 720.435C986.74 720.14 987.296 719.675 987.748 719.041C988.2 718.406 988.522 717.594 988.713 716.603H985.741V713.866H992.492C992.51 713.979 992.523 714.179 992.532 714.466C992.54 714.752 992.545 714.918 992.545 714.961C992.545 716.76 992.18 718.354 991.45 719.744C990.72 721.135 989.69 722.225 988.361 723.016C987.031 723.798 985.463 724.189 983.656 724.189ZM995.951 723.798L1001.69 705.029H1006.98L1012.71 723.798H1009.06L1003.95 707.245H1004.63L999.6 723.798H995.951ZM999.392 719.888V716.577H1009.3V719.888H999.392ZM1017.66 723.798V705.029H1021.25L1029.41 717.542V705.029H1033.01V723.798H1029.41L1021.25 711.286V723.798H1017.66ZM1051.01 724.189C1049.52 724.189 1048.29 723.806 1047.31 723.042C1046.35 722.277 1045.66 721.243 1045.25 719.94L1048.75 719.106C1048.82 719.584 1049.08 720.001 1049.5 720.357C1049.93 720.704 1050.38 720.878 1050.86 720.878C1051.19 720.878 1051.54 720.787 1051.91 720.605C1052.3 720.422 1052.57 720.131 1052.73 719.731C1052.84 719.479 1052.9 719.171 1052.92 718.806C1052.93 718.441 1052.94 718.02 1052.94 717.542V705.029H1056.54V717.542C1056.54 718.141 1056.54 718.663 1056.53 719.106C1056.53 719.549 1056.48 719.966 1056.4 720.357C1056.32 720.739 1056.16 721.139 1055.91 721.556C1055.38 722.477 1054.69 723.146 1053.84 723.563C1052.99 723.98 1052.05 724.189 1051.01 724.189ZM1071.1 724.189C1069.23 724.189 1067.61 723.78 1066.24 722.964C1064.89 722.147 1063.84 721.004 1063.1 719.536C1062.37 718.067 1062.01 716.36 1062.01 714.414C1062.01 712.467 1062.37 710.76 1063.1 709.291C1063.84 707.823 1064.89 706.68 1066.24 705.864C1067.61 705.047 1069.23 704.638 1071.1 704.638C1072.98 704.638 1074.6 705.047 1075.95 705.864C1077.32 706.68 1078.36 707.823 1079.09 709.291C1079.83 710.76 1080.2 712.467 1080.2 714.414C1080.2 716.36 1079.83 718.067 1079.09 719.536C1078.36 721.004 1077.32 722.147 1075.95 722.964C1074.6 723.78 1072.98 724.189 1071.1 724.189ZM1071.1 720.852C1072.29 720.87 1073.28 720.613 1074.08 720.083C1074.87 719.553 1075.46 718.802 1075.85 717.828C1076.25 716.855 1076.45 715.717 1076.45 714.414C1076.45 713.11 1076.25 711.981 1075.85 711.025C1075.46 710.069 1074.87 709.326 1074.08 708.796C1073.28 708.266 1072.29 707.992 1071.1 707.975C1069.91 707.958 1068.92 708.214 1068.13 708.744C1067.34 709.274 1066.75 710.026 1066.35 710.999C1065.96 711.972 1065.76 713.11 1065.76 714.414C1065.76 715.717 1065.96 716.847 1066.35 717.802C1066.75 718.758 1067.34 719.501 1068.13 720.031C1068.92 720.561 1069.91 720.835 1071.1 720.852ZM1085.41 723.798V705.029H1089.01L1097.17 717.542V705.029H1100.76V723.798H1097.17L1089.01 711.286V723.798H1085.41ZM1107.01 723.798V705.029H1119.26V708.34H1110.55V712.354H1117.69V715.665H1110.55V720.487H1119.26V723.798H1107.01ZM1132.08 724.189C1130.69 724.189 1129.43 723.946 1128.31 723.459C1127.2 722.964 1126.28 722.26 1125.56 721.347C1124.85 720.426 1124.4 719.332 1124.21 718.063L1127.91 717.516C1128.17 718.593 1128.71 719.423 1129.52 720.005C1130.34 720.587 1131.27 720.878 1132.31 720.878C1132.9 720.878 1133.46 720.787 1134.01 720.605C1134.56 720.422 1135 720.153 1135.35 719.796C1135.71 719.44 1135.89 719.001 1135.89 718.48C1135.89 718.289 1135.85 718.106 1135.79 717.933C1135.74 717.75 1135.65 717.581 1135.52 717.424C1135.39 717.268 1135.2 717.12 1134.96 716.981C1134.73 716.842 1134.43 716.716 1134.06 716.603L1129.19 715.17C1128.82 715.065 1128.4 714.918 1127.91 714.726C1127.43 714.535 1126.97 714.262 1126.51 713.905C1126.06 713.549 1125.68 713.08 1125.38 712.498C1125.08 711.907 1124.94 711.164 1124.94 710.269C1124.94 709.009 1125.25 707.962 1125.89 707.128C1126.52 706.294 1127.37 705.672 1128.43 705.264C1129.49 704.856 1130.66 704.656 1131.95 704.664C1133.24 704.682 1134.4 704.903 1135.42 705.329C1136.43 705.755 1137.28 706.376 1137.97 707.193C1138.66 708.001 1139.15 708.992 1139.46 710.165L1135.62 710.816C1135.49 710.208 1135.23 709.695 1134.86 709.278C1134.48 708.861 1134.03 708.544 1133.51 708.327C1133 708.11 1132.46 707.992 1131.9 707.975C1131.34 707.958 1130.82 708.036 1130.32 708.21C1129.83 708.375 1129.43 708.618 1129.12 708.939C1128.82 709.261 1128.66 709.643 1128.66 710.086C1128.66 710.495 1128.79 710.829 1129.04 711.09C1129.29 711.342 1129.61 711.546 1129.99 711.703C1130.38 711.859 1130.77 711.989 1131.17 712.094L1134.43 712.98C1134.91 713.11 1135.45 713.284 1136.04 713.501C1136.63 713.71 1137.2 714.005 1137.74 714.388C1138.28 714.761 1138.73 715.256 1139.08 715.873C1139.43 716.49 1139.61 717.272 1139.61 718.219C1139.61 719.227 1139.4 720.109 1138.97 720.865C1138.56 721.612 1137.99 722.234 1137.28 722.729C1136.57 723.216 1135.76 723.581 1134.86 723.824C1133.96 724.067 1133.04 724.189 1132.08 724.189Z" fill="#E5793B"/>
</g>
<defs>
<filter id="filter0_d_724_460" x="400.721" y="-8.2728" width="1199.6" height="1199.6" filterUnits="userSpaceOnUse" color-interpolation-filters="sRGB">
<feFlood flood-opacity="0" result="BackgroundImageFix"/>
<feColorMatrix in="SourceAlpha" type="matrix" values="0 0 0 0 0 0 0 0 0 0 0 0 0 0 0 0 0 0 127 0" result="hardAlpha"/>
<feOffset/>
<feGaussianBlur stdDeviation="54.3068"/>
<feComposite in2="hardAlpha" operator="out"/>
<feColorMatrix type="matrix" values="0 0 0 0 0.898039 0 0 0 0 0.47451 0 0 0 0 0.231373 0 0 0 0.25 0"/>
<feBlend mode="normal" in2="BackgroundImageFix" result="effect1_dropShadow_724_460"/>
<feBlend mode="normal" in="SourceGraphic" in2="effect1_dropShadow_724_460" result="shape"/>
</filter>
<clipPath id="clip0_724_460">
<rect width="2011" height="1183" fill="white"/>
</clipPath>
</defs>
</svg>
